<?xml version="1.0" encoding="UTF-8"?>
<svg id="Layer_1" data-name="Layer 1" xmlns="http://www.w3.org/2000/svg" viewBox="0 0 536 592">
  <defs>
    <style>
      .cls-1 {
        fill: #961729;
      }

      .cls-1, .cls-2, .cls-3, .cls-4, .cls-5, .cls-6, .cls-7, .cls-8 {
        stroke-width: 0px;
      }

      .cls-2 {
        fill: #fff000;
      }

      .cls-3 {
        fill: #cfd1d2;
      }

      .cls-4 {
        fill: #f5921d;
      }

      .cls-5 {
        fill: #ff6e79;
      }

      .cls-6 {
        fill: #babcbe;
      }

      .cls-7 {
        fill: #fff;
      }

      .cls-8 {
        fill: #eb1c24;
      }
    </style>
  </defs>
  <g>
    <path class="cls-1" d="M262.32,440.23c-1.19,4-2.08,7.59-3.31,11.06-2.51,7.09-5.97,13.73-9.97,20.09-5.56,8.84-11.99,17.02-18.94,24.8-8.24,9.24-16.99,17.96-26.91,25.42-5.92,4.45-11.97,8.69-18.63,11.99-5.84,2.9-11.83,5.45-17.99,7.6-1.01.35-2.04.65-3.06.95-2.71.81-5.4.61-8.02-.36-1.64-.61-3.22-1.36-4.83-2.05-.71-.31-1.41-.63-2.33-1.04-.13.66-.31,1.18-.31,1.7.02,5.39-.69,10.68-2.35,15.81-3.84,11.88-11.18,21.03-21.71,27.64-4.98,3.12-10.33,5.43-16.07,6.77-7.57,1.77-15.09,1.36-22.5-.8-3.35-.98-6.66-2.17-9.9-3.49-6.7-2.73-12.2-7.17-17.16-12.36-8.37-8.75-13.49-19.18-16.21-30.89-1.84-7.93-2.55-15.92-2-24.05.39-5.73.92-11.44,1.9-17.11.92-5.29,2.3-10.45,4.21-15.46,4.46-11.71,10.41-22.61,17.88-32.68,5.63-7.59,12.48-13.88,20.35-19.06,5.54-3.65,11.58-5.91,18.22-6.51,5.08-.46,9.89.33,14.35,2.9.41.24.85.43,1.41.7.46-.54.9-1.04,1.31-1.55.79-.99,1.52-2.02,2.36-2.97,1.78-2.03,3.88-3.36,6.69-3.76,4.33-.62,8.13-2.6,11.5-5.37,4.45-3.67,8.42-7.8,11.84-12.46,8.13-11.08,14.25-23.18,18.27-36.33,3.21-10.52,6.01-21.14,8.11-31.94.28-1.42.46-2.85.67-4.17-.5-.64-.99-.37-1.43-.26-14.67,3.63-29,8.24-42.6,14.9-9.5,4.65-18.03,10.76-25.91,17.8-1.6,1.43-3.14,2.91-4.76,4.31-3.69,3.21-7.61,6.06-12.24,7.72-.97,2.27-1.9,4.51-2.88,6.72-3.59,8.11-13.45,17.92-26.11,19.33-1.93.21-3.86.49-5.8.53-3.12.06-5.91-1.08-8.43-2.85-.71-.5-1.32-1.15-1.88-1.81-.49-.59-.84-1.29-1.37-2.11-.59.14-1.22.29-1.85.44-.76.18-1.51.4-2.27.52-9.54,1.47-17.78-5.78-17.63-15.49.01-.78,0-1.55,0-2.53-3.18-1.87-5.39-4.72-6.64-8.33-1.22-3.52-1.44-7.03.12-10.56-.41-.43-.75-.76-1.08-1.11-3.64-3.9-4.39-9.03-1.9-13.76,2.09-3.95,4.98-7.18,8.89-9.44,4.34-2.51,9-4.17,13.92-5.05,6.15-1.1,12.35-1.62,18.59-.78.86.12,1.72.26,2.7.41.27-.4.58-.76.79-1.18.75-1.51,1.89-2.7,3.15-3.79,3.75-3.28,7.81-6.1,12.25-8.39,10.45-5.38,21.46-9.11,32.93-11.56,2.28-.49,4.59-.85,6.88-1.29.45-.09.89-.26,1.45-.43-.44-.95-1.25-1.06-1.89-1.37-8.07-3.81-15.4-8.7-21.79-14.97-8.73-8.57-14.84-18.71-18.43-30.37-2.96-9.64-4.64-19.49-4.35-29.61.07-2.43.3-4.86.67-7.26.4-2.6,1.11-5.15,2.94-7.34-.32-.71-.59-1.43-.96-2.08-3.15-5.49-6.23-11.01-9.48-16.43-13.39-22.26-26.88-44.47-40.25-66.74-5.46-9.09-10.76-18.28-16.08-27.45-1.32-2.27-2.45-4.65-3.62-7-.42-.85-.95-1.71-.79-2.86,1.12-.38,2.24-.27,3.37,0,5.87,1.36,11.76,2.66,17.62,4.08,21.44,5.22,42.87,10.52,64.32,15.72,12.76,3.09,25.55,6.01,38.33,9.05,2.36.56,4.68,1.28,7.28,1.99.6-.65,1.3-1.41,2-2.16-.14-1.27-.33-2.42-.39-3.58-.3-5.21.37-10.27,2.1-15.22,3.93-11.24,11.29-19.65,21.31-25.81,7.35-4.52,15.4-6.42,24.02-5.5,6.13.65,11.64,3.02,16.6,6.64,1,.73,1.84,1.67,2.86,2.62.73-.67,1.46-1.3,2.15-1.96,8.3-8.04,17.61-14.71,27.64-20.41,4.23-2.41,8.63-4.48,13.37-5.74,2.26-.61,4.55-1.12,6.91-.92,1.25.11,2.54.26,3.72.65,3.32,1.1,5.33,3.37,5.94,6.9.61,3.52.34,7-.39,10.44-.54,2.56-1.36,5.06-2.05,7.59-.12.45-.27.88-.47,1.53,1.26-.22,1.89-.98,2.64-1.53,3.88-2.84,8.07-5.06,12.69-6.42,3.87-1.14,7.8-1.62,11.82-1.19.77.08,1.56.22,2.33.18.55-.03,1.15-.21,1.61-.51.73-.47,1.38-1.08,2.02-1.67,5.25-4.92,10.45-9.91,15.75-14.78,13.24-12.2,26.5-24.38,39.81-36.5,5.11-4.65,10.38-9.12,15.58-13.67.5-.43,1.08-.77,1.77-1.25.37.58.84,1.01.93,1.5.2,1.04.28,2.12.27,3.19-.07,4.96-.22,9.92-.28,14.89-.27,19.76-.52,39.51-.8,59.27-.14,9.54-.35,19.07-.49,28.61-.06,4.18,0,8.37-.04,12.56-.02,2.23-.11,4.46-.17,6.68,6.8,6.8,12.15,14.63,16.48,23.2,1.89,3.73,3.72,7.49,5.5,11.28.99,2.11,1.8,4.3,2.7,6.46.22.52.45,1.04.7,1.59,1.35-.14,2.6-.32,3.85-.39,1.16-.06,2.33-.01,3.57-.01.36-.63.73-1.19,1.01-1.79,1.89-4.07,3.32-8.28,4.39-12.65,1.16-4.72,2.55-9.38,3.99-14.03,1.53-4.92,4.24-9.15,7.87-12.81,4.22-4.25,9.38-6.16,15.28-6.08,6.13.09,11.17,4.35,12.43,10.38,1.27,6.13.36,12.02-2.33,17.62-1.22,2.54-2.69,4.96-4.04,7.43-.23.42-.45.84-.63,1.18.28.75.82.57,1.27.57,1.36,0,2.73-.04,4.09,0,4.94.14,8.47,2.62,10.79,6.83,2.07,3.77,2.22,7.8,1.09,11.9-.31,1.12-.74,2.21-1.17,3.48.37.22.73.54,1.15.66,5.88,1.68,9.14,5.6,9.73,11.67.4,4.09-.41,7.97-2.19,11.61-3.78,7.7-9.35,13.82-16.67,18.32-2.43,1.49-5.09,2.41-7.9,2.89-.95.16-1.9.36-3.02.58-1.02,3.59-3.17,6.62-4.92,9.85-6.4,11.87-14.72,22.21-25.02,30.91-13.98,11.81-29.22,21.65-46,29.02-7.15,3.14-14.55,5.48-22.23,6.93-1.43.27-2.88.4-4.33.59-.45.67.09,1.09.44,1.51,2.66,3.23,5.41,6.39,7.99,9.68,4.56,5.82,9.1,11.66,13.47,17.62,3.54,4.82,3.42,4.9,5.04,9.92.9.04,1.86.09,2.82.11,16.29.38,32.12,3.08,47.24,9.35,1.89.78,3.81,1.49,5.69,2.27,5.24,2.19,10.21,4.8,14.28,9.19.5-.53,1-.95,1.35-1.47,5.98-8.87,13.33-16.48,21.4-23.42,10.28-8.84,22.09-14.45,35.48-16.62,7.09-1.15,14.17-1.12,21.11.99,8.08,2.46,14.65,7.03,19.55,14,5.48,7.8,8.04,16.51,8.82,25.92,1.18,14.33-1.8,27.87-7.34,40.96-4.42,10.44-9.97,20.25-16.7,29.37-5.29,7.17-11.49,13.43-18.54,18.91-8.2,6.38-16.99,11.66-26.73,15.34-9,3.4-18.32,4.57-27.83,3.66-6.21-.6-12.21-2.34-17.95-4.9-4.8-2.14-10.66-7.03-13.71-12.43-3.16-.18-6.2-1.21-9.28-2.11-7.47-2.2-14.86-4.6-22.16-7.33-9.32-3.48-19-5.68-28.71-7.73-11.26-2.38-22.63-3.78-34.14-4.09-11.16-.31-22.15.9-33.01,3.37-4.17.95-8.31,2.03-12.45,3.08-1.03.26-2.02.64-2.9.93ZM321.72,351.96c.7-.69,1.18-1.29,1.77-1.74,1.8-1.37,3.86-2.25,5.98-2.99,5.07-1.76,10.24-3.08,15.59-3.65.72-.08,1.6.1,2.07-.91-3.69-7.62-7.24-15.39-12.42-22.19-.37.11-.59.11-.71.22-2.31,2.08-5.11,3.16-8.04,3.94-3.74,1-7.51,1.17-11.23,0-5.96-1.88-9.94-5.89-12.2-11.67-.34-.87-.63-1.76-.98-2.77-1.08.43-1.97.78-2.86,1.14-4.16,1.64-8.28,3.4-12.49,4.9-11.46,4.1-23.2,7.22-35.04,9.97-12.15,2.83-24.43,4.76-36.89,5.44-1.73.09-3.46.13-5.4.2-.46,3.19-1.61,6.05-3.26,8.72-1.66,2.68-3.77,4.94-6.15,6.97-2.46,2.09-5.16,3.8-8.04,5.27-2.78,1.42-5.78,2.14-8.85,2.83-.33,1.85-.64,3.56-.95,5.28-1.29,7.09-2.68,14.15-5,20.99-3.87,11.38-8.99,22.15-15.87,32.06-5.76,8.29-12.81,15.11-21.61,20.09-3.85,2.18-7.93,3.68-12.3,4.39-.55.09-1.08.31-1.64.48-.28,1.04-.52,1.98-.77,2.91-1.74,6.61-2.77,13.31-3.18,20.14-.47,7.75.23,15.36,2.13,22.86,1.86,7.31,4.65,14.23,8.75,20.6,7.16,11.1,17.09,19.02,28.73,25.09,2.62-.87,5.29-1.75,7.96-2.64,8.08-2.69,15.67-6.36,22.74-11.12,8.1-5.45,15.57-11.67,22.61-18.41,10.85-10.39,20.97-21.41,29.45-33.86,4-5.88,7.77-11.9,10.72-18.38,2.3-5.04,4.46-10.15,5.24-15.71.04-.3.42-.72.69-.77.31-.05.76.18.99.44.74.83.93,1.89,1.06,2.97.11.93-.09,1.92.46,2.97.55-.21.98-.36,1.4-.53,1.35-.56,2.66-1.22,4.04-1.66,7.78-2.52,15.68-4.57,23.73-6.03,8.26-1.5,16.61-2.03,24.98-2.23,3.79-.09,7.59-.04,11.38.14,7,.32,13.97,1.02,20.9,2.09,6.63,1.03,13.25,2.15,19.75,3.85,7.83,2.05,15.38,4.91,22.85,7.98,2.34.96,4.68,1.92,6.99,2.94,1.19.52,2.13.17,2.84-.74.53-.67.94-1.48,1.24-2.29.6-1.66.81-3.38.82-5.16.09-8.97.97-17.86,2.74-26.67,2.05-10.18,5.24-19.93,10.5-28.94.34-.59.69-1.18.96-1.8.69-1.63.6-3.25-.38-4.73-.48-.72-1.05-1.43-1.71-1.98-3.28-2.74-6.51-5.58-10.24-7.72-5.76-3.3-11.77-6.04-18.18-7.82-8.36-2.32-16.87-3.83-25.5-4.74-7.46-.79-14.94-1.24-22.43-.49-5.13.51-10.27.96-15.16,2.8-.45.17-.95.3-1.42.28-.31-.01-.61-.31-1.13-.61ZM233.85,255.79c.67-9.02-.16-17.07-.5-25.13,0-.1-.02-.19-.03-.29-.53-4.64-1.06-9.28-1.6-13.91-.55-4.63-.96-9.29-1.71-13.89-1.07-6.52-2.4-13.01-4.15-19.39-2.45-8.93-5.79-17.54-9.5-26.01-3.37-7.7-7.92-14.72-12.77-21.55-.79-1.11-1.59-2.21-2.48-3.24-3.24-3.77-6.77-7.22-10.68-10.32-4.39-3.48-9.21-6.09-14.52-7.88-3.08-1.04-6.26-1.42-9.45-1.72-4.49-.43-8.96-.07-13.23,1.52-6.9,2.57-12.67,6.75-17.28,12.49-4.23,5.27-7.54,11.1-9.88,17.43-2.47,6.67-4.33,13.49-5.35,20.56-.87,5.98-1.52,11.97-1.59,18-.14,11.59.52,23.13,2.44,34.59,1.22,7.29,2.72,14.53,4.74,21.64,2.15,7.58,4.88,14.97,8.19,22.12,2.33,5.04,4.98,9.91,8.1,14.5,3.67,5.4,7.91,10.34,12.46,15.03,4.71,4.86,10.01,8.94,15.95,12.17,7.37,4,15.17,6.5,23.65,6.51,3.42,0,6.83-.26,10.08-1.33,7.64-2.5,13.69-7.22,18.46-13.64,2.87-3.86,4.71-8.27,6.7-12.6,2.47-5.38,3.52-11.08,3.66-16.98.08-3.21.21-6.42.28-8.69ZM234.71,281.78c3.46,4.17,7.98,6.47,13.27,7,4.18.42,8.36-.2,12.41-1.36,6.21-1.78,12.02-4.45,17.37-8.1,3.7-2.52,6.63-5.68,8.67-9.67,1.99-3.9,3.79-7.88,5.12-12.07,4.85-15.2,6.56-30.78,5.51-46.67-.86-13.03-2.83-25.9-5.64-38.65-2.95-13.35-7.23-26.23-13.39-38.47-2.72-5.4-5.77-10.58-9.37-15.45-6.3-8.54-14.21-15.13-23.79-19.72-7.94-3.8-16.1-4.18-24.41-1.55-2.86.9-5.65,2.11-8.34,3.44-4.96,2.45-9.11,5.95-12.32,10.48-2.31,3.27-3.41,6.93-3.38,10.89,1.99,2.12,4.01,4.09,5.83,6.23,1.83,2.14,3.45,4.46,5.18,6.68,1.72,2.21,2.85,4.84,4.76,6.94.93-1.49,1.69-2.97,2.69-4.25,1.71-2.19,4.06-3.57,6.53-4.79,5.49-2.72,10.72-2.19,15.74,1.14,2.44,1.62,4.66,3.54,6.5,5.82,2.19,2.72,4.34,5.49,6.33,8.37,3.95,5.71,6.78,12.01,9.52,18.36,5.4,12.51,8.75,25.55,10.17,39.09,1.04,9.89.92,19.82.49,29.74-.23,5.17-1.13,10.24-2.61,15.2-.75,2.53-1.63,5.02-3.04,7.24-4.6,7.29-11.05,11.08-19.84,10.04-1.9-.23-3.73-1.01-5.6-1.53-.53-.15-1.08-.25-1.74-.39-.17,2.79-.14,5.43-.56,7.99-.42,2.57-1.3,5.07-2.09,8ZM278.34,125.92c.39-1.09.67-1.92.98-2.73,1.71-4.45,4.19-8.33,8.19-11.1,4.73-3.28,9.72-3.75,14.9-1.24,1.74.84,3.37,1.95,4.93,3.09,4.46,3.28,7.8,7.6,10.76,12.19,5.37,8.31,9.32,17.28,11.8,26.88.97,3.77,1.86,7.55,2.71,11.35,1.54,6.94,2.74,13.92,3.34,21.02.43,5.16.37,10.31.29,15.46-.11,6.64-.98,13.18-2.5,19.65-1.08,4.61-2.95,8.83-5.6,12.75-2.23,3.3-5.12,5.81-8.52,7.83-4.47,2.66-9.05,2.61-13.72.65-.89-.38-1.74-.87-2.61-1.3-.41-.2-.84-.37-1.43-.63-.18.63-.36,1.07-.42,1.52-.9,6.86-2.36,13.61-4.4,20.22-.52,1.69-.17,2.84,1.07,3.85.67.55,1.42,1.02,2.19,1.43,3.66,1.95,7.56,2.44,11.61,1.8,4.35-.68,8.47-2.21,12.52-3.86,8.62-3.51,15.96-8.71,22-15.9,4.83-5.75,7.99-12.19,9.63-19.4,2.3-10.09,3.5-20.33,3.62-30.67.12-10.45-1.1-20.79-3.13-31.02-2.41-12.15-6.07-23.93-10.78-35.39-5.19-12.63-12.33-24.04-21.18-34.4-4.31-5.05-9.05-9.66-14.25-13.79-5.61-4.45-11.75-7.96-18.63-10.07-3.46-1.06-6.97-1.76-10.62-1.66-5.85.17-10.98,2.34-15.73,5.58-4.12,2.82-7.75,6.2-10.89,10.08-1.85,2.29-4.45,6.35-5.36,8.49.86.54,1.74,1.12,2.65,1.67,6.99,4.21,13.08,9.47,18.1,15.91,2.45,3.14,4.66,6.47,6.98,9.71.44.61.9,1.21,1.5,2.02ZM129.02,127.76c-1.61-.43-3.01-.8-4.41-1.19-14.61-4.08-29.19-8.23-43.82-12.22-24.57-6.71-49.17-13.31-73.76-19.95-.3-.08-.64.02-1.19.05.36.55.55.88.77,1.19,3.82,5.28,7.8,10.45,11.44,15.86,21.55,32.06,42.62,64.43,63.62,96.85.48.73.9,1.51,1.43,2.2,1.12,1.47,2.87,1.86,4.35.8,2.05-1.47,4.13-2.96,5.93-4.71,8.56-8.35,15.9-17.61,20.81-28.63.52-1.18.86-2.35.97-3.63.55-6.7,1.54-13.32,3.08-19.87,1.99-8.48,4.89-16.59,9.35-24.11.49-.82.91-1.68,1.44-2.64ZM291.32,275.42c2.15,3.58,3.93,7.27,5.09,11.18,2.13,7.16,4.61,14.23,5.84,21.71,1.13.18,1.73,1.04,2.28,1.99.92,1.6,1.78,3.25,2.85,4.75,2.65,3.69,6.23,5.75,10.87,5.83,2.58.04,5.04-.39,7.38-1.43,2.11-.94,4.18-1.95,6.02-3.47-.38-.61-.67-1.11-1.01-1.58-6.7-9.2-13.41-18.39-21.32-26.63-.47-.49-.85-1.05-1.23-1.61-.07-.1.03-.38.14-.51.11-.13.35-.27.49-.23.46.13.95.26,1.32.54,1.62,1.23,3.32,2.4,4.78,3.81,2.73,2.63,5.41,5.32,7.93,8.15,1.27,1.42,2.74,2.17,4.51,2.36,1.34.14,2.72.1,4.07-.03,2.43-.24,4.73-1.05,7.01-1.9,17.63-6.57,33.85-15.62,48.75-27.12,8.84-6.82,16.67-14.61,23.41-23.49,4.24-5.59,8.14-11.4,11.07-17.8.4-.87.71-1.77,1.03-2.59-.22-.2-.27-.3-.35-.31-.47-.1-.95-.2-1.42-.25-11.36-1.23-21.7-5.14-30.97-11.84-.36-.26-.81-.41-1.26-.64-.28.46-.51.78-.67,1.13-1.9,3.97-4.34,7.59-7,11.08-5.22,6.82-11.05,13.07-17.43,18.81-3.62,3.26-7.42,6.29-11.57,8.86-1.1.68-2,1.49-2.73,2.56-4.71,6.91-10.96,12.06-18.36,15.86-7.6,3.9-15.59,5.94-24.2,5.08-4.61-.46-9.01-1.51-12.91-4.13-.29-.2-.66-.3-1.11-.5-.47.87-.88,1.61-1.31,2.39ZM524.67,369.42c-.26-3.2-.59-6.39-.77-9.59-.11-2.07-1.17-3.44-2.79-4.51-1.58-1.04-3.34-1.55-5.21-1.7-2.88-.24-5.61.34-8.25,1.43-3.45,1.42-6.52,3.46-9.43,5.75-5.29,4.17-10.09,8.86-14.35,14.08-12.5,15.32-21.91,32.31-27.6,51.31-1.97,6.57-3.04,13.26-3.04,20.12,0,2.66.45,5.23,1.42,7.7,1.32,3.33,4.46,4.75,7.78,3.54,14.15-5.13,26.02-13.44,35.37-25.28,1.2-1.53,2.39-3.07,3.52-4.66,5.84-8.17,10.89-16.81,15.2-25.88,1.84-3.87,3.41-7.85,4.67-11.95,2.04-6.63,3.55-13.35,3.48-20.36ZM65.57,337.01c2.11,10.64,13.01,24.75,24.24,30.06.5-.34,1.06-.71,1.62-1.08,4.23-2.77,8.45-5.56,12.69-8.3,2.86-1.85,5.8-3.57,8.63-5.45,6.42-4.25,13.04-8.1,20.08-11.24,14.78-6.6,30.29-10.47,46.31-12.35,4.14-.49,8.34-.7,12.52-.2.35.04.79.02.79.58-.06.08-.1.2-.18.23-.53.23-1.08.42-1.61.66-3.35,1.5-5.47,3.98-5.89,7.69-.33,2.9-.56,5.81-.79,8.71-.04.52.11,1.06.19,1.71,3.99-.61,7.53-1.92,10.82-3.85,4.69-2.75,8.06-6.64,10.03-11.75.62-1.62,1.44-3.17,2.15-4.76.16-.35.3-.73.33-1.1.28-2.9.54-5.81.77-8.72.03-.42-.19-.86-.3-1.3-2.43.7-4.63,1.45-6.88,1.95-5.42,1.23-10.94,1.65-16.49,1.83-6.8.22-13.09-1.39-19.04-4.56-2.17-1.16-4.07-2.62-5.55-4.63-.97-1.32-2.05-2.56-3.14-3.91-2.78.35-5.47.72-8.16,1.03-7.48.86-14.94.98-22.35-.62-1.36-.29-2.68-.25-4.03.09-3.58.91-7.19,1.68-10.75,2.65-11.52,3.14-22.34,7.86-32.37,14.41-5.1,3.33-9.31,7.63-13.54,11.93-.06.06-.07.18-.1.27ZM294.15,70.18c.79.33,1.56.67,2.34.98,6.53,2.62,12.76,5.76,18.27,10.19,6.4,5.14,12.14,10.93,17.26,17.34,5.66,7.09,10.73,14.56,14.72,22.73.6,1.22,1.45,1.98,2.66,2.52,2.41,1.06,4.89,1.91,7.49,2.36.55.09,1.14.27,1.62-.21.56-4.31,4.18-117.58,4.06-120.99,0-.15-.18-.29-.28-.43-.09-.02-.22-.09-.26-.06-22.46,21.94-45.22,43.57-67.88,65.58ZM73.81,216.09c-.36,1.32-.66,2.23-.86,3.17-.89,4.14-.83,8.33-.39,12.49,1.13,10.75,4.18,21.01,9.37,30.46,9.89,18.03,25.13,29.28,45.01,34.3,4.72,1.19,9.51,2.01,14.37,2.33,3.95.25,6.41-2.95,5.1-6.68-.48-1.36-1.22-2.65-2.02-3.86-2.19-3.33-4.54-6.55-6.71-9.89-3.67-5.62-6.77-11.55-9.34-17.77-2.56-6.21-4.73-12.53-6.52-19-2.22-8.07-3.82-16.25-5.04-24.52-.61-4.13-1.09-8.28-1.58-12.43-.21-1.77-.76-3.41-1.72-4.91-1.38-2.17-3.08-2.75-5.49-1.89-1.5.54-2.65,1.47-3.63,2.77-3.57,4.78-7.72,9-12.56,12.51-2.7,1.95-5.6,3.51-8.82,4.4-3.09.86-6.13,1.15-9.17-1.51ZM114.51,438.77c-4.05,1.1-7.28,2.6-10.27,4.64-4.64,3.16-8.5,7.1-11.75,11.65-7.34,10.24-12.4,21.54-15.39,33.76-1.53,6.25-2.12,12.64-2.57,19.06-.7,9.96-.2,19.82,2.01,29.58,1.03,4.56,2.08,9.1,3.98,13.4.21.47.58.86.92,1.35.38-.33.63-.49.81-.71,3.49-4.38,8.06-7.26,13.12-9.44.71-.31,1.44-.59,2.19-.78,5.95-1.53,11.94-1.68,17.89-.13,9.17,2.4,16.11,7.56,19.76,16.58.16.4.39.77.62,1.23,2.36-2.65,4.76-7.76,5.27-11.23-1.75-1.65-3.59-3.38-5.43-5.11-2.78-2.6-5.42-5.31-7.63-8.42-7.89-11.05-13.49-23.14-16.5-36.42-1.32-5.81-1.74-11.73-2.25-17.63-.24-2.81-.5-5.63-.47-8.45.13-10.56,1.24-20.97,5.25-30.88.2-.49.23-1.05.43-2.05ZM27.09,374.09c.24-.18.52-.31.7-.52,2.73-3.2,6.29-5.15,10.1-6.72.89-.37,1.84-.64,2.78-.85,1.09-.24,1.99.08,2.01.64.03.84-.68,1.09-1.24,1.46-2.25,1.52-4.56,2.97-6.73,4.6-3.96,2.97-5.45,8.62-3.95,13.71,1.86,6.3,9.52,9.14,14.89,6.21.94-.51,1.86-1.06,2.72-1.7,1.33-.98,2.56-2.09,3.89-3.06,1.56-1.15,3.15-2.27,4.79-3.3,1.29-.81,2.77-.93,4.23-.53,1.03.28,2.03.7,2.67,1.65.39.57.07,1.53-.6,1.63-.57.09-1.17,0-1.73.11-.84.17-1.82.24-2.47.71-2.44,1.76-4.87,3.56-7.13,5.54-1.64,1.44-1.42,3.44.3,4.75,1.8,1.37,3.81,2.29,6.09,2.61,2.91.4,5.63-.21,8.19-1.5,4.64-2.33,8.85-5.28,12.35-9.15,1.97-2.17,3.67-4.54,4.8-7.26.78-1.88,1.39-3.8,1.38-5.92-1.05-.52-2-.99-2.95-1.45-3.12-1.49-5.73-3.62-8.06-6.16-6.54-7.17-10.95-15.54-13.84-24.74-.96-3.06-1.68-6.19-1.91-9.41-.03-.35-.26-.69-.4-1.07-1.43-.14-2.78-.32-4.14-.41-7.35-.51-14.55.31-21.57,2.6-2.41.79-4.71,1.82-6.86,3.17-3.32,2.08-5.65,5.02-7.25,8.55-.89,1.97-.95,3.97.32,5.84.84,1.24,2.67,2.16,4.25.76,1.9-1.68,4.13-2.93,6.47-3.9,1.15-.48,2.4-.73,3.63-1,.29-.06.65.2,1.03.32-.14,1.07-.87,1.42-1.47,1.86-2.44,1.79-4.74,3.74-6.63,6.12-3.13,3.94-3.48,9.35-.93,13.68.54.92,1.14,1.81,2.29,2.13ZM522.17,352.98c-.18-.86-.22-1.42-.41-1.92-1.15-3.02-2.8-5.76-4.55-8.46-.87-1.34-2.04-2.02-3.54-2.29-7.37-1.32-14.53-.86-21.36,2.47-3.68,1.8-7.15,3.94-10.48,6.33-6.36,4.56-12.01,9.91-17.17,15.76-15.64,17.72-26.04,38.13-31.35,61.16-1.28,5.53-1.94,11.11-2.12,16.77-.12,3.81.14,7.59,1.27,11.26,1.49,4.82,2.32,4.74,6.43,5.61,1.67.35,3.3,0,4.88-.53.45-.15.89-.4,1.29-.67,1.07-.75,1.75-1.6,1.25-3.2-.9-2.9-1.1-5.92-.96-8.96.35-7.84,1.94-15.4,4.7-22.76,5.13-13.67,12.06-26.34,20.57-38.17,5.58-7.76,11.68-15.08,18.78-21.51,3.54-3.2,7.26-6.18,11.33-8.69,3.17-1.95,6.49-3.53,10.19-4.19,3.25-.58,6.39-.28,9.4,1.15.5.24,1,.47,1.84.85ZM111.06,437.4c-2.64-1.36-5.02-1.5-7.47-1.21-4.92.58-9.44,2.29-13.55,5.04-7.01,4.7-13.22,10.29-18.08,17.22-7.59,10.81-13.59,22.47-17.65,35.06-3.4,10.55-4.77,21.43-4.86,32.49-.04,4.59.47,9.13,1.4,13.62,2.34,11.36,7.36,21.27,15.79,29.34,3.54,3.39,7.45,6.25,11.99,8.17,3.96,1.67,8.06,2.85,12.31,3.54.41.07.84-.02,1.72-.05-.71-.62-1.04-.95-1.41-1.23-6.12-4.72-10.71-10.65-14.18-17.55-5.16-10.24-7.6-21.19-8.75-32.49-.58-5.73-.42-11.47.05-17.2.53-6.4,1.26-12.78,2.6-19.07,3.13-14.72,9.56-27.91,18.73-39.78,1.66-2.15,3.48-4.2,5.43-6.1,4.08-3.98,8.69-7.18,14.16-9,.45-.15.87-.39,1.77-.79ZM463.56,359.84c-.98-2.27-1.94-4.39-2.81-6.55-.84-2.09-1.3-4.3-1.35-6.54-.06-2.29.08-4.59.13-7.06-1.3.33-2.17,1.13-3.07,1.82-7.12,5.48-13.7,11.53-19.24,18.63-5.4,6.9-10.39,14.1-14.78,21.69-1.8,3.11-3.47,6.31-4.97,9.57-4.3,9.34-6.94,19.18-8.68,29.28-.59,3.45-1.33,6.9-1.2,10.42.15,3.98.42,7.96.75,11.94.1,1.13.4,2.36.97,3.31,2.45,4.06,5.6,7.46,9.79,9.8,1.72.96,3.55,1.62,5.55,1.56.53-.01,1.04-.25,1.58-.38-.37-2.09-.82-3.99-1.03-5.91-.78-7.11-.45-14.2.94-21.2,2.17-10.93,5.81-21.37,10.81-31.34,6.93-13.81,15.16-26.73,25.81-38,.33-.35.59-.76.79-1.02ZM237.73,259.8c3.41,1.23,6.6,1.48,9.81.92,2.59-.46,5.02-1.46,7.39-2.63,3.08-1.53,5.31-3.86,6.88-6.89,2.53-4.9,4.07-10.13,4.48-15.59.86-11.64,1.22-23.29-.44-34.92-1.21-8.49-3.02-16.82-5.71-24.96-.13-.38-.37-.73-.71-1.41-.62,1.46-.53,2.64-.68,3.77-.48,3.62-1.61,7-3.78,9.98-2.19,3.01-5.13,4.31-8.86,3.89-2.58-.29-4.88-1.26-7-2.69-3.49-2.35-6.6-5.12-9.12-8.52-.55-.74-.9-1.71-1.97-2.08.02.34,0,.63.07.9,1.18,5.11,2.49,10.19,3.53,15.33.84,4.18,1.44,8.42,1.98,12.66.42,3.27.6,6.58,1.45,9.79.22.84.31,1.72.4,2.59.52,5.12,1.09,10.24,1.52,15.38.46,5.52.86,11.05.7,16.6-.06,1.94-.07,3.89-.07,5.83,0,.66.1,1.32.17,2.06ZM293.2,159.47c.16.98.2,1.43.31,1.86.64,2.44,1.32,4.88,1.95,7.33,2.26,8.77,3.81,17.67,5.13,26.62,1.43,9.73,2.23,19.52,1.94,29.37-.06,2.14,0,4.29-.18,6.42-.12,1.52.37,2.65,1.5,3.58.68.55,1.32,1.16,2.06,1.62,3.32,2.11,6.77,2.41,10.18.34,1.73-1.05,3.51-2.21,4.85-3.69,3.61-4,6.61-8.44,7.87-13.79.8-3.4,1.52-6.84,2.06-10.29,1.21-7.8,1.63-15.66,1.13-23.55-.54-8.55-1.84-17.01-3.32-25.44-.79-4.5-1.84-8.95-3.41-13.26-.18-.5-.23-1.17-1.1-1.24.06,1.18.13,2.34.18,3.5.27,5.81-1.1,11.22-4.28,16.08-2.7,4.14-6.54,6.32-11.6,5.82-2.68-.27-5.03-1.45-7.15-3.06-2.33-1.78-4.33-3.9-6.21-6.14-.48-.58-1.02-1.12-1.89-2.07ZM430.49,198.92c-.44,1.12-.91,2.09-1.21,3.11-.98,3.33.6,6.26,3.93,7.32,1.98.63,3.99.75,6.04.23,2.99-.76,5.61-2.17,7.82-4.33.97-.95,1.86-1.99,2.81-2.97.37-.38.82-.7,1.25-1.05.45.64.22,1.09-.08,1.47-1.46,1.82-2.76,3.81-4.45,5.38-3.74,3.48-8.16,5.22-13.38,4.17-4.7-.95-9.35-3.95-9.92-9.64-.02-.18-.14-.36-.16-.43-1.37-.9-2.78-1.61-3.93-2.62-1.21-1.07-2.17-2.42-3.28-3.71-.33.17-.68.33-1.01.54-1.66,1.05-3.46,1.76-5.39,2.16-3.91.81-7.54.18-10.84-2.12-1.47-1.03-2.63-2.33-3.15-4.08-.55-1.85.66-3.06,2.55-2.55,2.06.55,4.1,1.22,6.18,1.72,2.67.65,5.41.74,8.12.29,4.07-.68,6.26-4.47,4.78-8.32-.48-1.25-1.22-2.44-2.07-3.48-1.73-2.14-3.9-3.79-6.37-5.02-3.17-1.56-6.54-2.55-10.03-2.93-2.1-.23-4.32-.24-6.38.16-8.94,1.73-14.4,10.29-12.51,19.31.91,4.36,2.73,8.28,5.54,11.76,2.84,3.52,6.13,6.51,10,8.86,8.3,5.04,17.27,8.09,26.99,8.45,9.9.37,18.83-2.31,26.21-9.3,4.24-4.02,6.97-8.79,7.92-14.59.57-3.47-.36-6.55-2.15-9.44-.73-1.17-1.79-2.03-3.04-2.66-.82-.41-1.63-.63-2.08-.36-2.38,3.01-4.4,5.75-6.62,8.32-2.75,3.18-6.2,5.28-10.41,5.99-.48.08-.94.21-1.67.37ZM420.85,167.85c.44-.67.68-1.17,1.05-1.55,4-4.16,7.58-8.61,10.2-13.79.44-.87.99-1.67,1.5-2.51,1.67-2.77,2.89-5.73,3.62-8.88.7-3.02.64-6-.67-8.86-1.84-4-4.96-6.22-9.4-6.2-3.91.02-7.44,1.2-10.44,3.86-3.96,3.52-6.76,7.8-8.34,12.81-1.37,4.36-2.57,8.78-3.61,13.22-1.05,4.48-2.17,8.88-4.76,12.77-.1.14-.06.37-.12.73,1.27.32,2.59.6,3.86.98,1.39.42,2.78.88,4.13,1.43,1.26.51,2.51,1.08,3.66,1.79,1.24.76,2.35,1.72,3.52,2.59,1.05.78,1.69,2.05,2.94,2.77.71-1.04,1.29-1.93,1.91-2.8,1.71-2.39,3.68-4.53,6.15-6.16.49-.33,1.02-.61,1.66.11-.31.62-.62,1.32-.99,1.98-1.67,2.96-3.32,5.94-5.07,8.86-.99,1.65-1.56,3.31-1.24,5.24.09.56.07,1.19-.08,1.74-.38,1.48.33,2.44,1.4,3.24,3.28,2.48,6.97,3.35,11.01,2.61,3.11-.57,5.52-2.38,7.56-4.67,3.09-3.45,5.28-7.45,6.82-11.81,1.54-4.39.65-8.47-1.87-12.21-1.86-2.76-4.41-4.27-7.93-3.87-2.76.31-5.34.97-7.67,2.53-1.54,1.03-3.1,2.01-4.7,2.93-1.15.66-2.36,1.29-4.11,1.09ZM350.99,130.63c.19.64.3,1.11.46,1.56,5.63,15.51,9.74,31.38,11.45,47.83,1.04,9.98,1.74,19.97.78,30-.31,3.2-.64,6.39-.99,9.58-1,9.04-2.93,17.84-6.69,26.18-.17.38-.18.84-.31,1.49,10.78-8.57,22.14-23.91,26.8-39.25-.55-.73-1.13-1.5-1.71-2.28-2.51-3.41-4.36-7.11-5.32-11.26-1.98-8.59.27-15.75,7.04-21.45.51-.43.98-.89,1.52-1.38-4.36-15.85-12.26-29.63-22.71-41.96-1.78.34-3.38.77-5.01.92-1.71.15-3.45.03-5.31.03ZM244.78,94.19c3.87-5.46,7.18-11.05,10.16-16.84,2.12-4.11,3.41-8.48,4.19-12.98.31-1.79.23-3.69.1-5.52-.18-2.57-1.68-4.32-4-5.29-1.06-.44-2.24-.65-3.39-.78-2.45-.29-4.84.18-7.19.85-4.34,1.25-8.3,3.28-12.06,5.74-11.63,7.61-21.96,16.68-30.98,27.26-4.93,5.79-8.32,12.4-10.49,19.65-.12.39-.41.9.34,1.29.97-.87,2-1.74,2.98-2.67,3.05-2.92,6.55-5.19,10.32-7.03,4.2-2.05,8.54-3.75,13.02-5.07,6.56-1.93,13.21-2.21,19.89-.78,2.35.51,4.62,1.39,7.11,2.16ZM321.07,147.96c-.01-4.56-1.07-9.6-2.58-14.55-.31-1.01-.77-2-1.31-2.91-2.44-4.12-5.46-7.82-8.72-11.3-2.14-2.28-4.6-4.19-7.38-5.66-1.58-.84-3.22-1.29-5.03-1.28-2.66.02-4.92.99-6.96,2.61-4.11,3.26-6.51,7.64-8.36,12.44-.55,1.42-.37,2.54.28,3.86,2.41,4.88,4.78,9.79,7.02,14.75,3.37,7.47,8.57,13.39,15.04,18.28,1.33,1,2.82,1.7,4.44,2.16,1.75.5,3.44.45,5.15-.16,3.77-1.35,6.14-4.01,7.31-7.77.99-3.19,1.25-6.48,1.1-10.46ZM213.51,144.28c.28.54.5.97.74,1.39,2.36,4.25,4.6,8.56,6.41,13.08,1.22,3.07,2.35,6.17,3.58,9.24.47,1.16.98,2.35,1.7,3.37,1.79,2.54,3.64,5.04,5.58,7.47,2.59,3.24,5.9,5.62,9.56,7.52,1.03.54,2.12.99,3.24,1.28,4.27,1.11,7.1-.15,9.25-4.03.33-.59.64-1.21.86-1.85,1.16-3.35,1.69-6.79,1.2-10.33-.82-5.91-2.31-11.6-5.32-16.83-1.26-2.19-2.34-4.48-3.55-6.7-2.6-4.79-6.22-8.67-10.68-11.76-1.03-.71-2.19-1.27-3.35-1.74-2.92-1.2-5.9-1.22-8.78.09-1.76.8-3.46,1.77-5.09,2.81-2.53,1.62-4.32,3.87-5.35,6.96ZM228.72,325.47c1.55.27,2.99.08,4.43-.11,3.47-.46,6.94-.94,10.4-1.48,12.22-1.91,24.26-4.59,36.07-8.25.52-.16.99-.48,1.48-.72-.08-1.9-.12-3.65-.24-5.39-.33-4.96-1.01-9.87-2.35-14.67-.15-.52-.45-1-.68-1.48-.34.09-.55.11-.7.2-5.87,3.53-12.17,6.02-18.7,8.06-6.15,1.91-12.35,2.6-18.71,1.65-4.27-.64-8.39-1.71-11.81-4.59-.28-.23-.65-.37-1.08-.61-1.02,1.25-2.16,2.3-2.81,3.75,3.04,7.51,4.62,15.27,4.72,23.62ZM133.85,562.18c-2.82-5.87-7.09-10.04-13.04-12.39-5.73-2.26-11.64-2.9-17.72-1.65-4.88,1.01-8.82,3.38-11.66,7.54-1.92,2.81-2.56,5.79-1.73,9.13.27,1.08.65,2.02,1.51,2.73,1.95,1.6,3.79,3.36,5.87,4.77,3.25,2.19,6.82,3.78,10.81,3.97,5.88.28,11.37-.88,16.16-4.56,2.94-2.26,5.71-4.67,8.17-7.44.57-.64,1.06-1.35,1.63-2.09ZM141.98,113.88c.25.06.36.14.43.1.44-.2.88-.39,1.28-.64,6.01-3.74,12.54-5.64,19.63-5.56,3.71.04,7.33.72,10.93,1.58,1.11.26,2.16.94,3.49.58.73-1.41,1.43-2.9,2.25-4.32.86-1.5,1.82-2.95,2.72-4.4-1.5-2.14-3.51-3.33-5.57-4.41-9.37-4.95-18.98-5.03-28.74-1.27-.54.21-1.05.51-1.58.75-.84.39-1.41,1.01-1.74,1.87-1.81,4.75-3.18,9.6-3.26,14.73,0,.35.11.7.16.99ZM511.94,337.18c-.76-.7-1.13-1.12-1.56-1.44-5.35-3.88-11.34-5.85-17.93-6.09-9.77-.36-18.83,2.15-27.46,6.58-1.08.55-1.59,1.31-1.7,2.48-.48,5.18.45,10.06,3.08,14.58.19.33.42.66.68.94.67.71,1.54.76,2.33.14.61-.48,1.17-1.03,1.76-1.53,5.85-5.01,12.04-9.52,19.04-12.82,6.23-2.94,12.75-3.95,19.58-2.97.55.08,1.11.07,2.18.13ZM297.62,307.54c.6-5.74-4.54-24.61-7.98-29.27-1.15,1.33-2.24,2.67-3.43,3.92-1.13,1.19-2.34,2.33-3.57,3.42-1.29,1.15-2.66,2.23-4.02,3.36.99,2.56,2.01,4.97,2.86,7.43.85,2.47,1.63,4.98,2.25,7.52.61,2.51.97,5.09,1.46,7.77,4.27-1.43,8.38-2.81,12.43-4.16ZM184.73,75.26c-.46-.16-.73-.28-1-.34-5.49-1.09-10.88-.53-16.05,1.43-8.57,3.24-15.01,9.14-20.01,16.71-.2.3-.27.67-.63,1.58,7.74-2.89,15.22-4.68,22.9-3.48,2.37-2.87,4.47-5.67,6.85-8.22,2.43-2.61,5.13-4.98,7.94-7.68ZM199.47,81.35c-2.64-1.92-8.34-4.6-10.83-5.16-.71-.16-1.34-.09-1.9.4-.29.25-.61.48-.92.71-5.17,3.74-9.18,8.61-13.22,13.46-.15.18-.1.52-.15.87,1.15.38,2.26.71,3.34,1.1,1.1.39,2.2.78,3.25,1.27,1.14.53,2.25,1.14,3.31,1.81.95.61,1.82,1.35,2.7,2.02,4.85-5.53,9.56-10.92,14.44-16.48ZM212.92,325.91c2.4.41,8.3.07,10.29-.58,1.11-5.82.5-16.94-1.22-21.38-1.85,1.44-3.6,2.95-5.5,4.24-1.98,1.36-4.1,2.52-6.08,3.72.61,2.36,1.33,4.57,1.74,6.84.42,2.36.53,4.78.77,7.16Z"/>
    <path class="cls-8" d="M321.72,351.96c.52.29.82.6,1.13.61.47.02.97-.11,1.42-.28,4.89-1.84,10.03-2.28,15.16-2.8,7.49-.75,14.97-.31,22.43.49,8.62.92,17.14,2.42,25.5,4.74,6.41,1.78,12.42,4.52,18.18,7.82,3.73,2.14,6.96,4.98,10.24,7.72.66.55,1.23,1.26,1.71,1.98.98,1.48,1.07,3.1.38,4.73-.26.62-.62,1.21-.96,1.8-5.26,9.01-8.45,18.76-10.5,28.94-1.77,8.81-2.65,17.7-2.74,26.67-.02,1.78-.22,3.5-.82,5.16-.3.81-.71,1.62-1.24,2.29-.71.91-1.65,1.26-2.84.74-2.31-1.02-4.66-1.98-6.99-2.94-7.47-3.08-15.02-5.93-22.85-7.98-6.5-1.71-13.12-2.82-19.75-3.85-6.93-1.08-13.9-1.77-20.9-2.09-3.79-.17-7.59-.23-11.38-.14-8.37.2-16.72.73-24.98,2.23-8.05,1.46-15.95,3.51-23.73,6.03-1.38.45-2.7,1.11-4.04,1.66-.42.17-.86.33-1.4.53-.55-1.05-.35-2.04-.46-2.97-.13-1.08-.32-2.14-1.06-2.97-.23-.26-.69-.49-.99-.44-.27.04-.64.47-.69.77-.79,5.56-2.94,10.67-5.24,15.71-2.96,6.48-6.72,12.5-10.72,18.38-8.48,12.45-18.6,23.47-29.45,33.86-7.04,6.74-14.51,12.95-22.61,18.41-7.07,4.76-14.66,8.43-22.74,11.12-2.67.89-5.34,1.77-7.96,2.64-11.64-6.07-21.57-13.99-28.73-25.09-4.11-6.36-6.89-13.29-8.75-20.6-1.91-7.5-2.6-15.11-2.13-22.86.41-6.83,1.44-13.54,3.18-20.14.25-.94.49-1.87.77-2.91.56-.17,1.09-.39,1.64-.48,4.37-.71,8.45-2.21,12.3-4.39,8.8-4.99,15.85-11.8,21.61-20.09,6.88-9.91,12-20.68,15.87-32.06,2.32-6.83,3.71-13.9,5-20.99.31-1.71.62-3.43.95-5.28,3.07-.69,6.07-1.41,8.85-2.83,2.87-1.46,5.58-3.18,8.04-5.27,2.39-2.03,4.5-4.29,6.15-6.97,1.65-2.67,2.8-5.53,3.26-8.72,1.94-.07,3.67-.1,5.4-.2,12.47-.68,24.74-2.61,36.89-5.44,11.85-2.76,23.59-5.87,35.04-9.97,4.21-1.51,8.33-3.26,12.49-4.9.89-.35,1.78-.71,2.86-1.14.36,1.01.64,1.9.98,2.77,2.26,5.78,6.24,9.79,12.2,11.67,3.72,1.18,7.49,1.01,11.23,0,2.93-.79,5.74-1.86,8.04-3.94.12-.11.34-.11.71-.22,5.18,6.8,8.73,14.57,12.42,22.19-.47,1.01-1.35.83-2.07.91-5.35.57-10.52,1.89-15.59,3.65-2.12.73-4.18,1.62-5.98,2.99-.59.45-1.08,1.05-1.77,1.74ZM220.49,338.44c-1.06.16-2.43.23-3.73.57-5.98,1.59-8.54,7.2-5.86,12.75.17.35.36.69.56,1.02,1.63,2.7,4.04,4.11,7.16,4.31,4.92.32,8.32-2.01,10.67-6.15,2.79-4.92-.07-11.1-5.63-12.12-.95-.17-1.92-.23-3.18-.37ZM298.81,340.94c.38-.04,1.07-.07,1.73-.2,6.87-1.25,8.6-9.21,5.14-13.03-.39-.43-.74-.9-1.12-1.34-2.37-2.75-5.43-3.74-8.9-3.07-5.51,1.07-7.37,4.97-7.24,8.45.19,5.15,4.63,9.22,10.39,9.19Z"/>
    <path class="cls-2" d="M233.85,255.79c-.08,2.27-.2,5.48-.28,8.69-.15,5.89-1.19,11.59-3.66,16.98-1.99,4.33-3.83,8.74-6.7,12.6-4.77,6.42-10.82,11.15-18.46,13.64-3.25,1.06-6.66,1.33-10.08,1.33-8.48-.01-16.28-2.51-23.65-6.51-5.94-3.22-11.24-7.31-15.95-12.17-4.55-4.69-8.78-9.63-12.46-15.03-3.12-4.59-5.77-9.47-8.1-14.5-3.31-7.16-6.04-14.54-8.19-22.12-2.02-7.11-3.52-14.35-4.74-21.64-1.92-11.45-2.58-23-2.44-34.59.07-6.03.73-12.02,1.59-18,1.02-7.07,2.89-13.89,5.35-20.56,2.35-6.34,5.65-12.16,9.88-17.43,4.61-5.74,10.38-9.92,17.28-12.49,4.27-1.59,8.74-1.94,13.23-1.52,3.18.3,6.37.69,9.45,1.72,5.31,1.79,10.13,4.4,14.52,7.88,3.9,3.1,7.44,6.55,10.68,10.32.89,1.03,1.69,2.13,2.48,3.24,4.85,6.83,9.4,13.84,12.77,21.55,3.7,8.47,7.05,17.08,9.5,26.01,1.75,6.38,3.08,12.87,4.15,19.39.76,4.6,1.17,9.25,1.71,13.89.55,4.64,1.07,9.27,1.6,13.91.01.1.03.19.03.29.34,8.06,1.17,16.11.5,25.13ZM135.9,195.34c0,8.45.84,16.35,2.28,24.23,2.55,13.86,7.17,27.05,12.68,39.96,2.57,6.03,5.96,11.58,10.03,16.72,2.43,3.07,5.13,5.85,8.23,8.25,2.81,2.18,5.93,3.7,9.4,4.49,2.6.59,5.2.58,7.8-.02,3.77-.88,6.7-3.03,9.11-5.95,2.19-2.66,3.71-5.7,4.82-8.95,1.32-3.89,2.02-7.91,2.37-11.99.61-7.11.3-14.18-.46-21.27-1.31-12.14-3.99-23.96-7.75-35.57-4-12.37-9.28-24.13-16.3-35.1-3.59-5.61-7.79-10.69-13.02-14.86-1.44-1.15-2.93-2.28-4.54-3.16-5.13-2.78-11.03-1.56-14.71,2.95-.67.83-1.27,1.72-1.85,2.62-2.02,3.14-3.33,6.59-4.37,10.15-2.68,9.13-3.87,18.45-3.73,27.5Z"/>
    <path class="cls-2" d="M234.71,281.78c.79-2.93,1.66-5.43,2.09-8,.42-2.56.38-5.2.56-7.99.67.15,1.21.25,1.74.39,1.87.52,3.7,1.3,5.6,1.53,8.79,1.04,15.24-2.75,19.84-10.04,1.4-2.23,2.29-4.72,3.04-7.24,1.48-4.97,2.38-10.03,2.61-15.2.43-9.92.55-19.85-.49-29.74-1.42-13.53-4.77-26.58-10.17-39.09-2.74-6.35-5.57-12.65-9.52-18.36-1.99-2.88-4.14-5.65-6.33-8.37-1.84-2.28-4.06-4.2-6.5-5.82-5.02-3.34-10.26-3.86-15.74-1.14-2.46,1.22-4.82,2.6-6.53,4.79-1,1.29-1.76,2.76-2.69,4.25-1.91-2.1-3.04-4.73-4.76-6.94-1.73-2.22-3.36-4.54-5.18-6.68-1.82-2.14-3.84-4.12-5.83-6.23-.04-3.97,1.07-7.63,3.38-10.89,3.21-4.53,7.35-8.03,12.32-10.48,2.69-1.33,5.48-2.54,8.34-3.44,8.3-2.63,16.47-2.25,24.41,1.55,9.58,4.59,17.49,11.17,23.79,19.72,3.59,4.87,6.65,10.05,9.37,15.45,6.16,12.24,10.44,25.12,13.39,38.47,2.81,12.74,4.78,25.62,5.64,38.65,1.05,15.89-.66,31.47-5.51,46.67-1.34,4.18-3.13,8.17-5.12,12.07-2.04,3.99-4.97,7.15-8.67,9.67-5.36,3.65-11.16,6.33-17.37,8.1-4.05,1.16-8.23,1.78-12.41,1.36-5.29-.54-9.81-2.83-13.27-7Z"/>
    <path class="cls-2" d="M278.34,125.92c-.6-.81-1.06-1.41-1.5-2.02-2.32-3.24-4.53-6.57-6.98-9.71-5.02-6.44-11.11-11.7-18.1-15.91-.9-.54-1.78-1.12-2.65-1.67.92-2.13,3.52-6.2,5.36-8.49,3.14-3.89,6.76-7.26,10.89-10.08,4.74-3.24,9.88-5.41,15.73-5.58,3.65-.11,7.16.59,10.62,1.66,6.88,2.11,13.02,5.63,18.63,10.07,5.2,4.12,9.94,8.74,14.25,13.79,8.85,10.37,15.98,21.78,21.18,34.4,4.72,11.46,8.38,23.24,10.78,35.39,2.03,10.23,3.25,20.57,3.13,31.02-.12,10.35-1.33,20.59-3.62,30.67-1.64,7.21-4.81,13.65-9.63,19.4-6.04,7.19-13.38,12.4-22,15.9-4.06,1.65-8.17,3.18-12.52,3.86-4.05.64-7.96.15-11.61-1.8-.77-.41-1.52-.88-2.19-1.43-1.24-1.01-1.59-2.17-1.07-3.85,2.04-6.61,3.5-13.36,4.4-20.22.06-.45.24-.89.42-1.52.6.26,1.02.43,1.43.63.87.43,1.72.92,2.61,1.3,4.67,1.96,9.24,2.01,13.72-.65,3.4-2.02,6.29-4.53,8.52-7.83,2.65-3.92,4.51-8.14,5.6-12.75,1.52-6.47,2.38-13.01,2.5-19.65.09-5.16.15-10.31-.29-15.46-.6-7.1-1.8-14.08-3.34-21.02-.84-3.8-1.73-7.59-2.71-11.35-2.48-9.59-6.42-18.56-11.8-26.88-2.97-4.59-6.3-8.91-10.76-12.19-1.56-1.15-3.2-2.25-4.93-3.09-5.17-2.51-10.17-2.04-14.9,1.24-3.99,2.77-6.48,6.65-8.19,11.1-.31.81-.59,1.63-.98,2.73Z"/>
    <path class="cls-7" d="M129.02,127.76c-.52.97-.95,1.82-1.44,2.64-4.46,7.52-7.36,15.62-9.35,24.11-1.54,6.55-2.53,13.18-3.08,19.87-.11,1.28-.44,2.45-.97,3.63-4.91,11.02-12.26,20.27-20.81,28.63-1.8,1.76-3.88,3.24-5.93,4.71-1.48,1.06-3.23.67-4.35-.8-.53-.69-.95-1.47-1.43-2.2-21.01-32.41-42.08-64.79-63.62-96.85-3.63-5.41-7.62-10.58-11.44-15.86-.22-.31-.41-.63-.77-1.19.55-.03.9-.13,1.19-.05,24.59,6.63,49.19,13.24,73.76,19.95,14.63,3.99,29.22,8.14,43.82,12.22,1.4.39,2.81.76,4.41,1.19Z"/>
    <path class="cls-6" d="M291.32,275.42c.43-.78.83-1.53,1.31-2.39.45.2.82.3,1.11.5,3.91,2.63,8.3,3.67,12.91,4.13,8.62.87,16.61-1.18,24.2-5.08,7.4-3.8,13.64-8.95,18.36-15.86.73-1.07,1.63-1.88,2.73-2.56,4.15-2.57,7.95-5.6,11.57-8.86,6.38-5.74,12.21-11.99,17.43-18.81,2.67-3.48,5.1-7.11,7-11.08.17-.35.39-.66.67-1.13.45.23.9.38,1.26.64,9.28,6.69,19.61,10.6,30.97,11.84.48.05.95.16,1.42.25.07.02.13.11.35.31-.32.82-.64,1.72-1.03,2.59-2.93,6.4-6.83,12.22-11.07,17.8-6.74,8.88-14.57,16.67-23.41,23.49-14.9,11.49-31.13,20.55-48.75,27.12-2.28.85-4.58,1.66-7.01,1.9-1.35.13-2.73.18-4.07.03-1.77-.19-3.24-.94-4.51-2.36-2.53-2.82-5.2-5.52-7.93-8.15-1.46-1.41-3.16-2.58-4.78-3.81-.37-.28-.86-.41-1.32-.54-.13-.04-.38.1-.49.23-.11.13-.21.41-.14.51.38.56.76,1.13,1.23,1.61,7.91,8.23,14.62,17.42,21.32,26.63.34.47.63.98,1.01,1.58-1.84,1.52-3.91,2.53-6.02,3.47-2.34,1.04-4.81,1.47-7.38,1.43-4.65-.08-8.22-2.14-10.87-5.83-1.07-1.49-1.93-3.15-2.85-4.75-.55-.95-1.15-1.8-2.28-1.99-1.24-7.49-3.72-14.55-5.84-21.71-1.16-3.91-2.94-7.6-5.09-11.18Z"/>
    <path class="cls-3" d="M524.67,369.42c.07,7.01-1.44,13.73-3.48,20.36-1.26,4.1-2.83,8.08-4.67,11.95-4.32,9.07-9.37,17.71-15.2,25.88-1.13,1.58-2.31,3.13-3.52,4.66-9.35,11.84-21.22,20.15-35.37,25.28-3.33,1.21-6.47-.21-7.78-3.54-.98-2.47-1.42-5.04-1.42-7.7,0-6.86,1.08-13.55,3.04-20.12,5.69-19,15.09-35.99,27.6-51.31,4.26-5.21,9.05-9.91,14.35-14.08,2.91-2.29,5.98-4.34,9.43-5.75,2.65-1.09,5.38-1.67,8.25-1.43,1.87.15,3.63.66,5.21,1.7,1.62,1.07,2.68,2.44,2.79,4.51.18,3.2.51,6.39.77,9.59Z"/>
    <path class="cls-6" d="M65.57,337.01c.03-.09.03-.21.1-.27,4.23-4.3,8.44-8.59,13.54-11.93,10.02-6.55,20.84-11.27,32.37-14.41,3.56-.97,7.18-1.74,10.75-2.65,1.35-.34,2.67-.38,4.03-.09,7.41,1.6,14.87,1.48,22.35.62,2.7-.31,5.39-.68,8.16-1.03,1.09,1.35,2.17,2.59,3.14,3.91,1.48,2.01,3.38,3.48,5.55,4.63,5.95,3.17,12.24,4.78,19.04,4.56,5.56-.18,11.07-.6,16.49-1.83,2.25-.51,4.45-1.26,6.88-1.95.11.44.34.88.3,1.3-.22,2.91-.49,5.81-.77,8.72-.04.37-.18.75-.33,1.1-.71,1.59-1.53,3.14-2.15,4.76-1.97,5.11-5.34,9-10.03,11.75-3.29,1.93-6.83,3.24-10.82,3.85-.08-.65-.23-1.19-.19-1.71.23-2.91.45-5.82.79-8.71.43-3.71,2.55-6.19,5.89-7.69.53-.24,1.07-.43,1.61-.66.08-.03.12-.15.18-.23,0-.56-.44-.54-.79-.58-4.18-.5-8.38-.29-12.52.2-16.02,1.88-31.53,5.75-46.31,12.35-7.04,3.14-13.67,6.99-20.08,11.24-2.84,1.88-5.77,3.6-8.63,5.45-4.25,2.74-8.46,5.53-12.69,8.3-.56.37-1.12.74-1.62,1.08-11.23-5.31-22.14-19.42-24.24-30.06Z"/>
    <path class="cls-7" d="M294.15,70.18c22.66-22.01,45.42-43.64,67.88-65.58.03-.03.17.04.26.06.1.14.28.29.28.44.12,3.41-3.51,116.68-4.06,120.99-.48.49-1.08.31-1.62.21-2.6-.45-5.07-1.3-7.49-2.36-1.21-.53-2.07-1.3-2.66-2.52-3.99-8.17-9.06-15.64-14.72-22.73-5.12-6.41-10.86-12.2-17.26-17.34-5.52-4.43-11.75-7.57-18.27-10.19-.78-.31-1.54-.65-2.34-.98Z"/>
    <path class="cls-7" d="M73.81,216.09c3.04,2.66,6.08,2.36,9.17,1.51,3.22-.89,6.13-2.44,8.82-4.4,4.84-3.51,8.99-7.73,12.56-12.51.98-1.31,2.13-2.24,3.63-2.77,2.41-.86,4.11-.28,5.49,1.89.95,1.5,1.51,3.13,1.72,4.91.49,4.15.97,8.3,1.58,12.43,1.22,8.26,2.82,16.45,5.04,24.52,1.79,6.47,3.96,12.8,6.52,19,2.56,6.22,5.66,12.15,9.34,17.77,2.18,3.33,4.52,6.56,6.71,9.89.8,1.21,1.54,2.5,2.02,3.86,1.31,3.72-1.15,6.93-5.1,6.68-4.86-.31-9.66-1.13-14.37-2.33-19.88-5.02-35.11-16.27-45.01-34.3-5.19-9.46-8.25-19.71-9.37-30.46-.44-4.16-.5-8.35.39-12.49.2-.94.5-1.86.86-3.17Z"/>
    <path class="cls-4" d="M114.51,438.77c-.21,1-.24,1.56-.43,2.05-4,9.91-5.12,20.32-5.25,30.88-.03,2.81.23,5.64.47,8.45.5,5.91.93,11.82,2.25,17.63,3.01,13.28,8.61,25.36,16.5,36.42,2.21,3.1,4.86,5.82,7.63,8.42,1.84,1.72,3.67,3.46,5.43,5.11-.51,3.47-2.91,8.58-5.27,11.23-.23-.46-.46-.83-.62-1.23-3.65-9.02-10.59-14.18-19.76-16.58-5.95-1.56-11.94-1.4-17.89.13-.75.19-1.48.47-2.19.78-5.06,2.19-9.63,5.06-13.12,9.44-.18.22-.43.38-.81.71-.33-.48-.71-.88-.92-1.35-1.9-4.29-2.95-8.84-3.98-13.4-2.2-9.76-2.71-19.62-2.01-29.58.45-6.41,1.04-12.8,2.57-19.06,2.99-12.22,8.05-23.52,15.39-33.76,3.26-4.54,7.12-8.49,11.75-11.65,2.99-2.04,6.22-3.54,10.27-4.64Z"/>
    <path class="cls-7" d="M27.09,374.09c-1.15-.32-1.75-1.21-2.29-2.13-2.55-4.32-2.2-9.74.93-13.68,1.89-2.38,4.19-4.32,6.63-6.12.6-.44,1.33-.79,1.47-1.86-.38-.13-.74-.39-1.03-.32-1.22.27-2.48.52-3.63,1-2.34.97-4.57,2.22-6.47,3.9-1.57,1.39-3.41.48-4.25-.76-1.26-1.87-1.21-3.87-.32-5.84,1.6-3.53,3.93-6.47,7.25-8.55,2.15-1.35,4.45-2.39,6.86-3.17,7.02-2.29,14.22-3.1,21.57-2.6,1.35.09,2.7.27,4.14.41.15.38.38.72.4,1.07.23,3.22.95,6.35,1.91,9.41,2.88,9.21,7.29,17.57,13.84,24.74,2.32,2.54,4.94,4.67,8.06,6.16.96.46,1.9.93,2.95,1.45.01,2.12-.6,4.04-1.38,5.92-1.14,2.73-2.83,5.09-4.8,7.26-3.51,3.87-7.72,6.81-12.35,9.15-2.56,1.29-5.28,1.9-8.19,1.5-2.28-.32-4.29-1.23-6.09-2.61-1.72-1.31-1.94-3.31-.3-4.75,2.26-1.98,4.69-3.78,7.13-5.54.66-.47,1.63-.54,2.47-.71.56-.11,1.16-.02,1.73-.11.67-.11.99-1.06.6-1.63-.64-.95-1.64-1.37-2.67-1.65-1.46-.4-2.94-.28-4.23.53-1.64,1.03-3.23,2.15-4.79,3.3-1.33.98-2.57,2.08-3.89,3.06-.86.63-1.78,1.19-2.72,1.7-5.38,2.93-13.03.09-14.89-6.21-1.5-5.08-.01-10.73,3.95-13.71,2.17-1.63,4.48-3.08,6.73-4.6.55-.37,1.27-.62,1.24-1.46-.02-.56-.92-.88-2.01-.64-.94.21-1.89.49-2.78.85-3.81,1.57-7.37,3.52-10.1,6.72-.18.21-.45.34-.7.52Z"/>
    <path class="cls-7" d="M522.17,352.98c-.84-.39-1.34-.62-1.84-.85-3.01-1.43-6.15-1.73-9.4-1.15-3.7.66-7.02,2.24-10.19,4.19-4.07,2.51-7.79,5.49-11.33,8.69-7.11,6.43-13.2,13.75-18.78,21.51-8.51,11.83-15.44,24.5-20.57,38.17-2.76,7.36-4.35,14.92-4.7,22.76-.14,3.04.06,6.06.96,8.96.5,1.6-.18,2.45-1.25,3.2-.4.28-.83.52-1.29.67-1.58.53-3.21.88-4.88.53-4.12-.87-4.95-.79-6.43-5.61-1.13-3.67-1.39-7.45-1.27-11.26.18-5.65.84-11.24,2.12-16.77,5.31-23.03,15.71-43.44,31.35-61.16,5.16-5.85,10.81-11.2,17.17-15.76,3.33-2.39,6.8-4.53,10.48-6.33,6.83-3.34,13.99-3.79,21.36-2.47,1.5.27,2.67.94,3.54,2.29,1.75,2.7,3.4,5.45,4.55,8.46.19.5.23,1.06.41,1.92Z"/>
    <path class="cls-7" d="M111.06,437.4c-.9.41-1.32.65-1.77.79-5.47,1.82-10.08,5.02-14.16,9-1.94,1.89-3.77,3.95-5.43,6.1-9.17,11.87-15.6,25.06-18.73,39.78-1.34,6.29-2.07,12.67-2.6,19.07-.47,5.73-.64,11.46-.05,17.2,1.15,11.3,3.59,22.25,8.75,32.49,3.47,6.9,8.06,12.82,14.18,17.55.37.28.7.61,1.41,1.23-.88.03-1.31.12-1.72.05-4.24-.69-8.34-1.88-12.31-3.54-4.55-1.91-8.45-4.77-11.99-8.17-8.43-8.08-13.45-17.99-15.79-29.34-.92-4.49-1.44-9.03-1.4-13.62.09-11.06,1.46-21.94,4.86-32.49,4.06-12.59,10.05-24.25,17.65-35.06,4.87-6.93,11.07-12.52,18.08-17.22,4.1-2.75,8.62-4.46,13.55-5.04,2.45-.29,4.83-.15,7.47,1.21Z"/>
    <path class="cls-4" d="M463.56,359.84c-.21.27-.47.68-.79,1.02-10.66,11.27-18.88,24.19-25.81,38-5.01,9.97-8.65,20.41-10.81,31.34-1.39,7-1.72,14.09-.94,21.2.21,1.92.66,3.82,1.03,5.91-.54.14-1.06.37-1.58.38-2,.06-3.83-.6-5.55-1.56-4.19-2.34-7.34-5.74-9.79-9.8-.58-.96-.88-2.18-.97-3.31-.34-3.97-.61-7.95-.75-11.94-.13-3.52.61-6.97,1.2-10.42,1.73-10.1,4.38-19.95,8.68-29.28,1.5-3.26,3.17-6.46,4.97-9.57,4.39-7.59,9.39-14.78,14.78-21.69,5.55-7.1,12.12-13.15,19.24-18.63.9-.69,1.77-1.49,3.07-1.82-.05,2.47-.19,4.77-.13,7.06.06,2.25.51,4.45,1.35,6.54.87,2.15,1.83,4.27,2.81,6.55Z"/>
    <path class="cls-1" d="M237.73,259.8c-.06-.74-.17-1.4-.17-2.06,0-1.94.02-3.89.07-5.83.16-5.55-.24-11.08-.7-16.6-.43-5.13-1-10.25-1.52-15.38-.09-.87-.18-1.75-.4-2.59-.85-3.21-1.03-6.51-1.45-9.79-.54-4.24-1.14-8.48-1.98-12.66-1.03-5.14-2.34-10.22-3.53-15.33-.06-.27-.04-.56-.07-.9,1.07.38,1.42,1.34,1.97,2.08,2.52,3.4,5.63,6.17,9.12,8.52,2.12,1.43,4.42,2.4,7,2.69,3.73.42,6.67-.89,8.86-3.89,2.17-2.98,3.31-6.35,3.78-9.98.15-1.13.06-2.31.68-3.77.35.68.59,1.03.71,1.41,2.69,8.14,4.5,16.47,5.71,24.96,1.66,11.63,1.3,23.28.44,34.92-.41,5.47-1.94,10.69-4.48,15.59-1.57,3.03-3.8,5.36-6.88,6.89-2.36,1.17-4.79,2.17-7.39,2.63-3.21.56-6.39.31-9.81-.92Z"/>
    <path class="cls-1" d="M293.2,159.47c.87.95,1.4,1.49,1.89,2.07,1.88,2.24,3.88,4.37,6.21,6.14,2.12,1.62,4.48,2.79,7.15,3.06,5.06.5,8.9-1.68,11.6-5.82,3.18-4.87,4.55-10.27,4.28-16.08-.05-1.16-.12-2.32-.18-3.5.87.07.92.74,1.1,1.24,1.57,4.31,2.62,8.76,3.41,13.26,1.47,8.43,2.77,16.88,3.32,25.44.5,7.9.09,15.75-1.13,23.55-.54,3.45-1.26,6.89-2.06,10.29-1.26,5.35-4.26,9.79-7.87,13.79-1.34,1.48-3.12,2.64-4.85,3.69-3.41,2.08-6.86,1.77-10.18-.34-.73-.47-1.38-1.07-2.06-1.62-1.13-.93-1.62-2.06-1.5-3.58.17-2.13.11-4.28.18-6.42.3-9.85-.51-19.64-1.94-29.37-1.31-8.95-2.87-17.85-5.13-26.62-.63-2.45-1.31-4.88-1.95-7.33-.11-.43-.15-.89-.31-1.86Z"/>
    <path class="cls-7" d="M430.49,198.92c.73-.16,1.2-.29,1.67-.37,4.21-.72,7.66-2.81,10.41-5.99,2.22-2.57,4.24-5.31,6.62-8.32.45-.26,1.27-.05,2.08.36,1.24.63,2.31,1.49,3.04,2.66,1.79,2.89,2.72,5.97,2.15,9.44-.96,5.8-3.68,10.57-7.92,14.59-7.37,6.98-16.31,9.66-26.21,9.3-9.72-.36-18.69-3.41-26.99-8.45-3.86-2.35-7.15-5.34-10-8.86-2.81-3.48-4.63-7.39-5.54-11.76-1.89-9.03,3.57-17.58,12.51-19.31,2.07-.4,4.28-.39,6.38-.16,3.49.38,6.86,1.37,10.03,2.93,2.48,1.22,4.64,2.88,6.37,5.02.84,1.04,1.59,2.24,2.07,3.48,1.48,3.85-.71,7.64-4.78,8.32-2.71.45-5.44.36-8.12-.29-2.08-.5-4.11-1.17-6.18-1.72-1.89-.5-3.1.71-2.55,2.55.52,1.75,1.68,3.06,3.15,4.08,3.3,2.3,6.94,2.93,10.84,2.12,1.92-.4,3.72-1.1,5.39-2.16.32-.2.68-.36,1.01-.54,1.11,1.28,2.07,2.64,3.28,3.71,1.15,1.01,2.56,1.72,3.93,2.62.03.07.15.25.16.43.57,5.7,5.21,8.69,9.92,9.64,5.21,1.05,9.63-.69,13.38-4.17,1.69-1.57,3-3.56,4.45-5.38.3-.37.52-.83.08-1.47-.43.36-.88.67-1.25,1.05-.95.97-1.83,2.02-2.81,2.97-2.2,2.16-4.82,3.57-7.82,4.33-2.05.52-4.06.39-6.04-.23-3.33-1.05-4.92-3.99-3.93-7.32.3-1.02.77-1.99,1.21-3.11Z"/>
    <path class="cls-7" d="M420.85,167.85c1.75.19,2.95-.43,4.11-1.09,1.6-.92,3.17-1.91,4.7-2.93,2.33-1.56,4.91-2.22,7.67-2.53,3.52-.4,6.07,1.11,7.93,3.87,2.53,3.74,3.42,7.83,1.87,12.21-1.53,4.35-3.73,8.35-6.82,11.81-2.04,2.29-4.45,4.1-7.56,4.67-4.04.74-7.73-.13-11.01-2.61-1.07-.81-1.78-1.77-1.4-3.24.14-.55.17-1.18.08-1.74-.33-1.94.25-3.6,1.24-5.24,1.75-2.92,3.4-5.9,5.07-8.86.37-.66.68-1.36.99-1.98-.64-.71-1.17-.43-1.66-.11-2.47,1.64-4.44,3.77-6.15,6.16-.62.86-1.2,1.76-1.91,2.8-1.25-.72-1.89-1.99-2.94-2.77-1.17-.87-2.28-1.83-3.52-2.59-1.15-.71-2.4-1.28-3.66-1.79-1.35-.55-2.74-1.01-4.13-1.43-1.28-.38-2.59-.66-3.86-.98.05-.36.02-.59.12-.73,2.58-3.89,3.71-8.29,4.76-12.77,1.04-4.45,2.24-8.87,3.61-13.22,1.58-5.01,4.38-9.29,8.34-12.81,2.99-2.66,6.53-3.84,10.44-3.86,4.44-.02,7.56,2.2,9.4,6.2,1.31,2.85,1.37,5.84.67,8.86-.73,3.15-1.95,6.11-3.62,8.88-.5.83-1.06,1.64-1.5,2.51-2.62,5.18-6.2,9.63-10.2,13.79-.37.38-.61.89-1.05,1.55Z"/>
    <path class="cls-7" d="M350.99,130.63c1.86,0,3.6.12,5.31-.03,1.63-.15,3.23-.58,5.01-.92,10.45,12.33,18.35,26.11,22.71,41.96-.54.49-1.01.95-1.52,1.38-6.77,5.7-9.02,12.87-7.04,21.45.96,4.15,2.81,7.86,5.32,11.26.57.78,1.16,1.55,1.71,2.28-4.66,15.35-16.02,30.68-26.8,39.25.13-.65.13-1.11.31-1.49,3.76-8.34,5.69-17.14,6.69-26.18.35-3.19.69-6.38.99-9.58.96-10.03.27-20.01-.78-30-1.71-16.45-5.82-32.32-11.45-47.83-.16-.45-.27-.92-.46-1.56Z"/>
    <path class="cls-8" d="M244.78,94.19c-2.49-.77-4.76-1.65-7.11-2.16-6.68-1.43-13.33-1.15-19.89.78-4.48,1.32-8.82,3.02-13.02,5.07-3.77,1.85-7.27,4.11-10.32,7.03-.97.93-2,1.8-2.98,2.67-.74-.39-.46-.9-.34-1.29,2.17-7.26,5.56-13.86,10.49-19.65,9.02-10.58,19.35-19.66,30.98-27.26,3.76-2.46,7.73-4.49,12.06-5.74,2.35-.68,4.74-1.14,7.19-.85,1.15.14,2.33.34,3.39.78,2.32.96,3.82,2.72,4,5.29.13,1.83.21,3.72-.1,5.52-.78,4.51-2.07,8.88-4.19,12.98-2.99,5.79-6.29,11.38-10.16,16.84Z"/>
    <path class="cls-7" d="M321.07,147.96c.16,3.97-.1,7.27-1.1,10.46-1.17,3.76-3.54,6.42-7.31,7.77-1.71.61-3.41.66-5.15.16-1.61-.46-3.11-1.16-4.44-2.16-6.47-4.89-11.67-10.81-15.04-18.28-2.24-4.96-4.61-9.87-7.02-14.75-.65-1.32-.83-2.43-.28-3.86,1.85-4.79,4.25-9.18,8.36-12.44,2.04-1.62,4.31-2.59,6.96-2.61,1.81-.01,3.45.44,5.03,1.28,2.78,1.47,5.24,3.38,7.38,5.66,3.27,3.48,6.28,7.18,8.72,11.3.54.91,1,1.9,1.31,2.91,1.5,4.95,2.57,9.99,2.58,14.55Z"/>
    <path class="cls-7" d="M213.51,144.28c1.02-3.09,2.81-5.35,5.35-6.96,1.63-1.04,3.33-2.01,5.09-2.81,2.88-1.31,5.86-1.29,8.78-.09,1.16.47,2.32,1.03,3.35,1.74,4.46,3.09,8.09,6.97,10.68,11.76,1.21,2.22,2.29,4.51,3.55,6.7,3.01,5.23,4.5,10.92,5.32,16.83.49,3.54-.04,6.98-1.2,10.33-.22.64-.53,1.25-.86,1.85-2.15,3.87-4.98,5.13-9.25,4.03-1.12-.29-2.22-.75-3.24-1.28-3.65-1.9-6.97-4.28-9.56-7.52-1.94-2.43-3.8-4.93-5.58-7.47-.72-1.02-1.23-2.2-1.7-3.37-1.23-3.06-2.35-6.17-3.58-9.24-1.81-4.52-4.05-8.83-6.41-13.08-.23-.42-.45-.85-.74-1.39Z"/>
    <path class="cls-6" d="M228.72,325.47c-.1-8.35-1.68-16.11-4.72-23.62.65-1.45,1.79-2.5,2.81-3.75.44.24.8.37,1.08.61,3.42,2.87,7.54,3.95,11.81,4.59,6.36.95,12.57.26,18.71-1.65,6.53-2.03,12.83-4.53,18.7-8.06.16-.1.37-.11.7-.2.22.48.53.95.68,1.48,1.34,4.8,2.02,9.71,2.35,14.67.12,1.74.16,3.49.24,5.39-.49.24-.96.56-1.48.72-11.81,3.66-23.86,6.34-36.07,8.25-3.46.54-6.93,1.02-10.4,1.48-1.43.19-2.88.37-4.43.11Z"/>
    <path class="cls-7" d="M133.85,562.18c-.58.74-1.07,1.45-1.63,2.09-2.46,2.77-5.23,5.19-8.17,7.44-4.8,3.68-10.29,4.85-16.16,4.56-3.99-.19-7.56-1.78-10.81-3.97-2.08-1.4-3.92-3.16-5.87-4.77-.86-.71-1.24-1.65-1.51-2.73-.83-3.33-.19-6.31,1.73-9.13,2.84-4.16,6.78-6.53,11.66-7.54,6.09-1.26,11.99-.61,17.72,1.65,5.95,2.35,10.22,6.52,13.04,12.39Z"/>
    <path class="cls-8" d="M141.98,113.88c-.05-.29-.16-.64-.16-.99.08-5.13,1.45-9.98,3.26-14.73.33-.86.9-1.48,1.74-1.87.53-.24,1.04-.54,1.58-.75,9.76-3.75,19.37-3.68,28.74,1.27,2.06,1.09,4.07,2.27,5.57,4.41-.9,1.45-1.86,2.89-2.72,4.4-.81,1.42-1.52,2.91-2.25,4.32-1.33.36-2.38-.32-3.49-.58-3.6-.86-7.22-1.54-10.93-1.58-7.09-.08-13.62,1.82-19.63,5.56-.41.25-.85.44-1.28.64-.07.03-.18-.04-.43-.1Z"/>
    <path class="cls-7" d="M511.94,337.18c-1.07-.06-1.63-.05-2.18-.13-6.83-.99-13.35.02-19.58,2.97-7,3.31-13.19,7.81-19.04,12.82-.59.51-1.15,1.05-1.76,1.53-.79.62-1.66.56-2.33-.14-.26-.28-.49-.6-.68-.94-2.63-4.52-3.55-9.4-3.08-14.58.11-1.17.62-1.92,1.7-2.48,8.62-4.43,17.69-6.94,27.46-6.58,6.59.24,12.59,2.21,17.93,6.09.44.32.81.74,1.56,1.44Z"/>
    <path class="cls-8" d="M297.62,307.54c-4.05,1.35-8.16,2.73-12.43,4.16-.49-2.69-.85-5.26-1.46-7.77-.61-2.54-1.4-5.05-2.25-7.52-.85-2.46-1.87-4.87-2.86-7.43,1.36-1.13,2.72-2.21,4.02-3.36,1.23-1.1,2.44-2.23,3.57-3.42,1.19-1.25,2.28-2.6,3.43-3.92,3.44,4.66,8.58,23.53,7.98,29.27Z"/>
    <path class="cls-8" d="M184.73,75.26c-2.81,2.7-5.51,5.07-7.94,7.68-2.37,2.55-4.48,5.35-6.85,8.22-7.68-1.2-15.16.59-22.9,3.48.35-.91.43-1.29.63-1.58,5-7.57,11.44-13.47,20.01-16.71,5.17-1.95,10.56-2.51,16.05-1.43.28.05.54.18,1,.34Z"/>
    <path class="cls-8" d="M199.47,81.35c-4.87,5.56-9.59,10.95-14.44,16.48-.88-.67-1.74-1.41-2.7-2.02-1.06-.67-2.17-1.28-3.31-1.81-1.05-.49-2.15-.88-3.25-1.27-1.09-.39-2.19-.72-3.34-1.1.06-.35,0-.7.15-.87,4.04-4.85,8.05-9.72,13.22-13.46.31-.23.63-.45.92-.71.56-.49,1.19-.57,1.9-.4,2.5.57,8.19,3.25,10.83,5.16Z"/>
    <path class="cls-8" d="M212.92,325.91c-.24-2.38-.35-4.79-.77-7.16-.4-2.27-1.13-4.49-1.74-6.84,1.98-1.2,4.1-2.36,6.08-3.72,1.89-1.3,3.64-2.8,5.5-4.24,1.72,4.44,2.33,15.55,1.22,21.38-1.99.65-7.89.99-10.29.58Z"/>
    <path class="cls-1" d="M220.49,338.44c1.26.15,2.24.2,3.18.37,5.56,1.02,8.42,7.2,5.63,12.12-2.35,4.14-5.75,6.47-10.67,6.15-3.12-.2-5.53-1.61-7.16-4.31-.2-.33-.39-.67-.56-1.02-2.68-5.55-.13-11.16,5.86-12.75,1.3-.34,2.67-.41,3.73-.57ZM228.41,347.56c.03-1.95-.62-3.55-2.17-4.83-2.2-1.81-4.57-2.39-7.3-1.46-1.39.47-2.68,1.11-3.81,2.05-2.3,1.9-2.76,4.37-1.34,6.99,1.98,3.65,6.05,5.18,9.91,3.72,2.38-.9,4.66-4.03,4.71-6.48Z"/>
    <path class="cls-1" d="M298.81,340.94c-5.76.03-10.2-4.04-10.39-9.19-.13-3.49,1.73-7.39,7.24-8.45,3.48-.67,6.53.32,8.9,3.07.38.44.73.91,1.12,1.34,3.46,3.83,1.73,11.78-5.14,13.03-.67.12-1.35.15-1.73.2ZM298.2,325.45c-1.35-.04-2.83.33-4.17,1.18-1.6,1.02-2.48,2.53-2.4,4.37.11,2.81,1.51,4.96,4,6.3,2.47,1.33,4.99,1.45,7.44-.05,1.9-1.17,3.03-3.95,2.55-6.05-.71-3.1-3.99-5.72-7.41-5.75Z"/>
    <path class="cls-1" d="M135.9,195.34c-.14-9.06,1.06-18.38,3.73-27.5,1.04-3.56,2.35-7.01,4.37-10.15.58-.9,1.17-1.8,1.85-2.62,3.68-4.51,9.59-5.73,14.71-2.95,1.61.87,3.1,2.01,4.54,3.16,5.23,4.17,9.42,9.25,13.02,14.86,7.02,10.96,12.3,22.72,16.3,35.1,3.76,11.61,6.44,23.42,7.75,35.57.76,7.08,1.07,14.16.46,21.27-.35,4.08-1.05,8.1-2.37,11.99-1.1,3.25-2.62,6.29-4.82,8.95-2.41,2.92-5.34,5.07-9.11,5.95-2.61.61-5.2.61-7.8.02-3.47-.78-6.59-2.31-9.4-4.49-3.09-2.4-5.8-5.18-8.23-8.25-4.07-5.14-7.46-10.69-10.03-16.72-5.51-12.91-10.13-26.09-12.68-39.96-1.45-7.87-2.29-15.78-2.28-24.23ZM140.22,175.45c-.18.53-.43,1.05-.51,1.6-.25,1.63-.48,3.27-.64,4.92-1.09,10.72-.47,21.39,1.25,32,2.59,15.97,7.88,31.08,14.91,45.6,2.39,4.93,5.39,9.46,8.89,13.67,2.25,2.71,4.78,5.12,7.7,7.1,1.86,1.27,3.85,2.27,6.05,2.82,4.63,1.15,8.71.22,11.96-3.39,1.1-1.22,2.04-2.61,2.85-4.04,1.89-3.34,2.97-6.97,3.58-10.74,1.12-6.97.94-13.97.35-20.97-.71-8.35-2.07-16.6-3.86-24.78-2.23-10.18-5-20.2-9.22-29.77-3.48-7.88-8.09-15.07-13.16-21.99-.35-.48-.66-1.06-1.5-1.23.07.49.05.79.15,1.04,2.31,6.33,3.78,12.87,4.74,19.53.58,4.05,1.04,8.11.82,12.21-.21,3.81-.89,7.53-2.27,11.1-.96,2.5-2.43,4.67-4.55,6.32-2.97,2.32-6.19,2.65-9.57.98-1.67-.83-3.1-2.01-4.39-3.35-1.91-1.98-3.5-4.2-4.7-6.65-1.33-2.7-2.6-5.45-3.68-8.25-2.93-7.59-4.46-15.49-5.18-23.74ZM143.62,172.02c-.13,4.15.53,8.18,1.24,12.2,1.22,6.83,3.18,13.42,6.28,19.65,1.13,2.27,2.39,4.45,4.02,6.41,1.25,1.5,2.67,2.83,4.39,3.78,2.17,1.19,4.29,1.07,6.32-.33,1.47-1.02,2.58-2.37,3.35-3.97,1.31-2.73,2.24-5.58,2.57-8.62.36-3.3.3-6.58.03-9.89-.66-7.9-2.38-15.55-5.1-22.98-.63-1.73-1.3-3.45-2.01-5.16-.89-2.17-2.04-4.24-3.66-5.92-4.96-5.16-14.52-2.63-16.23,4.18-.88,3.51-1.33,7.07-1.2,10.64Z"/>
    <path class="cls-7" d="M228.41,347.56c-.05,2.45-2.32,5.58-4.71,6.48-3.86,1.46-7.93-.07-9.91-3.72-1.42-2.62-.95-5.09,1.34-6.99,1.13-.94,2.42-1.57,3.81-2.05,2.73-.93,5.1-.35,7.3,1.46,1.56,1.28,2.21,2.88,2.17,4.83Z"/>
    <path class="cls-7" d="M298.2,325.45c3.43.03,6.7,2.65,7.41,5.75.48,2.1-.65,4.88-2.55,6.05-2.45,1.51-4.98,1.38-7.44.05-2.49-1.34-3.88-3.49-4-6.3-.07-1.84.8-3.35,2.4-4.37,1.35-.86,2.82-1.22,4.17-1.18Z"/>
    <path class="cls-1" d="M140.22,175.45c.72,8.25,2.25,16.15,5.18,23.74,1.08,2.81,2.35,5.55,3.68,8.25,1.21,2.45,2.8,4.67,4.7,6.65,1.29,1.34,2.72,2.52,4.39,3.35,3.38,1.67,6.6,1.33,9.57-.98,2.12-1.65,3.59-3.82,4.55-6.32,1.37-3.58,2.06-7.29,2.27-11.1.22-4.1-.23-8.16-.82-12.21-.96-6.66-2.43-13.2-4.74-19.53-.09-.26-.08-.55-.15-1.04.83.17,1.15.75,1.5,1.23,5.07,6.92,9.68,14.12,13.16,21.99,4.23,9.57,6.99,19.59,9.22,29.77,1.79,8.18,3.15,16.44,3.86,24.78.59,6.99.77,14-.35,20.97-.61,3.77-1.69,7.41-3.58,10.74-.81,1.43-1.75,2.82-2.85,4.04-3.25,3.61-7.32,4.54-11.96,3.39-2.2-.55-4.19-1.55-6.05-2.82-2.92-1.98-5.45-4.39-7.7-7.1-3.49-4.21-6.5-8.74-8.89-13.67-7.03-14.52-12.32-29.63-14.91-45.6-1.72-10.61-2.34-21.28-1.25-32,.17-1.65.39-3.29.64-4.92.08-.55.34-1.07.51-1.6Z"/>
    <path class="cls-7" d="M143.62,172.02c-.12-3.58.32-7.13,1.2-10.64,1.71-6.82,11.27-9.35,16.23-4.18,1.62,1.68,2.76,3.75,3.66,5.92.7,1.71,1.37,3.43,2.01,5.16,2.72,7.43,4.45,15.08,5.1,22.98.28,3.31.33,6.59-.03,9.89-.33,3.04-1.26,5.88-2.57,8.62-.77,1.6-1.88,2.95-3.35,3.97-2.03,1.4-4.15,1.52-6.32.33-1.73-.95-3.14-2.28-4.39-3.78-1.63-1.95-2.89-4.14-4.02-6.41-3.1-6.23-5.06-12.82-6.28-19.65-.72-4.02-1.37-8.05-1.24-12.2Z"/>
  </g>
  <path class="cls-7" d="M177.96,144.75c8.01,9.38,9.44,17.08,18.62,14.07,8.31-2.72,5.54-17.88-2.48-27.26-8.01-9.38-21.5-13.85-26.54-6.71-3.61,5.11,2.39,10.52,10.4,19.9Z"/>
  <path class="cls-5" d="M162.59,424.45c-6.5,6.98-12.28,8.75-9.17,15.54,2.82,6.14,14.22,2.68,20.72-4.3s8.74-17.73,2.82-20.97c-4.25-2.32-7.87,2.76-14.37,9.74Z"/>
  <path class="cls-5" d="M167.33,85.16c3.59-1.97,6.18-1.91,5.83-5.09-.32-2.88-5.43-3.01-9.02-1.04-3.59,1.97-5.95,6.04-3.97,8.16,1.42,1.52,3.58-.06,7.16-2.03Z"/>
  <path class="cls-5" d="M361.85,374.12c10.44,2.66,15.34,7.44,20.38.67,4.56-6.12-5.05-15.55-15.5-18.21-10.44-2.66-22.32.94-22.33,8.58,0,5.47,7,6.31,17.45,8.97Z"/>
  <path class="cls-7" d="M244.94,125.92c7.41,8.67,8.73,15.79,17.21,13.01,7.68-2.51,5.12-16.53-2.29-25.21-7.41-8.67-19.88-12.8-24.54-6.2-3.34,4.73,2.21,9.72,9.62,18.4Z"/>
  <path class="cls-7" d="M303.39,105.66c6.87,8.04,8.09,14.64,15.96,12.06,7.12-2.33,4.74-15.33-2.12-23.37-6.87-8.04-18.43-11.87-22.75-5.75-3.09,4.38,2.05,9.01,8.91,17.05Z"/>
</svg>