<?xml version="1.0" encoding="UTF-8"?>
<svg id="Layer_1" data-name="Layer 1" xmlns="http://www.w3.org/2000/svg" viewBox="0 0 314.05 288">
  <defs>
    <style>
      .cls-1 {
        fill: #fff000;
      }

      .cls-1, .cls-2, .cls-3, .cls-4, .cls-5, .cls-6 {
        stroke-width: 0px;
      }

      .cls-2 {
        fill: #8dceff;
      }

      .cls-3 {
        fill: #eff0f0;
      }

      .cls-4 {
        fill: #fff;
      }

      .cls-5 {
        fill: #386189;
      }

      .cls-6 {
        fill: #368ad6;
      }
    </style>
  </defs>
  <g>
    <path class="cls-5" d="M251.21,163.67c5.69-.2,11.37.08,17.05.52.5.04.99.09,1.49.16,1.22.17,1.41.25,2.47.94.1,0,.2.04.29.01,4.16-1.13,8.21-.63,12.19.82,1.12.41,2.23.86,3.34,1.32,2.69,1.12,5.46,1.89,8.36,2.23,1.98.23,3.96.51,5.94.76,2.2.29,4.31.88,6.28,1.88,2.56,1.3,4.39,3.24,5.12,6.11.74,2.92.13,5.56-1.72,7.88-1.95,2.45-4.57,3.63-7.67,3.79-.74.04-1.49.06-2.23.09-.08.25-.16.43-.2.62-.55,2.44-1.93,4.36-3.82,5.93-2.32,1.93-5,2.2-7.67.81-.26-.14-.52-.27-.83-.43-.22.45-.42.85-.61,1.25-.67,1.4-1.71,2.44-3.07,3.17-1.47.78-3.03,1.26-4.69,1.45-3.02.35-5.98-.02-8.9-.77-1.15-.29-2.28-.73-3.38-1.19-2.98-1.25-5.15-3.41-6.59-6.26-.44-.88-1.05-1.38-1.89-1.77-3.9-1.8-7.92-3.31-11.97-4.72-5.6-1.95-11.25-3.79-16.89-5.63-5.36-1.75-10.73-3.45-16.11-5.13-2.76-.86-5.56-1.62-8.33-2.43-.96-.28-1.9-.6-2.86-.89-.42-.13-.85-.21-1.32-.33-.07.22-.15.35-.14.48.35,4.54.19,9.07-.07,13.61-.24,4.19-.37,8.38-.89,12.54-.28,2.23-.59,4.45-.97,6.67-.29,1.72-.7,3.42-1.85,4.94.34.21.61.41.89.56,1.61.89,3.24,1.76,4.85,2.67,3.36,1.91,6.39,4.26,9.22,6.88.4.37.78.77,1.17,1.16,1.38,1.37,1.63,3.05,1.21,4.85-.56,2.43-1.25,4.83-2.24,7.13-.08.18-.12.37-.2.63.83.77,1.75,1.43,2.55,2.06.71-.36,1.31-.68,1.92-.98,1.46-.72,2.67-1.74,3.73-2.95,1.8-2.06,3.06-4.43,3.92-7.01.71-2.13,1.36-4.28,2.09-6.4.88-2.55,1.87-5.06,3.34-7.34,4.24-6.58,10.29-10.17,18.07-10.72,6.48-.46,11.89,2,16.5,6.41.36.34.7.71,1.07,1.09.34.02.68.05,1.03.07,4.06.17,7,2.12,8.88,5.66.91,1.72,1.51,3.58,1.82,5.52.75,4.83.67,9.6-.37,14.42-1.37,6.37-3.89,12.25-6.92,17.95-1.88,3.53-4.02,6.9-6.53,10.02-.97,1.2-2,2.36-3.1,3.45-.7.69-1.53,1.28-2.37,1.81-1.3.81-2.72.92-4.18.47-.33-.1-.66-.22-1-.31-.46-.12-.92-.05-1.29.23-1.33,1.04-2.64,2.11-3.83,3.24.07.68.45,1.1.75,1.55.95,1.44.82,2.93-.36,4.25-.43.48-.91.93-1.43,1.31-2.17,1.61-4.49,2.96-7.01,3.98-2.56,1.03-5.15,1.88-7.87,2.36-1.23.22-2.47.36-3.72.23-3.18-.34-5.74-1.89-7.95-4.1-1.25-1.24-2.13-2.77-3.1-4.22-.28-.42-.59-.78-1.04-1.04-3.32-1.94-6.05-4.57-8.4-7.58-1.62-2.08-3.13-4.27-4.61-6.46-.55-.82-.93-1.76-1.33-2.67-.43-.99-.64-2,0-3.03-.23-.25-.43-.46-.67-.73-.23.12-.48.18-.65.33-.49.42-.96.87-1.43,1.32-.87.82-1.74,1.64-2.6,2.48-1.42,1.39-3.17,2.23-4.94,3.05-.97.45-1.97.26-2.92-.08-.75-.26-1.48-.6-2.2-.94-2.85-1.33-5.65-2.76-8.36-4.36-7.97-4.7-16.34-8.56-25-11.81-3.27-1.23-6.54-2.46-9.8-3.69-.42-.16-.84-.29-1.29-.45-.41.22-.81.42-1.2.64-1.64.97-3.38,1.74-5.22,2.24-7.82,2.14-15.74,3.59-23.87,3.81-5.57.15-11.07-.35-16.53-1.4-3.58-.69-7.04-1.85-10.48-3.06-5.85-2.06-11.08-5.23-16.06-8.86-.96-.7-1.83-1.54-2.66-2.41-1.22-1.28-1.84-2.84-1.75-4.63.07-1.34.16-2.68.24-4.14-.78-.67-1.75-1.14-2.74-1.63-1.15.67-2.28,1.28-3.14,2.29-1.04,1.22-1.94,2.54-2.62,3.99-1.7,3.61-3.36,7.24-5.07,10.84-.75,1.58-1.52,3.15-2.39,4.66-1.94,3.37-4.45,6.26-7.59,8.57-3.85,2.83-8.23,3.96-12.96,3.8-.94-.03-1.89-.22-2.8-.44-1.94-.47-3.86-1-5.64-1.95-1.45-.77-2.96-1.46-4.38-2.28-3.1-1.8-5.67-4.23-8.06-6.86-2.23-2.45-4.14-5.12-5.66-8.07-1.95-3.81-2.93-7.83-2.77-12.12.08-2.16.52-4.26,1.15-6.32,2.2-7.13,5.79-13.45,11.04-18.78,2.52-2.56,5.1-5.06,7.85-7.39.61-.52,1.26-.98,1.92-1.43,1.04-.71,2.18-.93,3.43-.65.43.1.88.13,1.41.2,1.04-.91,2.12-1.86,3.21-2.83-.07-.37-.13-.71-.19-1.04-.22-1.23.27-2.15,1.3-2.79.38-.24.8-.41,1.22-.55,5.02-1.7,10.12-3.06,15.41-3.59,2.78-.28,5.56-.48,8.36-.31,3.36.2,6.46,1.2,9.38,2.81,2.13,1.17,3.93,2.74,5.35,4.71.43.61.84,1.25,1.13,1.93.28.68.54,1.43.54,2.15,0,.97.38,1.68.9,2.44,1.73,2.49,2.37,5.24,1.72,8.24-.02.09,0,.19.01.29.29.19.45-.06.62-.2,1.45-1.24,3.02-2.29,4.75-3.1,1.41-.66,2.87-1.13,4.45-1.16.4,0,.79-.09,1.19-.15,2.63-.4,4.71.42,6.16,2.71.56.89,1.15,1.75,1.73,2.62.61.91,1.34,1.72,2.34,2.53.02-.34.07-.51.04-.67-.14-.84-.29-1.67-.44-2.5-.16-.91-.05-1.78.54-2.59-.23-.27-.44-.55-.67-.8-5.99-6.42-9.28-14.11-10.58-22.71-.17-1.13-.13-2.29-.14-3.43,0-.81.22-1.59.6-2.3.57-1.05,1.42-1.46,2.5-.94,1.24.6,2.37.4,3.61.1,6.39-1.53,12.4-4.1,18.38-6.76,4.24-1.89,8.37-4.02,12.44-6.25.47-.26.92-.55,1.37-.82-.16-.46-.5-.36-.77-.39-4.94-.41-9.87-.24-14.79.36-6.32.77-12.46,2.25-18.39,4.57-.74.29-1.49.57-2.25.82-1.42.48-2.82,1-4.17,1.64-1.03.49-2.15.81-3.22,1.21-.81.31-1.65.22-2.43.1-.13.14-.22.2-.26.28-2.11,4.55-5.88,7.04-10.49,8.47-1.55.48-3.17.43-4.74.05-1.61-.39-2.93-1.24-3.83-2.76-1.41.18-2.82.45-4.24-.06-1.34-.49-2.55-1.13-3.51-2.19-1-1.11-1.6-2.41-1.83-3.87-.22-1.4-.15-2.78.4-4.19-.24-.17-.41-.33-.62-.44-1.17-.6-1.93-1.57-2.44-2.74-1.04-2.39-1.13-4.83-.22-7.29.15-.42.33-.83.48-1.2-2.37-3.33-2.3-7.19.18-10.63,1.56-2.16,3.61-3.71,6-4.84,3.89-1.83,7.98-2.44,12.25-2.03.2.02.4.03.6.04.05,0,.09-.02.25-.06.12-.17.27-.42.45-.66.78-1.01,1.75-1.73,2.98-2.15,4.45-1.51,9-2.64,13.64-3.37,4.09-.65,8.2-1.15,12.35-1.29,3.4-.11,6.79-.05,10.17.3,3.97.42,7.93.99,11.81,1.94,3.15.77,6.24,1.77,9.28,2.9.6.22,1.21.44,1.92.69-.1-.59-.51-.81-.81-1.08-1.64-1.47-3.21-3-4.68-4.62-2.22-2.45-4.21-5.06-5.82-7.95-2.5-4.51-4.06-9.3-4.47-14.46-.28-3.45-.16-6.87.32-10.29.56-4.02,1.56-7.94,2.9-11.75,1.39-3.96,3.15-7.77,5.62-11.2,1.64-2.27,3.48-4.38,5.68-6.13.81-.65,1.71-1.2,2.56-1.78.12-.9.28-1.78.36-2.67.33-4.03.63-8.06.97-12.08.3-3.53.63-7.06.94-10.58.26-2.98.5-5.96.8-8.94.4-4.07.84-8.14,1.26-12.21.21-2.03.4-4.07.63-6.1.19-1.69.43-3.37.66-5.05.04-.28.16-.55.23-.8.64-.19,1.04.13,1.42.44,1.32,1.07,2.63,2.13,3.94,3.21,3.39,2.78,6.81,5.54,10.16,8.37,3.81,3.22,7.54,6.53,11.33,9.76,4.28,3.66,8.59,7.3,12.91,10.92,1.18.99,2.45,1.88,3.76,2.88,4-1.68,8.19-2.62,12.63-2.13.1-.27.19-.44.23-.62.54-2.35,2.05-3.84,4.28-4.6,2.3-.78,4.62-.65,6.92.07,1.58.5,3.05,1.24,4.43,2.15,1.62,1.07,3.2,2.2,4.81,3.31.36.25.73.49,1.13.76.23-.22.41-.37.58-.55,2.39-2.56,5.35-3.78,8.84-3.62,1.83.09,3.51.72,5.05,1.72,2.84,1.84,4.7,4.43,5.65,7.66.19.66.28,1.37.32,2.06.03.64-.08,1.29-.12,1.94.38.5.98.43,1.49.56,1.99.48,3.99.9,5.96,1.44,2.08.57,4.03,1.46,5.83,2.66,1.34.89,2.57,1.9,3.49,3.24.81,1.19,1.27,2.48,1.13,3.94-.09.86-.35,1.66-.85,2.37-.22.32-.45.64-.65.93.13.38.42.3.64.32,2.7.23,5.32.79,7.81,1.89,2.13.94,3.99,2.23,5.63,3.87,2.13,2.13,3.96,4.48,5.37,7.16.18.35.42.68.63,1.03.2.05.39.13.58.15,1.79.11,3.58.21,5.38.3,1.39.07,2.79.11,4.18.19,1.89.11,3.78.24,5.68.35,1.74.1,3.49.18,5.23.28,1.84.1,3.69.21,5.53.32,2.09.12,4.18.23,6.27.36.75.05,1.49.15,2.23.27.22.04.41.22.64.35-.11.66-.38,1.19-.65,1.72-.83,1.59-1.62,3.21-2.49,4.78-1.91,3.44-3.81,6.9-5.82,10.29-3.12,5.28-6.34,10.5-9.49,15.77-1.38,2.31-2.69,4.67-4.04,7-.29.49-.35.97-.33,1.55.08,2.4-.16,4.76-.7,7.12-1.66,7.21-4.87,13.7-8.88,19.84-1.11,1.71-2.42,3.3-3.75,4.85-2.02,2.35-4.26,4.49-6.67,6.43-2.81,2.27-5.85,4.16-9.24,5.47-.88.34-1.75.71-2.63,1.07-.2.08-.33.19-.26.43,0,0-.03-.02-.01,0ZM231.65,43.22c.34.15.69.31,1.18.53-.01-.36,0-.6-.04-.82-.73-3.76-2.71-6.59-6.17-8.31-1.88-.94-3.88-1.25-5.96-.95-1.04.15-2.02.49-2.92,1.33.77.35,1.43.67,2.11.96,3.73,1.59,7.2,3.64,10.47,6.01.51.37,1.14.63,1.38,1.31-.3-.17-.62-.31-.89-.51-3.16-2.3-6.59-4.11-10.27-5.42-1.4-.5-2.81-1.04-4.42-.97-.21.29-.45.6-.68.92-.02.03.02.09.05.26,3,2.28,6.35,4.09,9.95,5.46,3.55,1.35,6.23,2.11,7.4,2.09.16-.39-.06-.66-.31-.92-.3-.32-.59-.65-.88-.97ZM232.88,77.04c-.04.09-.07.19-.13.27-2.8,3.41-4.55,7.36-5.82,11.54-.63,2.05-1.06,4.16-1.33,6.29-.29,2.38-.42,4.77.09,7.15.35,1.61.73,3.21,1.6,4.65.96,1.59,2.24,2.8,4.06,3.34,1.58.47,3.61.3,4.93-1.55.66-.94,1.29-1.9,1.62-3.02.58-1.96,1.2-3.91,1.73-5.88,1.52-5.77,2.18-11.66,2.24-17.62,0-.71-.16-1.38-.53-2-.95-1.58-2.21-2.81-3.93-3.55-1.55-.67-3.06-.92-4.45.37-.03.03-.09.04-.14.06-.03-.18-.07-.35-.11-.58-.43.12-.78.18-1.09.31-1.58.69-2.95,1.65-4.09,2.95-1.63,1.86-2.8,4-3.67,6.3-.77,2.05-1.52,4.12-2.3,6.17-1.64,4.28-3.36,8.53-5.09,12.79-2.45,6.03-5.38,11.79-8.83,17.3-1.4,2.24-2.78,4.5-4.08,6.8-1.07,1.91-2.13,3.84-2.64,6.01-.97,4.14-.43,8.04,1.91,11.61,1.15,1.74,2.64,3.1,4.84,3.47,1.11.19,2.04.05,2.88-.76,1.82-1.78,3.76-3.43,5.5-5.29,5.35-5.7,9.84-12.04,13.6-18.9,1.15-2.1,2.24-4.23,3.25-6.4.99-2.12,1.86-4.3,2.77-6.46.08-.2.09-.43.16-.78-.51.23-.86.42-1.22.55-2.2.78-4.24.41-6.08-.95-1.31-.97-2.24-2.29-2.86-3.78-1.11-2.66-1.54-5.46-1.49-8.33.05-2.71.5-5.36,1.12-7.98.46-1.94.98-3.88,1.88-5.67.85-1.69,1.74-3.37,2.72-4.99.61-1.02,1.4-1.93,2.16-2.86.2-.25.55-.38.84-.56ZM68.11,133.22c-.11.77-.26,1.46-.28,2.15-.04,1.3-.06,2.6,0,3.89.24,4.73,1.14,9.3,3.24,13.59,1.02,2.09,2.32,3.97,3.95,5.6.98.98,2.14,1.79,3.23,2.65.42.33.9.4,1.39.11.21-.12.45-.22.68-.32,2.99-1.37,6.03-2.64,9.18-3.63,6.69-2.1,13.55-3.36,20.55-3.72,4.14-.21,8.28-.21,12.4.34,1.93.25,3.86.52,5.78.84.98.17,1.94.46,2.9.74.19.05.33.29.62.56-1,.36-1.83.08-2.65.06-.89-.02-1.78-.05-2.44-.07-.98.94-1.76,1.78-2.63,2.52-2.08,1.79-4.33,3.36-6.67,4.81-7.01,4.34-14.66,7.21-22.46,9.75-1.66.54-3.32.64-4.94-.2-.52-.27-1.1-.48-1.69-.3-1.02,1.36-1.24,2.77-.91,4.41.74,3.58,1.74,7.07,3.2,10.42,1.52,3.5,3.52,6.71,6.06,9.58,2.46,2.78,5.22,5.22,8.14,7.49,2.33,1.8,4.68,3.57,7.28,4.98,2.17,1.18,4.49,1.91,6.92,2.31,1.07.18,2.07.06,3.05-.43,3.48-1.75,7-3.43,10.24-5.6,5.86-3.91,11.38-8.28,16.73-12.85.22-.18.38-.42.62-.69-.54-.34-1-.63-1.45-.93-1.44-.99-2.9-1.95-4.3-2.99-.72-.53-1.34-1.19-1.98-1.82-.76-.74-.9-1.59-.5-2.6.96-2.41,1.94-4.82,3.31-7.03.52-.84,1.17-1.61,1.85-2.34,1.08-1.18,2.42-1.66,4.05-1.4,1.63.26,3.27.39,4.91.55.33.03.67-.01,1.1-.03.03-.61.11-1.15.08-1.69-.07-1.54-.19-3.08-.28-4.63-.02-.45-.02-.9,0-1.34.05-.87.48-1.51,1.25-1.91.44-.23.9-.43,1.36-.63,1.41-.62,2.82-1.22,4.29-1.86-.18-1-.36-1.98-.53-2.96-.12-.74-.21-1.48-.33-2.22-.2-1.21.22-2.15,1.17-2.89,1.14-.89,2.28-1.78,3.43-2.66,1.71-1.3,3.42-2.59,5.13-3.89.27-.21.51-.45.83-.73-.21-.63-.42-1.23-.62-1.84-.19-.59-.05-1.28-.55-1.83-.39.23-.73.45-1.07.64-1.48.82-2.95,1.67-4.45,2.45-1.82.94-3.79,1.49-5.76,2.04-3.92,1.09-7.69.8-11.33-.99-3.82-1.88-6.42-5-8.43-8.64-.38-.7-.81-1.2-1.47-1.6-1.55-.92-3.12-1.77-4.8-2.43-2.18-.85-4.35-1.73-6.56-2.52-3.43-1.23-6.92-2.28-10.48-3.04-7.82-1.69-15.71-1.96-23.67-1.22-8.4.78-16.47,2.97-24.47,5.5-.42.13-.82.33-1.2.48ZM207.67,69.8c.04-.85.11-1.38.08-1.9-.19-2.73-.38-5.47-.61-8.2-.29-3.48-.9-6.91-1.98-10.24-1.2-3.73-3.1-6.99-6.22-9.47-2.18-1.73-4.67-2.66-7.4-2.94-3.19-.32-6.25.37-9.23,1.46-3.7,1.36-6.95,3.48-9.92,6.04-3.21,2.77-6.28,5.7-8.79,9.15-.41.56-.88,1.08-1.29,1.65-1.27,1.79-2.6,3.54-3.77,5.39-1.17,1.85-2.22,3.78-3.27,5.71-2.36,4.28-4.55,8.64-6.4,13.17-1.11,2.72-2.19,5.46-3.15,8.23-.94,2.73-1.73,5.52-2.56,8.29-.4,1.34-.77,2.69-1.05,4.05-.48,2.34-.91,4.7-1.31,7.06-.48,2.86-.72,5.74-.78,8.63-.07,3.19.14,6.38.59,9.55.55,3.87,1.54,7.62,3.41,11.09,1.29,2.4,2.91,4.53,5.15,6.13,1.51,1.08,3.15,1.93,4.99,2.29,2.38.48,4.75.43,7.12-.14,2.93-.71,5.67-1.86,8.3-3.33,1.08-.6,2.11-1.26,3.23-2.12-.35-.09-.52-.17-.7-.18-.66-.05-1.25-.29-1.84-.57-2.76-1.3-4.6-3.51-5.82-6.19-1.85-4.09-1.9-8.32-.49-12.55,1.3-3.89,3.19-7.53,5.1-11.14,1.66-3.13,3.33-6.25,4.79-9.47,1.81-4,3.57-8.02,5.19-12.09,1.65-4.17,3.33-8.33,5.23-12.4,1.33-2.86,2.92-5.57,4.94-8,1.63-1.96,3.63-3.41,6.1-4.15,2.15-.64,4.27-.46,6.28.47,2.32,1.08,4.09,2.81,5.26,5.12.22.43.43.86.8,1.59ZM212.34,226.29c-.32-.25-.55-.42-.78-.59-1.67-1.26-3.35-2.52-5.02-3.77-1.2-.9-2.38-1.82-3.59-2.7-3.57-2.58-7.37-4.76-11.28-6.77-4.39-2.27-8.92-4.24-13.65-5.7-2.86-.88-5.75-1.66-8.64-2.42-4.35-1.15-8.75-2-13.23-2.5-3.72-.42-7.43-.83-11.19-.74-1.04.03-1.96.14-2.73.92-.42.42-.93.76-1.39,1.13-4.22,3.36-8.58,6.53-13.27,9.21-.91.52-1.84,1-2.79,1.43-1.02.47-2.07.71-3.19.33-.23-.08-.49-.08-.74-.08-3.05-.07-5.89-.93-8.64-2.19-1.77-.82-3.41-1.87-5-3-3.14-2.23-6.12-4.64-8.95-7.25-.27-.25-.47-.66-1.05-.59.03.39.02.78.09,1.15.76,4.23,2.25,8.17,4.73,11.7,1.96,2.79,4.19,5.33,6.78,7.55,2.78,2.38,5.76,4.45,8.95,6.22,2.71,1.5,5.55,2.72,8.41,3.89,8.22,3.37,16.58,6.34,24.9,9.43,5.37,2,10.78,3.91,16.08,6.11,7.92,3.3,15.84,6.6,23.24,10.99.24.14.53.22.89.37.36-1.69.62-3.32,1.05-4.9.43-1.58.97-3.15,1.58-4.67.61-1.53,1.32-3.02,2.08-4.48.73-1.41,1.52-2.81,2.4-4.14.91-1.37,1.91-2.68,2.96-3.95,1.05-1.27,2.16-2.49,3.33-3.64,1.17-1.16,2.4-2.26,3.66-3.31,1.25-1.04,2.58-1.99,3.98-3.05ZM217.55,238.36c-.16,1.19-.22,2.29-.47,3.35-.91,3.86-2.3,7.53-4.36,10.93-1.24,2.05-2.55,4.07-4.6,5.44-.37.25-.47.61-.45,1.04.05,1.02.35,1.96.78,2.87,2.1,4.43,5.23,7.99,9.25,10.77,1.83,1.26,3.86,1.82,6.07,1.81,2.36-.01,4.66-.4,6.9-1.16,3.52-1.2,6.76-2.95,9.83-5.03,4.02-2.72,7.72-5.83,11.19-9.22,3.33-3.25,6.29-6.82,8.91-10.66,2.97-4.36,5.05-9.16,6.85-14.09.82-2.26,1.48-4.57,1.64-6.97.35-5.12-.87-9.89-3.45-14.32-.81-1.4-1.91-2.57-3.18-3.55-1.73-1.35-3.56-2.56-5.51-3.58-1.58-.82-3.27-1.22-5.02-1.35-3.18-.22-6.27.25-9.27,1.29-3.57,1.24-6.6,3.3-8.88,6.34-.86,1.15-1.6,2.41-2.28,3.68-1.26,2.34-2.04,4.87-2.8,7.4-.53,1.77-1.02,3.55-1.63,5.29-1.14,3.22-3.04,5.93-5.76,8.04-1.08.83-2.23,1.5-3.77,1.7ZM58.86,223.61c-.94-.75-1.86-1.37-2.62-2.13-2.53-2.53-3.27-5.52-2.04-8.91.29-.79.69-1.55,1.14-2.26,1.8-2.91,4.49-4.76,7.51-6.19,1.83-.86,3.75-1.35,5.78-1.3.45,0,.89-.07,1.34-.09.62-.03.97-.33,1.16-.95.41-1.31.23-2.57-.26-3.8-.62-1.57-1.64-2.85-2.94-3.9-2.34-1.89-5-3.06-7.95-3.62-2.73-.52-5.46-.5-8.18-.03-4.87.85-9.41,2.58-13.66,5.09-5.1,3-9.77,6.57-14.09,10.59-1.82,1.7-3.58,3.48-5.22,5.36-4.23,4.85-7.28,10.33-8.61,16.7-.52,2.47-.71,4.94-.32,7.43.55,3.48,2.04,6.56,4.25,9.28,2.65,3.26,5.92,5.76,9.69,7.61,2.28,1.12,4.7,1.7,7.24,1.48,3.59-.31,6.94-1.36,9.85-3.58,2.73-2.07,5.04-4.53,6.81-7.48.69-1.15,1.34-2.34,1.94-3.54,1.29-2.59,2.54-5.2,3.81-7.79,1.37-2.79,2.84-5.5,5.18-7.62.07-.06.1-.17.19-.32ZM206.12,152.5c-.05-.12-.06-.18-.09-.19-.17-.1-.34-.2-.52-.28-3.12-1.35-5.14-3.69-6.21-6.88-1.23-3.67-1.11-7.36-.02-11.04.5-1.69,1.34-3.23,2.22-4.73,1.88-3.18,3.8-6.32,5.77-9.45,2.42-3.85,4.57-7.84,6.38-12.01,1.63-3.75,3.22-7.52,4.78-11.29,1.43-3.46,2.77-6.94,4.18-10.41.92-2.27,1.93-4.49,3.53-6.39,1.79-2.13,4.01-3.6,6.71-4.27,2.01-.5,3.94-.28,5.74.9.93.61,1.71,1.37,2.47,2.16.16.16.35.3.59.49.06-.42.15-.71.13-1-.14-1.64-.23-3.29-.48-4.91-.67-4.43-2.17-8.59-4.38-12.49-1.95-3.46-4.54-6.29-8.06-8.21-3.17-1.73-6.53-2.65-10.17-2.51-4.21.17-7.66,1.93-10.62,4.82.03.44.03.84.09,1.23.42,3.01.63,6.04.8,9.07.25,4.4.06,8.77-.6,13.12-.22,1.43-.43,2.86-.71,4.27-.31,1.51-.65,3.02-1.07,4.51-.59,2.11-1.24,4.21-1.91,6.3-.59,1.85-1.19,3.7-1.86,5.53-.74,2.01-1.54,4-2.34,5.98-.84,2.08-1.69,4.16-2.59,6.21-.54,1.23-1.22,2.4-1.8,3.61-1.36,2.84-3.01,5.51-4.73,8.14-1.7,2.59-3.71,4.94-5.74,7.28-3.08,3.55-6.36,6.89-10.1,9.74-.27.21-.51.45-.74.66.13.8.23,1.54.36,2.27.12.69.22,1.39.43,2.05.76,2.4,1.9,4.61,3.55,6.52,1.74,2,3.87,3.44,6.39,4.26,2.69.87,5.47,1.08,8.28.93,3.96-.22,7.62-1.44,11.14-3.2.44-.22.83-.52,1.23-.77ZM273.2,92.07c-.03-.83-.01-1.42-.07-2.01-.29-2.83-.71-5.63-1.55-8.37-1.39-4.54-3.48-8.68-6.71-12.22-2.75-3.02-6.07-5.02-10.09-5.7-3.33-.56-6.66-.44-9.92.59-1.36.43-2.67,1-3.99,1.57.07.29.1.49.16.68,1.62,5.41,1.93,10.98,1.83,16.58-.04,2.24-.29,4.48-.42,6.72-.17,2.95-.84,5.83-1.46,8.7-.41,1.9-1.03,3.75-1.5,5.64-.66,2.62-1.53,5.17-2.48,7.69-1.24,3.26-2.57,6.49-4.13,9.62-1.95,3.94-3.96,7.83-6.32,11.54-3.87,6.07-8.04,11.91-13.39,16.81-.3.28-.52.59-.62.99-.84,3.13-.47,6.2.88,9.05,2.08,4.4,5.78,6.61,10.57,6.96,3.86.28,7.54-.55,11.06-2.12.35-.16.67-.39,1.09-.63-.28-.28-.48-.49-.69-.68-2.16-1.87-3.19-4.29-3.41-7.09-.22-2.77.2-5.47,1.08-8.09,1.07-3.19,2.72-6.09,4.56-8.9,1.81-2.75,3.6-5.52,5.29-8.34,1.9-3.17,3.63-6.44,5-9.87,1.83-4.58,3.56-9.21,5.3-13.83,1.46-3.88,3.12-7.66,5.35-11.18,1.14-1.79,2.53-3.34,4.12-4.71.6-.51,1.29-.95,2.01-1.3,3.03-1.47,6.12-.78,7.88,1.44.09.11.22.19.56.47ZM69.45,229.94c1.53,1.11,2.98,2.08,4.35,3.16,4.46,3.52,9.32,6.3,14.66,8.28,4.78,1.77,9.63,3.26,14.7,3.98,4.46.63,8.93.95,13.43.81,5.45-.17,10.8-1.14,16.13-2.23.23-.05.43-.18.62-.26.08-.57-.12-.98-.4-1.33-.45-.53-.89-1.09-1.42-1.53-1.16-.94-2.34-1.87-3.58-2.71-2.27-1.54-4.54-3.09-6.89-4.5-3.26-1.96-6.27-4.25-9.28-6.56-6.06-4.65-10.58-10.52-13.9-17.37-.22-.44-.43-.89-.64-1.31-.74-.21-1.43-.35-2.07-.6-1.46-.58-2.7-1.49-3.72-2.7-.81-.95-1.61-1.9-2.38-2.89-.37-.48-.82-.71-1.4-.72-.25,0-.5,0-.75,0-1.52.03-2.95.42-4.37.9-3.38,1.15-6.06,3.21-8.07,6.14-.85,1.24-1.53,2.57-2.1,3.96-.97,2.37-1.57,4.84-2.04,7.34-.62,3.3-.79,6.63-.92,9.98,0,.05.03.09.04.13ZM136.35,3c-.12,2.46-.22,4.6-.34,6.73-.16,2.99-.31,5.98-.48,8.96-.12,2.04-.26,4.08-.39,6.12-.14,2.19-.28,4.38-.44,6.57-.2,2.74-.44,5.47-.64,8.21-.29,3.93-.55,7.86-.85,11.79-.28,3.73-.6,7.46-.91,11.18-.07.83.13,1.55.59,2.26.68,1.03,1.59,1.63,2.82,1.74.64.06,1.3.12,1.94.09,2.47-.12,4.83-.72,7.09-1.7,3.24-1.41,6.13-3.38,8.72-5.73,1.7-1.54,3.45-3.02,5.19-4.51.45-.39.88-.81,1.27-1.26,1.17-1.36,2.29-2.77,3.48-4.1,3.55-3.96,7.48-7.47,12.09-10.18.23-.14.42-.35.65-.56-.25-.31-.42-.56-.64-.76-1.45-1.37-2.87-2.76-4.37-4.08-4.34-3.82-8.73-7.59-13.08-11.4-3.45-3.02-6.91-6.03-10.33-9.09-3.19-2.86-6.33-5.79-9.5-8.67-.54-.49-1.12-.95-1.88-1.59ZM137.91,131.5c.28-.25.18-.49.13-.73-.26-1.22-.6-2.43-.77-3.66-.66-4.7-.97-9.41-.57-14.15.27-3.23.7-6.44,1.35-9.62.43-2.1.95-4.18,1.46-6.26.82-3.39,1.88-6.72,3.03-10.01.9-2.59,1.82-5.17,2.95-7.67.87-1.91,1.64-3.85,2.52-5.75.77-1.67,1.6-3.32,2.46-4.95,1.02-1.94,2.11-3.84,3.17-5.76.12-.21.29-.41.05-.69-.17.09-.35.16-.5.28-1.9,1.48-3.95,2.72-6.06,3.84-3.19,1.69-6.59,2.58-10.22,2.34-3.27-.21-6.76-2.52-7.08-6.66-.01-.19-.06-.38-.1-.57-.09,0-.16-.02-.19,0-.21.13-.42.26-.61.42-1.61,1.35-3.07,2.83-4.43,4.45-2.03,2.43-3.66,5.09-4.95,7.97-1.25,2.78-2.25,5.64-3.05,8.58-.82,3.05-1.37,6.13-1.51,9.28-.22,4.67.32,9.25,1.68,13.74,1.43,4.7,3.72,8.92,6.84,12.68,3.87,4.68,8.42,8.63,13.33,12.18.35.26.73.48,1.08.71ZM208.87,153.5c-1.17.71-2.21,1.4-3.31,1.97-1.1.57-2.26,1.06-3.41,1.53-1.14.46-2.32.83-3.43,1.22.06,2.6.13,5.09.17,7.57.03,1.64.11,3.29-.14,4.93-.16,1.07-.49,2.03-1.37,2.73-.14.11-.22.3-.33.46.16.27.3.48.41.69,1.17,2.14,1.07,3.22-.56,5-2.33,2.55-4.46,5.24-6.44,8.06-.47.66-.8,1.36-1.05,2.13-1.16,3.56-2.45,7.07-4.02,10.47-.69,1.5-1.48,2.94-2.48,4.26-.17.22-.3.47-.43.68.14.16.2.26.28.29,3.73,1.4,7.53,2.64,11.15,4.33.44.2.88.12,1.3-.07,1.01-.45,1.69-1.22,2.08-2.24.23-.61.41-1.23.58-1.86.8-2.99,1.41-6.03,1.8-9.1.41-3.22.72-6.45,1.08-9.67.64-5.77.6-11.55.35-17.34-.06-1.49-.2-2.99-.28-4.48-.03-.52-.08-1.06.19-1.56.52.14.51.54.56.86.29,1.72.55,3.45.83,5.17.06.39.11.79.2,1.18.23,1.01.82,1.69,1.83,1.97,1.25.35,2.48.74,3.74,1.05,2.42.59,4.87,1.09,7.29,1.7,3.48.89,6.95,1.82,10.41,2.78,5.19,1.45,10.37,2.93,15.54,4.42,3.02.87,6.04,1.75,9.05,2.65,3.01.9,6.08,1.6,9.02,2.72.22.08.46.24.74-.03,0-.4.01-.84-.02-1.28-.15-2.1-.05-4.19.3-6.27.85-5.12,3.12-9.43,7.22-12.71.18-.14.46-.24.4-.65-.25-.05-.52-.12-.8-.16-6.51-1.04-13.09-1.46-19.66-1.94-1.19-.09-2.4-.17-3.58-.06-1.69.16-3.37.42-5.07.25-.42-.04-.78.05-1.13.28-2.08,1.33-4.39,2.16-6.74,2.82-2.56.71-5.19,1.04-7.85.83-3.39-.26-6.33-1.66-8.95-3.79-2.33-1.9-3.79-4.34-4.49-7.24-.35-1.44-.63-2.9-.98-4.53ZM197.78,63.56c-.34-.05-.53-.1-.71-.09-1.8.12-3.38.76-4.78,1.92-2.15,1.77-3.8,3.94-5.1,6.39-2.17,4.1-3.95,8.38-5.62,12.71-2.03,5.25-4.1,10.49-6.46,15.62-.83,1.81-1.6,3.66-2.52,5.42-2.07,3.98-4.13,7.97-5.81,12.13-1.14,2.81-1.87,5.68-1.6,8.74.3,3.38,1.41,6.41,3.9,8.83,1.5,1.45,3.27,2.22,5.36,2.32.69.03,1.27-.11,1.78-.58,1.54-1.41,3.16-2.75,4.63-4.24,3.67-3.74,7.15-7.65,10.04-12.04,1.15-1.75,2.31-3.5,3.32-5.33,1.62-2.92,3.16-5.88,4.43-8.98.47-1.15.93-2.31,1.38-3.47.08-.2.22-.46-.11-.67-.39.17-.78.38-1.2.52-1.31.47-2.63.59-3.93-.03-1-.48-1.86-1.13-2.61-1.96-1.34-1.5-2.01-3.32-2.52-5.2-1.05-3.86-.96-7.8-.62-11.73.31-3.59,1.18-7.07,2.33-10.49.77-2.29,1.81-4.42,3.1-6.46.68-1.07,1.5-1.99,2.55-2.7.24-.16.45-.36.77-.63ZM285.73,183.9c.52-.64,1.06-.68,1.62-.63,2.25.19,4.47.51,6.55,1.43,3.5,1.56,7.17,2.04,10.96,1.89.4-.02.8-.06,1.19-.14,1.47-.27,2.71-.98,3.74-2.06,2.82-2.95,1.5-6.91-.46-8.56-.68-.57-1.47-1.03-2.28-1.41-1.72-.81-3.55-1.32-5.44-1.58-1.63-.22-3.27-.41-4.9-.62-2.58-.33-5.14-.74-7.59-1.66-1.49-.56-2.98-1.14-4.47-1.7-2.1-.8-4.22-1.52-6.5-1.65-4.82-.28-8.82,1.29-11.77,5.22-.21.28-.42.56-.62.84-1.46,2.13-2.42,4.47-2.82,7.03-.64,4.07-.44,8.06,1.13,11.92,1.15,2.85,3.09,4.98,5.94,6.22,2.5,1.09,5.12,1.67,7.82,1.89,1.19.1,2.39.04,3.59-.03,1.36-.07,2.65-.49,3.84-1.16,2.77-1.57,3.09-5.13.67-7.18-.27-.22-.55-.43-.85-.61-.64-.38-1.29-.75-1.95-1.1-1.11-.6-2.13-1.3-2.83-2.38-.64-.99-.77-2.04-.37-3.15.19-.52.49-.95,1.17-1.03-.18.57-.39,1.06-.46,1.56-.07.5.07,1,.4,1.41.34.41.67.84,1.23.93,1.51-2.12,2.07-2.45,3.45-2-.04.58-.11,1.17-.1,1.76.02.99.32,1.83,1.22,2.42.58.38,1.08.88,1.56,1.38.37.38.79.59,1.29.69,1.15.23,2.07-.16,2.78-1.05.59-.75,1.04-1.59,1.26-2.52.07-.32,0-.67,0-.98-.91-.5-1.73-.99-2.58-1.41-.85-.42-1.73-.78-2.6-1.14-.86-.35-1.88-.21-2.8-.84ZM267.01,123.99c-.32.05-.5.06-.68.1-.74.18-1.49.28-2.22.04-1.34-.44-2.54-1.11-3.43-2.27-.97-1.26-1.51-2.68-1.89-4.19-.77-3.06-.62-6.14-.21-9.21.38-2.89,1.37-5.62,2.42-8.31,1.27-3.26,2.82-6.39,5.22-9.01.05-.06.05-.18.07-.27-1.06.13-1.72.4-2.63,1.13-1.29,1.04-2.42,2.22-3.37,3.58-1.67,2.38-3.03,4.93-4.13,7.61-1.31,3.18-2.49,6.41-3.69,9.64-1.54,4.16-2.94,8.37-4.81,12.4-1.95,4.21-4.13,8.3-6.55,12.26-1.56,2.55-3.16,5.08-4.48,7.77-1.68,3.42-2.6,7.01-2.27,10.84.17,1.91.65,3.75,2.08,5.16.6.59,1.24,1.13,1.92,1.74.54-.32,1.09-.57,1.55-.93,1.78-1.36,3.59-2.7,5.29-4.16,2.23-1.92,4.18-4.13,6.13-6.34,2.29-2.59,4.27-5.39,6.14-8.28,3.73-5.75,6.68-11.91,9.27-18.24.12-.3.16-.64.27-1.07ZM271.34,76.77c.2.59.34,1.06.5,1.52,1.45,4.02,2.21,8.17,2.42,12.43.24,4.9-.25,9.77-.93,14.61-.53,3.74.07,7.24,1.82,10.57.52.99,1.29,1.77,2.12,2.49.36.31.77.38,1.25.34,1.36-.13,2.32-.82,3.02-1.95,1.08-1.73,2.17-3.47,3.22-5.22,1.42-2.35,2.82-4.7,4.21-7.07,2.2-3.74,4.33-7.52,6.57-11.23,2.01-3.33,4.13-6.59,6.22-9.87.89-1.39,1.84-2.73,2.75-4.1.3-.45.67-.86.77-1.44-.17-.06-.31-.15-.44-.15-10.96-.36-21.92-.72-32.88-1.07-.14,0-.28.06-.64.14ZM68.33,166.39c-.65-.02-1-.07-1.34-.03-.59.07-1.21.11-1.74.34-.77.33-1.49.8-2.2,1.26-.5.32-.59.74-.41,1.3.23.71.73,1.18,1.38,1.49,1.42.69,2.9.7,4.38.24,2.45-.77,4.46-2.2,6.01-4.25.6-.8,1.16-1.62,1.72-2.45.16-.23.26-.5.39-.77-.27-.21-.46-.37-.66-.51-3.38-2.34-5.71-5.51-7.41-9.21-2.18-4.75-3.19-9.75-3.33-14.94-.03-1.2-.02-2.4.04-3.59.08-1.71-1.99-3.6-3.67-3.32-1.13.19-2.28.26-3.4.48-3.13.63-5.78,2.15-7.94,4.49-1.27,1.38-2.16,2.99-2.55,4.84-.32,1.53-.04,2.92.93,4.25.45-.4.82-.73,1.2-1.05,1.98-1.7,4.31-2.67,6.85-3.17.23-.04.51-.11.58.35-.32.17-.66.35-1,.52-.89.45-1.81.85-2.66,1.36-1.9,1.12-3.31,2.71-4.27,4.69-.71,1.47-1.04,3.01-.79,4.65.15,1.03.57,1.9,1.41,2.55,1.22.93,1.67.93,2.85-.07,1.69-1.44,3.65-2.42,5.67-3.3.18-.08.51-.41.75.08-1.04.69-2.08,1.37-3.11,2.06-1.21.82-2.25,1.82-3.09,3.02-1.98,2.79-1.91,6.41.19,8.9,1.61,1.91,4.77,3.37,7.92,1.19.53-.37,1.03-.8,1.58-1.14.8-.5,1.6-1.02,2.46-1.42.98-.45,1.96-.23,2.84.35.17.11.23.38.47.82ZM144.79,200.06c.5.32.94.2,1.37.18,1.89-.07,3.78-.18,5.68-.17,1.34,0,2.69.19,4.03.27,2.89.16,5.77.43,8.63.9,4.43.73,8.83,1.63,13.17,2.77.62.16,1.25.29,1.93.44.24-.35.49-.66.68-1,2.91-5.01,5.31-10.27,7.31-15.71,1.74-4.73,3.18-9.56,4.32-14.47.43-1.85.77-3.71,1.13-5.57.04-.21.18-.49-.22-.65-.61.79-1.47.87-2.37.68-.93,1.33-1.8,2.61-3.21,3.37-.16.09-.27.29-.36.47-.91,1.91-2.25,3.53-3.47,5.23-1.4,1.95-3.06,3.68-4.88,5.25-5.05,4.36-10.79,7.52-17.02,9.81-3.2,1.18-6.5,1.9-9.95,1.42-.53.61-1.04,1.23-1.58,1.81-.54.58-1.11,1.15-1.69,1.7-.58.55-1.18,1.08-1.76,1.62-.57.53-1.23.98-1.75,1.65ZM272.66,110.73c-.07.01-.14.02-.21.03-.35,1.45-.66,2.91-1.06,4.35-.94,3.36-1.95,6.69-3.2,9.96-1.84,4.8-3.89,9.5-6.31,14.04-2.52,4.72-5.4,9.21-8.87,13.29-2.75,3.23-5.65,6.32-9.05,8.9-.17.13-.28.33-.49.57.29.04.44.09.58.07,2.69-.28,5.33-.79,7.88-1.66,3.27-1.12,6.34-2.66,9.18-4.65,2.91-2.04,5.58-4.34,8.03-6.92,3.07-3.25,5.64-6.84,7.78-10.75,1.59-2.9,2.84-5.93,3.93-9.04.97-2.79,1.6-5.66,1.73-8.62.01-.28-.07-.57-.11-.96-.65.37-1.2.69-1.76,1-1.16.64-2.32.55-3.41-.12-.54-.33-1.03-.79-1.45-1.27-1.49-1.69-2.31-3.71-2.76-5.89-.16-.77-.28-1.55-.42-2.32ZM248.29,275.72c-.39-.49-.85-.96-1.19-1.5-.72-1.16-.64-2.12.27-3.15.63-.71,1.32-1.36,2.02-2,.55-.51,1.12-1,1.72-1.43.98-.7,2.07-.96,3.26-.63.43.12.88.19,1.31.3.97.25,1.9.11,2.74-.4.76-.46,1.52-.97,2.2-1.55,2.29-1.96,4.2-4.26,5.9-6.73,2.5-3.62,4.71-7.41,6.6-11.38,3.71-7.79,5.29-15.96,4.06-24.58-.3-2.1-.92-4.09-1.8-5.99-.9-1.94-2.44-3.25-4.37-4.11-.69-.31-1.33-.22-1.9.36.16.32.28.59.43.85,1.58,2.88,2.47,5.98,2.93,9.22.25,1.74.24,3.48.02,5.22-.31,2.44-1.02,4.78-1.85,7.08-2.39,6.6-5.53,12.79-9.67,18.49-3.51,4.83-7.48,9.22-11.85,13.25-3.34,3.08-6.91,5.87-10.87,8.16-4.57,2.64-9.43,4.01-14.73,3.61-.22-.02-.5-.14-.68.22.08.14.15.32.27.47,1.07,1.42,2.44,2.49,4.05,3.23,1.73.8,3.56.88,5.42.58,2.82-.47,5.51-1.34,8.14-2.47,2.31-.99,4.42-2.3,6.48-3.71.44-.3.92-.61,1.12-1.42ZM179.71,169.03c-.46.5-.9,1.05-1.41,1.52-.55.51-1.13.99-1.75,1.4-2.6,1.74-5.41,2.97-8.49,3.58-3.67.72-7.35.65-11.03.24-2.18-.24-4.36-.58-6.51-.98-1.31-.24-2.38.02-3.23,1.02-.61.72-1.24,1.44-1.73,2.24-1.37,2.21-2.3,4.64-3.38,7-.04.08,0,.19,0,.39,1.11.74,2.24,1.54,3.42,2.28,2.11,1.32,4.26,2.6,6.38,3.9.67.41,1.37.58,2.14.44,1.37-.26,2.76-.46,4.1-.82,7.35-1.95,13.86-5.56,19.82-10.22,2.94-2.3,5.2-5.23,7.26-8.31.3-.44.66-.89.63-1.47-1.61-1.4-3.99-2.25-6.21-2.22ZM11.26,244.27c-.18-.39-.27-.6-.37-.8-.63-1.25-1.32-2.47-1.89-3.74-1.49-3.31-1.96-6.79-1.46-10.38.44-3.23,1.32-6.34,2.64-9.33,1.89-4.29,4.56-8.07,7.69-11.53,5.08-5.61,10.76-10.54,17.06-14.74,5.39-3.6,11.29-5.9,17.73-6.81,5.28-.74,10.34-.13,15.13,2.34.16.08.36.11.71.22-.18-.31-.24-.49-.36-.62-2.03-2.18-4.37-3.94-7.11-5.13-1.56-.68-3.19-1.07-4.91-1.18-2.45-.15-4.89-.02-7.32.21-4.94.48-9.72,1.69-14.38,3.38-.41.15-.8.39-1.17.57-.05.36-.13.65-.12.94.01,1.17-.41,2.13-1.27,2.92-1.06.99-2.1,1.99-3.14,2.99-.79.75-1.72.97-2.77.67-.33-.09-.66-.23-.97-.38-.75-.37-1.45-.28-2.11.19-.61.44-1.23.86-1.79,1.35-2.62,2.24-5.08,4.65-7.41,7.19-4.33,4.7-7.36,10.15-9.42,16.17-1.32,3.86-1.67,7.8-.76,11.79,1.18,5.13,3.73,9.53,7.25,13.41.08.09.23.12.54.28ZM206.35,79.63c.12-1.59.3-3.18.33-4.77.02-1.64-.1-3.28-.18-4.92-.01-.29-.09-.6-.22-.86-1.33-2.64-3.56-4.23-6.23-5.29-.49-.2-.99-.06-1.44.18-1.07.56-2.04,1.23-2.77,2.23-1.26,1.75-2.31,3.61-3.02,5.65-.5,1.46-.99,2.93-1.39,4.42-.42,1.54-.8,3.09-1.06,4.66-.53,3.11-.58,6.26-.3,9.39.24,2.69.84,5.31,2.15,7.73.58,1.08,1.35,2,2.33,2.69,1.73,1.22,3.08,1.09,4.4.05,1.11-.88,2.03-1.91,2.48-3.3.72-2.17,1.58-4.3,2.23-6.5,1.1-3.74,2.12-7.48,2.69-11.35ZM239.97,63.46c.77-.4,1.45-.82,2.17-1.12,1.89-.8,3.86-1.32,5.92-1.46.33-.02.71-.1.98-.28,1.97-1.34,2.48-3.35,1.72-5.21-.41-1-1.07-1.79-1.86-2.49-1.06-.93-2.23-1.67-3.49-2.29-2.07-1.03-4.29-1.6-6.53-2.11-2.53-.58-5.1-1.01-7.58-1.74-6.5-1.9-12.57-4.76-18.22-8.51-1.91-1.27-3.8-2.56-5.73-3.8-1.13-.72-2.31-1.37-3.49-2.01-1.2-.65-2.52-.93-3.87-1.03-1.16-.08-2.31.06-3.37.54-1.44.65-2.46,1.66-2.46,3.46.47.21.91.44,1.36.61,3.19,1.17,5.7,3.23,7.67,5.95,1.69,2.32,2.81,4.92,3.59,7.67.13.46.3.92.49,1.5.29-.22.47-.37.66-.5.74-.5,1.44-1.09,2.23-1.48,3.36-1.67,6.93-2.06,10.63-1.61,2.3.28,4.48.95,6.56,1.94,2.63,1.25,5.02,2.85,7.03,4.99,2.1,2.25,3.64,4.85,4.93,7.62.21.45.42.9.64,1.38ZM272.7,103.17c.18-2.48.36-4.72.51-6.95.03-.39.04-.81-.06-1.18-.48-1.78-1.57-3.13-3.21-3.93-1.79-.87-2.01-.58-3.32.55-.15.13-.29.28-.41.44-1,1.31-1.99,2.63-2.7,4.12-.67,1.39-1.31,2.8-1.92,4.22-1.61,3.81-2.59,7.74-2.43,11.92.09,2.23.57,4.33,1.58,6.33.49.96,1.17,1.73,2.03,2.35,2.19,1.58,5.27.6,6.1-1.97.77-2.42,1.56-4.84,2.15-7.31.69-2.91,1.16-5.87,1.68-8.58ZM158.44,173.82c.12.05.21.12.3.12,1.84.02,3.68.02,5.52.04.68,0,1.08-.38,1.48-.86,4.76-5.76,8.77-11.97,11.44-18.98.09-.23.13-.47.25-.9-.16-.15-.4-.34-.6-.56-1.33-1.45-2.25-3.15-3.13-4.88-.1-.19-.25-.36-.38-.53-.17.11-.27.14-.34.21-2.32,2.42-4.94,4.48-7.59,6.53-1.82,1.4-1.6,1.1-1.3,3.37.32,2.47.66,4.94.97,7.41.06.49.05.99.04,1.49,0,.17,0,.42-.4.42-.96-1.03-.69-2.58-1.35-3.81-1.53.76-2.99,1.5-4.48,2.21-.73.35-1,.83-.93,1.66.2,2.33.32,4.66.48,7.08ZM207.72,234.9c-.41.47-.75.82-1.05,1.21-2.13,2.73-3.82,5.71-5.13,8.92-.92,2.27-1.28,4.6-.76,7.12.73.54,1.55,1.11,2.32,1.74.8.66,1.55,1.38,2.35,2.1,3.21-1.53,5.4-4.01,7.28-6.81,1.65-2.45,3.27-7.02,3.2-8.72-2.94-1.42-5.32-3.68-8.2-5.55ZM72.22,205.27c-1.38-.63-2.56-1.14-3.9-1.1-5.58.14-9.51,3.84-10.3,9.32-.32,2.19.49,4.01,2.02,5.53.67.67,1.49,1.11,2.43,1.33.53-1.46.96-2.89,1.57-4.23.61-1.35,1.38-2.64,2.13-3.93.78-1.33,1.68-2.6,2.76-3.7,1.03-1.06,2.11-2.06,3.3-3.21ZM194.18,176.32c-.37-.71-.08-1.1.18-1.43.59-.74,1.2-1.46,1.86-2.14.59-.6.94-1.27.99-2.1.08-1.34.17-2.68.24-4.02.13-2.59.24-5.17.35-7.76,0-.13-.07-.26-.12-.43-.53-.07-.99.02-1.44.33-.29,1.68-.85,3.27-1.57,4.81-.16.34-.18.77-.16,1.15.06,1.55,0,3.09-.18,4.62-.36,3.02-.99,6-1.7,8.95-.44,1.84-.91,3.67-1.4,5.65.27-.18.44-.26.56-.39,1.56-1.74,3.12-3.49,4.68-5.24.16-.18.34-.38.44-.6.1-.21.19-.48.15-.7-.13-.82-.36-1.62-.88-2.36-.68.55-1.28,1.05-2,1.64ZM176.86,158.71c-.28.61-.48,1.01-.66,1.41-.18.41-.35.82-.54,1.23-.18.41-.38.81-.57,1.21-.19.4-.39.81-.58,1.21-.2.4-.4.8-.6,1.2-.2.4-.4.8-.62,1.19-.23.44-.48.87-.72,1.31-.22.39-.44.78-.66,1.17-.22.39-.44.78-.67,1.16-.23.38-.47.76-.71,1.14-.24.38-.5.74-.74,1.12-.22.35-.55.64-.63,1.29,3.56-.95,6.65-2.43,9.26-4.66l.57-4.23q-1.26-1.5-2.15-5.76ZM185.95,161.41c-.51.37-.86.64-1.23.89-.91.61-1.8,1.26-2.75,1.8-.58.32-.91.72-1.04,1.36-.11.54-.3,1.06-.42,1.59-.06.27-.04.56-.06.89.81.16,1.55.28,2.27.46.67.17,1.35.36,1.99.63.67.29,1.29.69,1.95,1.04,1.08-.99,1.9-2.11,2.8-3.2-.64-.92-1.27-1.75-1.83-2.63-.56-.88-1.06-1.79-1.67-2.83ZM187.56,160.8c.73,1.19,1.41,2.34,2.13,3.47.37.58.79,1.14,1.23,1.68.17.21.45.32.73.51.27-.33.54-.56.7-.85,1.15-2.04,2.15-4.14,2.99-6.32.05-.12,0-.28-.02-.46-2.05.01-4.07.02-6.1.04-.51.59-1.03,1.19-1.67,1.94ZM295.29,188.21q-.87,2.68-2.57,5.06c-.24.33-.24.65-.04.97.48.79,1.18,1.17,2.12,1.11,2.89-.19,5.12-2.41,5.81-4.86.04-.13,0-.28-.01-.4-1.76-.62-3.48-1.23-5.3-1.88ZM179.8,155.59c-.1.32-.18.5-.21.68-.13.84-.3,1.68-.34,2.52-.04.84,0,1.7.14,2.53.35,2,.92,2.27,2.73,1.28,1.76-.96,3.36-2.16,4.76-3.6.09-.1.14-.25.24-.44-1.26-.39-2.51-.7-3.69-1.17-1.19-.48-2.31-1.13-3.63-1.79ZM213.61,227.38c-.37.08-.53.08-.63.15-1.98,1.42-3.92,2.91-5.66,4.63-.13.13-.18.33-.28.53.8.33,1.52.65,2.27.92.77.29,1.44.84,2.37.97.96-2.29,1.81-4.55,1.93-7.21ZM195.58,252.19c-.54,1.18-1.33,4.75-1.54,7.09-.02.23.06.46.1.78.41-.19.76-.27,1.02-.48,1.19-.97,2.37-1.96,3.52-2.98.18-.16.24-.54.22-.81-.02-.28-.16-.57-.3-.83-.47-.86-1.92-2.16-3.02-2.76Z"/>
    <path class="cls-6" d="M68.11,133.22c.37-.15.77-.35,1.2-.48,8-2.52,16.07-4.72,24.47-5.5,7.96-.74,15.85-.46,23.67,1.22,3.56.77,7.05,1.82,10.48,3.04,2.21.79,4.38,1.67,6.56,2.52,1.68.66,3.25,1.51,4.8,2.43.66.39,1.09.9,1.47,1.6,2.01,3.64,4.61,6.76,8.43,8.64,3.64,1.8,7.41,2.09,11.33.99,1.97-.55,3.94-1.1,5.76-2.04,1.5-.78,2.97-1.62,4.45-2.45.35-.19.68-.41,1.07-.64.5.55.36,1.24.55,1.83.2.61.41,1.21.62,1.84-.31.28-.55.52-.83.73-1.71,1.3-3.42,2.59-5.13,3.89-1.15.88-2.29,1.78-3.43,2.66-.95.74-1.37,1.68-1.17,2.89.12.74.21,1.48.33,2.22.16.98.35,1.95.53,2.96-1.47.64-2.88,1.25-4.29,1.86-.46.2-.91.41-1.36.63-.77.4-1.2,1.04-1.25,1.91-.03.45-.03.9,0,1.34.09,1.54.21,3.08.28,4.63.03.54-.05,1.08-.08,1.69-.43.01-.77.06-1.1.03-1.64-.17-3.28-.3-4.91-.55-1.63-.26-2.97.22-4.05,1.4-.67.73-1.33,1.5-1.85,2.34-1.37,2.21-2.35,4.61-3.31,7.03-.4,1-.26,1.85.5,2.6.64.63,1.26,1.29,1.98,1.82,1.4,1.04,2.86,2,4.3,2.99.45.31.91.59,1.45.93-.24.27-.41.51-.62.69-5.35,4.58-10.87,8.95-16.73,12.85-3.24,2.16-6.76,3.85-10.24,5.6-.98.49-1.98.61-3.05.43-2.43-.4-4.75-1.13-6.92-2.31-2.6-1.41-4.95-3.17-7.28-4.98-2.92-2.27-5.68-4.71-8.14-7.49-2.54-2.87-4.54-6.07-6.06-9.58-1.45-3.35-2.46-6.84-3.2-10.42-.34-1.64-.12-3.05.91-4.41.59-.18,1.16.03,1.69.3,1.63.84,3.29.74,4.94.2,7.79-2.54,15.44-5.41,22.46-9.75,2.34-1.45,4.59-3.02,6.67-4.81.86-.74,1.65-1.58,2.63-2.52.66.02,1.55.05,2.44.07.82.02,1.65.31,2.65-.06-.29-.27-.43-.5-.62-.56-.96-.28-1.92-.57-2.9-.74-1.92-.32-3.85-.59-5.78-.84-4.12-.54-8.26-.55-12.4-.34-7.01.35-13.86,1.61-20.55,3.72-3.14.99-6.18,2.26-9.18,3.63-.23.1-.46.2-.68.32-.5.29-.97.22-1.39-.11-1.09-.87-2.25-1.67-3.23-2.65-1.63-1.63-2.93-3.52-3.95-5.6-2.1-4.29-3-8.86-3.24-13.59-.07-1.29-.04-2.59,0-3.89.02-.69.17-1.38.28-2.15Z"/>
    <path class="cls-1" d="M207.67,69.8c-.37-.73-.59-1.16-.8-1.59-1.16-2.31-2.93-4.03-5.26-5.12-2-.94-4.13-1.11-6.28-.47-2.47.73-4.47,2.18-6.1,4.15-2.02,2.43-3.6,5.14-4.94,8-1.9,4.07-3.58,8.22-5.23,12.4-1.61,4.08-3.38,8.1-5.19,12.09-1.46,3.22-3.13,6.34-4.79,9.47-1.91,3.61-3.8,7.24-5.1,11.14-1.41,4.23-1.36,8.47.49,12.55,1.22,2.69,3.06,4.9,5.82,6.19.59.28,1.18.52,1.84.57.17.01.34.09.7.18-1.12.86-2.15,1.52-3.23,2.12-2.62,1.46-5.37,2.62-8.3,3.33-2.37.57-4.74.62-7.12.14-1.84-.37-3.48-1.21-4.99-2.29-2.24-1.6-3.86-3.74-5.15-6.13-1.87-3.47-2.86-7.21-3.41-11.09-.45-3.17-.66-6.35-.59-9.55.06-2.89.29-5.78.78-8.63.4-2.36.83-4.71,1.31-7.06.28-1.37.65-2.71,1.05-4.05.82-2.77,1.61-5.56,2.56-8.29.96-2.78,2.04-5.51,3.15-8.23,1.85-4.53,4.04-8.89,6.4-13.17,1.06-1.92,2.1-3.86,3.27-5.71,1.17-1.85,2.5-3.61,3.77-5.39.4-.57.88-1.09,1.29-1.65,2.51-3.46,5.58-6.38,8.79-9.15,2.96-2.56,6.22-4.67,9.92-6.04,2.97-1.1,6.04-1.79,9.23-1.46,2.72.28,5.22,1.2,7.4,2.94,3.12,2.48,5.02,5.74,6.22,9.47,1.08,3.33,1.69,6.76,1.98,10.24.23,2.73.43,5.46.61,8.2.04.52-.04,1.05-.08,1.9Z"/>
    <path class="cls-6" d="M212.34,226.29c-1.39,1.06-2.72,2.01-3.98,3.05-1.26,1.05-2.5,2.15-3.66,3.31-1.17,1.16-2.28,2.38-3.33,3.64-1.05,1.27-2.05,2.58-2.96,3.95-.88,1.33-1.67,2.72-2.4,4.14-.76,1.46-1.47,2.95-2.08,4.48-.61,1.52-1.15,3.09-1.58,4.67-.43,1.58-.69,3.2-1.05,4.9-.36-.15-.65-.23-.89-.37-7.4-4.39-15.32-7.7-23.24-10.99-5.3-2.2-10.71-4.11-16.08-6.11-8.32-3.1-16.68-6.07-24.9-9.43-2.86-1.17-5.7-2.39-8.41-3.89-3.2-1.77-6.18-3.85-8.95-6.22-2.6-2.22-4.83-4.76-6.78-7.55-2.48-3.53-3.97-7.47-4.73-11.7-.07-.38-.06-.76-.09-1.15.58-.06.78.35,1.05.59,2.83,2.61,5.81,5.02,8.95,7.25,1.59,1.13,3.22,2.18,5,3,2.74,1.26,5.59,2.12,8.64,2.19.25,0,.51,0,.74.08,1.12.38,2.18.14,3.19-.33.95-.44,1.88-.92,2.79-1.43,4.7-2.67,9.05-5.84,13.27-9.21.47-.37.98-.71,1.39-1.13.77-.78,1.68-.9,2.73-.92,3.76-.09,7.47.32,11.19.74,4.47.5,8.88,1.35,13.23,2.5,2.89.76,5.78,1.54,8.64,2.42,4.73,1.46,9.25,3.43,13.65,5.7,3.9,2.02,7.71,4.2,11.28,6.77,1.21.88,2.39,1.8,3.59,2.7,1.67,1.26,3.35,2.52,5.02,3.77.23.17.46.35.78.59Z"/>
    <path class="cls-2" d="M217.55,238.36c1.53-.2,2.69-.87,3.77-1.7,2.72-2.1,4.62-4.81,5.76-8.04.61-1.74,1.1-3.52,1.63-5.29.76-2.53,1.54-5.06,2.8-7.4.68-1.27,1.42-2.53,2.28-3.68,2.28-3.04,5.31-5.1,8.88-6.34,3-1.04,6.1-1.52,9.27-1.29,1.75.12,3.44.53,5.02,1.35,1.96,1.01,3.78,2.23,5.51,3.58,1.27.99,2.36,2.16,3.18,3.55,2.58,4.43,3.8,9.2,3.45,14.32-.17,2.4-.82,4.71-1.64,6.97-1.8,4.93-3.88,9.73-6.85,14.09-2.62,3.84-5.57,7.41-8.91,10.66-3.47,3.38-7.17,6.49-11.19,9.22-3.07,2.08-6.31,3.83-9.83,5.03-2.24.77-4.54,1.15-6.9,1.16-2.21.01-4.24-.55-6.07-1.81-4.03-2.78-7.15-6.33-9.25-10.77-.43-.91-.73-1.85-.78-2.87-.02-.43.07-.79.45-1.04,2.06-1.37,3.36-3.38,4.6-5.44,2.06-3.4,3.45-7.08,4.36-10.93.25-1.06.31-2.16.47-3.35Z"/>
    <path class="cls-2" d="M58.86,223.61c-.09.16-.12.26-.19.32-2.34,2.12-3.81,4.84-5.18,7.62-1.27,2.6-2.52,5.21-3.81,7.79-.6,1.2-1.25,2.39-1.94,3.54-1.76,2.95-4.08,5.41-6.81,7.48-2.91,2.21-6.26,3.26-9.85,3.58-2.54.22-4.96-.36-7.24-1.48-3.77-1.85-7.04-4.35-9.69-7.61-2.21-2.72-3.7-5.8-4.25-9.28-.39-2.49-.2-4.96.32-7.43,1.33-6.37,4.39-11.85,8.61-16.7,1.63-1.88,3.39-3.66,5.22-5.36,4.32-4.02,8.99-7.6,14.09-10.59,4.26-2.5,8.8-4.24,13.66-5.09,2.72-.47,5.46-.49,8.18.03,2.95.56,5.61,1.74,7.95,3.62,1.3,1.05,2.32,2.33,2.94,3.9.49,1.23.66,2.49.26,3.8-.19.62-.54.92-1.16.95-.45.02-.9.1-1.34.09-2.04-.04-3.96.44-5.78,1.3-3.02,1.42-5.71,3.28-7.51,6.19-.44.72-.85,1.47-1.14,2.26-1.23,3.39-.49,6.38,2.04,8.91.77.77,1.69,1.38,2.62,2.13Z"/>
    <path class="cls-1" d="M206.12,152.5c-.4.25-.8.55-1.23.77-3.51,1.75-7.18,2.98-11.14,3.2-2.82.15-5.59-.06-8.28-.93-2.52-.81-4.66-2.26-6.39-4.26-1.66-1.91-2.8-4.12-3.55-6.52-.21-.66-.3-1.36-.43-2.05-.13-.73-.24-1.47-.36-2.27.23-.2.47-.45.74-.66,3.75-2.85,7.02-6.2,10.1-9.74,2.03-2.34,4.04-4.69,5.74-7.28,1.72-2.63,3.37-5.3,4.73-8.14.58-1.21,1.26-2.38,1.8-3.61.9-2.05,1.75-4.13,2.59-6.21.8-1.99,1.6-3.97,2.34-5.98.67-1.83,1.27-3.68,1.86-5.53.66-2.09,1.32-4.19,1.91-6.3.42-1.49.76-2.99,1.07-4.51.29-1.41.49-2.85.71-4.27.66-4.35.85-8.72.6-13.12-.17-3.03-.37-6.06-.8-9.07-.06-.39-.06-.79-.09-1.23,2.96-2.89,6.41-4.65,10.62-4.82,3.64-.14,7,.78,10.17,2.51,3.52,1.92,6.11,4.75,8.06,8.21,2.2,3.9,3.71,8.06,4.38,12.49.24,1.62.34,3.27.48,4.91.02.29-.07.59-.13,1-.24-.2-.43-.33-.59-.49-.76-.79-1.53-1.55-2.47-2.16-1.8-1.18-3.73-1.4-5.74-.9-2.69.67-4.92,2.14-6.71,4.27-1.59,1.9-2.61,4.12-3.53,6.39-1.4,3.47-2.75,6.95-4.18,10.41-1.56,3.78-3.16,7.54-4.78,11.29-1.81,4.17-3.96,8.16-6.38,12.01-1.96,3.12-3.89,6.27-5.77,9.45-.88,1.5-1.73,3.04-2.22,4.73-1.09,3.68-1.21,7.37.02,11.04,1.07,3.19,3.09,5.53,6.21,6.88.18.08.35.18.52.28.03.02.04.08.09.19Z"/>
    <path class="cls-1" d="M273.2,92.07c-.34-.28-.47-.36-.56-.47-1.76-2.22-4.86-2.92-7.88-1.44-.71.35-1.41.78-2.01,1.3-1.6,1.37-2.99,2.92-4.12,4.71-2.23,3.52-3.89,7.3-5.35,11.18-1.74,4.62-3.47,9.25-5.3,13.83-1.37,3.43-3.1,6.7-5,9.87-1.69,2.82-3.48,5.59-5.29,8.34-1.85,2.8-3.49,5.7-4.56,8.9-.88,2.62-1.31,5.32-1.08,8.09.23,2.8,1.25,5.22,3.41,7.09.22.19.41.4.69.68-.42.25-.74.48-1.09.63-3.52,1.57-7.2,2.4-11.06,2.12-4.8-.35-8.49-2.56-10.57-6.96-1.35-2.85-1.72-5.92-.88-9.05.11-.41.32-.72.62-.99,5.34-4.9,9.51-10.74,13.39-16.81,2.37-3.71,4.38-7.6,6.32-11.54,1.55-3.14,2.89-6.36,4.13-9.62.95-2.52,1.82-5.07,2.48-7.69.48-1.89,1.09-3.74,1.5-5.64.62-2.87,1.29-5.75,1.46-8.7.13-2.24.38-4.48.42-6.72.09-5.6-.21-11.16-1.83-16.58-.06-.19-.09-.38-.16-.68,1.32-.57,2.62-1.14,3.99-1.57,3.26-1.03,6.59-1.16,9.92-.59,4.02.68,7.34,2.69,10.09,5.7,3.23,3.54,5.32,7.68,6.71,12.22.83,2.73,1.26,5.54,1.55,8.37.06.59.05,1.18.07,2.01Z"/>
    <path class="cls-6" d="M69.45,229.94s-.04-.08-.04-.13c.13-3.34.3-6.68.92-9.98.47-2.51,1.07-4.97,2.04-7.34.57-1.39,1.25-2.72,2.1-3.96,2.01-2.94,4.69-5,8.07-6.14,1.42-.48,2.86-.88,4.37-.9.25,0,.5,0,.75,0,.58,0,1.03.24,1.4.72.76.99,1.57,1.94,2.38,2.89,1.02,1.2,2.25,2.12,3.72,2.7.64.25,1.33.39,2.07.6.2.42.42.86.64,1.31,3.32,6.84,7.84,12.72,13.9,17.37,3.01,2.31,6.02,4.6,9.28,6.56,2.35,1.41,4.62,2.96,6.89,4.5,1.24.84,2.42,1.76,3.58,2.71.53.44.98.99,1.42,1.53.29.34.48.75.4,1.33-.19.08-.4.22-.62.26-5.33,1.09-10.68,2.05-16.13,2.23-4.5.14-8.97-.18-13.43-.81-5.07-.72-9.92-2.21-14.7-3.98-5.34-1.98-10.2-4.76-14.66-8.28-1.37-1.08-2.82-2.06-4.35-3.16Z"/>
    <path class="cls-4" d="M136.35,3c.76.64,1.34,1.09,1.88,1.59,3.17,2.89,6.3,5.81,9.5,8.67,3.42,3.06,6.88,6.07,10.33,9.09,4.36,3.81,8.74,7.58,13.08,11.4,1.5,1.32,2.92,2.71,4.37,4.08.21.2.38.46.64.76-.23.2-.42.42-.65.56-4.6,2.71-8.54,6.22-12.09,10.18-1.2,1.34-2.31,2.74-3.48,4.1-.39.45-.81.88-1.27,1.26-1.74,1.49-3.49,2.97-5.19,4.51-2.59,2.36-5.48,4.33-8.72,5.73-2.26.98-4.62,1.58-7.09,1.7-.64.03-1.29-.03-1.94-.09-1.22-.1-2.13-.7-2.82-1.74-.47-.71-.66-1.43-.59-2.26.31-3.73.63-7.45.91-11.18.3-3.93.56-7.86.85-11.79.2-2.74.44-5.47.64-8.21.16-2.19.3-4.38.44-6.57.13-2.04.28-4.08.39-6.12.17-2.99.32-5.97.48-8.96.11-2.14.21-4.27.34-6.73Z"/>
    <path class="cls-4" d="M137.91,131.5c-.35-.23-.73-.46-1.08-.71-4.91-3.55-9.46-7.5-13.33-12.18-3.12-3.77-5.41-7.98-6.84-12.68-1.36-4.49-1.9-9.06-1.68-13.74.15-3.15.69-6.23,1.51-9.28.79-2.95,1.8-5.81,3.05-8.58,1.29-2.88,2.92-5.54,4.95-7.97,1.35-1.62,2.82-3.1,4.43-4.45.19-.16.4-.28.61-.42.03-.02.09,0,.19,0,.03.18.08.38.1.57.32,4.14,3.81,6.44,7.08,6.66,3.63.24,7.03-.65,10.22-2.34,2.12-1.12,4.17-2.36,6.06-3.84.15-.12.34-.19.5-.28.24.28.07.48-.05.69-1.06,1.92-2.15,3.82-3.17,5.76-.86,1.63-1.69,3.28-2.46,4.95-.88,1.9-1.66,3.84-2.52,5.75-1.14,2.5-2.05,5.08-2.95,7.67-1.15,3.29-2.22,6.61-3.03,10.01-.5,2.08-1.02,4.16-1.46,6.26-.65,3.17-1.08,6.39-1.35,9.62-.4,4.74-.09,9.46.57,14.15.17,1.23.51,2.44.77,3.66.05.24.16.48-.13.73Z"/>
    <path class="cls-6" d="M208.87,153.5c.35,1.63.64,3.09.98,4.53.7,2.9,2.16,5.34,4.49,7.24,2.62,2.13,5.56,3.53,8.95,3.79,2.66.21,5.29-.11,7.85-.83,2.35-.66,4.66-1.49,6.74-2.82.35-.23.72-.32,1.13-.28,1.7.16,3.38-.09,5.07-.25,1.18-.11,2.39-.03,3.58.06,6.57.48,13.15.9,19.66,1.94.28.04.55.11.8.16.06.42-.22.51-.4.65-4.1,3.28-6.37,7.59-7.22,12.71-.35,2.08-.45,4.16-.3,6.27.03.44.01.89.02,1.28-.29.27-.52.11-.74.03-2.94-1.12-6.01-1.82-9.02-2.72-3.01-.9-6.03-1.78-9.05-2.65-5.18-1.49-10.35-2.97-15.54-4.42-3.46-.97-6.93-1.89-10.41-2.78-2.42-.62-4.86-1.11-7.29-1.7-1.26-.31-2.5-.7-3.74-1.05-1.01-.29-1.61-.96-1.83-1.97-.09-.39-.14-.78-.2-1.18-.27-1.72-.54-3.45-.83-5.17-.05-.31-.04-.71-.56-.86-.27.5-.22,1.04-.19,1.56.08,1.49.22,2.98.28,4.48.25,5.79.29,11.57-.35,17.34-.36,3.22-.68,6.45-1.08,9.67-.39,3.07-.99,6.11-1.8,9.1-.17.63-.35,1.25-.58,1.86-.39,1.02-1.07,1.79-2.08,2.24-.42.19-.86.28-1.3.07-3.62-1.69-7.41-2.93-11.15-4.33-.08-.03-.13-.14-.28-.29.13-.21.26-.46.43-.68,1-1.32,1.78-2.76,2.48-4.26,1.57-3.4,2.87-6.91,4.02-10.47.25-.77.59-1.47,1.05-2.13,1.98-2.82,4.12-5.51,6.44-8.06,1.62-1.77,1.72-2.85.56-5-.12-.22-.25-.43-.41-.69.11-.16.19-.35.33-.46.89-.7,1.21-1.66,1.37-2.73.25-1.64.16-3.29.14-4.93-.04-2.49-.11-4.98-.17-7.57,1.11-.39,2.28-.76,3.43-1.22,1.16-.46,2.31-.95,3.41-1.53,1.1-.57,2.14-1.27,3.31-1.97Z"/>
    <path class="cls-5" d="M197.78,63.56c-.33.27-.54.47-.77.63-1.05.72-1.87,1.64-2.55,2.7-1.28,2.03-2.33,4.17-3.1,6.46-1.14,3.42-2.01,6.89-2.33,10.49-.34,3.94-.44,7.87.62,11.73.51,1.88,1.18,3.7,2.52,5.2.75.83,1.61,1.48,2.61,1.96,1.3.63,2.62.5,3.93.03.42-.15.81-.35,1.2-.52.33.21.19.47.11.67-.45,1.16-.91,2.32-1.38,3.47-1.27,3.1-2.81,6.06-4.43,8.98-1.01,1.83-2.17,3.58-3.32,5.33-2.9,4.39-6.37,8.3-10.04,12.04-1.47,1.49-3.09,2.83-4.63,4.24-.51.47-1.09.61-1.78.58-2.09-.1-3.86-.87-5.36-2.32-2.49-2.42-3.6-5.45-3.9-8.83-.27-3.05.47-5.93,1.6-8.74,1.68-4.17,3.74-8.15,5.81-12.13.92-1.77,1.69-3.61,2.52-5.42,2.35-5.12,4.43-10.36,6.46-15.62,1.67-4.33,3.45-8.61,5.62-12.71,1.3-2.45,2.95-4.62,5.1-6.39,1.39-1.15,2.98-1.8,4.78-1.92.18-.01.37.05.71.09Z"/>
    <path class="cls-4" d="M285.73,183.9c.92.62,1.94.48,2.8.84.88.36,1.75.72,2.6,1.14.85.42,1.66.9,2.58,1.41,0,.31.07.66,0,.98-.22.94-.66,1.78-1.26,2.52-.71.89-1.63,1.28-2.78,1.05-.5-.1-.92-.31-1.29-.69-.48-.5-.99-1-1.56-1.38-.9-.59-1.2-1.43-1.22-2.42-.01-.59.07-1.18.1-1.76-1.38-.45-1.94-.13-3.45,2-.56-.09-.89-.52-1.23-.93-.33-.4-.47-.91-.4-1.41.07-.51.29-.99.46-1.56-.68.09-.99.52-1.17,1.03-.4,1.1-.27,2.16.37,3.15.7,1.09,1.72,1.79,2.83,2.38.66.35,1.31.72,1.95,1.1.3.18.59.38.85.61,2.42,2.05,2.1,5.61-.67,7.18-1.18.67-2.47,1.09-3.84,1.16-1.19.06-2.4.12-3.59.03-2.7-.22-5.33-.79-7.82-1.89-2.85-1.25-4.78-3.37-5.94-6.22-1.56-3.86-1.76-7.85-1.13-11.92.4-2.55,1.36-4.89,2.82-7.03.2-.29.41-.57.62-.84,2.96-3.92,6.95-5.49,11.77-5.22,2.28.13,4.4.85,6.5,1.65,1.49.57,2.98,1.14,4.47,1.7,2.45.92,5.01,1.33,7.59,1.66,1.63.21,3.27.4,4.9.62,1.89.26,3.72.77,5.44,1.58.8.38,1.6.84,2.28,1.41,1.97,1.65,3.28,5.61.46,8.56-1.03,1.08-2.27,1.78-3.74,2.06-.39.07-.79.12-1.19.14-3.79.15-7.46-.33-10.96-1.89-2.08-.92-4.3-1.24-6.55-1.43-.56-.05-1.09,0-1.62.63Z"/>
    <path class="cls-5" d="M232.88,77.04c-.28.18-.63.31-.84.56-.75.93-1.54,1.85-2.16,2.86-.98,1.62-1.87,3.3-2.72,4.99-.9,1.79-1.42,3.73-1.88,5.67-.62,2.62-1.07,5.28-1.12,7.98-.05,2.88.38,5.67,1.49,8.33.62,1.49,1.56,2.81,2.86,3.78,1.84,1.36,3.89,1.73,6.08.95.37-.13.72-.32,1.22-.55-.07.35-.07.58-.16.78-.91,2.16-1.78,4.34-2.77,6.46-1.02,2.17-2.11,4.3-3.25,6.4-3.75,6.86-8.24,13.2-13.6,18.9-1.74,1.85-3.68,3.51-5.5,5.29-.84.82-1.77.95-2.88.76-2.2-.37-3.7-1.72-4.84-3.47-2.34-3.57-2.88-7.47-1.91-11.61.51-2.17,1.56-4.1,2.64-6.01,1.29-2.3,2.67-4.56,4.08-6.8,3.45-5.51,6.38-11.27,8.83-17.3,1.73-4.25,3.45-8.5,5.09-12.79.78-2.05,1.53-4.11,2.3-6.17.87-2.31,2.04-4.44,3.67-6.3,1.14-1.3,2.52-2.26,4.09-2.95.31-.14.66-.19,1.09-.31.05.23.08.41.11.58l.06-.05Z"/>
    <path class="cls-5" d="M267.01,123.99c-.1.43-.14.77-.27,1.07-2.59,6.33-5.54,12.49-9.27,18.24-1.87,2.89-3.85,5.69-6.14,8.28-1.95,2.2-3.9,4.42-6.13,6.34-1.7,1.46-3.51,2.8-5.29,4.16-.47.36-1.02.61-1.55.93-.68-.61-1.32-1.15-1.92-1.74-1.43-1.42-1.91-3.25-2.08-5.16-.34-3.83.58-7.42,2.27-10.84,1.32-2.69,2.92-5.22,4.48-7.77,2.42-3.96,4.6-8.05,6.55-12.26,1.87-4.03,3.27-8.24,4.81-12.4,1.19-3.23,2.38-6.46,3.69-9.64,1.1-2.68,2.46-5.23,4.13-7.61.95-1.36,2.08-2.55,3.37-3.58.91-.73,1.57-1,2.63-1.13-.02.09-.01.21-.07.27-2.4,2.62-3.95,5.75-5.22,9.01-1.05,2.69-2.04,5.42-2.42,8.31-.41,3.08-.56,6.16.21,9.21.38,1.51.92,2.93,1.89,4.19.89,1.16,2.09,1.83,3.43,2.27.73.24,1.48.14,2.22-.04.18-.04.37-.06.68-.1Z"/>
    <path class="cls-4" d="M271.34,76.77c.36-.08.5-.14.64-.14,10.96.35,21.92.71,32.88,1.07.13,0,.27.09.44.15-.1.58-.47.99-.77,1.44-.92,1.37-1.87,2.71-2.75,4.1-2.09,3.28-4.21,6.54-6.22,9.87-2.24,3.71-4.38,7.49-6.57,11.23-1.39,2.36-2.79,4.72-4.21,7.07-1.06,1.75-2.14,3.48-3.22,5.22-.7,1.12-1.66,1.82-3.02,1.95-.48.04-.89-.03-1.25-.34-.83-.72-1.6-1.49-2.12-2.49-1.75-3.33-2.35-6.83-1.82-10.57.69-4.84,1.17-9.71.93-14.61-.21-4.25-.97-8.41-2.42-12.43-.17-.46-.31-.93-.5-1.52Z"/>
    <path class="cls-4" d="M68.33,166.39c-.24-.44-.3-.71-.47-.82-.88-.58-1.86-.81-2.84-.35-.85.39-1.66.91-2.46,1.42-.55.35-1.04.77-1.58,1.14-3.14,2.18-6.3.72-7.92-1.19-2.1-2.48-2.16-6.11-.19-8.9.85-1.19,1.88-2.2,3.09-3.02,1.03-.69,2.07-1.37,3.11-2.06-.24-.49-.57-.16-.75-.08-2.02.87-3.98,1.86-5.67,3.3-1.17,1-1.63.99-2.85.07-.85-.64-1.26-1.52-1.41-2.55-.25-1.64.08-3.18.79-4.65.96-1.98,2.38-3.57,4.27-4.69.86-.51,1.78-.91,2.66-1.36.34-.17.68-.35,1-.52-.07-.46-.35-.4-.58-.35-2.54.5-4.86,1.47-6.85,3.17-.38.32-.74.65-1.2,1.05-.97-1.32-1.24-2.72-.93-4.25.38-1.86,1.27-3.46,2.55-4.84,2.16-2.34,4.81-3.86,7.94-4.49,1.12-.22,2.27-.3,3.4-.48,1.68-.28,3.76,1.62,3.67,3.32-.06,1.19-.07,2.39-.04,3.59.14,5.19,1.15,10.19,3.33,14.94,1.7,3.7,4.03,6.88,7.41,9.21.2.14.39.3.66.51-.14.27-.24.54-.39.77-.56.82-1.12,1.65-1.72,2.45-1.55,2.06-3.56,3.48-6.01,4.25-1.48.46-2.95.45-4.38-.24-.65-.32-1.16-.78-1.38-1.49-.18-.56-.08-.98.41-1.3.71-.46,1.43-.92,2.2-1.26.53-.23,1.15-.27,1.74-.34.34-.04.69.01,1.34.03Z"/>
    <path class="cls-4" d="M144.79,200.06c.52-.67,1.18-1.12,1.75-1.65.58-.55,1.19-1.07,1.76-1.62.58-.55,1.14-1.12,1.69-1.7.54-.58,1.05-1.2,1.58-1.81,3.46.48,6.76-.24,9.95-1.42,6.23-2.29,11.97-5.45,17.02-9.81,1.82-1.57,3.47-3.3,4.88-5.25,1.22-1.7,2.56-3.32,3.47-5.23.08-.18.2-.38.36-.47,1.41-.76,2.28-2.04,3.21-3.37.9.19,1.77.11,2.37-.68.4.16.26.44.22.65-.36,1.86-.7,3.73-1.13,5.57-1.14,4.91-2.58,9.74-4.32,14.47-2,5.44-4.4,10.7-7.31,15.71-.2.34-.44.64-.68,1-.68-.15-1.31-.28-1.93-.44-4.35-1.14-8.74-2.03-13.17-2.77-2.86-.47-5.74-.74-8.63-.9-1.34-.08-2.69-.27-4.03-.27-1.89,0-3.78.11-5.68.17-.43.01-.87.13-1.37-.18Z"/>
    <path class="cls-4" d="M272.66,110.73c.14.77.27,1.55.42,2.32.44,2.18,1.26,4.2,2.76,5.89.42.48.91.94,1.45,1.27,1.09.68,2.25.77,3.41.12.56-.31,1.11-.63,1.76-1,.05.4.13.68.11.96-.13,2.96-.76,5.83-1.73,8.62-1.09,3.11-2.34,6.14-3.93,9.04-2.14,3.91-4.71,7.5-7.78,10.75-2.44,2.58-5.12,4.88-8.03,6.92-2.84,1.99-5.91,3.53-9.18,4.65-2.55.87-5.2,1.38-7.88,1.66-.14.01-.29-.03-.58-.07.21-.25.32-.45.49-.57,3.4-2.58,6.3-5.67,9.05-8.9,3.47-4.08,6.34-8.57,8.87-13.29,2.43-4.54,4.47-9.24,6.31-14.04,1.25-3.27,2.26-6.6,3.2-9.96.4-1.44.71-2.9,1.06-4.35.07-.01.14-.02.21-.03Z"/>
    <path class="cls-2" d="M248.29,275.72c-.19.81-.67,1.12-1.12,1.42-2.06,1.41-4.17,2.73-6.48,3.71-2.63,1.12-5.32,2-8.14,2.47-1.86.31-3.69.23-5.42-.58-1.61-.74-2.98-1.81-4.05-3.23-.11-.15-.19-.33-.27-.47.19-.36.46-.24.68-.22,5.3.39,10.16-.97,14.73-3.61,3.96-2.29,7.53-5.07,10.87-8.16,4.37-4.03,8.34-8.42,11.85-13.25,4.14-5.7,7.28-11.89,9.67-18.49.83-2.3,1.54-4.63,1.85-7.08.22-1.74.23-3.49-.02-5.22-.46-3.23-1.35-6.34-2.93-9.22-.14-.26-.27-.53-.43-.85.57-.58,1.21-.67,1.9-.36,1.93.86,3.47,2.17,4.37,4.11.89,1.91,1.51,3.9,1.8,5.99,1.22,8.62-.36,16.79-4.06,24.58-1.89,3.97-4.1,7.76-6.6,11.38-1.71,2.47-3.62,4.77-5.9,6.73-.68.58-1.43,1.08-2.2,1.55-.84.51-1.77.65-2.74.4-.43-.11-.88-.18-1.31-.3-1.19-.32-2.28-.07-3.26.63-.61.44-1.17.93-1.72,1.43-.7.64-1.39,1.29-2.02,2-.91,1.02-1,1.99-.27,3.15.34.54.8,1.01,1.19,1.5Z"/>
    <path class="cls-6" d="M179.71,169.03c2.22-.03,4.6.82,6.21,2.22.04.59-.33,1.03-.63,1.47-2.06,3.08-4.32,6-7.26,8.31-5.96,4.66-12.47,8.27-19.82,10.22-1.34.36-2.73.56-4.1.82-.77.15-1.47-.03-2.14-.44-2.12-1.31-4.26-2.58-6.38-3.9-1.18-.74-2.31-1.54-3.42-2.28,0-.19-.04-.31,0-.39,1.08-2.36,2.01-4.79,3.38-7,.5-.8,1.12-1.52,1.73-2.24.86-1,1.92-1.26,3.23-1.02,2.16.4,4.33.74,6.51.98,3.68.41,7.36.48,11.03-.24,3.09-.61,5.89-1.84,8.49-3.58.62-.41,1.2-.9,1.75-1.4.51-.47.95-1.02,1.41-1.52Z"/>
    <path class="cls-2" d="M11.26,244.27c-.31-.16-.46-.19-.54-.28-3.51-3.88-6.07-8.28-7.25-13.41-.92-4-.57-7.93.76-11.79,2.06-6.02,5.09-11.47,9.42-16.17,2.33-2.54,4.79-4.95,7.41-7.19.57-.48,1.19-.91,1.79-1.35.66-.47,1.36-.56,2.11-.19.31.15.64.28.97.38,1.04.3,1.97.08,2.77-.67,1.05-1,2.09-2,3.14-2.99.85-.8,1.28-1.76,1.27-2.92,0-.29.07-.58.12-.94.38-.19.76-.42,1.17-.57,4.66-1.69,9.44-2.9,14.38-3.38,2.43-.23,4.87-.36,7.32-.21,1.73.1,3.35.5,4.91,1.18,2.74,1.19,5.08,2.95,7.11,5.13.12.13.18.31.36.62-.36-.11-.55-.14-.71-.22-4.78-2.46-9.85-3.08-15.13-2.34-6.44.9-12.34,3.21-17.73,6.81-6.3,4.2-11.98,9.13-17.06,14.74-3.13,3.46-5.8,7.23-7.69,11.53-1.31,2.99-2.19,6.1-2.64,9.33-.49,3.59-.03,7.07,1.46,10.38.57,1.27,1.26,2.49,1.89,3.74.1.2.19.41.37.8Z"/>
    <path class="cls-4" d="M206.35,79.63c-.57,3.86-1.59,7.61-2.69,11.35-.65,2.2-1.51,4.33-2.23,6.5-.46,1.38-1.38,2.42-2.48,3.3-1.32,1.04-2.67,1.17-4.4-.05-.98-.69-1.75-1.61-2.33-2.69-1.31-2.42-1.91-5.03-2.15-7.73-.28-3.13-.23-6.28.3-9.39.27-1.57.65-3.12,1.06-4.66.4-1.49.89-2.96,1.39-4.42.7-2.04,1.75-3.9,3.02-5.65.72-1,1.69-1.67,2.77-2.23.46-.24.95-.37,1.44-.18,2.67,1.06,4.9,2.65,6.23,5.29.13.26.21.57.22.86.08,1.64.21,3.28.18,4.92-.02,1.59-.21,3.18-.33,4.77Z"/>
    <path class="cls-6" d="M239.97,63.46c-.23-.48-.44-.93-.64-1.38-1.29-2.77-2.83-5.38-4.93-7.62-2.01-2.14-4.39-3.74-7.03-4.99-2.08-.99-4.27-1.65-6.56-1.94-3.7-.45-7.27-.06-10.63,1.61-.79.39-1.49.98-2.23,1.48-.19.13-.38.28-.66.5-.19-.58-.36-1.04-.49-1.5-.78-2.75-1.9-5.35-3.59-7.67-1.98-2.72-4.48-4.78-7.67-5.95-.46-.17-.89-.4-1.36-.61,0-1.8,1.02-2.81,2.46-3.46,1.06-.48,2.2-.62,3.37-.54,1.36.1,2.67.38,3.87,1.03,1.18.64,2.36,1.29,3.49,2.01,1.93,1.23,3.82,2.53,5.73,3.8,5.65,3.75,11.72,6.61,18.22,8.51,2.48.73,5.05,1.16,7.58,1.74,2.24.51,4.46,1.09,6.53,2.11,1.26.62,2.43,1.36,3.49,2.29.8.7,1.46,1.5,1.86,2.49.76,1.87.25,3.88-1.72,5.21-.27.18-.65.26-.98.28-2.06.14-4.03.66-5.92,1.46-.72.3-1.4.72-2.17,1.12Z"/>
    <path class="cls-4" d="M232.82,77.08s.1-.03.14-.06c1.38-1.3,2.89-1.04,4.45-.37,1.72.74,2.97,1.97,3.93,3.55.37.62.54,1.28.53,2-.07,5.96-.72,11.85-2.24,17.62-.52,1.98-1.15,3.92-1.73,5.88-.33,1.12-.95,2.08-1.62,3.02-1.31,1.86-3.35,2.02-4.93,1.55-1.82-.54-3.1-1.75-4.06-3.34-.87-1.43-1.25-3.03-1.6-4.65-.51-2.38-.38-4.77-.09-7.15.26-2.13.7-4.24,1.33-6.29,1.27-4.18,3.02-8.13,5.82-11.54.06-.07.09-.18.13-.27,0,0-.06.05-.06.05Z"/>
    <path class="cls-4" d="M272.7,103.17c-.52,2.71-.99,5.67-1.68,8.58-.58,2.47-1.37,4.89-2.15,7.31-.82,2.57-3.91,3.55-6.1,1.97-.86-.62-1.55-1.38-2.03-2.35-1.01-1.99-1.49-4.1-1.58-6.33-.16-4.17.82-8.11,2.43-11.92.6-1.42,1.25-2.83,1.92-4.22.71-1.49,1.7-2.82,2.7-4.12.12-.16.26-.31.41-.44,1.32-1.14,1.53-1.42,3.32-.55,1.64.8,2.73,2.14,3.21,3.93.1.37.09.79.06,1.18-.15,2.24-.33,4.47-.51,6.95Z"/>
    <path class="cls-6" d="M158.44,173.82c-.16-2.42-.28-4.76-.48-7.08-.07-.83.2-1.31.93-1.66,1.48-.7,2.95-1.45,4.48-2.21.66,1.23.39,2.78,1.35,3.81.39,0,.39-.25.4-.42.01-.5.02-1-.04-1.49-.31-2.47-.64-4.94-.97-7.41-.3-2.27-.52-1.97,1.3-3.37,2.64-2.04,5.27-4.1,7.59-6.53.07-.07.17-.11.34-.21.12.17.28.34.38.53.88,1.74,1.8,3.44,3.13,4.88.2.22.44.41.6.56-.12.43-.17.67-.25.9-2.68,7.01-6.68,13.23-11.44,18.98-.39.48-.8.87-1.48.86-1.84-.02-3.68-.02-5.52-.04-.09,0-.18-.07-.3-.12Z"/>
    <path class="cls-4" d="M207.72,234.9c2.88,1.87,5.26,4.13,8.2,5.55.07,1.7-1.55,6.27-3.2,8.72-1.88,2.8-4.07,5.28-7.28,6.81-.8-.72-1.55-1.44-2.35-2.1-.77-.63-1.59-1.19-2.32-1.74-.52-2.52-.16-4.85.76-7.12,1.31-3.21,3-6.19,5.13-8.92.3-.39.64-.74,1.05-1.21Z"/>
    <path class="cls-4" d="M72.22,205.27c-1.19,1.15-2.27,2.16-3.3,3.21-1.08,1.11-1.98,2.37-2.76,3.7-.75,1.29-1.52,2.58-2.13,3.93-.61,1.35-1.04,2.78-1.57,4.23-.94-.22-1.76-.66-2.43-1.33-1.52-1.53-2.33-3.34-2.02-5.53.79-5.49,4.73-9.19,10.3-9.32,1.34-.03,2.52.47,3.9,1.1Z"/>
    <path class="cls-6" d="M194.18,176.32c.72-.59,1.33-1.08,2-1.64.51.74.75,1.53.88,2.36.03.22-.05.49-.15.7-.1.22-.28.41-.44.6-1.55,1.75-3.11,3.5-4.68,5.24-.12.13-.29.21-.56.39.49-1.99.96-3.82,1.4-5.65.71-2.96,1.34-5.93,1.7-8.95.18-1.54.24-3.08.18-4.62-.01-.38,0-.81.16-1.15.72-1.54,1.27-3.13,1.57-4.81.45-.31.91-.4,1.44-.33.05.17.13.3.12.43-.11,2.59-.23,5.17-.35,7.76-.07,1.34-.16,2.68-.24,4.02-.05.84-.4,1.5-.99,2.1-.66.67-1.28,1.4-1.86,2.14-.26.33-.55.72-.18,1.43Z"/>
    <path class="cls-4" d="M176.86,158.71q.89,4.26,2.15,5.76l-.57,4.23c-2.62,2.23-5.7,3.72-9.26,4.66.07-.65.41-.94.63-1.29.24-.38.5-.74.74-1.12.24-.38.48-.76.71-1.14.23-.38.45-.77.67-1.16.22-.39.44-.78.66-1.17.24-.43.48-.87.72-1.31.21-.39.41-.79.62-1.19.2-.4.4-.8.6-1.2.2-.4.39-.81.58-1.21.19-.4.39-.81.57-1.21.18-.41.35-.82.54-1.23.18-.4.37-.8.66-1.41Z"/>
    <path class="cls-6" d="M231.7,43.28c-.23-.67-.87-.94-1.37-1.3-3.28-2.38-6.74-4.42-10.47-6.01-.68-.29-1.34-.61-2.11-.96.9-.84,1.88-1.18,2.92-1.33,2.08-.31,4.07.01,5.96.95,3.46,1.72,5.45,4.55,6.17,8.31.04.22.02.46.04.82-.49-.22-.83-.37-1.18-.53l.05.06Z"/>
    <path class="cls-2" d="M231.65,43.22c.29.32.59.65.88.97.24.26.46.53.31.92-1.16.02-3.85-.74-7.4-2.09-3.6-1.37-6.95-3.19-9.95-5.46-.04-.17-.07-.24-.05-.26.23-.32.46-.63.68-.92,1.61-.07,3.02.47,4.42.97,3.68,1.31,7.11,3.12,10.27,5.42.27.2.59.34.89.51,0,0-.05-.06-.05-.06Z"/>
    <path class="cls-6" d="M185.95,161.41c.61,1.04,1.11,1.95,1.67,2.83.56.88,1.19,1.71,1.83,2.63-.9,1.09-1.72,2.21-2.8,3.2-.66-.36-1.28-.75-1.95-1.04-.64-.27-1.32-.46-1.99-.63-.72-.18-1.46-.3-2.27-.46.02-.33,0-.61.06-.89.12-.54.31-1.06.42-1.59.13-.63.46-1.03,1.04-1.36.95-.54,1.84-1.19,2.75-1.8.37-.25.72-.52,1.23-.89Z"/>
    <path class="cls-4" d="M187.56,160.8c.64-.74,1.16-1.34,1.67-1.94,2.03-.01,4.05-.02,6.1-.04,0,.18.06.34.02.46-.84,2.18-1.84,4.29-2.99,6.32-.16.29-.43.53-.7.85-.28-.19-.56-.31-.73-.51-.44-.54-.86-1.09-1.23-1.68-.72-1.13-1.4-2.28-2.13-3.47Z"/>
    <path class="cls-4" d="M295.29,188.21c1.82.64,3.55,1.26,5.3,1.88,0,.12.05.27.01.4-.69,2.45-2.92,4.67-5.81,4.86-.95.06-1.64-.32-2.12-1.11-.19-.32-.19-.64.04-.97q1.7-2.38,2.57-5.06Z"/>
    <path class="cls-4" d="M179.8,155.59c1.32.66,2.44,1.31,3.63,1.79,1.18.48,2.43.78,3.69,1.17-.1.19-.14.34-.24.44-1.4,1.44-3,2.64-4.76,3.6-1.81.99-2.38.72-2.73-1.28-.15-.83-.18-1.69-.14-2.53.04-.84.21-1.68.34-2.52.03-.18.11-.36.21-.68Z"/>
    <path class="cls-6" d="M213.61,227.38c-.13,2.66-.97,4.92-1.93,7.21-.92-.13-1.59-.68-2.37-.97-.74-.28-1.47-.6-2.27-.92.1-.2.15-.41.28-.53,1.74-1.72,3.67-3.21,5.66-4.63.1-.07.27-.07.63-.15Z"/>
    <path class="cls-6" d="M195.58,252.19c1.1.6,2.55,1.9,3.02,2.76.14.26.29.55.3.83.02.27-.04.65-.22.81-1.15,1.02-2.33,2.01-3.52,2.98-.26.21-.61.3-1.02.48-.04-.32-.12-.55-.1-.78.21-2.33,1-5.91,1.54-7.09Z"/>
    <path class="cls-3" d="M251.21,163.67s0,0,.01,0c0,0-.01,0-.01,0Z"/>
  </g>
  <path class="cls-4" d="M182.65,57.48c3.75-5.34,7.42-10.09,3.64-12.75s-9.89-.48-13.64,4.86c-3.75,5.34-3.72,11.82.06,14.48,3.78,2.66,6.19-1.25,9.94-6.59Z"/>
  <path class="cls-4" d="M218.05,61.61c1.91-3.2,3.8-6.06,1.53-7.42-2.27-1.35-5.65.15-7.56,3.35-1.91,3.2-1.62,6.89.65,8.24,2.27,1.35,3.47-.98,5.38-4.18Z"/>
  <path class="cls-4" d="M246.42,220.63c4.67-3.51,9.1-6.55,6.61-9.85-2.49-3.31-8.29-3.14-12.96.38-4.67,3.51-6.43,9.04-3.94,12.35s5.62.64,10.28-2.87Z"/>
  <path class="cls-4" d="M32.3,237.11c-4.4,3.84-8.61,7.19-5.88,10.31s8.5,2.53,12.9-1.32c4.4-3.84,5.76-9.48,3.04-12.6-2.72-3.12-5.65-.23-10.05,3.61Z"/>
  <path class="cls-4" d="M251.88,74.41c1.91-3.2,3.8-6.06,1.53-7.42-2.27-1.35-5.65.15-7.56,3.35s-1.62,6.89.65,8.24c2.27,1.35,3.47-.98,5.38-4.18Z"/>
</svg>