<?xml version="1.0" encoding="UTF-8"?>
<svg id="Layer_1" data-name="Layer 1" xmlns="http://www.w3.org/2000/svg" viewBox="0 0 276 288">
  <defs>
    <style>
      .cls-1 {
        fill: #3dbfb5;
      }

      .cls-1, .cls-2, .cls-3, .cls-4, .cls-5, .cls-6, .cls-7, .cls-8, .cls-9, .cls-10 {
        stroke-width: 0px;
      }

      .cls-2 {
        fill: #d17418;
      }

      .cls-11 {
        fill: none;
        stroke: #fff;
        stroke-linecap: round;
        stroke-linejoin: round;
        stroke-width: 2.25px;
      }

      .cls-3 {
        fill: #a5a7aa;
      }

      .cls-4 {
        fill: #136d58;
      }

      .cls-5 {
        fill: #fff000;
      }

      .cls-6 {
        fill: #000;
      }

      .cls-7 {
        fill: #f5921d;
      }

      .cls-8 {
        fill: #2bbfad;
      }

      .cls-9 {
        fill: #ccc;
      }

      .cls-10 {
        fill: #fff;
      }
    </style>
  </defs>
  <path class="cls-8" d="M133.99,238.47c-.36.59-.68,1.13-1.03,1.7-1.27-.26-2.49-.26-3.69.08-1.75.49-3.11,1.47-3.97,3.1-1.87,3.55,1.32,7.71,4.7,7.65,2.82-.05,6.25-2.61,6.24-6.05,0-1.45-.47-2.67-1.57-3.64-.24-.21-.47-.42-.73-.65.14-.66.55-1.15.85-1.75,1.13.13,2.21.12,3.1-.7.82-.76,1.45-1.63,1.72-2.74.27-1.14-.04-2.15-.73-3.08.14-.23.24-.43.37-.62,2.78-4.08,5.83-7.93,9.36-11.39,1.07-1.05,2.24-2,3.42-2.94,1.29-1.03,2.78-1.73,4.33-2.3,1.13-.42,2.3-.53,3.5-.39,1.03.12,1.95.51,2.68,1.23,1.91,1.9,2.76,4.22,2.73,6.91-.49.35-.93.67-1.38.98-2.78,1.91-5.48,3.94-8.04,6.13-6.28,5.37-11.01,11.86-14.15,19.51-1.09,2.67-1.79,5.45-2.41,8.26-.21.93-.4,1.87-.6,2.81-.74,3.55-1.97,6.92-3.61,10.14-.43.84-.85,1.69-1.57,2.46-.25-.22-.46-.37-.63-.56-1.78-1.98-3.83-3.65-6.04-5.11-2.28-1.51-4.59-2.97-6.94-4.36-2.58-1.54-5.22-2.98-7.84-4.45-6.34-3.56-12.26-7.71-17.73-12.51-.41-.36-.81-.73-1.21-1.11-.1-.09-.18-.2-.32-.38.09-.3.2-.64.31-.98.92-2.87,1.66-5.78,1.96-8.78.33-3.37-.1-6.63-1.46-9.76-.1-.23-.35-.45-.15-.78.48.17.81.55,1.17.87,3.72,3.23,6.72,7.05,9.11,11.35.86,1.55,1.74,3.1,2.63,4.64.34.59.71,1.17,1.12,1.72.24.32.55.62.89.82.77.45,1.62-.05,1.62-.95,0-.4-.11-.81-.25-1.18-.21-.55-.47-1.09-.77-1.6-.46-.75-.54-1.56-.35-2.37.89-3.91,1.41-7.89,2.45-11.77,2.5-9.33,7.51-17.02,15.05-23.05,2.11-1.69,4.41-3.07,6.92-4.08,4.02-1.62,8.19-2.07,12.47-1.64,3.36.33,6.5,1.34,9.43,3,1.08.61,2.09,1.3,3,2.13.17.15.33.32.52.44.23.15.48.26.76.1.25-.15.36-.47.24-.85-.08-.26-.18-.53-.33-.74-.26-.37-.52-.76-.87-1.05-.73-.61-1.47-1.24-2.28-1.73-2.65-1.59-5.53-2.57-8.57-3.06-1.66-.26-3.34-.48-5.02-.55-4.03-.16-7.87.68-11.55,2.32-3.79,1.69-7.16,4-10.21,6.77-5.24,4.77-9.24,10.41-11.82,17.03-.11.29-.25.56-.41.92-.22-.13-.38-.2-.51-.32-1.67-1.53-3.61-2.61-5.68-3.49-2.81-1.2-4-1.29-6.97-.53-.04-.26-.1-.5-.1-.75,0-3.23-2.62-5.14-4.75-5.56-2.07-.41-4.08-.28-6.07.37-1.57.51-3.04,1.22-4.39,2.18-.82.58-1.62,1.18-2.4,1.81-.44.36-.9.54-1.48.59-2.19.19-4.33.62-6.37,1.47-5.42,2.25-9.36,6.04-11.8,11.39-1.42,3.11-2.17,6.37-2.13,9.8,0,.41,0,.82,0,1.32-.27-.04-.49-.04-.68-.1-2.06-.72-4.1-1.52-6.18-2.17-4.01-1.25-7.89-2.81-11.72-4.5-1.66-.73-3.32-1.49-5.06-2.27.14-.37.25-.7.38-1.02.95-2.21,1.46-4.52,1.37-6.92-.15-4.07-1.64-7.62-4.26-10.71-.23-.27-.46-.53-.82-.95.46.03.73,0,.97.07,4.24,1.04,8.22,2.67,11.75,5.3,1.43,1.06,2.83,2.15,4.1,3.4.39.38.81.74,1.24,1.07.29.22.61.4.93.56.25.12.54.17.76-.07.22-.23.18-.52.03-.76-.22-.35-.46-.68-.74-.98-.81-.86-1.65-1.7-2.48-2.54-.19-.19-.42-.34-.66-.53.16-.39.29-.68.4-.97.65-1.7,1.33-3.39,1.93-5.11,1.57-4.45,3.57-8.68,6.29-12.55,3.38-4.82,7.72-8.6,12.95-11.32,3.17-1.65,6.56-2.71,10.1-3.23,2.08-.3,4.16-.54,6.26-.32,3.93.42,7.68,1.47,11.23,3.22,2.22,1.09,4.26,2.45,6.17,4.02,1.06.87,2.07,1.78,2.86,2.92.22.31.4.74.9.74.27-.35.15-.7.03-1.03-.29-.83-.7-1.6-1.3-2.23-.85-.89-1.74-1.73-2.64-2.57-.4-.37-.85-.68-1.3-1.04,2.26-3.83,3.67-8.03,5.64-11.97.18-.37.37-.73.54-1.11.2-.46.55-.71,1.01-.84.22-.06.44-.13.66-.18,3.71-.71,7.42-1.43,11.14-2.11.84-.15,1.69-.28,2.63-.23.08.34.16.64.22.94.54,2.77,2.16,4.78,4.5,6.24,1.92,1.2,4.05,1.85,6.26,2.26,4.3.79,8.33-.13,12.18-2.02.8-.4,1.54-.99,2.2-1.6.84-.77,1.6-1.62,2.34-2.48,1.1-1.27,1.74-2.8,2.13-4.39.29-1.21.94-1.71,2.12-1.92,1.93-.34,3.87-.61,5.83-.69,2.28-.09,4.55-.18,6.83-.24,1.28-.04,2.55-.04,3.83-.06,2.46-.04,4.92-.11,7.38-.11,2.19,0,4.37.06,6.56.13.54.02,1.07.15,1.62.24.05.24.12.41.12.58.03,3.06.49,6.09.71,9.13.29,3.86.59,7.73.74,11.59.16,3.89-.24,7.75-1.41,11.48-1.9,6.08-5.07,11.38-9.88,15.63-2.53,2.24-5.21,4.28-8.01,6.17-.18.12-.38.21-.66.36-.04-.33-.07-.54-.1-.75-.24-2-.99-3.77-2.27-5.33-1.07-1.31-2.45-2-4.14-2.09-1.15-.06-2.26.1-3.35.49-1.86.67-3.58,1.58-5.14,2.79-1.59,1.23-3.05,2.61-4.43,4.06-2.73,2.88-5.23,5.96-7.51,9.21-.29.41-.58.81-.9,1.25-1.48-.14-2.66.47-3.65,1.5-1.37,1.43-1.53,2.86-.52,4.58.05.08.07.16.16.35Z"/>
  <path class="cls-5" d="M198.64,120.01c-.07.4-.06.68-.16.91-.52,1.21-.98,2.47-1.63,3.61-.77,1.34-1.66,2.62-2.59,3.85-3.55,4.64-8.36,6.96-14.1,7.29-3.81.21-7.42-.71-10.69-2.75-5.37-3.35-9.54-7.87-12.7-13.32-3.13-5.4-5.32-11.17-6.57-17.3-.85-4.16-1.52-8.34-1.83-12.57-.34-4.78-.46-9.56-.24-14.35.12-2.55.22-5.1.43-7.64.53-6.61,2.12-12.92,5.17-18.85,1.67-3.25,3.89-6.07,6.61-8.47,3.04-2.67,6.64-4.1,10.72-4.2,1.24-.03,2.45.16,3.64.53,2.29.72,4.4,1.76,6.2,3.37,3.42,3.06,6.36,6.52,8.62,10.53.13.23.22.48.34.77-.21.04-.34.1-.45.07-2.04-.38-4.09-.24-6.14-.11-3.51.21-6.96.86-10.41,1.48-1.76.31-2.85,1.32-3.49,2.91-.53,1.32-.84,2.7-1.04,4.1-.43,2.98-.61,5.98-.48,9,.24,5.79.99,11.53,1.97,17.23,1.66,9.68,4.42,19.07,7.72,28.31.61,1.71,1.36,3.38,2.03,5.07.38.97,1.09,1.56,2.09,1.79.62.14,1.25.3,1.88.3,1.68,0,3.38.03,5.05-.16,3.12-.35,6.23-.85,9.34-1.29.18-.02.35-.04.74-.09Z"/>
  <path class="cls-5" d="M148.97,58.14c-2.99-1.19-5.88-.9-8.74-.21-3.41.82-6.74,1.93-10,3.23-.72.29-1.41.64-2.08,1.03-1.23.7-2.13,1.72-2.61,3.06-.31.85-.58,1.73-.77,2.62-.89,4.39-1.33,8.83-1.37,13.3-.05,5.02.11,10.03.6,15.02.71,7.22,1.98,14.35,4.14,21.29.84,2.7,1.76,5.37,2.66,8.04.19.56.44,1.1.7,1.63.54,1.09,1.41,1.76,2.59,2.05,1.52.38,3.07.4,4.62.34,4.25-.14,8.43-.82,12.56-1.8,2.04-.49,4.07-.99,6.22-1.51.57.37.88,1.11,1.37,1.69.47.55.9,1.14,1.36,1.73-.06,1.24-.24,2.44-.8,3.57-.33.65-.61,1.32-.95,1.97-.57,1.1-1.28,2.1-2.19,2.95-.87.8-1.71,1.65-2.61,2.41-3,2.56-6.53,3.59-10.41,3.29-7.13-.55-13.28-3.35-18.43-8.31-1.19-1.14-2.19-2.44-3.13-3.79-4.25-6.04-7.12-12.69-8.95-19.82-1.34-5.22-2.25-10.5-2.79-15.87-.48-4.73-.59-9.46-.48-14.2.17-7.06,1.35-13.96,3.39-20.71.5-1.66,1.01-3.31,1.61-4.94,1.29-3.53,3.09-6.8,5.3-9.83,1.74-2.39,3.89-4.36,6.4-5.9,3.18-1.95,6.67-2.96,10.42-2.64,2.69.23,5.14,1.18,7.18,3.03,3.69,3.35,4.46,4.72,5.86,9.76.28,1,.38,2.06.54,3.09.04.26.05.56-.03.81-.35,1.17-.74,2.34-1.15,3.61Z"/>
  <path class="cls-5" d="M110.09,64.8c-4.3-.25-8.39.52-12.43,1.71-1.48.44-2.97.87-4.45,1.31-.31.09-.61.2-.91.29-1.46.43-2.42,1.38-3.04,2.75-.81,1.8-1.39,3.66-1.7,5.61-.46,2.89-.58,5.8-.47,8.72.15,3.78.44,7.55.93,11.3.52,3.98,1.41,7.89,2.43,11.77,2.03,7.74,4.95,15.14,8.57,22.27.56,1.1,1.13,2.18,1.68,3.29.52,1.05,1.35,1.67,2.48,1.97,1.21.32,2.43.36,3.66.32,2.1-.06,4.18-.34,6.23-.76,1.87-.38,3.73-.86,5.59-1.29.13-.03.26-.03.46-.05.55.75,1.1,1.53,1.69,2.28.56.71,1.17,1.39,1.79,2.13-.16.27-.3.56-.48.81-1.25,1.8-2.6,3.51-4.12,5.1-2.73,2.87-6.14,3.83-9.94,3.58-5.38-.35-10-2.62-14.13-5.95-5.24-4.21-9.17-9.49-12.12-15.49-3.55-7.24-6-14.85-7.41-22.8-.89-5.04-1.37-10.11-1.46-15.22-.06-3.51.18-7.01.57-10.5.38-3.45.89-6.87,1.74-10.23,1.12-4.45,2.92-8.63,5.37-12.51,2.16-3.43,4.83-6.39,8.24-8.63,3.67-2.41,7.67-3.55,12.05-3.22,2.8.21,5.47.89,7.85,2.51,1.21.82,2.09,1.86,2.66,3.21.89,2.13,1.35,4.34,1.47,6.64.02.35-.07.73-.17,1.07-.8,2.56-1.62,5.12-2.44,7.68-.03.08-.08.16-.18.34Z"/>
  <path class="cls-9" d="M128.05,279.3c-.18-.22-.31-.35-.41-.49-1.09-1.51-2.5-2.65-4.14-3.49-1.21-.63-2.46-1.18-3.7-1.75-3.51-1.63-7.06-3.18-10.52-4.9-6.83-3.4-13.19-7.56-19.28-12.14-3.46-2.6-6.88-5.24-10.33-7.86-2.14-1.63-4.39-3.1-6.74-4.41-1.76-.98-3.56-1.84-5.55-2.23-1.4-.28-2.8-.33-4.19.09-2.12.65-3.49,2.06-4.13,4.18-.05.17-.09.35-.14.53-.05.17-.1.34-.19.69-.17-.43-.31-.69-.37-.97-.8-3.54-1.21-7.11-.62-10.71.96-5.81,3.57-10.67,8.51-14.09,2.52-1.74,5.32-2.73,8.35-3.17,5.2-.76,10.04.29,14.62,2.8,1.07.59,1.88,1.39,2.54,2.41,1.41,2.15,2.06,4.54,2.35,7.06.37,3.18-.09,6.27-.98,9.31-.34,1.18-.68,2.36-1.07,3.53-.21.63-.11,1.17.33,1.64.59.63,1.19,1.26,1.81,1.85,5.22,4.95,11.13,8.95,17.36,12.51,2.97,1.69,5.93,3.38,8.86,5.14,1.95,1.17,3.86,2.42,5.75,3.68,2.2,1.48,4.18,3.23,6.01,5.14.19.2.36.41.52.6-.77,1.58-2.75,3.74-4.66,5.07Z"/>
  <path class="cls-8" d="M184.79,160.34c-.18,1.18-.37,2.38-.56,3.63-.45-.03-.85-.06-1.25-.08-1.55-.06-3.1-.2-4.64-.15-4.23.12-8.47.3-12.7.5-2.73.13-5.46.32-8.18.55-1.81.15-3.62.42-5.42.65-.49.06-.98.21-1.57,0-.12-.33-.27-.7-.38-1.09-.69-2.3-1.9-4.35-3.32-6.24-1.34-1.79-3.24-2.92-5.31-3.72-4.41-1.68-8.55-.93-12.31,1.71-3.54,2.49-6.16,5.78-7.71,9.86-.21.55-.44,1.1-.67,1.64-.19.45-.53.73-1.04.77-.82.06-1.63.15-2.45.19-2.73.16-5.44.52-8.11,1.12-.65.15-1.29.35-2.12.58.17-.4.24-.65.36-.86,1.33-2.39,2.6-4.81,4-7.15,2.44-4.06,4.98-8.05,7.46-12.09.41-.67.89-1.24,1.54-1.7,2.09-1.47,3.56-3.5,4.95-5.59.25-.37.5-.75.8-1.2.27.16.5.28.7.43,5.08,3.78,10.83,5.73,17.12,6.13,4.01.25,7.77-.68,11.3-2.6,3.56-1.94,6.36-4.69,8.55-8.07.2-.3.4-.6.63-.95.32.07.62.12.92.21,3.46.98,6.9,2.01,10.25,3.34.8.32,1.58.71,2.34,1.12.48.26.93.58,1.35.92,1.09.87,1.22,1.39.76,2.74-.04.13-.08.26-.14.39-1.55,3.77-.97,7.41.77,10.94.84,1.72,2.09,3.09,3.87,3.89.07.03.12.13.19.2Z"/>
  <path class="cls-8" d="M243.01,108.8c.38-.18.56-.22.68-.32,1.8-1.43,3.75-2.56,5.9-3.39,1.29-.5,2.62-.81,3.97-.96,1.31-.14,2.53.24,3.55,1.12.77.67,1.33,1.48,1.72,2.43.81,1.96.95,3.99.66,6.05-.73,5.17-3.08,9.48-7.06,12.89-2.72,2.33-5.86,3.66-9.44,3.85-2.43.13-4.72-.36-6.67-1.94-.94-.76-1.29-1.24-1.76-2.48.24-.09.47-.19.71-.26,5.23-1.51,7.43-6.93,6.61-11.13-1.05-5.4-5.8-10.67-11.08-11.85-1.28-.29-2.6-.38-3.95-.57,0-.04,0-.19.07-.26,1.15-1.15,1.92-2.54,2.57-4,1.24-2.79,2.3-5.65,3.29-8.54.68-1.98,1.38-3.96,2.15-5.9,1.06-2.68,2.46-5.18,4.11-7.54,1.48-2.11,3.42-3.66,5.74-4.72,2.16-.99,4.41-1.39,6.79-.94,4.71.89,7.15,4.41,7.71,8.16.44,2.89.13,5.74-.76,8.5-1.43,4.44-3.71,8.42-6.85,11.87-1.71,1.89-3.59,3.63-5.32,5.5-1.11,1.2-2.11,2.51-3.14,3.78-.08.1-.09.25-.21.65Z"/>
  <path class="cls-7" d="M199.72,116.12c-.65.12-1.27.23-1.89.35-2.68.54-5.35,1.11-8.03,1.63-1.92.37-3.85.75-5.81.82-.64.02-1.27-.01-1.91-.04-.45-.02-.77-.26-.97-.65-.28-.52-.57-1.04-.81-1.58-1.44-3.25-2.68-6.57-3.7-9.98-1.4-4.71-2.81-9.42-3.83-14.24-.43-2.05-.8-4.11-1.19-6.17-.04-.21,0-.43,0-.63.15-.04.24-.1.31-.08,1.72.45,3.33.16,4.9-.62,1.45-.72,2.7-1.68,3.85-2.8,1.51-1.46,2.87-3.05,4.09-4.76,1.85-2.6,3.67-5.21,5.27-7.98.78-1.36,2.03-1.93,3.48-2.11,1.36-.17,2.91.91,3.55,2.33.06.12.11.25.15.38,1.05,3.73,2.1,7.44,2.5,11.32.26,2.58.61,5.15.96,7.73.75,5.48.95,10.97.53,16.49-.24,3.23-.63,6.43-1.19,9.62-.05.31-.16.6-.25.96Z"/>
  <path class="cls-3" d="M125.8,280.84c-.25.17-.49.36-.76.51-2.18,1.2-4.51,1.94-6.96,2.33-2.81.45-5.63.39-8.45.17-8.2-.65-15.84-3.24-23.19-6.81-3.57-1.74-7.01-3.7-10.29-5.92-5.15-3.49-9.48-7.81-12.86-13.05-1.11-1.73-2.07-3.54-2.87-5.43-.81-1.93-.76-3.93-.18-5.89.55-1.84,2.52-3.38,5.2-3.13,1.14.1,2.25.4,3.27.91,1.22.61,2.45,1.22,3.61,1.93,2.42,1.46,4.73,3.09,6.95,4.84,8.13,6.42,16.76,12.1,25.78,17.2,4.52,2.55,9.19,4.83,13.89,7.04,1.11.52,2.22,1.06,3.3,1.64,1.05.56,1.99,1.28,2.76,2.21.35.42.7.84.8,1.47Z"/>
  <path class="cls-9" d="M224.79,102.52c-9.19,1.42-16.29,10.43-14.5,21.19-3.05,3.14-11.26,8.41-13.58,9.23-.15-.32.14-.49.28-.67,1.15-1.53,2.2-3.13,3.1-4.82,1.58-2.98,2.41-6.18,2.89-9.49.69-4.7.72-9.44.69-14.18-.02-4.6-.45-9.19-.88-13.77-.19-2.04-.35-4.08-.6-6.12-.69-5.42-1.59-10.81-3.15-16.06-.1-.34-.15-.69-.22-1.05.46,0,.6.33.83.53,2.88,2.61,6.24,4.22,10.06,4.86,1.88.32,3.74.07,5.5-.62,1.88-.74,3.42-1.9,4.09-3.93.04-.11.15-.19.28-.35.2.24.39.43.53.65,1.69,2.55,3.3,5.14,4.47,7.97,1.66,4.02,2.81,8.17,3.08,12.54.21,3.49-.11,6.91-1.2,10.24-.44,1.34-.99,2.64-1.67,3.85Z"/>
  <path class="cls-8" d="M223.52,120.55c-.38.22-.29.5-.18.75.37.86.98,1.54,1.69,2.12,1.58,1.3,3.36,2.16,5.39,2.5.4.07.8.14,1.25.22.11.26.23.5.31.75.37,1.25,1.01,2.36,1.95,3.25,1.39,1.31,1.58,2.89,1.2,4.63-.11.48-.25.95-.37,1.38.31.28.49.11.63-.06.5-.61.82-1.31.99-2.08.12-.53.23-1.06.37-1.69,3.3,1.56,6.67,1.77,10.18.58.11.3.22.54.28.79,1.03,4.54,4.67,8.06,9.2,8.84.71.12,1.43.12,2.16.17-.29,1.17-1.03,2.13-2.22,2.79-1.12.62-2.32,1.06-3.56,1.37-3.22.8-6.48.94-9.76.45-9.35-1.39-17.37-5.48-24.14-12.06-2.07-2.01-3.79-4.31-5.15-6.86-2.16-4.03-2.73-8.29-1.44-12.7,1.08-3.68,3.22-6.72,6.21-9.12,1.75-1.4,3.81-2.14,6-2.45,2.51-.36,5-.2,7.4.72,3.31,1.28,5.61,3.65,7.23,6.74.64,1.23.9,2.57.98,3.95.05.92-.1,1.81-.43,2.68-.52,1.39-1.34,2.59-2.41,3.6-1.24,1.17-2.71,1.81-4.41,1.94-2.62.21-5.08-.28-7.32-1.69-.69-.43-1.3-.98-2.01-1.52Z"/>
  <path class="cls-8" d="M54.53,155.96c-.12-.27-.15-.49-.26-.55-.35-.19-.73-.4-1.11-.48-2.89-.56-5.71-.29-8.44.8-1.03.41-1.89,1.08-2.65,1.85-1.37-.72-1.96-1.82-1.75-3.23.13-.83.49-1.55,1.02-2.2,1.62-1.99,3.71-3.19,6.17-3.79,2.32-.57,4.68-.74,7.05-.48,4.05.45,7.98,1.41,11.68,3.16,4.27,2.03,7.85,4.93,10.67,8.73,2.32,3.13,3.47,6.68,3.73,10.54.1,1.61-.19,3.18-.68,4.71-.73,2.28-1.85,4.35-3.42,6.17-.44.51-.93.78-1.62.88-2.21.32-4.36.9-6.47,1.64-2.37.84-4.63,1.91-6.74,3.28-.85.55-1.61.52-2.44.12-.29-.14-.56-.3-.82-.49-2.34-1.69-1.49-5.14.48-5.9.42-.16.85-.34,1.24-.56.43-.24.88-.49,1.24-.82.85-.77,1-1.86.44-2.86-.47-.82-1.13-1.39-2.07-1.65-1.73-.48-3.49-.62-5.26-.73-1.32-.08-2.63-.18-3.95-.3-.45-.04-.9-.17-1.32-.32-2.44-.82-3.63-3.07-2.92-5.53.34-1.19,1.01-2.09,2.17-2.67,1.71-.85,3.53-1.19,5.4-1.32,1-.07,2-.07,2.99-.11.15-.32-.07-.44-.29-.49-.61-.16-1.23-.35-1.86-.4-2.3-.19-4.56.05-6.71.88-.88.34-1.71.82-2.68,1.3-.48-.35-1.04-.8-1.55-1.31-1.04-1.04-1.13-3.05-.25-4.46.47-.75,1.11-1.32,1.87-1.76.87-.51,1.8-.88,2.78-1.09,1.65-.36,3.32-.55,5.02-.52.39,0,.79-.02,1.32-.04Z"/>
  <path class="cls-9" d="M180.64,37.15c.37-.24.73-.5,1.12-.74,5.68-3.45,11.37-6.88,17.04-10.35,7.84-4.8,15.67-9.63,23.51-14.44.3-.18.61-.34.98-.54.14.86-.2,1.51-.46,2.18-1.9,4.88-3.82,9.75-5.73,14.62-.99,2.54-1.96,5.1-2.95,7.64-.16.42-.34.84-.54,1.3-.28.05-.54.09-.8.13-2,.3-3.59,2.2-3.52,4.22.03.81.34,1.5.92,2.07.22.22.47.4.77.65-2.97,7.71-5.92,15.39-8.9,23.14-.33-.17-.58-.26-.79-.42-1.34-.97-2.46-2.16-3.39-3.53-.18-.26-.32-.55-.44-.84-.87-2.2-1.69-4.42-2.59-6.61-1.69-4.1-3.73-8.01-6.63-11.41-1.12-1.31-2.23-2.64-3.63-3.69-1.31-.98-2.55-2.06-3.81-3.1-.06-.05-.09-.16-.15-.29Z"/>
  <path class="cls-7" d="M144.71,80.03c.81.41,1.22,1.06,1.38,1.84.27,1.29.53,2.58.56,3.92.09,5.57.67,11.09,1.54,16.59,1.02,6.5,3.15,12.62,6.15,18.45.23.45.48.88.72,1.32.22.4.43.79.68,1.25-.17.12-.29.25-.45.3-4.77,1.57-9.62,2.79-14.59,3.51-1.39.2-2.81.26-4.22.32-.58.02-1.17-.11-1.76-.19-.9-.12-1.49-.63-1.84-1.45-.27-.63-.54-1.26-.77-1.9-2.6-7.26-4.6-14.68-5.77-22.32-.46-3.02-.85-6.04-1.08-9.09-.02-.3.02-.6.03-1,.27.13.43.19.57.28,1.46.88,3.01.92,4.62.48.98-.27,1.86-.73,2.72-1.26,2.63-1.64,4.7-3.88,6.63-6.25.89-1.1,1.73-2.23,2.57-3.37.57-.76,1.25-1.31,2.3-1.44Z"/>
  <path class="cls-9" d="M210.74,126.33c.09.1.13.13.14.16.33,2.61,1.51,4.85,3.06,6.91,2.75,3.66,5.88,6.95,9.56,9.7,1.2.9,2.43,1.75,3.72,2.68-.2.15-.36.31-.54.4-3.03,1.46-6.16,2.71-9.29,3.94-.16.06-.35.08-.6.13-.72-1-1.75-1.58-2.94-1.78-2.45-.41-4.73.05-6.69,1.61-1.06.84-1.83,1.91-1.74,3.44-.26.1-.5.21-.75.27-3.62.93-7.27,1.68-10.98,2.1-3.35.38-6.71.61-10.08.13-.36-.05-.71-.18-1.07-.19-1.09-.04-1.55-.73-1.9-1.64-1.77-4.55-1.02-8.66,2.09-12.37.44-.52.95-.98,1.44-1.45.4-.39.86-.65,1.41-.78,1.65-.39,3.19-1.06,4.7-1.81.77-.38,1.58-.7,2.39-.99,5.93-2.12,11.32-5.2,16.26-9.08.6-.47,1.19-.96,1.82-1.37Z"/>
  <path class="cls-9" d="M4.84,231.55c-.96-4.03-.35-7.6,1.31-11.03,2.06-4.25,5.41-7,9.89-8.46,3.4-1.11,6.87-1.31,10.4-1.05.62.05,1.16.27,1.57.73.7.78,1.47,1.51,2.04,2.38,1.83,2.81,2.86,5.89,2.81,9.28-.02,1.56-.29,3.08-.75,4.57-.23.74-.46,1.48-.73,2.21-.18.5-.08.91.31,1.23.45.37.92.76,1.44,1.02,1.8.89,3.6,1.76,5.43,2.57,3.5,1.55,7.08,2.88,10.71,4.09,1.77.59,3.5,1.28,5.25,1.94.42.16.83.37,1.32.58.34,2.94.95,5.83,1.95,8.76-.37-.04-.64-.02-.88-.09-8.62-2.59-16.94-5.88-24.73-10.44-3.85-2.25-7.74-4.45-11.63-6.65-1.51-.85-3.04-1.66-4.59-2.42-1.77-.86-3.64-1.45-5.62-1.61-.72-.06-1.45,0-2.17.08-1.08.14-1.97.67-2.66,1.53-.16.2-.33.39-.66.77Z"/>
  <path class="cls-3" d="M58.82,253.33c.73,1.41,1.44,2.94,2.28,4.39.84,1.45,1.8,2.82,2.7,4.22-.16.37-.46.28-.71.28-2.56.02-5.09-.23-7.61-.68-6.91-1.21-13.73-2.83-20.43-4.92-5.23-1.64-10.27-3.73-14.98-6.56-3.26-1.96-6.22-4.29-8.87-7.01-2.28-2.35-4.04-5.03-5.3-8.05-.35-.84-.43-1.66-.16-2.53.38-1.22,1.29-1.99,2.58-2.1,1.15-.1,2.27.07,3.37.4,1.4.42,2.76.96,4.02,1.69,2.37,1.36,4.71,2.76,7.07,4.15,5.41,3.19,10.92,6.21,16.6,8.92,4.03,1.92,8.14,3.64,12.36,5.11,1.37.48,2.73,1.02,4.09,1.54.98.37,1.95.75,3,1.15Z"/>
  <path class="cls-9" d="M64.91,85.09c-.68-.12-.86-.52-1.01-.97-.95-2.75-1.95-5.49-2.87-8.25-3.47-10.36-6.89-20.73-10.38-31.08-1.29-3.84-2.72-7.63-4.08-11.45-.1-.28-.16-.58-.31-1.12,5.49,3.95,10.77,7.74,16.08,11.55-.08,1.58.47,2.86,1.7,3.84,1.28,1.01,2.63,1.17,4.13.33,3.36,2.41,6.75,4.78,10.09,7.31-.17.34-.29.63-.44.9-2.77,4.98-4.58,10.3-5.56,15.91-.24,1.39-.45,2.79-.64,4.18-.11.78-.35,1.48-.83,2.13-.98,1.31-1.87,2.7-2.85,4-.82,1.1-1.8,2.05-3.03,2.71Z"/>
  <path class="cls-7" d="M89.52,96.11c.44,0,.59.34.82.53.6.5,1.27.88,2.01,1.13.8.26,1.6.29,2.42.06,1.25-.35,2.39-.91,3.36-1.76,1.13-.99,2.22-2.03,3.28-3.09.71-.71,1.34-1.49,1.98-2.27.33-.4.66-.76,1.23-.74.71.03,1.39.18,1.8.8.27.41.5.88.61,1.35.36,1.6.67,3.2.79,4.85.58,7.89,2.04,15.62,4.52,23.14,1.06,3.21,2.44,6.28,4.07,9.24.22.39.42.8.66,1.27-.34.26-.72.23-1.05.31-3.07.66-6.14,1.33-9.22,1.96-.89.18-1.81.23-2.71.34-.9.1-1.6-.2-2.06-1.02-.96-1.71-2.03-3.36-2.87-5.12-3.64-7.58-6.57-15.41-8.4-23.63-.47-2.13-.83-4.29-1.23-6.44-.05-.29,0-.59,0-.9Z"/>
  <path class="cls-9" d="M62.62,86.36c.18.04.32.05.43.1,1.07.52,2.06.25,2.97-.35.6-.4,1.17-.87,1.68-1.38.84-.84,1.62-1.73,2.42-2.6.21-.23.41-.46.6-.68.36.16.25.41.24.62-.2,3.23-.26,6.46-.12,9.7.55,12.71,3.4,24.87,8.91,36.37,1.4,2.92,3.08,5.68,4.98,8.31.26.35.49.72.82,1.23-.36-.04-.54-.02-.7-.08-2.81-.95-5.55-2.05-8.16-3.48-3.62-1.99-6.55-4.78-8.96-8.08-4.14-5.69-6.9-12-7.96-18.97-.81-5.33-.47-10.63,1.1-15.82.4-1.31.85-2.6,1.29-3.89.11-.34.29-.65.44-1Z"/>
  <path class="cls-10" d="M148.66,59.26c-.06.34-.11.74-.19,1.13-.68,3.31-1.13,6.65-1.31,10.01-.06,1.17-.35,2.21-.97,3.21-2.2,3.51-4.44,7-7.15,10.16-1.93,2.25-3.99,4.37-6.49,6.02-.8.53-1.63,1-2.57,1.25-1.63.43-3.16.32-4.46-.91-.31-.3-.5-.61-.53-1.06-.3-4.41-.41-8.83-.07-13.24.21-2.73.55-5.44,1.19-8.1.14-.57.33-1.14.52-1.69.43-1.27,1.26-2.2,2.47-2.79.57-.28,1.15-.56,1.74-.78,3.5-1.32,7.06-2.41,10.73-3.14,2.07-.41,4.16-.48,6.26-.38.18,0,.36.04.54.08.08.02.14.11.29.23Z"/>
  <path class="cls-10" d="M171.29,84.36c-.2-1.24-.41-2.36-.54-3.48-.37-3.17-.77-6.33-1.03-9.51-.29-3.64-.33-7.29.19-10.91.16-1.12.49-2.22.76-3.32.09-.35.25-.68.41-1.01.39-.84,1.03-1.36,1.96-1.54,1.39-.26,2.76-.61,4.15-.83,2.34-.37,4.7-.6,7.03-1.02,2.53-.45,4.26.73,5.55,2.64,1.42,2.1,1.95,4.5,1.76,7.03-.04.49-.19.99-.37,1.44-1.19,2.91-2.49,5.77-4.3,8.37-1.3,1.87-2.58,3.76-3.92,5.59-1.14,1.55-2.48,2.92-3.95,4.15-1.23,1.03-2.58,1.87-4.1,2.42-1.16.41-2.31.38-3.6-.01Z"/>
  <path class="cls-10" d="M109.72,66.07c-.03.34-.02.6-.08.85-1.1,4.38-1.7,8.85-2.02,13.35-.05.7-.23,1.31-.64,1.9-1.99,2.83-3.79,5.79-5.99,8.48-1.15,1.42-2.39,2.75-3.74,3.98-.68.62-1.43,1.12-2.25,1.52-1.05.51-2.1.54-3.17.09-.33-.14-.67-.29-.98-.47-1.11-.65-1.8-1.49-1.91-2.91-.3-3.86-.68-7.71-.59-11.59.06-2.19.25-4.37.83-6.49.29-1.05.7-2.07,1.1-3.08.47-1.17,1.33-1.93,2.54-2.29,3.44-1.04,6.89-2.07,10.45-2.6,1.84-.27,3.7-.5,5.55-.74.26-.03.53,0,.88,0Z"/>
  <path class="cls-7" d="M152.6,166.24c.05.38.08.63.12.95-.4.11-.74.23-1.09.28-1.15.17-1.94.73-2.23,1.9-.05.22-.16.43-.23.64-.81,2.84-2.63,4.96-4.87,6.77-.6.48-1.27.9-1.96,1.23-3.15,1.49-6.46,2.17-9.95,1.8-1.64-.17-3.22-.6-4.77-1.14-.6-.21-.99-.61-1.27-1.16-.68-1.33-.96-2.75-.93-4.23.08-4.24,1.46-8.03,4.14-11.33,1.89-2.33,4.33-3.71,7.25-4.29,1.58-.31,3.17-.45,4.76-.19,2.42.4,4.44,1.61,6.07,3.42.71.78,1.1,1.78,1.44,2.77.21.6.36,1.22.57,1.83.26.76.52.92,1.31.91.27,0,.54-.04.82-.07.22-.02.45-.05.82-.09Z"/>
  <path class="cls-9" d="M211.72,44.11c1.93,0,3.21-.85,3.9-2.55.71-1.76.11-3.19-1.22-4.43,2.72-7.14,5.38-14.24,8.11-21.6.25.71.13,1.15.08,1.57-.68,5.79-1.41,11.58-2.06,17.37-.62,5.48-1.16,10.96-1.75,16.44-.44,4.08-.88,8.15-1.35,12.23-.12,1.04-.24,2.1-.58,3.08-.65,1.91-1.9,3.27-4,3.69-1.56.31-3.09.16-4.61-.17-1.56-.34-3.06-.89-4.49-1.61-.28-.14-.54-.32-.79-.48-.12-.58.17-1.02.34-1.47,2.38-6.3,4.78-12.6,7.18-18.9.39-1.02.79-2.04,1.22-3.17Z"/>
  <path class="cls-8" d="M261.58,114.43c.34-.09.63-.23.93-.24,1.27-.03,2.55-.08,3.82-.01,1.2.06,2.3.54,3.29,1.23.84.58,1.49,1.33,1.91,2.27.64,1.44.91,2.94.8,4.53-.15,2.21-.77,4.29-1.69,6.3-.84,1.82-1.82,3.57-2.93,5.24-1.12,1.69-2.52,3.12-4.14,4.32-2.48,1.85-5.2,2.31-8.14,1.27-.64-.23-1.27-.49-1.88-.8-2.13-1.07-3.32-2.91-4.1-5.08-.18-.51-.29-1.06-.11-1.66,6.37-4.12,10.64-9.79,12.23-17.37Z"/>
  <path class="cls-9" d="M100.56,165.72c-1.98-2.69-6.22-1.96-7.78.62-.36.59-.62,1.22-.62,1.92,0,.31,0,.63,0,.92-1.82.75-7.75,1.95-9.94,2.02-.04-.16-.11-.33-.12-.5-.22-3.69-1.51-7.01-3.58-10.04-.26-.38-.51-.75-.75-1.14-.15-.24.05-.56.35-.6.13-.02.27-.03.41-.03,5.55.31,11-.33,16.36-1.81,4.27-1.18,8.47-2.5,12.39-4.61.45-.24.91-.38,1.43-.36,2.92.14,5.71-.38,8.38-1.57.08-.04.18-.05.27-.05.04,0,.08.03.2.09-.14.22-.27.44-.41.65-2.78,4-5.56,8.01-8.35,12.01-.2.29-.44.62-.74.77-2.09,1.01-4.25,1.86-6.52,2.5-.29-.24-.57-.47-.83-.69-.06-.04-.1-.08-.12-.09Z"/>
  <path class="cls-9" d="M234.91,149.45c-.44.25-.72.44-1.03.59-5.05,2.55-10.32,4.56-15.72,6.25-3.96,1.24-7.98,2.22-12.08,2.88-3.74.6-7.51.85-11.3.71-2.78-.1-5.55-.28-8.32-.41-.71-.03-1.32-.33-1.93-.63-1-.48-1.68-1.13-2.31-2.18.32.04.56.08.81.11,2.54.3,5.08.33,7.64.15,4.97-.34,9.84-1.24,14.65-2.48.13-.03.27-.03.44-.04.19.17.39.35.59.53.63.56,1.39.89,2.21,1.01,2.65.41,5.06-.18,7.18-1.86.07-.06.14-.12.21-.18,1.03-.93,1.26-1.45,1.29-3.04,3.59-1.37,7.09-2.97,10.51-4.79,1.2.62,2.36,1.25,3.55,1.81,1.14.54,2.31,1,3.62,1.56Z"/>
  <path class="cls-9" d="M48.43,32.95c.54-.13.97.2,1.42.39,4.29,1.78,8.58,3.55,12.84,5.37,5.86,2.5,11.69,5.05,17.54,7.58,1.04.45,2.07.94,3.1,1.42.19.09.37.23.57.36-.97,1.11-1.92,2.15-2.8,3.25-.85,1.05-1.63,2.17-2.43,3.24-1.34-.68-6.25-4.11-10.02-7-.02-.11-.07-.25-.05-.37.29-1.58-.42-2.73-1.6-3.67-.28-.23-.6-.42-.93-.57-1.18-.55-2.36-.7-3.49.2-.28-.17-.56-.32-.82-.5-4.26-3.04-8.51-6.09-12.77-9.15-.21-.15-.36-.38-.54-.57l-.03.03Z"/>
  <path class="cls-9" d="M92.38,169.99c.1.12.18.23.26.34,1.38,1.87,3.34,2.52,5.52,1.77.68-.23,1.35-.56,1.95-.96,1.24-.82,1.86-1.96,1.61-3.49-.02-.13-.03-.27-.05-.46.92-.56,2-.78,2.99-1.21.98-.42,1.94-.92,3.15-1.32-.18.38-.26.57-.36.76-1.27,2.26-2.55,4.52-3.8,6.79-.3.55-.68.93-1.25,1.19-4.26,1.95-8.58,3.77-13.12,5-2.55.69-5.16,1.12-7.79,1.37-.63.06-1.25.11-1.97.17.59-1.32,1.21-2.52,1.65-3.79.43-1.24.67-2.54,1.01-3.9,1.66-.32,3.4-.61,5.12-.99,1.68-.37,3.34-.83,5.06-1.27Z"/>
  <path class="cls-5" d="M145.89,158.71c-.53-.34-1.07-.67-1.6-1.02-1.83-1.22-3.87-1.55-6.01-1.32-.95.1-1.89.3-2.81.53-2.74.71-4.97,2.2-6.71,4.44-2.59,3.35-3.97,7.13-4.01,11.38-.02,1.82.15,2.6.98,4.78-.22.23-.42.07-.59-.05-2-1.36-3.38-3.12-3.73-5.61-.22-1.59.02-1.9-2.13-1.71-2,.18-3.96.61-5.92,1-2.45.49-4.91.95-7.29,1.78-.07.03-.17-.02-.26-.03.17-.73.36-1.31.64-1.54.23-.19.53-.35.83-.41,1.69-.34,3.38-.74,5.09-.95,2.21-.28,4.44-.4,6.67-.59.14-.01.27-.02.41-.02,1.02-.05,1.72-.52,2.06-1.49.15-.43.33-.85.46-1.29.96-3.19,2.89-5.75,5.28-8,1.6-1.51,3.39-2.75,5.47-3.54,3.57-1.35,6.97-.97,10.22.95.86.51,1.64,1.15,2.44,1.75.27.21.48.51.71.77-.06.06-.13.13-.19.19Z"/>
  <path class="cls-8" d="M92.98,220.54c-6-3.25-5.94-3.53-13.93-4.6,0-.08-.01-.21.03-.24,2.1-1.72,4.4-3.08,7.07-3.72,1.44-.35,2.9-.36,4.34-.12,2.69.46,4.49,2.86,4.2,5.52-.04.35-.18.7-.35,1.01-.41.7-.87,1.38-1.36,2.15Z"/>
  <path class="cls-7" d="M130.22,250.09c-2.4.19-5.46-2.33-4.67-5.66.24-1.01.77-1.84,1.58-2.48,1.46-1.16,3.15-1.56,4.98-1.42.13.01.27.03.4.08,1.65.64,2.86,2.41,2.96,3.79.22,3.11-2.13,5.69-5.25,5.69Z"/>
  <path class="cls-7" d="M210.15,155.39c-.44-.07-1.05-.1-1.6-.27-.51-.16-1.01-.41-1.44-.74-.79-.61-.95-1.43-.48-2.3.21-.39.48-.79.8-1.09,1.98-1.82,4.28-2.47,6.91-1.79.81.21,1.47.7,1.99,1.36.6.76.6,1.3,0,2.07-.08.11-.18.21-.28.3-1.62,1.53-3.54,2.33-5.9,2.45Z"/>
  <path class="cls-7" d="M100.56,165.72s.06.05.12.09c.16.41.39.82.5,1.25.25,1.03.05,2.04-.64,2.82-1.27,1.42-3.05,2.29-5.29,1.52-2.14-.73-2.92-3.1-1.71-5.01,1.09-1.71,3.22-2.45,5.13-1.7.66.26,1.27.68,1.9,1.02Z"/>
  <path class="cls-5" d="M153.81,166.95c-.04-.13-.1-.26-.11-.38,0-.13.03-.26.06-.46.29-.07.59-.18.9-.21,1.45-.15,2.9-.31,4.35-.42,7.4-.54,14.81-.86,22.24-.75.45,0,.91.01,1.36.08.53.08,1.06.22,1.65.35.03.38.06.73.09,1.08-.17.07-.29.18-.4.17-1.23-.07-2.45-.22-3.68-.23-3.37-.02-6.74.04-10.1.02-3.05-.01-6.09.17-9.13.4-.05,0-.09,0-.14,0-2.32.11-4.63.22-7.08.33Z"/>
  <path class="cls-7" d="M210.08,40.88c-.02-1.66,1.23-3.17,2.72-3.42,1.01-.17,1.9.38,2.19,1.38.23.8.35,1.59.05,2.41-.32.87-.87,1.48-1.72,1.82-1.46.59-2.92-.21-3.2-1.76-.03-.18-.04-.36-.04-.43Z"/>
  <path class="cls-7" d="M139.03,234.64c-.11,1.35-.66,2.36-1.67,3.08-.72.51-1.52.62-2.31.21-.87-.45-1.16-1.25-1.13-2.16.04-1.52,1.64-3.14,3.16-3.26.82-.07,1.43.28,1.71,1.04.14.37.18.79.24,1.09Z"/>
  <path class="cls-7" d="M67.9,46.09c0,1-.4,1.46-1.25,1.63-.75.15-1.43.02-2.06-.42-.89-.62-1.52-1.4-1.78-2.47-.27-1.13.19-1.78,1.31-1.85,1.27-.08,2.29.42,3.11,1.36.46.53.69,1.16.67,1.74Z"/>
  <path class="cls-10" d="M48.46,32.92l-.24-.06.12-.12c.03.07.06.14.09.2,0,0,.03-.03.03-.03Z"/>
  <g>
    <path class="cls-9" d="M127.62,8.35l-.17,3.24s2.42-.73,3.3-.85-1.52-2.79-1.52-2.79l-1.61.39Z"/>
    <path class="cls-4" d="M124.62,4.18c.18-.31.37-.62.54-.94.61-1.08,1.61-1.57,2.78-1.77.56-.09,1.12-.02,1.58.28,1.12.73,1.86,1.74,1.91,3.13.02.7-.2,1.35-.7,1.87-.28.29-.59.56-.94.9.14.28.23.58.42.82.43.53.91,1.01,1.36,1.53.41.46.9.75,1.52.82.31.04.62.13.93.22,2.33.7,4.12,2.1,5.31,4.22.46.83.84,1.71,1.32,2.7.21.01.56.05.91.04,2.19-.03,4.37,0,6.54.33,1.36.21,2.67.54,3.94,1.06.81.33,1.55.77,2.16,1.4,1.07,1.11,1.17,2.35.2,3.56-.39.49-.87.95-1.41,1.28-1.04.65-2.11,1.27-3.23,1.76-3.34,1.48-6.85,2.44-10.41,3.24-4.62,1.04-9.29,1.84-13.99,2.39-3.03.35-6.07.67-9.13.64-1.57-.02-3.08-.32-4.54-.87-.91-.34-1.71-.85-2.35-1.59-.82-.95-.99-2.01-.52-3.18.36-.92.99-1.63,1.78-2.2.95-.7,1.94-1.35,3.06-1.78,1.83-.69,3.66-1.4,5.48-2.09.25-.1.51-.19.71-.26.07-.14.15-.22.15-.29.02-2.15,1-3.95,2.16-5.65.88-1.29,1.97-2.4,3.3-3.23.55-.34.79-.8.99-1.38.32-.95.47-1.93.71-2.95-.94-.31-1.84-.55-2.14-1.56l-.03.03c.11.08.22.15.33.23.81.53,1.61.83,2.36,0,.36.12.37.37.36.58-.04.77-.1,1.53-.17,2.3-.04.44-.13.88-.2,1.37.56.18.95-.15,1.37-.22.39-.06.77-.21,1.22-.35-.56-1.28-1.47-2.33-1.81-3.7.36-.14.69-.23.98-.4.26-.16.5-.4.7-.64.77-.93.62-2.32-.36-3.01-1.44-1.01-2.56-1.12-4,.29-.26.25-.45.57-.7.83-.11.12-.3.17-.45.25,0,0,0,0,0,0ZM141.91,19.13c-3.48-.02-7.07.36-10.61.98-5.02.89-10.03,1.86-14.88,3.46-1.87.62-3.65,1.41-5.18,2.7-.56.48-1.07.99-1.36,1.68-.42,1-.23,1.75.61,2.43.65.53,1.42.81,2.22,1.02,1.64.44,3.31.64,5,.57,3.1-.12,6.18-.38,9.25-.86,5.54-.86,11.03-1.94,16.49-3.21,2.35-.55,4.68-1.21,6.85-2.3.89-.44,1.77-.96,2.55-1.57,1.32-1.02,1.26-1.84-.09-2.8-.87-.62-1.85-.97-2.86-1.25-2.57-.71-5.2-.87-7.98-.86ZM120.65,21.33c.7.1,1.21,0,1.75-.14,1.45-.38,2.9-.78,4.37-1.08,2.41-.48,4.82-.89,7.24-1.31.86-.15,1.68-.38,2.41-.89,1.25-.88,1.19-2.27.42-3.19-1.6-1.94-5.35-2.97-7.3-2.48-4.81,1.19-7.76,4.1-8.89,9.09Z"/>
    <path class="cls-6" d="M124.62,4.18c.02.26.05.53.06.79,0,.07-.03.14-.07.3,0-.42,0-.75,0-1.09,0,0,0,0,0,0Z"/>
    <path class="cls-6" d="M125.05,6.62c-.05-.05-.11-.09-.16-.14.04.06.09.11.13.17,0,0,.03-.03.03-.03Z"/>
    <path class="cls-9" d="M141.91,19.13c2.78,0,5.41.15,7.98.86,1.01.28,2,.63,2.86,1.25,1.35.97,1.41,1.79.09,2.8-.79.61-1.66,1.12-2.55,1.57-2.17,1.08-4.49,1.75-6.85,2.3-5.46,1.27-10.95,2.35-16.49,3.21-3.06.48-6.15.74-9.25.86-1.7.07-3.37-.13-5-.57-.79-.21-1.56-.5-2.22-1.02-.84-.68-1.03-1.43-.61-2.43.29-.69.8-1.21,1.36-1.68,1.52-1.29,3.3-2.08,5.18-2.7,4.86-1.6,9.87-2.57,14.88-3.46,3.54-.63,7.13-1.01,10.61-.98Z"/>
    <path class="cls-1" d="M120.65,21.33c1.13-4.98,4.08-7.89,8.89-9.09,1.94-.48,5.69.55,7.3,2.48.76.92.83,2.3-.42,3.19-.72.51-1.54.74-2.41.89-2.42.42-4.84.83-7.24,1.31-1.47.29-2.92.7-4.37,1.08-.53.14-1.05.24-1.75.14Z"/>
    <circle class="cls-7" cx="127.96" cy="4.72" r="3.59"/>
    <path class="cls-4" d="M127.96,8.64c-2.16,0-3.92-1.76-3.92-3.92s1.76-3.91,3.92-3.91,3.91,1.76,3.91,3.91-1.76,3.92-3.91,3.92ZM127.96,1.45c-1.8,0-3.27,1.47-3.27,3.27s1.47,3.27,3.27,3.27,3.27-1.47,3.27-3.27-1.47-3.27-3.27-3.27Z"/>
  </g>
  <path class="cls-10" d="M92.79,59.1c-3.2,4.62-3.49,8.17-7.78,7.24-3.89-.85-3.33-7.85-.14-12.47,3.2-4.62,9.1-7.27,11.71-4.27,1.87,2.15-.6,4.87-3.79,9.5Z"/>
  <path class="cls-10" d="M129.24,53.54c-3.2,4.62-3.49,8.17-7.78,7.24-3.89-.85-3.33-7.85-.14-12.47s9.1-7.27,11.71-4.27c1.87,2.15-.6,4.87-3.79,9.5Z"/>
  <path class="cls-10" d="M166.26,51.31c-3.2,4.62-3.49,8.17-7.78,7.24-3.89-.85-3.33-7.85-.14-12.47s9.1-7.27,11.71-4.27c1.87,2.15-.6,4.87-3.79,9.5Z"/>
  <path class="cls-10" d="M133.09,209.82c-2.85,2.94-3.48,5.46-6.46,4.28-2.7-1.07-1.46-6.04,1.39-8.98,2.85-2.94,7.41-4.14,8.93-1.67,1.09,1.77-1.01,3.43-3.86,6.38Z"/>
  <path class="cls-10" d="M134.21,165.36c-1.87,1.93-2.28,3.58-4.24,2.8-1.77-.7-.96-3.96.91-5.89s4.86-2.72,5.86-1.1c.71,1.16-.66,2.25-2.53,4.18Z"/>
  <path class="cls-10" d="M72.98,191.95c-3.13,1.18-4.48,2.82-6.26.9-1.62-1.73,1.03-4.97,4.16-6.15,3.13-1.18,6.92-.47,7.18,1.88.19,1.69-1.94,2.18-5.08,3.36Z"/>
  <path class="cls-10" d="M119.45,159.89c-1.34,1.62-1.56,2.93-3.13,2.44-1.42-.44-.99-3.03.35-4.65s3.62-2.41,4.5-1.21c.63.86-.38,1.8-1.72,3.41Z"/>
  <path class="cls-10" d="M120.56,25.72c-2.34.64-3.52,1.4-4.47.65-.86-.68,1.45-2.18,3.79-2.81,2.34-.64,4.86-.49,4.7.51-.12.72-1.67,1.02-4.02,1.65Z"/>
  <ellipse class="cls-2" cx="141.48" cy="171.14" rx="6.74" ry="5.28" transform="translate(-74.58 222.39) rotate(-63.76)"/>
  <ellipse class="cls-10" cx="63.56" cy="98.1" rx="2.63" ry="2.01"/>
  <ellipse class="cls-10" cx="20.67" cy="215.07" rx="2.63" ry="2.01"/>
  <ellipse class="cls-10" cx="246" cy="74.36" rx="2.06" ry="1.57"/>
  <ellipse class="cls-10" cx="126.15" cy="15.65" rx="1.27" ry=".97"/>
  <ellipse class="cls-10" cx="126.47" cy="3.37" rx=".73" ry=".56"/>
  <ellipse class="cls-10" cx="223.69" cy="107.09" rx="2.06" ry="1.57"/>
  <ellipse class="cls-10" cx="72.96" cy="223.06" rx="2.63" ry="2.01"/>
  <ellipse class="cls-10" cx="220.52" cy="79.56" rx="2.63" ry="2.01"/>
  <line class="cls-11" x1="54" y1="46.05" x2="72.74" y2="73.47"/>
  <line class="cls-11" x1="215.96" y1="19.38" x2="191.58" y2="48.53"/>
  <path class="cls-11" d="M209.8,133.17s-12.05,8.13-23.54,11.21"/>
  <path class="cls-11" d="M83.95,161.48s10.13.26,18.86-4.28"/>
  <path class="cls-4" d="M260.25,142.38c-.14.28-.22.44-.29.61-1.32,3.02-3.72,4.77-6.8,5.64-1.98.56-4.01.87-6.07.84-1.37-.02-2.73-.05-4.1-.11-.43-.02-.76.1-1.12.36-1.08.76-2.17,1.51-3.31,2.17-5.53,3.18-11.46,5.33-17.65,6.84-4.34,1.06-8.7,2.03-13.12,2.64-5.02.7-10.07.92-15.13.44-2.22-.21-4.42-.49-6.67-1.13-.04.37-.12.67-.08.96.13,1.27.27,2.54.46,3.8.56,3.69,1.22,7.37,1.72,11.07.83,6.1,1.54,12.21,1.25,18.39-.3,6.46-2.19,12.45-5.57,17.95-1.92,3.13-4.4,5.81-7.23,8.15-2,1.66-4.08,3.21-6.26,4.63-1.83,1.19-3.68,2.37-5.49,3.59-3.18,2.14-6.19,4.5-8.88,7.25-5.01,5.14-8.8,11.03-10.78,17.99-.66,2.32-1.17,4.68-1.7,7.04-.84,3.76-2.16,7.35-3.92,10.76-2.2,4.27-5.08,7.98-9.13,10.7-3.48,2.33-7.31,3.65-11.47,4.07-3.52.35-7.01.03-10.49-.46-7.47-1.05-14.5-3.48-21.25-6.79-3.65-1.78-7.16-3.79-10.55-6.04-2.9-1.92-5.58-4.1-8.06-6.53-.13-.13-.27-.25-.39-.39-.35-.4-.76-.56-1.31-.58-1.78-.04-3.55-.19-5.33-.22-2.24-.04-4.45-.33-6.65-.68-6.85-1.1-13.58-2.69-20.23-4.65-5.87-1.73-11.55-3.95-16.85-7.04-3.9-2.27-7.36-5.06-10.23-8.55-4.01-4.87-6.1-10.49-5.81-16.79.28-6.06,2.78-11.17,7.57-15.03,1.76-1.42,3.78-2.36,5.9-3.11,3.8-1.34,7.72-1.7,11.72-1.26,5.32.58,10.15,2.44,14.55,5.47.18.13.38.24.65.4.12-.23.24-.41.31-.61,1.69-5.58,4.3-10.73,7.43-15.62,2.15-3.37,4.85-6.26,7.95-8.78.28-.23.57-.46.84-.69.07-.06.11-.14.16-.22.02-.32-.25-.32-.44-.41-.08-.03-.17-.07-.25-.1-2.98-1.07-3.24-3.53-2.76-5.63.34-1.49,1.23-2.51,2.73-2.95.52-.15,1.05-.32,1.55-.52.57-.23,1.08-.58,1.15-1.24.08-.75-.32-1.31-.92-1.72-.26-.18-.57-.3-.87-.38-1.59-.43-3.19-.73-4.86-.63-.95.06-1.91.07-2.87.1-1.58.04-3.07-.34-4.47-1.08-2.75-1.44-3.76-4.15-2.65-7.05.06-.16.12-.33.21-.56-.19-.15-.35-.3-.52-.43-2.48-1.68-3.57-3.94-2.84-7-.18-.17-.36-.36-.57-.53-2.07-1.68-2.5-4.71-.62-7.1,1.69-2.15,3.87-3.57,6.55-4.17,2.88-.64,5.79-.72,8.7-.42,1.63.17,3.25.47,4.85.82,5.19,1.14,9.73,3.54,13.65,7.12.81.74,1.58,1.51,2.41,2.3,2.05.24,4.14.1,6.23-.05,1.86-.13,3.73-.28,5.59-.46,4.78-.46,9.47-1.31,13.99-2.99,1.15-.43,2.27-.95,3.39-1.45.23-.1.42-.27.62-.4-.13-.37-.39-.33-.6-.38-5.13-1.25-9.51-3.86-13.4-7.35-.75-.67-1.49-1.35-2.17-2.08-.5-.54-1.08-.79-1.77-.91-2.2-.41-4.36-.96-6.47-1.7-3.57-1.25-6.76-3.14-9.59-5.65-4.42-3.91-7.58-8.7-9.88-14.1-1.48-3.49-2.66-7.08-3.21-10.85-.65-4.48-.94-8.98-.16-13.48.47-2.7,1.21-5.33,2.33-7.84.37-.83.82-1.62,1.3-2.55-.06-.22-.14-.57-.24-.91-1.89-6.38-4.1-12.65-6.24-18.94-3.43-10.09-6.74-20.22-9.85-30.41-.31-1-.59-2.01-.87-3.02-.09-.35-.13-.71-.17-1.07,0-.07.07-.16.15-.33.5-.07,1.01.05,1.52.25,1.15.44,2.3.86,3.44,1.32,10.51,4.27,21.1,8.29,31.72,12.28.43.16.86.3,1.29.46,1.1.43,2.2.86,3.42,1.34.19-.12.5-.3.79-.5,2.83-2.03,5.98-3.29,9.43-3.74,3.16-.42,6.25-.02,9.32.88,3.92,1.15,6.61,3.71,8.62,7.12.2.35.39.7.56,1.03.43,0,.47-.33.6-.53.87-1.34,1.69-2.71,2.58-4.03,1.89-2.8,4.35-5.02,7.1-6.94,2.33-1.62,4.97-2.4,7.75-2.88,2.35-.4,4.62-.16,6.87.55,2.18.69,4.03,1.93,5.69,3.43,2.79,2.53,4.78,5.59,5.92,9.2.04.11.13.21.27.43.2-.34.38-.58.51-.84,1.47-3.13,3.49-5.87,5.83-8.39,4.07-4.38,9.11-6.37,15.07-5.99,1.47.09,2.86.53,4.23,1.04.47.17.93.35,1.44.55.43-.24.87-.48,1.3-.74,6.92-4.22,13.83-8.46,20.77-12.67,6.58-3.99,13.18-7.96,19.78-11.93.62-.38,1.26-.74,1.9-1.09.32-.17.66-.32,1-.43.48-.15.83.07.88.55.04.41.05.82.02,1.23-.13,1.91-.24,3.82-.42,5.73-.3,3.31-.63,6.62-.96,9.93-.41,4.08-.83,8.16-1.25,12.24-.3,2.9-.62,5.8-.94,8.7-.41,3.76-.84,7.52-1.24,11.28-.18,1.76-.46,3.52-.44,5.29.73.68,1.47,1.29,2.12,1.98,4.64,4.89,7.5,10.71,8.84,17.29.26,1.29.44,2.6.66,3.91.06.35.14.71.25,1.28.22-.46.37-.72.48-1,.55-1.45,1.07-2.91,1.65-4.34,1.23-3.05,2.79-5.94,4.73-8.6,2.4-3.29,5.61-5.41,9.59-6.35,2.27-.54,4.53-.47,6.76.19,3.82,1.12,6.17,3.73,7.35,7.45.63,1.98.72,4.03.5,6.09-.6,5.61-2.86,10.5-6.36,14.87-1.31,1.64-2.71,3.2-4.23,4.65-.25.24-.48.51-.87.94.43-.04.63-.06.83-.08,1.32-.14,2.63-.14,3.94.19,2.09.55,3.69,1.74,4.78,3.6.92,1.56,1.38,3.26,1.42,5.08.01.49-.11,1,.1,1.51.69-.12,1.36-.27,2.03-.33.68-.06,1.37-.06,2.05-.03,1.58.06,3.04.52,4.41,1.29,2.15,1.2,3.28,3.08,3.73,5.44.33,1.73.25,3.46-.16,5.16-1.18,4.87-3.45,9.19-6.75,12.96-1.89,2.16-4.15,3.83-6.93,4.77ZM48.43,32.95c-.03-.07-.06-.14-.09-.2l-.12.12.24.06c.18.19.33.42.54.57,4.25,3.06,8.51,6.1,12.77,9.15.25.18.53.33.82.5,1.14-.9,2.31-.75,3.49-.2.33.15.65.35.93.57,1.17.94,1.89,2.08,1.6,3.67-.02.12.03.26.05.37,3.78,2.89,8.68,6.33,10.02,7,.8-1.08,1.58-2.19,2.43-3.24.88-1.1,1.84-2.13,2.8-3.25-.2-.13-.38-.27-.57-.36-1.03-.48-2.06-.96-3.1-1.42-5.84-2.53-11.68-5.08-17.54-7.58-4.27-1.82-8.56-3.59-12.84-5.37-.45-.19-.88-.51-1.42-.39ZM100.67,165.81c.27.23.55.45.84.69,2.28-.64,4.43-1.49,6.52-2.5.3-.15.54-.48.74-.77,2.79-4,5.57-8,8.35-12.01.14-.21.27-.43.41-.65-.12-.06-.16-.09-.2-.09-.09,0-.18.02-.27.05-2.67,1.19-5.47,1.71-8.38,1.57-.52-.03-.98.11-1.43.36-3.92,2.11-8.13,3.43-12.39,4.61-5.36,1.49-10.8,2.12-16.36,1.81-.13,0-.27,0-.41.03-.3.04-.49.36-.35.6.23.39.49.77.75,1.14,2.07,3.03,3.36,6.35,3.58,10.04.01.17.08.34.12.5,2.2-.07,8.12-1.28,9.94-2.02,0-.29,0-.6,0-.92,0-.71.26-1.33.62-1.92,1.56-2.58,5.8-3.3,7.78-.62-.63-.35-1.23-.76-1.9-1.02-1.91-.74-4.05,0-5.13,1.7-1.21,1.91-.43,4.27,1.71,5.01,2.24.77,4.02-.11,5.29-1.52.7-.78.9-1.78.64-2.82-.11-.43-.33-.84-.5-1.25ZM133.99,238.47c-.08-.18-.11-.27-.16-.35-1.01-1.72-.85-3.15.52-4.58.99-1.04,2.17-1.65,3.65-1.5.32-.44.61-.84.9-1.25,2.28-3.25,4.78-6.32,7.51-9.21,1.38-1.46,2.84-2.83,4.43-4.06,1.56-1.21,3.28-2.13,5.14-2.79,1.09-.39,2.2-.55,3.35-.49,1.69.09,3.07.78,4.14,2.09,1.27,1.56,2.03,3.34,2.27,5.33.03.21.05.42.1.75.28-.15.48-.24.66-.36,2.8-1.89,5.48-3.93,8.01-6.17,4.81-4.25,7.98-9.55,9.88-15.63,1.17-3.74,1.57-7.59,1.41-11.48-.16-3.87-.46-7.73-.74-11.59-.23-3.04-.68-6.07-.71-9.13,0-.17-.07-.34-.12-.58-.55-.08-1.08-.22-1.62-.24-2.19-.07-4.37-.13-6.56-.13-2.46,0-4.92.07-7.38.11-1.28.02-2.55.02-3.83.06-2.28.07-4.55.15-6.83.24-1.96.08-3.9.34-5.83.69-1.18.21-1.83.72-2.12,1.92-.39,1.6-1.03,3.12-2.13,4.39-.74.86-1.51,1.72-2.34,2.48-.67.61-1.4,1.2-2.2,1.6-3.85,1.89-7.88,2.81-12.18,2.02-2.21-.41-4.34-1.06-6.26-2.26-2.33-1.46-3.95-3.47-4.5-6.24-.06-.3-.14-.6-.22-.94-.93-.05-1.79.08-2.63.23-3.72.68-7.43,1.4-11.14,2.11-.22.04-.44.12-.66.18-.47.12-.81.38-1.01.84-.16.38-.35.74-.54,1.11-1.97,3.94-3.38,8.13-5.64,11.97.45.36.91.67,1.3,1.04.9.84,1.79,1.69,2.64,2.57.6.63,1.02,1.4,1.3,2.23.12.34.24.69-.03,1.03-.5,0-.68-.43-.9-.74-.79-1.14-1.8-2.05-2.86-2.92-1.91-1.57-3.95-2.93-6.17-4.02-3.55-1.75-7.3-2.8-11.23-3.22-2.11-.22-4.18.01-6.26.32-3.55.51-6.93,1.58-10.1,3.23-5.23,2.72-9.57,6.49-12.95,11.32-2.71,3.87-4.72,8.1-6.29,12.55-.6,1.72-1.29,3.41-1.93,5.11-.11.29-.24.57-.4.97.24.19.47.34.66.53.84.84,1.67,1.68,2.48,2.54.28.3.52.63.74.98.15.23.19.53-.03.76-.22.23-.51.19-.76.07-.33-.16-.65-.34-.93-.56-.43-.33-.86-.68-1.24-1.07-1.26-1.26-2.67-2.34-4.1-3.4-3.53-2.63-7.51-4.26-11.75-5.3-.24-.06-.51-.04-.97-.07.36.42.59.68.82.95,2.62,3.09,4.12,6.64,4.26,10.71.09,2.4-.42,4.71-1.37,6.92-.14.32-.24.65-.38,1.02,1.74.78,3.39,1.54,5.06,2.27,3.83,1.69,7.72,3.25,11.72,4.5,2.08.65,4.12,1.45,6.18,2.17.19.07.4.06.68.1,0-.5,0-.91,0-1.32-.03-3.43.72-6.69,2.13-9.8,2.43-5.35,6.38-9.14,11.8-11.39,2.04-.85,4.18-1.27,6.37-1.47.58-.05,1.04-.23,1.48-.59.78-.63,1.58-1.23,2.4-1.81,1.35-.96,2.82-1.66,4.39-2.18,1.99-.65,4-.78,6.07-.37,2.13.42,4.76,2.33,4.75,5.56,0,.25.06.49.1.75,2.98-.76,4.16-.66,6.97.53,2.07.88,4.01,1.97,5.68,3.49.12.11.29.18.51.32.16-.36.29-.63.41-.92,2.58-6.62,6.59-12.26,11.82-17.03,3.05-2.78,6.42-5.09,10.21-6.77,3.68-1.64,7.53-2.48,11.55-2.32,1.68.07,3.36.29,5.02.55,3.04.48,5.92,1.46,8.57,3.06.81.49,1.55,1.12,2.28,1.73.34.29.61.68.87,1.05.15.22.25.49.33.74.12.38,0,.7-.24.85-.28.17-.53.06-.76-.1-.19-.12-.35-.29-.52-.44-.91-.83-1.93-1.52-3-2.13-2.94-1.66-6.08-2.67-9.43-3-4.29-.42-8.46.02-12.47,1.64-2.51,1.01-4.81,2.39-6.92,4.08-7.54,6.03-12.55,13.72-15.05,23.05-1.04,3.88-1.56,7.86-2.45,11.77-.18.81-.11,1.62.35,2.37.31.5.56,1.05.77,1.6.14.37.25.79.25,1.18,0,.9-.85,1.4-1.62.95-.34-.2-.65-.5-.89-.82-.41-.54-.78-1.12-1.12-1.72-.89-1.54-1.77-3.08-2.63-4.64-2.39-4.3-5.39-8.11-9.11-11.35-.37-.32-.69-.7-1.17-.87-.2.34.05.56.15.78,1.36,3.12,1.79,6.39,1.46,9.76-.3,3.01-1.04,5.92-1.96,8.78-.11.34-.21.68-.31.98.15.17.22.28.32.38.4.37.8.75,1.21,1.11,5.47,4.79,11.39,8.95,17.73,12.51,2.62,1.47,5.26,2.92,7.84,4.45,2.35,1.4,4.66,2.86,6.94,4.36,2.21,1.46,4.26,3.12,6.04,5.11.17.19.39.35.63.56.72-.77,1.14-1.62,1.57-2.46,1.63-3.23,2.87-6.6,3.61-10.14.19-.94.39-1.87.6-2.81.62-2.81,1.32-5.59,2.41-8.26,3.14-7.65,7.87-14.14,14.15-19.51,2.57-2.19,5.26-4.23,8.04-6.13.45-.31.89-.63,1.38-.98.02-2.69-.82-5.02-2.73-6.91-.73-.73-1.65-1.11-2.68-1.23-1.2-.14-2.36-.03-3.5.39-1.54.57-3.03,1.27-4.33,2.3-1.17.94-2.35,1.89-3.42,2.94-3.52,3.46-6.58,7.32-9.36,11.39-.13.19-.23.39-.37.62.69.93,1,1.94.73,3.08-.27,1.1-.9,1.97-1.72,2.74-.88.82-1.96.84-3.1.7-.3.6-.71,1.09-.85,1.75.26.23.49.44.73.65,1.09.97,1.56,2.2,1.57,3.64.01,3.44-3.42,6-6.24,6.05-3.38.06-6.57-4.1-4.7-7.65.86-1.64,2.22-2.61,3.97-3.1,1.2-.34,2.42-.34,3.69-.08.35-.57.67-1.11,1.03-1.7ZM198.64,120.01c-.38.04-.56.06-.74.09-3.11.44-6.22.94-9.34,1.29-1.67.19-3.36.16-5.05.16-.63,0-1.26-.16-1.88-.3-1-.23-1.7-.82-2.09-1.79-.67-1.69-1.42-3.36-2.03-5.07-3.29-9.24-6.06-18.62-7.72-28.31-.98-5.71-1.73-11.44-1.97-17.23-.12-3.01.06-6.02.48-9,.2-1.4.51-2.78,1.04-4.1.64-1.59,1.74-2.59,3.49-2.91,3.45-.62,6.9-1.27,10.41-1.48,2.04-.12,4.1-.26,6.14.11.12.02.25-.04.45-.07-.13-.28-.21-.54-.34-.77-2.26-4.01-5.2-7.47-8.62-10.53-1.79-1.61-3.91-2.65-6.2-3.37-1.18-.37-2.39-.56-3.64-.53-4.08.1-7.69,1.53-10.72,4.2-2.72,2.39-4.94,5.22-6.61,8.47-3.05,5.93-4.64,12.25-5.17,18.85-.2,2.54-.31,5.09-.43,7.64-.22,4.79-.1,9.57.24,14.35.3,4.23.98,8.41,1.83,12.57,1.25,6.13,3.43,11.9,6.57,17.3,3.16,5.46,7.33,9.97,12.7,13.32,3.27,2.04,6.88,2.97,10.69,2.75,5.74-.32,10.55-2.65,14.1-7.29.94-1.23,1.83-2.51,2.59-3.85.65-1.14,1.11-2.39,1.63-3.61.1-.23.09-.51.16-.91ZM148.97,58.14c.41-1.28.8-2.44,1.15-3.61.08-.25.07-.55.03-.81-.16-1.03-.26-2.09-.54-3.09-1.4-5.04-2.17-6.41-5.86-9.76-2.04-1.85-4.49-2.8-7.18-3.03-3.75-.32-7.24.69-10.42,2.64-2.5,1.54-4.66,3.51-6.4,5.9-2.21,3.04-4.02,6.3-5.3,9.83-.59,1.62-1.11,3.28-1.61,4.94-2.03,6.75-3.21,13.65-3.39,20.71-.11,4.74,0,9.48.48,14.2.54,5.36,1.45,10.65,2.79,15.87,1.83,7.13,4.7,13.78,8.95,19.82.95,1.35,1.95,2.64,3.13,3.79,5.16,4.96,11.31,7.75,18.43,8.31,3.88.3,7.41-.73,10.41-3.29.9-.77,1.74-1.61,2.61-2.41.92-.84,1.62-1.85,2.19-2.95.33-.65.62-1.32.95-1.97.56-1.12.74-2.32.8-3.57-.46-.58-.89-1.17-1.36-1.73-.49-.58-.8-1.32-1.37-1.69-2.15.52-4.18,1.03-6.22,1.51-4.13.99-8.31,1.66-12.56,1.8-1.55.05-3.1.04-4.62-.34-1.17-.29-2.05-.97-2.59-2.05-.26-.53-.51-1.07-.7-1.63-.9-2.68-1.82-5.35-2.66-8.04-2.16-6.94-3.43-14.07-4.14-21.29-.49-4.99-.65-10.01-.6-15.02.04-4.48.48-8.92,1.37-13.3.18-.89.46-1.76.77-2.62.48-1.34,1.38-2.35,2.61-3.06.67-.38,1.36-.74,2.08-1.03,3.26-1.31,6.59-2.41,10-3.23,2.86-.69,5.75-.98,8.74.21ZM110.09,64.8c.09-.18.15-.25.18-.34.82-2.56,1.63-5.12,2.44-7.68.11-.34.19-.71.17-1.07-.11-2.29-.58-4.51-1.47-6.64-.56-1.35-1.45-2.39-2.66-3.21-2.37-1.62-5.05-2.3-7.85-2.51-4.38-.32-8.38.81-12.05,3.22-3.42,2.25-6.08,5.21-8.24,8.63-2.45,3.88-4.24,8.05-5.37,12.51-.85,3.36-1.35,6.79-1.74,10.23-.39,3.49-.63,6.99-.57,10.5.08,5.11.56,10.19,1.46,15.22,1.41,7.95,3.86,15.56,7.41,22.8,2.95,6.01,6.87,11.28,12.12,15.49,4.14,3.33,8.76,5.6,14.13,5.95,3.8.25,7.21-.71,9.94-3.58,1.51-1.59,2.86-3.3,4.12-5.1.18-.25.32-.54.48-.81-.62-.74-1.23-1.42-1.79-2.13-.59-.75-1.13-1.53-1.69-2.28-.19.02-.33.02-.46.05-1.86.43-3.72.91-5.59,1.29-2.05.42-4.13.71-6.23.76-1.23.03-2.46,0-3.66-.32-1.12-.3-1.96-.92-2.48-1.97-.54-1.1-1.12-2.19-1.68-3.29-3.63-7.13-6.54-14.53-8.57-22.27-1.02-3.88-1.91-7.78-2.43-11.77-.49-3.75-.78-7.52-.93-11.3-.11-2.92,0-5.83.47-8.72.31-1.95.89-3.81,1.7-5.61.61-1.36,1.58-2.32,3.04-2.75.31-.09.61-.2.91-.29,1.48-.44,2.97-.87,4.45-1.31,4.04-1.19,8.14-1.96,12.43-1.71ZM128.05,279.3c1.91-1.32,3.89-3.48,4.66-5.07-.16-.19-.33-.4-.52-.6-1.83-1.92-3.81-3.67-6.01-5.14-1.89-1.27-3.8-2.52-5.75-3.68-2.93-1.75-5.9-3.45-8.86-5.14-6.23-3.56-12.14-7.55-17.36-12.51-.63-.59-1.22-1.22-1.81-1.85-.44-.47-.54-1.01-.33-1.64.39-1.17.72-2.35,1.07-3.53.89-3.04,1.35-6.13.98-9.31-.29-2.52-.95-4.9-2.35-7.06-.66-1.02-1.47-1.82-2.54-2.41-4.57-2.51-9.41-3.56-14.62-2.8-3.02.44-5.83,1.43-8.35,3.17-4.94,3.42-7.55,8.28-8.51,14.09-.6,3.6-.18,7.17.62,10.71.06.28.2.54.37.97.1-.35.15-.52.19-.69.05-.18.09-.35.14-.53.64-2.12,2.01-3.53,4.13-4.18,1.39-.43,2.79-.37,4.19-.09,1.99.39,3.8,1.25,5.55,2.23,2.35,1.31,4.6,2.78,6.74,4.41,3.45,2.62,6.87,5.26,10.33,7.86,6.09,4.58,12.45,8.74,19.28,12.14,3.46,1.72,7.01,3.27,10.52,4.9,1.24.58,2.49,1.13,3.7,1.75,1.64.85,3.05,1.98,4.14,3.49.1.14.23.28.41.49ZM184.79,160.34c-.07-.08-.12-.17-.19-.2-1.79-.81-3.03-2.18-3.87-3.89-1.74-3.53-2.32-7.17-.77-10.94.05-.13.09-.26.14-.39.46-1.35.33-1.87-.76-2.74-.43-.34-.87-.66-1.35-.92-.76-.41-1.54-.8-2.34-1.12-3.35-1.32-6.79-2.36-10.25-3.34-.3-.08-.6-.14-.92-.21-.23.35-.43.65-.63.95-2.19,3.39-5,6.13-8.55,8.07-3.52,1.93-7.29,2.85-11.3,2.6-6.28-.4-12.03-2.35-17.12-6.13-.2-.15-.43-.27-.7-.43-.3.45-.55.83-.8,1.2-1.39,2.09-2.86,4.12-4.95,5.59-.65.46-1.13,1.03-1.54,1.7-2.48,4.03-5.02,8.03-7.46,12.09-1.41,2.34-2.68,4.76-4,7.15-.12.22-.19.46-.36.86.82-.23,1.46-.43,2.12-.58,2.67-.6,5.37-.96,8.11-1.12.82-.05,1.63-.13,2.45-.19.51-.04.84-.32,1.04-.77.24-.54.46-1.09.67-1.64,1.55-4.09,4.17-7.38,7.71-9.86,3.77-2.64,7.91-3.39,12.31-1.71,2.07.79,3.97,1.93,5.31,3.72,1.42,1.9,2.63,3.94,3.32,6.24.11.39.27.76.38,1.09.59.21,1.08.06,1.57,0,1.81-.22,3.61-.49,5.42-.65,2.72-.23,5.45-.42,8.18-.55,4.23-.2,8.46-.38,12.7-.5,1.54-.04,3.09.09,4.64.15.4.02.8.05,1.25.08.2-1.26.38-2.46.56-3.63ZM243.01,108.8c.13-.4.14-.55.21-.65,1.04-1.27,2.03-2.58,3.14-3.78,1.73-1.87,3.61-3.61,5.32-5.5,3.14-3.45,5.42-7.43,6.85-11.87.89-2.76,1.2-5.62.76-8.5-.57-3.75-3-7.27-7.71-8.16-2.38-.45-4.63-.05-6.79.94-2.32,1.06-4.26,2.61-5.74,4.72-1.65,2.36-3.06,4.86-4.11,7.54-.77,1.95-1.46,3.93-2.15,5.9-1,2.89-2.06,5.75-3.29,8.54-.65,1.47-1.42,2.85-2.57,4-.07.07-.06.22-.07.26,1.34.19,2.67.28,3.95.57,5.28,1.18,10.03,6.45,11.08,11.85.81,4.2-1.38,9.62-6.61,11.13-.24.07-.48.17-.71.26.47,1.24.82,1.72,1.76,2.48,1.95,1.57,4.24,2.07,6.67,1.94,3.58-.19,6.72-1.52,9.44-3.85,3.98-3.41,6.33-7.71,7.06-12.89.29-2.06.15-4.09-.66-6.05-.39-.95-.94-1.77-1.72-2.43-1.02-.88-2.25-1.26-3.55-1.12-1.35.15-2.68.46-3.97.96-2.15.83-4.1,1.96-5.9,3.39-.13.1-.3.14-.68.32ZM199.72,116.12c.1-.36.2-.66.25-.96.56-3.19.94-6.39,1.19-9.62.42-5.52.22-11.01-.53-16.49-.35-2.57-.7-5.14-.96-7.73-.39-3.87-1.45-7.59-2.5-11.32-.04-.13-.09-.26-.15-.38-.64-1.41-2.19-2.5-3.55-2.33-1.44.18-2.69.75-3.48,2.11-1.59,2.76-3.41,5.38-5.27,7.98-1.22,1.71-2.58,3.3-4.09,4.76-1.15,1.11-2.41,2.08-3.85,2.8-1.57.78-3.18,1.08-4.9.62-.07-.02-.16.04-.31.08,0,.19-.03.42,0,.63.39,2.06.76,4.12,1.19,6.17,1.02,4.81,2.42,9.53,3.83,14.24,1.02,3.41,2.26,6.73,3.7,9.98.24.54.54,1.05.81,1.58.21.39.52.63.97.65.64.02,1.27.06,1.91.04,1.96-.07,3.89-.45,5.81-.82,2.68-.52,5.35-1.08,8.03-1.63.62-.12,1.24-.23,1.89-.35ZM125.8,280.84c-.1-.63-.45-1.05-.8-1.47-.77-.93-1.71-1.65-2.76-2.21-1.08-.58-2.19-1.11-3.3-1.64-4.7-2.21-9.37-4.49-13.89-7.04-9.02-5.09-17.65-10.77-25.78-17.2-2.22-1.75-4.53-3.38-6.95-4.84-1.17-.7-2.39-1.31-3.61-1.93-1.03-.51-2.13-.81-3.27-.91-2.68-.24-4.65,1.3-5.2,3.13-.58,1.96-.64,3.95.18,5.89.8,1.89,1.75,3.7,2.87,5.43,3.38,5.25,7.71,9.56,12.86,13.05,3.28,2.22,6.72,4.19,10.29,5.92,7.35,3.58,14.98,6.16,23.19,6.81,2.82.22,5.64.28,8.45-.17,2.44-.39,4.78-1.13,6.96-2.33.27-.15.51-.34.76-.51ZM224.79,102.52c.68-1.21,1.24-2.51,1.67-3.85,1.09-3.33,1.41-6.75,1.2-10.24-.27-4.37-1.42-8.52-3.08-12.54-1.17-2.83-2.78-5.43-4.47-7.97-.15-.22-.33-.41-.53-.65-.13.16-.24.24-.28.35-.67,2.03-2.22,3.19-4.09,3.93-1.76.7-3.62.94-5.5.62-3.82-.64-7.18-2.25-10.06-4.86-.22-.2-.36-.54-.83-.53.07.36.12.72.22,1.05,1.56,5.25,2.46,10.64,3.15,16.06.26,2.03.41,4.08.6,6.12.43,4.58.86,9.16.88,13.77.02,4.74,0,9.47-.69,14.18-.48,3.31-1.31,6.51-2.89,9.49-.9,1.69-1.95,3.29-3.1,4.82-.14.19-.43.35-.28.67,2.32-.82,10.53-6.08,13.58-9.23-1.79-10.76,5.32-19.77,14.5-21.19ZM223.52,120.55c.7.54,1.32,1.08,2.01,1.52,2.24,1.42,4.7,1.9,7.32,1.69,1.7-.13,3.17-.78,4.41-1.94,1.08-1.01,1.89-2.21,2.41-3.6.33-.87.48-1.75.43-2.68-.08-1.38-.33-2.72-.98-3.95-1.62-3.09-3.91-5.46-7.23-6.74-2.4-.93-4.88-1.08-7.4-.72-2.19.31-4.25,1.05-6,2.45-3,2.4-5.13,5.44-6.21,9.12-1.3,4.4-.72,8.66,1.44,12.7,1.36,2.55,3.08,4.84,5.15,6.86,6.76,6.58,14.78,10.67,24.14,12.06,3.28.49,6.54.35,9.76-.45,1.24-.31,2.44-.75,3.56-1.37,1.18-.66,1.93-1.61,2.22-2.79-.72-.06-1.45-.05-2.16-.17-4.53-.79-8.17-4.31-9.2-8.84-.06-.25-.17-.49-.28-.79-3.51,1.18-6.88.98-10.18-.58-.14.63-.25,1.16-.37,1.69-.17.77-.5,1.47-.99,2.08-.14.17-.32.34-.63.06.12-.43.27-.9.37-1.38.39-1.74.2-3.32-1.2-4.63-.94-.89-1.58-1.99-1.95-3.25-.07-.25-.2-.49-.31-.75-.45-.08-.85-.15-1.25-.22-2.02-.34-3.81-1.2-5.39-2.5-.71-.58-1.32-1.26-1.69-2.12-.11-.25-.19-.52.18-.75ZM54.53,155.96c-.53.02-.92.05-1.32.04-1.69-.02-3.36.16-5.02.52-.99.22-1.91.58-2.78,1.09-.76.44-1.4,1.02-1.87,1.76-.88,1.4-.78,3.41.25,4.46.5.51,1.07.96,1.55,1.31.98-.48,1.8-.96,2.68-1.3,2.16-.83,4.42-1.07,6.71-.88.63.05,1.24.25,1.86.4.21.05.43.17.29.49-.99.03-1.99.04-2.99.11-1.87.13-3.69.47-5.4,1.32-1.15.57-1.82,1.48-2.17,2.67-.71,2.46.48,4.71,2.92,5.53.43.14.88.27,1.32.32,1.31.13,2.63.22,3.95.3,1.77.11,3.54.25,5.26.73.94.26,1.61.83,2.07,1.65.57,1,.41,2.08-.44,2.86-.36.33-.81.58-1.24.82-.4.22-.82.4-1.24.56-1.97.76-2.82,4.21-.48,5.9.26.19.53.35.82.49.83.4,1.59.43,2.44-.12,2.11-1.37,4.36-2.44,6.74-3.28,2.11-.74,4.26-1.32,6.47-1.64.68-.1,1.18-.37,1.62-.88,1.57-1.82,2.68-3.89,3.42-6.17.49-1.53.79-3.09.68-4.71-.25-3.86-1.4-7.41-3.73-10.54-2.82-3.81-6.4-6.7-10.67-8.73-3.7-1.76-7.62-2.72-11.68-3.16-2.37-.26-4.73-.09-7.05.48-2.46.6-4.55,1.81-6.17,3.79-.53.65-.9,1.37-1.02,2.2-.21,1.41.38,2.51,1.75,3.23.76-.77,1.62-1.44,2.65-1.85,2.74-1.09,5.56-1.36,8.44-.8.39.08.76.28,1.11.48.11.06.14.28.26.55ZM180.64,37.15c.07.13.09.23.15.29,1.26,1.04,2.5,2.12,3.81,3.1,1.4,1.05,2.51,2.38,3.63,3.69,2.9,3.39,4.94,7.3,6.63,11.41.9,2.19,1.72,4.41,2.59,6.61.12.29.26.58.44.84.93,1.37,2.05,2.56,3.39,3.53.21.15.46.25.79.42,2.98-7.75,5.94-15.43,8.9-23.14-.3-.25-.55-.43-.77-.65-.58-.57-.89-1.26-.92-2.07-.07-2.02,1.52-3.93,3.52-4.22.26-.04.52-.09.8-.13.19-.46.37-.88.54-1.3.98-2.55,1.95-5.1,2.95-7.64,1.9-4.88,3.82-9.75,5.73-14.62.26-.66.6-1.32.46-2.18-.36.2-.68.36-.98.54-7.84,4.81-15.66,9.64-23.51,14.44-5.67,3.47-11.36,6.9-17.04,10.35-.38.23-.75.49-1.12.74ZM144.71,80.03c-1.05.13-1.74.68-2.3,1.44-.84,1.13-1.68,2.27-2.57,3.37-1.93,2.38-4,4.62-6.63,6.25-.85.53-1.74.99-2.72,1.26-1.6.44-3.15.4-4.62-.48-.15-.09-.31-.15-.57-.28-.02.41-.06.71-.03,1,.23,3.04.62,6.07,1.08,9.09,1.17,7.63,3.17,15.05,5.77,22.32.23.64.5,1.27.77,1.9.35.82.94,1.33,1.84,1.45.59.08,1.18.21,1.76.19,1.41-.06,2.83-.12,4.22-.32,4.97-.72,9.82-1.94,14.59-3.51.15-.05.28-.18.45-.3-.25-.46-.47-.86-.68-1.25-.24-.44-.49-.87-.72-1.32-3-5.84-5.13-11.95-6.15-18.45-.87-5.5-1.45-11.02-1.54-16.59-.02-1.33-.29-2.62-.56-3.92-.16-.79-.58-1.43-1.38-1.84ZM210.74,126.33c-.63.41-1.22.9-1.82,1.37-4.94,3.88-10.33,6.96-16.26,9.08-.81.29-1.62.61-2.39.99-1.51.75-3.05,1.42-4.7,1.81-.55.13-1.02.39-1.41.78-.49.48-1.01.93-1.44,1.45-3.11,3.71-3.85,7.83-2.09,12.37.35.91.82,1.6,1.9,1.64.36.01.71.14,1.07.19,3.37.48,6.73.25,10.08-.13,3.71-.42,7.37-1.16,10.98-2.1.25-.06.49-.18.75-.27-.09-1.53.68-2.6,1.74-3.44,1.96-1.56,4.24-2.03,6.69-1.61,1.2.2,2.22.78,2.94,1.78.25-.05.43-.06.6-.13,3.13-1.24,6.26-2.48,9.29-3.94.19-.09.34-.25.54-.4-1.29-.92-2.52-1.78-3.72-2.68-3.67-2.75-6.81-6.04-9.56-9.7-1.55-2.06-2.73-4.3-3.06-6.91,0-.03-.05-.06-.14-.16ZM4.84,231.55c.33-.38.5-.57.66-.77.69-.85,1.58-1.39,2.66-1.53.72-.09,1.45-.14,2.17-.08,1.97.16,3.84.75,5.62,1.61,1.56.75,3.09,1.57,4.59,2.42,3.89,2.19,7.77,4.39,11.63,6.65,7.79,4.56,16.11,7.85,24.73,10.44.24.07.5.06.88.09-1-2.93-1.61-5.82-1.95-8.76-.49-.22-.89-.42-1.32-.58-1.75-.66-3.48-1.35-5.25-1.94-3.63-1.22-7.21-2.55-10.71-4.09-1.83-.81-3.64-1.68-5.43-2.57-.52-.26-.98-.65-1.44-1.02-.38-.32-.49-.73-.31-1.23.27-.73.5-1.47.73-2.21.46-1.49.72-3.01.75-4.57.05-3.39-.98-6.47-2.81-9.28-.57-.87-1.34-1.61-2.04-2.38-.41-.46-.95-.69-1.57-.73-3.53-.26-7-.06-10.4,1.05-4.47,1.46-7.83,4.21-9.89,8.46-1.66,3.42-2.26,6.99-1.31,11.03ZM58.82,253.33c-1.05-.41-2.03-.78-3-1.15-1.36-.52-2.71-1.06-4.09-1.54-4.22-1.47-8.33-3.19-12.36-5.11-5.67-2.71-11.18-5.72-16.6-8.92-2.35-1.39-4.7-2.79-7.07-4.15-1.27-.73-2.62-1.27-4.02-1.69-1.1-.33-2.22-.5-3.37-.4-1.29.11-2.19.87-2.58,2.1-.27.87-.19,1.69.16,2.53,1.26,3.02,3.02,5.71,5.3,8.05,2.65,2.73,5.61,5.06,8.87,7.01,4.71,2.83,9.75,4.92,14.98,6.56,6.7,2.09,13.52,3.71,20.43,4.92,2.52.44,5.05.7,7.61.68.25,0,.55.09.71-.28-.9-1.39-1.87-2.77-2.7-4.22-.84-1.45-1.55-2.98-2.28-4.39ZM64.91,85.09c1.23-.66,2.2-1.62,3.03-2.71.98-1.31,1.87-2.69,2.85-4,.48-.65.72-1.34.83-2.13.19-1.4.39-2.79.64-4.18.98-5.61,2.79-10.93,5.56-15.91.15-.27.27-.56.44-.9-3.34-2.53-6.72-4.9-10.09-7.31-1.5.84-2.85.68-4.13-.33-1.23-.98-1.78-2.27-1.7-3.84-5.31-3.81-10.59-7.6-16.08-11.55.15.54.21.84.31,1.12,1.36,3.82,2.78,7.61,4.08,11.45,3.49,10.35,6.91,20.72,10.38,31.08.93,2.76,1.92,5.5,2.87,8.25.16.45.33.85,1.01.97ZM89.52,96.11c0,.3-.05.61,0,.9.4,2.15.75,4.31,1.23,6.44,1.83,8.22,4.76,16.06,8.4,23.63.85,1.76,1.92,3.41,2.87,5.12.46.82,1.16,1.12,2.06,1.02.9-.1,1.82-.15,2.71-.34,3.08-.63,6.15-1.3,9.22-1.96.33-.07.7-.05,1.05-.31-.24-.47-.44-.87-.66-1.27-1.63-2.96-3.01-6.03-4.07-9.24-2.48-7.52-3.94-15.25-4.52-23.14-.12-1.65-.43-3.25-.79-4.85-.11-.47-.34-.94-.61-1.35-.41-.62-1.09-.77-1.8-.8-.57-.02-.9.33-1.23.74-.63.78-1.27,1.56-1.98,2.27-1.06,1.06-2.15,2.1-3.28,3.09-.97.85-2.11,1.41-3.36,1.76-.82.23-1.62.2-2.42-.06-.75-.24-1.41-.62-2.01-1.13-.23-.2-.38-.53-.82-.53ZM62.62,86.36c-.15.34-.33.66-.44,1-.44,1.29-.9,2.58-1.29,3.89-1.57,5.19-1.91,10.49-1.1,15.82,1.06,6.97,3.82,13.28,7.96,18.97,2.41,3.31,5.34,6.09,8.96,8.08,2.6,1.43,5.35,2.52,8.16,3.48.16.05.34.04.7.08-.34-.5-.57-.88-.82-1.23-1.9-2.62-3.58-5.39-4.98-8.31-5.51-11.5-8.36-23.65-8.91-36.37-.14-3.24-.08-6.47.12-9.7.01-.2.12-.46-.24-.62-.19.22-.39.45-.6.68-.8.87-1.58,1.76-2.42,2.6-.51.51-1.08.99-1.68,1.38-.91.6-1.9.87-2.97.35-.11-.05-.25-.06-.43-.1ZM148.66,59.26c-.15-.12-.21-.21-.29-.23-.17-.05-.36-.07-.54-.08-2.1-.1-4.19-.02-6.26.38-3.67.72-7.24,1.82-10.73,3.14-.59.22-1.17.5-1.74.78-1.2.59-2.03,1.52-2.47,2.79-.19.56-.38,1.12-.52,1.69-.64,2.66-.98,5.37-1.19,8.1-.34,4.42-.23,8.83.07,13.24.03.45.22.76.53,1.06,1.3,1.23,2.83,1.34,4.46.91.94-.25,1.76-.72,2.57-1.25,2.5-1.65,4.56-3.77,6.49-6.02,2.71-3.15,4.94-6.64,7.15-10.16.63-1,.91-2.03.97-3.21.18-3.37.62-6.71,1.31-10.01.08-.39.13-.79.19-1.13ZM171.29,84.36c1.28.4,2.44.43,3.6.01,1.52-.54,2.87-1.39,4.1-2.42,1.47-1.23,2.82-2.6,3.95-4.15,1.35-1.84,2.62-3.72,3.92-5.59,1.81-2.6,3.11-5.45,4.3-8.37.19-.46.34-.96.37-1.44.19-2.53-.35-4.94-1.76-7.03-1.29-1.91-3.02-3.09-5.55-2.64-2.33.42-4.69.65-7.03,1.02-1.39.22-2.77.56-4.15.83-.93.18-1.57.7-1.96,1.54-.15.33-.32.66-.41,1.01-.28,1.1-.6,2.2-.76,3.32-.52,3.63-.48,7.28-.19,10.91.25,3.18.66,6.34,1.03,9.51.13,1.13.35,2.24.54,3.48ZM109.72,66.07c-.35,0-.62-.03-.88,0-1.85.24-3.7.46-5.55.74-3.57.53-7.01,1.56-10.45,2.6-1.21.37-2.08,1.12-2.54,2.29-.4,1.01-.82,2.03-1.1,3.08-.58,2.12-.78,4.29-.83,6.49-.1,3.88.28,7.73.59,11.59.11,1.42.8,2.25,1.91,2.91.31.18.65.33.98.47,1.07.45,2.11.41,3.17-.09.83-.4,1.58-.9,2.25-1.52,1.35-1.23,2.58-2.56,3.74-3.98,2.19-2.69,3.99-5.65,5.99-8.48.41-.58.59-1.19.64-1.9.33-4.5.92-8.96,2.02-13.35.06-.25.05-.51.08-.85ZM152.6,166.24c-.38.04-.6.07-.82.09-.27.03-.54.06-.82.07-.79.02-1.05-.15-1.31-.91-.21-.6-.36-1.22-.57-1.83-.34-.99-.74-1.99-1.44-2.77-1.63-1.81-3.66-3.02-6.07-3.42-1.58-.26-3.18-.12-4.76.19-2.93.57-5.36,1.96-7.25,4.29-2.68,3.3-4.06,7.08-4.14,11.33-.03,1.47.25,2.9.93,4.23.28.55.67.96,1.27,1.16,1.55.54,3.13.96,4.77,1.14,3.49.37,6.8-.31,9.95-1.8.69-.33,1.36-.75,1.96-1.23,2.24-1.8,4.06-3.92,4.87-6.77.06-.22.17-.42.23-.64.29-1.17,1.09-1.73,2.23-1.9.35-.05.69-.18,1.09-.28-.04-.32-.07-.57-.12-.95ZM211.72,44.11c-.44,1.13-.83,2.15-1.22,3.17-2.4,6.3-4.8,12.6-7.18,18.9-.17.45-.46.89-.34,1.47.26.16.51.34.79.48,1.43.72,2.93,1.27,4.49,1.61,1.52.33,3.05.48,4.61.17,2.1-.42,3.35-1.77,4-3.69.33-.98.46-2.05.58-3.08.47-4.07.91-8.15,1.35-12.23.59-5.48,1.13-10.97,1.75-16.44.65-5.79,1.37-11.58,2.06-17.37.05-.42.17-.86-.08-1.57-2.73,7.36-5.39,14.46-8.11,21.6,1.33,1.23,1.93,2.66,1.22,4.43-.69,1.71-1.97,2.56-3.9,2.55ZM261.58,114.43c-1.6,7.57-5.86,13.25-12.23,17.37-.18.61-.07,1.15.11,1.66.77,2.16,1.97,4.01,4.1,5.08.61.31,1.24.57,1.88.8,2.94,1.04,5.66.58,8.14-1.27,1.62-1.21,3.03-2.63,4.14-4.32,1.1-1.68,2.09-3.42,2.93-5.24.92-2,1.54-4.08,1.69-6.3.11-1.58-.16-3.08-.8-4.53-.42-.94-1.07-1.69-1.91-2.27-.99-.68-2.09-1.16-3.29-1.23-1.27-.07-2.55-.02-3.82.01-.3,0-.6.15-.93.24ZM234.91,149.45c-1.31-.56-2.48-1.02-3.62-1.56-1.19-.56-2.35-1.19-3.55-1.81-3.42,1.82-6.92,3.42-10.51,4.79-.03,1.59-.25,2.11-1.29,3.04-.07.06-.14.12-.21.18-2.12,1.68-4.53,2.27-7.18,1.86-.82-.13-1.57-.45-2.21-1.01-.2-.18-.4-.36-.59-.53-.17.02-.31.01-.44.04-4.81,1.24-9.68,2.14-14.65,2.48-2.56.18-5.1.15-7.64-.15-.24-.03-.49-.07-.81-.11.63,1.04,1.31,1.69,2.31,2.18.61.3,1.22.59,1.93.63,2.77.13,5.55.3,8.32.41,3.79.14,7.56-.11,11.3-.71,4.09-.66,8.12-1.64,12.08-2.88,5.4-1.69,10.67-3.69,15.72-6.25.31-.15.59-.34,1.03-.59ZM92.38,169.99c-1.72.43-3.38.89-5.06,1.27-1.72.38-3.46.67-5.12.99-.34,1.35-.58,2.66-1.01,3.9-.44,1.27-1.07,2.47-1.65,3.79.72-.06,1.34-.11,1.97-.17,2.63-.25,5.23-.67,7.79-1.37,4.54-1.23,8.85-3.05,13.12-5,.57-.26.95-.64,1.25-1.19,1.25-2.27,2.53-4.53,3.8-6.79.1-.19.18-.38.36-.76-1.21.4-2.17.89-3.15,1.32-.99.43-2.07.65-2.99,1.21.02.2.02.33.05.46.26,1.53-.37,2.68-1.61,3.49-.6.4-1.27.72-1.95.96-2.18.75-4.14.09-5.52-1.77-.08-.11-.16-.21-.26-.34ZM145.89,158.71c.06-.06.13-.13.19-.19-.24-.26-.44-.56-.71-.77-.79-.61-1.58-1.25-2.44-1.75-3.25-1.93-6.65-2.3-10.22-.95-2.08.79-3.87,2.03-5.47,3.54-2.39,2.25-4.31,4.81-5.28,8-.13.44-.31.86-.46,1.29-.34.98-1.05,1.45-2.06,1.49-.14,0-.27.01-.41.02-2.22.19-4.45.31-6.67.59-1.71.21-3.4.61-5.09.95-.29.06-.6.22-.83.41-.28.23-.46.81-.64,1.54.09.01.19.06.26.03,2.37-.82,4.83-1.29,7.29-1.78,1.96-.39,3.92-.82,5.92-1,2.15-.2,1.9.12,2.13,1.71.35,2.49,1.73,4.25,3.73,5.61.17.12.37.28.59.05-.83-2.18-1-2.96-.98-4.78.05-4.25,1.42-8.03,4.01-11.38,1.73-2.24,3.97-3.74,6.71-4.44.92-.24,1.87-.43,2.81-.53,2.14-.23,4.18.1,6.01,1.32.53.35,1.07.68,1.6,1.02ZM107.34,224.97c-1.16-.8-2.27-1.61-3.41-2.34-1.19-.76-2.4-1.49-3.64-2.16-.67-.37-1.41-.64-2.15-.87-.47-.14-.98-.17-1.48-.18-.72-.02-1.34.28-1.78.86-.27.35-.49.75-.76,1.15.3.27.52.49.76.69,2.29,1.9,4.38,3.99,6.22,6.32,1.27,1.61,2.47,3.27,3.7,4.91.15.19.22.52.58.44.64-2.92,1.29-5.84,1.94-8.82ZM92.98,220.54c.5-.78.96-1.45,1.36-2.15.18-.3.31-.66.35-1.01.3-2.66-1.5-5.06-4.2-5.52-1.44-.25-2.9-.23-4.34.12-2.67.64-4.97,2-7.07,3.72-.05.04-.02.16-.03.24,7.98,1.07,7.92,1.35,13.93,4.6ZM130.22,250.09c3.11,0,5.47-2.59,5.25-5.69-.1-1.38-1.3-3.14-2.96-3.79-.12-.05-.26-.07-.4-.08-1.84-.14-3.52.26-4.98,1.42-.81.64-1.34,1.48-1.58,2.48-.79,3.33,2.27,5.85,4.67,5.66ZM97.16,186.55c.37-1.06.68-2.05,1.05-3.01,1.05-2.72,2.33-5.33,3.64-7.93.13-.26.39-.5.24-.93-.38.19-.73.36-1.08.54-2.97,1.58-6.01,3.03-9.21,4.09-2.28.75-4.59,1.43-6.89,2.14-.21.06-.44.11-.38.38,1.47.36,2.94.66,4.37,1.1,1.47.46,2.92,1,4.33,1.62,1.36.6,2.66,1.34,3.93,1.99ZM210.15,155.39c2.37-.11,4.29-.92,5.9-2.45.1-.09.19-.19.28-.3.61-.77.61-1.31,0-2.07-.52-.66-1.18-1.15-1.99-1.36-2.63-.68-4.93-.04-6.91,1.79-.33.3-.59.7-.8,1.09-.47.87-.31,1.69.48,2.3.42.32.93.58,1.44.74.56.17,1.16.2,1.6.27ZM153.81,166.95c2.45-.12,4.76-.23,7.08-.33.05,0,.09,0,.14,0,3.04-.23,6.08-.42,9.13-.4,3.37.02,6.74-.05,10.1-.02,1.23,0,2.45.16,3.68.23.12,0,.24-.1.4-.17-.03-.36-.06-.7-.09-1.08-.59-.13-1.12-.27-1.65-.35-.45-.07-.91-.07-1.36-.08-7.42-.1-14.83.22-22.24.75-1.45.11-2.9.27-4.35.42-.31.03-.6.14-.9.21-.03.2-.07.33-.06.46,0,.13.07.25.11.38ZM210.08,40.88c0,.07.01.25.04.43.28,1.55,1.74,2.35,3.2,1.76.85-.34,1.41-.95,1.72-1.82.3-.82.18-1.61-.05-2.41-.29-1-1.18-1.55-2.19-1.38-1.49.25-2.74,1.77-2.72,3.42ZM139.03,234.64c-.06-.3-.1-.72-.24-1.09-.29-.76-.9-1.11-1.71-1.04-1.52.12-3.12,1.75-3.16,3.26-.03.91.26,1.72,1.13,2.16.8.41,1.59.3,2.31-.21,1.02-.73,1.57-1.73,1.67-3.08ZM67.9,46.09c.02-.58-.21-1.21-.67-1.74-.82-.94-1.84-1.44-3.11-1.36-1.13.07-1.58.71-1.31,1.85.25,1.07.89,1.86,1.78,2.47.64.44,1.31.57,2.06.42.86-.17,1.25-.63,1.25-1.63Z"/>
</svg>