<svg xmlns="http://www.w3.org/2000/svg" viewBox="0 0 320.41 356.19"><defs><style>.cls-1{fill:#961729;}.cls-2{fill:#eb1c24;}.cls-3{fill:#fff000;}.cls-4{fill:#fff;}.cls-5{fill:#babcbe;}.cls-6{fill:#cfd1d2;}.cls-7{fill:#f5921d;}.cls-8{fill:#ff6e79;}</style></defs><g id="Layer_2" data-name="Layer 2"><g id="Layer_1-2" data-name="Layer 1"><path class="cls-1" d="M156.78,265c-.71,2.41-1.25,4.57-2,6.66a60.92,60.92,0,0,1-6,12.1,111.67,111.67,0,0,1-11.4,14.94A112.93,112.93,0,0,1,121.17,314,72.57,72.57,0,0,1,110,321.18a92.85,92.85,0,0,1-10.84,4.58c-.61.21-1.23.39-1.84.57a7.44,7.44,0,0,1-4.84-.22c-1-.36-1.94-.81-2.91-1.23l-1.4-.63a5.85,5.85,0,0,0-.19,1,30.16,30.16,0,0,1-14.49,26.17,31.78,31.78,0,0,1-9.68,4.07A26.28,26.28,0,0,1,50.22,355a62.86,62.86,0,0,1-6-2.1,30.23,30.23,0,0,1-10.33-7.45,39,39,0,0,1-9.77-18.6A49,49,0,0,1,23,312.41,99.08,99.08,0,0,1,24.1,302.1a50.9,50.9,0,0,1,2.54-9.31,81.89,81.89,0,0,1,10.77-19.68,47.63,47.63,0,0,1,12.25-11.48,23.66,23.66,0,0,1,11-3.92,14.28,14.28,0,0,1,8.64,1.74c.25.15.52.26.85.43.28-.33.54-.63.79-.94.48-.59.92-1.21,1.42-1.79a6.36,6.36,0,0,1,4-2.26,14,14,0,0,0,6.92-3.23,41.59,41.59,0,0,0,7.13-7.51,72.39,72.39,0,0,0,11-21.88A189.94,189.94,0,0,0,106.29,203c.17-.86.28-1.72.4-2.51-.3-.39-.59-.22-.86-.16a127.35,127.35,0,0,0-25.65,9,69.17,69.17,0,0,0-15.6,10.71c-1,.86-1.9,1.76-2.87,2.6a23.41,23.41,0,0,1-7.37,4.65c-.59,1.37-1.15,2.71-1.74,4-2.16,4.89-8.09,10.8-15.72,11.65-1.16.13-2.33.3-3.49.32a8.5,8.5,0,0,1-5.08-1.72,6.47,6.47,0,0,1-1.13-1.09,11.25,11.25,0,0,1-.82-1.27l-1.12.26c-.45.1-.9.24-1.37.31a9.13,9.13,0,0,1-10.61-9.33c0-.46,0-.93,0-1.52a9.08,9.08,0,0,1-4-5,8.34,8.34,0,0,1,.07-6.36l-.65-.67a7,7,0,0,1-1.14-8.28,13.9,13.9,0,0,1,5.35-5.69,25.73,25.73,0,0,1,8.38-3,36,36,0,0,1,11.2-.47c.52.07,1,.16,1.62.25a5.21,5.21,0,0,0,.48-.71,7.56,7.56,0,0,1,1.89-2.28,36.86,36.86,0,0,1,7.38-5.06,79.32,79.32,0,0,1,19.84-7c1.37-.29,2.76-.51,4.14-.77a8.92,8.92,0,0,0,.87-.26c-.27-.57-.75-.64-1.14-.82a47.49,47.49,0,0,1-13.12-9,42.86,42.86,0,0,1-11.09-18.29,54.8,54.8,0,0,1-2.62-17.84,35.66,35.66,0,0,1,.4-4.37,8.68,8.68,0,0,1,1.77-4.42c-.2-.42-.36-.85-.58-1.25-1.9-3.3-3.75-6.63-5.72-9.89C28.53,104.33,20.41,91,12.35,77.55,9.07,72.07,5.87,66.54,2.67,61,1.88,59.65,1.2,58.22.49,56.8A2.82,2.82,0,0,1,0,55.08a3.59,3.59,0,0,1,2,0c3.54.82,7.08,1.6,10.61,2.46C25.57,60.68,38.47,63.87,51.39,67c7.68,1.86,15.39,3.62,23.08,5.44,1.42.34,2.82.77,4.38,1.2l1.21-1.3c-.09-.76-.2-1.46-.24-2.16A23.24,23.24,0,0,1,81.09,61,29.14,29.14,0,0,1,93.92,45.48a22.5,22.5,0,0,1,14.46-3.32,20.54,20.54,0,0,1,10,4,22.17,22.17,0,0,1,1.73,1.58c.44-.4.88-.78,1.29-1.18A82,82,0,0,1,138,34.27a34.15,34.15,0,0,1,8.05-3.46,11.78,11.78,0,0,1,4.16-.55,9.3,9.3,0,0,1,2.24.39,5,5,0,0,1,3.58,4.15,16.63,16.63,0,0,1-.23,6.29c-.33,1.54-.82,3-1.24,4.57-.07.27-.16.53-.28.92a3.47,3.47,0,0,0,1.59-.92,24.57,24.57,0,0,1,7.64-3.86,18.07,18.07,0,0,1,7.12-.72,8.32,8.32,0,0,0,1.4.1,2,2,0,0,0,1-.3,9,9,0,0,0,1.21-1c3.17-3,6.3-6,9.49-8.9q12-11,24-22c3.08-2.8,6.25-5.49,9.39-8.22A10.76,10.76,0,0,1,218.17,0a3.58,3.58,0,0,1,.56.9,9.51,9.51,0,0,1,.16,1.92c0,3-.13,6-.17,9q-.25,17.85-.48,35.69c-.08,5.74-.21,11.49-.3,17.23,0,2.52,0,5,0,7.56,0,1.34-.06,2.68-.1,4a54,54,0,0,1,9.92,14c1.14,2.25,2.25,4.51,3.31,6.79.6,1.27,1.09,2.6,1.63,3.89.13.32.27.63.42,1,.81-.08,1.56-.19,2.32-.23s1.4,0,2.15,0c.22-.38.44-.72.61-1.08A40.9,40.9,0,0,0,240.82,93c.7-2.84,1.54-5.65,2.41-8.44A18.7,18.7,0,0,1,248,76.8a12.2,12.2,0,0,1,9.2-3.66,7.72,7.72,0,0,1,7.48,6.25A16.28,16.28,0,0,1,263.25,90c-.74,1.53-1.62,3-2.43,4.48l-.39.71c.17.45.5.34.77.35.82,0,1.64,0,2.46,0a7.32,7.32,0,0,1,6.5,4.11,9.31,9.31,0,0,1,.65,7.17c-.18.67-.44,1.33-.7,2.09a3.18,3.18,0,0,0,.69.4,7.53,7.53,0,0,1,5.86,7,12.85,12.85,0,0,1-1.32,7,26.36,26.36,0,0,1-10,11,13.17,13.17,0,0,1-4.76,1.73l-1.82.35c-.61,2.17-1.91,4-3,5.94A63.85,63.85,0,0,1,240.69,161,113.76,113.76,0,0,1,213,178.48a61.53,61.53,0,0,1-13.39,4.17c-.86.16-1.73.24-2.6.36-.28.4.05.65.26.91,1.6,1.94,3.26,3.85,4.81,5.83,2.74,3.51,5.48,7,8.11,10.61a14,14,0,0,1,3,6c.54,0,1.12,0,1.7.06A78.37,78.37,0,0,1,243.37,212c1.14.47,2.29.9,3.43,1.37a23.64,23.64,0,0,1,8.59,5.53,8,8,0,0,0,.81-.88,71.69,71.69,0,0,1,12.89-14.11,42.64,42.64,0,0,1,21.37-10,27.87,27.87,0,0,1,12.71.59A21.66,21.66,0,0,1,314.94,203a30.76,30.76,0,0,1,5.31,15.61c.72,8.63-1.08,16.79-4.42,24.67a86.87,86.87,0,0,1-10.05,17.69,58.17,58.17,0,0,1-11.17,11.38,62,62,0,0,1-16.09,9.24,36.89,36.89,0,0,1-16.76,2.2A34.34,34.34,0,0,1,251,280.8a19.56,19.56,0,0,1-8.26-7.48,25.44,25.44,0,0,1-5.58-1.27c-4.5-1.33-9-2.78-13.35-4.42A121.16,121.16,0,0,0,206.47,263a113.77,113.77,0,0,0-20.56-2.47,79.56,79.56,0,0,0-19.88,2c-2.51.57-5,1.22-7.5,1.86C157.91,264.55,157.31,264.78,156.78,265Zm35.78-53.16a12.62,12.62,0,0,1,1.07-1,12.4,12.4,0,0,1,3.6-1.8,42.52,42.52,0,0,1,9.38-2.2c.44-.05,1,.06,1.25-.55-2.23-4.59-4.36-9.27-7.48-13.36a2.07,2.07,0,0,0-.43.13,11.39,11.39,0,0,1-4.84,2.38,11.91,11.91,0,0,1-6.77,0,11.24,11.24,0,0,1-7.35-7c-.2-.53-.37-1.07-.59-1.68l-1.72.69c-2.51,1-5,2-7.52,2.95a190.25,190.25,0,0,1-21.11,6,128.23,128.23,0,0,1-22.22,3.27c-1,.06-2.08.08-3.25.12a13.68,13.68,0,0,1-2,5.25,17.91,17.91,0,0,1-3.71,4.2,24.33,24.33,0,0,1-4.84,3.17,22.57,22.57,0,0,1-5.33,1.71c-.2,1.11-.38,2.14-.57,3.17a88,88,0,0,1-3,12.64,77.11,77.11,0,0,1-9.56,19.31,39.63,39.63,0,0,1-13,12.1,22.28,22.28,0,0,1-7.41,2.64,7.86,7.86,0,0,0-1,.29c-.16.63-.31,1.19-.46,1.76a62.06,62.06,0,0,0-1.92,12.13,44.55,44.55,0,0,0,1.29,13.76,41.26,41.26,0,0,0,5.27,12.41c4.31,6.68,10.29,11.45,17.3,15.11l4.79-1.59a56.11,56.11,0,0,0,13.69-6.7A102,102,0,0,0,127.77,300a129.58,129.58,0,0,0,17.74-20.4A75,75,0,0,0,152,268.49a34.23,34.23,0,0,0,3.16-9.46.68.68,0,0,1,.41-.46.8.8,0,0,1,.6.26,3.12,3.12,0,0,1,.64,1.79,4.3,4.3,0,0,0,.27,1.79l.85-.32c.81-.34,1.6-.73,2.43-1a112.06,112.06,0,0,1,14.29-3.64,97.19,97.19,0,0,1,15-1.34q3.43-.08,6.86.08A134.76,134.76,0,0,1,221,259.78a106.79,106.79,0,0,1,13.76,4.81c1.4.58,2.81,1.15,4.21,1.77a1.32,1.32,0,0,0,1.71-.45,5,5,0,0,0,.75-1.38,9.23,9.23,0,0,0,.49-3.1,85.71,85.71,0,0,1,1.65-16.06,56.36,56.36,0,0,1,6.32-17.43,8.74,8.74,0,0,0,.58-1.09,2.86,2.86,0,0,0-.23-2.84,5.64,5.64,0,0,0-1-1.2,44.21,44.21,0,0,0-6.16-4.65,48,48,0,0,0-10.95-4.7,94.24,94.24,0,0,0-15.36-2.86,64.9,64.9,0,0,0-13.51-.29A35.88,35.88,0,0,0,194.1,212a2.35,2.35,0,0,1-.86.17C193.05,212.15,192.87,212,192.56,211.79Zm-52.92-57.91c.41-5.43-.09-10.28-.3-15.13a1.1,1.1,0,0,0,0-.18l-1-8.38c-.33-2.79-.58-5.59-1-8.36a113.9,113.9,0,0,0-2.49-11.68,116.38,116.38,0,0,0-5.72-15.66,73.8,73.8,0,0,0-7.69-13c-.48-.67-1-1.33-1.49-2a46.61,46.61,0,0,0-6.43-6.21,28.73,28.73,0,0,0-8.75-4.75,24.58,24.58,0,0,0-5.69-1,17.88,17.88,0,0,0-8,.92A23.66,23.66,0,0,0,80.69,76a37.24,37.24,0,0,0-6,10.5,60.47,60.47,0,0,0-3.23,12.38,82,82,0,0,0-1,10.84A117.21,117.21,0,0,0,72,130.55a120.52,120.52,0,0,0,2.85,13,90.65,90.65,0,0,0,4.94,13.32,60.65,60.65,0,0,0,4.88,8.73,67.69,67.69,0,0,0,7.5,9.06,40,40,0,0,0,9.6,7.32A29.58,29.58,0,0,0,116,185.93a19.41,19.41,0,0,0,6.07-.79,22.38,22.38,0,0,0,11.12-8.22,41.1,41.1,0,0,0,4-7.58,25.77,25.77,0,0,0,2.21-10.23C139.52,157.18,139.6,155.25,139.64,153.88Zm.51,15.65a11.63,11.63,0,0,0,8,4.22,20.16,20.16,0,0,0,7.47-.82,36.2,36.2,0,0,0,10.46-4.88,15.49,15.49,0,0,0,5.22-5.83,49,49,0,0,0,3.09-7.27,75.33,75.33,0,0,0,3.32-28.1,156.15,156.15,0,0,0-3.4-23.27,98.57,98.57,0,0,0-8.06-23.17,64.7,64.7,0,0,0-5.64-9.3,38,38,0,0,0-14.33-11.88,19.43,19.43,0,0,0-14.7-.93,36,36,0,0,0-5,2.07,19.65,19.65,0,0,0-7.41,6.31,11,11,0,0,0-2,6.56c1.2,1.28,2.42,2.47,3.51,3.76s2.08,2.68,3.13,4,1.71,2.91,2.86,4.18a29.62,29.62,0,0,1,1.62-2.56,11,11,0,0,1,3.93-2.89,8.93,8.93,0,0,1,9.48.69A17,17,0,0,1,145.55,84c1.32,1.64,2.62,3.31,3.81,5a62.65,62.65,0,0,1,5.73,11.06,80,80,0,0,1,6.13,23.53,120.33,120.33,0,0,1,.3,17.91,38,38,0,0,1-1.57,9.16,17.82,17.82,0,0,1-1.83,4.36c-2.77,4.39-6.66,6.68-12,6.05a24.06,24.06,0,0,1-3.37-.92c-.32-.09-.65-.15-1.05-.24-.11,1.68-.09,3.27-.34,4.81A49.52,49.52,0,0,1,140.15,169.53Zm26.28-93.86c.24-.66.41-1.16.59-1.64A13.84,13.84,0,0,1,172,67.34a8.37,8.37,0,0,1,9-.75,18.76,18.76,0,0,1,3,1.87,26.6,26.6,0,0,1,6.48,7.34A54.93,54.93,0,0,1,197.48,92q.87,3.4,1.63,6.84a96.67,96.67,0,0,1,2,12.66,90.44,90.44,0,0,1,.17,9.31,54.83,54.83,0,0,1-1.5,11.83,22.77,22.77,0,0,1-3.37,7.68,15.86,15.86,0,0,1-5.13,4.72,8.71,8.71,0,0,1-8.26.39c-.54-.23-1.05-.53-1.57-.78-.25-.12-.51-.22-.87-.38a5.9,5.9,0,0,0-.25.92,74.39,74.39,0,0,1-2.65,12.17,1.93,1.93,0,0,0,.64,2.33,8.31,8.31,0,0,0,1.32.86,10.86,10.86,0,0,0,7,1.08,34.27,34.27,0,0,0,7.54-2.32,33.42,33.42,0,0,0,13.25-9.58,27.14,27.14,0,0,0,5.8-11.68,87.7,87.7,0,0,0,2.19-18.47,90.9,90.9,0,0,0-1.89-18.69A114.42,114.42,0,0,0,207,79.56a76.64,76.64,0,0,0-12.76-20.72,61.13,61.13,0,0,0-8.57-8.3,34.17,34.17,0,0,0-11.22-6.07,19.87,19.87,0,0,0-6.4-1,17.58,17.58,0,0,0-9.47,3.36,31,31,0,0,0-6.56,6.07A29.62,29.62,0,0,0,148.83,58c.52.33,1,.68,1.6,1a39.65,39.65,0,0,1,10.9,9.58c1.47,1.89,2.8,3.9,4.2,5.85ZM76.51,76.78l-2.66-.71c-8.79-2.46-17.58-5-26.39-7.36Q25.26,62.65,3,56.7a2.67,2.67,0,0,0-.72,0c.22.33.33.53.47.71,2.3,3.18,4.7,6.29,6.88,9.55,13,19.31,25.67,38.8,38.32,58.32.29.45.54.91.86,1.33a1.82,1.82,0,0,0,2.62.48A30.68,30.68,0,0,0,55,124.28,56,56,0,0,0,67.57,107a6.6,6.6,0,0,0,.59-2.18,82.26,82.26,0,0,1,1.85-12,50.88,50.88,0,0,1,5.64-14.52C75.94,77.88,76.2,77.36,76.51,76.78Zm97.74,88.92a29.58,29.58,0,0,1,3.06,6.74,104.85,104.85,0,0,1,3.52,13.07,2,2,0,0,1,1.38,1.2,31.86,31.86,0,0,0,1.72,2.86,7.86,7.86,0,0,0,6.54,3.51,10.58,10.58,0,0,0,4.45-.86,15.42,15.42,0,0,0,3.62-2.09c-.23-.37-.4-.67-.61-1a149.73,149.73,0,0,0-12.84-16,7.76,7.76,0,0,1-.74-1c0-.06,0-.23.09-.31a.37.37,0,0,1,.29-.14,2.41,2.41,0,0,1,.79.33,33.78,33.78,0,0,1,2.89,2.29c1.64,1.59,3.25,3.21,4.77,4.91a4.1,4.1,0,0,0,2.72,1.42,11.8,11.8,0,0,0,2.45,0,16.8,16.8,0,0,0,4.22-1.14,111.66,111.66,0,0,0,29.36-16.33A75.27,75.27,0,0,0,246,149a58.19,58.19,0,0,0,6.67-10.72c.24-.52.43-1.07.62-1.56-.13-.12-.16-.18-.21-.19a8.13,8.13,0,0,0-.86-.15,38.42,38.42,0,0,1-18.65-7.13,5.38,5.38,0,0,0-.76-.39c-.17.28-.3.47-.4.68a38.29,38.29,0,0,1-4.22,6.67,83.45,83.45,0,0,1-10.5,11.33,49.18,49.18,0,0,1-7,5.33,5.2,5.2,0,0,0-1.65,1.55A29.16,29.16,0,0,1,198.06,164a25.76,25.76,0,0,1-14.58,3.06,16.5,16.5,0,0,1-7.77-2.49,4.86,4.86,0,0,0-.67-.3Zm140.53,56.61c-.16-1.93-.36-3.85-.47-5.78a3.31,3.31,0,0,0-1.68-2.71,6.61,6.61,0,0,0-3.14-1,10.74,10.74,0,0,0-5,.86,24.1,24.1,0,0,0-5.68,3.47,55,55,0,0,0-8.64,8.48,88.68,88.68,0,0,0-16.62,30.89,42.23,42.23,0,0,0-1.83,12.12,12.48,12.48,0,0,0,.86,4.64,3.51,3.51,0,0,0,4.68,2.13,46.87,46.87,0,0,0,21.3-15.22c.73-.92,1.44-1.85,2.12-2.81a102.27,102.27,0,0,0,9.16-15.58,52.89,52.89,0,0,0,2.81-7.2A40.2,40.2,0,0,0,314.78,222.31ZM38.3,202.79c1.27,6.41,7.83,14.91,14.6,18.11.3-.21.64-.43,1-.65,2.54-1.67,5.08-3.35,7.64-5,1.72-1.11,3.49-2.15,5.2-3.28a83.23,83.23,0,0,1,12.09-6.77,95.41,95.41,0,0,1,27.89-7.44,32.22,32.22,0,0,1,7.54-.12c.21,0,.48,0,.48.35,0,0-.06.12-.11.14l-1,.4a5.57,5.57,0,0,0-3.55,4.63c-.2,1.74-.33,3.5-.47,5.25a5.1,5.1,0,0,0,.11,1,18.27,18.27,0,0,0,6.52-2.32,13.7,13.7,0,0,0,6-7.08c.38-1,.87-1.91,1.3-2.87a2.19,2.19,0,0,0,.2-.66c.17-1.75.33-3.5.46-5.25a2.83,2.83,0,0,0-.18-.78c-1.46.42-2.79.87-4.15,1.18a52.43,52.43,0,0,1-9.93,1.1A22.41,22.41,0,0,1,98.52,190a9.6,9.6,0,0,1-3.35-2.79c-.58-.79-1.23-1.54-1.89-2.35-1.67.21-3.29.43-4.91.62a41.16,41.16,0,0,1-13.47-.37,5.12,5.12,0,0,0-2.43,0c-2.15.55-4.33,1-6.47,1.6a67.8,67.8,0,0,0-19.49,8.68,49.74,49.74,0,0,0-8.15,7.18S38.32,202.74,38.3,202.79ZM176,42.1l1.41.59a42.59,42.59,0,0,1,11,6.14,66.68,66.68,0,0,1,10.4,10.44A74.28,74.28,0,0,1,207.62,73a3,3,0,0,0,1.61,1.52,19.3,19.3,0,0,0,4.5,1.42c.33.06.69.17,1-.13.34-2.59,2.52-70.81,2.45-72.86,0-.09-.11-.17-.17-.26s-.13-.05-.15,0C203.31,15.82,189.6,28.85,176,42.1ZM43.26,130c-.22.79-.4,1.35-.52,1.91a24,24,0,0,0-.24,7.52,48.28,48.28,0,0,0,5.65,18.35c6,10.86,15.13,17.64,27.1,20.66a48.71,48.71,0,0,0,8.66,1.4,2.89,2.89,0,0,0,3.07-4,10.67,10.67,0,0,0-1.21-2.32c-1.32-2-2.74-3.95-4-6a64.16,64.16,0,0,1-5.62-10.7,100.24,100.24,0,0,1-3.93-11.44,122,122,0,0,1-3-14.77c-.37-2.48-.66-5-1-7.48a6.73,6.73,0,0,0-1-3A2.47,2.47,0,0,0,63.84,119a4.53,4.53,0,0,0-2.18,1.67,35.33,35.33,0,0,1-7.57,7.53,16.54,16.54,0,0,1-5.31,2.65C46.92,131.39,45.09,131.57,43.26,130Zm24.51,134.1a20.1,20.1,0,0,0-6.19,2.8,28.37,28.37,0,0,0-7.07,7,58.19,58.19,0,0,0-9.27,20.33,68.29,68.29,0,0,0-1.55,11.48A60.86,60.86,0,0,0,44.9,323.5a42.57,42.57,0,0,0,2.4,8.07,5.28,5.28,0,0,0,.55.81,4.07,4.07,0,0,0,.49-.43,19.71,19.71,0,0,1,7.9-5.68,8,8,0,0,1,1.32-.47,21.18,21.18,0,0,1,10.78-.08c5.52,1.45,9.7,4.55,11.9,10,.1.24.23.46.37.73a15.4,15.4,0,0,0,3.18-6.76c-1.06-1-2.16-2-3.27-3.07a35.11,35.11,0,0,1-4.6-5.07A60.66,60.66,0,0,1,66,299.61,77.48,77.48,0,0,1,64.63,289c-.14-1.69-.3-3.39-.28-5.09.07-6.36.75-12.62,3.16-18.59A8.44,8.44,0,0,0,67.77,264.07ZM15.12,225.12a1.9,1.9,0,0,0,.42-.31,15.4,15.4,0,0,1,6.08-4,9.89,9.89,0,0,1,1.68-.52c.65-.14,1.2.05,1.21.39,0,.5-.41.65-.75.88-1.35.91-2.74,1.79-4.05,2.77a7.65,7.65,0,0,0-2.38,8.25,6.4,6.4,0,0,0,9,3.74,14,14,0,0,0,1.64-1c.8-.59,1.54-1.26,2.34-1.84s1.9-1.37,2.89-2a3.1,3.1,0,0,1,2.54-.32,2.64,2.64,0,0,1,1.61,1,.66.66,0,0,1-.36,1c-.35.06-.71,0-1.05.07a4,4,0,0,0-1.49.42c-1.47,1.06-2.93,2.15-4.29,3.34a1.73,1.73,0,0,0,.17,2.86A7.73,7.73,0,0,0,34,241.35a8.34,8.34,0,0,0,4.94-.9,25.15,25.15,0,0,0,7.43-5.51,15.42,15.42,0,0,0,2.9-4.37,9,9,0,0,0,.83-3.57l-1.78-.87a15.84,15.84,0,0,1-4.85-3.71,39,39,0,0,1-8.33-14.9A24.29,24.29,0,0,1,34,201.85a2.56,2.56,0,0,0-.25-.64c-.86-.09-1.67-.19-2.49-.25a34,34,0,0,0-13,1.56,18.89,18.89,0,0,0-4.13,1.91,11.52,11.52,0,0,0-4.37,5.15,3.43,3.43,0,0,0,.19,3.52,1.68,1.68,0,0,0,2.56.46,13.43,13.43,0,0,1,3.89-2.35,13.66,13.66,0,0,1,2.19-.61c.17,0,.39.12.62.2-.08.64-.53.86-.89,1.12a20.8,20.8,0,0,0-4,3.68,7.29,7.29,0,0,0-.56,8.24A2.38,2.38,0,0,0,15.12,225.12Zm298.15-12.71a8.56,8.56,0,0,0-.25-1.16,26.86,26.86,0,0,0-2.74-5.09,3,3,0,0,0-2.13-1.38,20.38,20.38,0,0,0-12.87,1.49,44.08,44.08,0,0,0-6.31,3.81,62.48,62.48,0,0,0-10.34,9.49,83,83,0,0,0-18.88,36.83,51.32,51.32,0,0,0-1.27,10.1,20.45,20.45,0,0,0,.76,6.78c.9,2.9,1.4,2.86,3.88,3.38a5.54,5.54,0,0,0,2.93-.32,2.91,2.91,0,0,0,.78-.41,1.54,1.54,0,0,0,.76-1.93,15.29,15.29,0,0,1-.58-5.39,44.17,44.17,0,0,1,2.83-13.71,98.23,98.23,0,0,1,12.38-23,81.69,81.69,0,0,1,11.32-13,46.73,46.73,0,0,1,6.82-5.23,17.59,17.59,0,0,1,6.14-2.53,9.12,9.12,0,0,1,5.66.69ZM65.69,263.25a7.3,7.3,0,0,0-4.5-.73,18.28,18.28,0,0,0-8.15,3,40.73,40.73,0,0,0-10.89,10.37A78.28,78.28,0,0,0,31.52,297a65.19,65.19,0,0,0-2.93,19.57,39,39,0,0,0,.85,8.2,33,33,0,0,0,9.5,17.67,24.14,24.14,0,0,0,7.23,4.92,32.75,32.75,0,0,0,7.41,2.13,6.57,6.57,0,0,0,1,0c-.43-.38-.63-.57-.85-.74a30.38,30.38,0,0,1-8.54-10.57A57.86,57.86,0,0,1,40,308.26a90.64,90.64,0,0,1,1.56-11.49,59,59,0,0,1,11.28-23.95,34.56,34.56,0,0,1,3.27-3.67,22.17,22.17,0,0,1,8.53-5.42C64.9,263.64,65.15,263.49,65.69,263.25ZM278,216.54c-.59-1.37-1.16-2.64-1.69-3.94a11.14,11.14,0,0,1-.81-3.94c0-1.38,0-2.77.08-4.25a4.78,4.78,0,0,0-1.85,1.09,63.81,63.81,0,0,0-11.59,11.22,113.42,113.42,0,0,0-8.9,13.06c-1.09,1.87-2.09,3.8-3,5.76A70.2,70.2,0,0,0,245,253.18a30.76,30.76,0,0,0-.73,6.27c.09,2.4.26,4.8.46,7.19a4.93,4.93,0,0,0,.58,2,16.13,16.13,0,0,0,5.9,5.9,6.48,6.48,0,0,0,3.34.94,4.69,4.69,0,0,0,1-.23c-.22-1.26-.49-2.4-.62-3.56a41.77,41.77,0,0,1,.57-12.77A73.71,73.71,0,0,1,262,240a94.71,94.71,0,0,1,15.54-22.88A6.24,6.24,0,0,0,278,216.54ZM142,156.3a11.23,11.23,0,0,0,5.91.55,16.53,16.53,0,0,0,4.45-1.58,9.19,9.19,0,0,0,4.14-4.15,24.14,24.14,0,0,0,2.69-9.39,96.65,96.65,0,0,0-.26-21,86.94,86.94,0,0,0-3.44-15,8.45,8.45,0,0,0-.43-.85,7.4,7.4,0,0,0-.41,2.28,12.78,12.78,0,0,1-2.28,6,5.44,5.44,0,0,1-5.33,2.35,9.4,9.4,0,0,1-4.22-1.62,22.14,22.14,0,0,1-5.49-5.13c-.33-.45-.55-1-1.19-1.26a3,3,0,0,0,0,.55c.71,3.07,1.5,6.13,2.12,9.23.51,2.52.87,5.07,1.2,7.62a45.37,45.37,0,0,0,.87,5.9,10,10,0,0,1,.24,1.55c.32,3.09.66,6.17.92,9.26a90.3,90.3,0,0,1,.42,10c0,1.17,0,2.34,0,3.51C141.87,155.45,141.94,155.85,142,156.3Zm33.41-60.43c.1.59.12.86.19,1.12.38,1.48.79,2.94,1.17,4.42a153.14,153.14,0,0,1,3.09,16A100.59,100.59,0,0,1,181,135.12c0,1.29,0,2.59-.1,3.87a2.31,2.31,0,0,0,.9,2.15,12.69,12.69,0,0,0,1.24,1,5.45,5.45,0,0,0,6.13.2,13,13,0,0,0,2.92-2.22,19,19,0,0,0,4.74-8.3c.48-2.05.91-4.12,1.23-6.2a64.72,64.72,0,0,0,.68-14.18,140.45,140.45,0,0,0-2-15.32,46.17,46.17,0,0,0-2-8c-.11-.3-.14-.7-.66-.74,0,.71.07,1.4.11,2.1a16,16,0,0,1-2.58,9.69,7.09,7.09,0,0,1-7,3.5,8.5,8.5,0,0,1-4.31-1.84,23.37,23.37,0,0,1-3.74-3.7C176.23,96.77,175.9,96.45,175.38,95.87Zm82.68,23.76c-.27.68-.55,1.26-.73,1.88a3.38,3.38,0,0,0,2.36,4.4,6.44,6.44,0,0,0,3.64.14,10.12,10.12,0,0,0,4.71-2.6c.59-.57,1.12-1.2,1.69-1.79a9.41,9.41,0,0,1,.76-.63.66.66,0,0,1-.05.88,29,29,0,0,1-2.68,3.24,8.79,8.79,0,0,1-8.06,2.51c-2.83-.57-5.63-2.38-6-5.81a.83.83,0,0,0-.1-.26,19.87,19.87,0,0,1-2.37-1.57,24.05,24.05,0,0,1-2-2.24c-.2.11-.41.2-.61.33a9.72,9.72,0,0,1-3.24,1.3,8.15,8.15,0,0,1-6.53-1.28,4.64,4.64,0,0,1-1.9-2.46c-.33-1.11.4-1.84,1.54-1.54s2.47.74,3.72,1a12,12,0,0,0,4.89.17,3.62,3.62,0,0,0,2.88-5,7.78,7.78,0,0,0-1.25-2.09,11.21,11.21,0,0,0-3.84-3,18.11,18.11,0,0,0-6-1.77,13.34,13.34,0,0,0-3.84.1,9.63,9.63,0,0,0-7.54,11.63,16.43,16.43,0,0,0,3.34,7.08,23.26,23.26,0,0,0,6,5.34,33.48,33.48,0,0,0,16.26,5.09c6,.22,11.34-1.4,15.78-5.6a15.29,15.29,0,0,0,4.77-8.79,8,8,0,0,0-1.3-5.69,4.51,4.51,0,0,0-1.83-1.6,1.5,1.5,0,0,0-1.25-.22c-1.44,1.82-2.65,3.47-4,5a10.38,10.38,0,0,1-6.27,3.61C258.78,119.46,258.49,119.54,258.06,119.63Zm-5.81-18.71a7.71,7.71,0,0,1,.63-.93,34.73,34.73,0,0,0,6.15-8.3c.26-.53.59-1,.9-1.51a18.49,18.49,0,0,0,2.18-5.35,8.1,8.1,0,0,0-.41-5.34A5.87,5.87,0,0,0,256,75.76a9.16,9.16,0,0,0-6.28,2.33,17,17,0,0,0-5,7.71c-.82,2.62-1.54,5.29-2.17,8a22.9,22.9,0,0,1-2.86,7.69c-.06.09,0,.23-.07.44.77.2,1.55.36,2.32.59s1.68.53,2.49.87a14.47,14.47,0,0,1,2.2,1.08c.75.46,1.42,1,2.12,1.56s1,1.23,1.77,1.67c.43-.63.78-1.17,1.15-1.69a14.23,14.23,0,0,1,3.71-3.71c.29-.2.61-.37,1,.06-.19.38-.37.8-.6,1.19-1,1.79-2,3.58-3,5.34A4.49,4.49,0,0,0,252,112a2.66,2.66,0,0,1,0,1,1.74,1.74,0,0,0,.84,2,8.19,8.19,0,0,0,6.63,1.58,8.07,8.07,0,0,0,4.55-2.82,21.11,21.11,0,0,0,4.11-7.11A7.9,7.9,0,0,0,267,99.31,4.8,4.8,0,0,0,262.17,97a10.06,10.06,0,0,0-4.61,1.53c-.93.62-1.87,1.21-2.84,1.77A3.76,3.76,0,0,1,252.25,100.92ZM210.18,78.51c.12.38.18.66.28.93a121.43,121.43,0,0,1,6.9,28.81,90.86,90.86,0,0,1,.46,18.06q-.27,2.9-.59,5.77a52.11,52.11,0,0,1-4,15.77,4.34,4.34,0,0,0-.19.89,51.91,51.91,0,0,0,16.14-23.63l-1-1.38a18.33,18.33,0,0,1-3.2-6.78c-1.19-5.17.16-9.49,4.24-12.92.31-.26.59-.54.92-.83A66,66,0,0,0,216.4,77.93c-1.08.21-2,.47-3,.56S211.3,78.51,210.18,78.51Zm-64-22a83.26,83.26,0,0,0,6.12-10.14,27,27,0,0,0,2.53-7.82,14.73,14.73,0,0,0,.06-3.32,3.6,3.6,0,0,0-2.41-3.18,7.48,7.48,0,0,0-2-.47,10.8,10.8,0,0,0-4.33.51,26.75,26.75,0,0,0-7.26,3.45A86.7,86.7,0,0,0,120.23,52a32.31,32.31,0,0,0-6.32,11.84c-.07.24-.24.54.21.78.58-.53,1.2-1,1.79-1.61a24.3,24.3,0,0,1,6.21-4.23A50.14,50.14,0,0,1,130,55.73a24.08,24.08,0,0,1,12-.47C143.36,55.57,144.72,56.1,146.22,56.56Zm45.94,32.38a31,31,0,0,0-1.55-8.76,8.06,8.06,0,0,0-.78-1.75,39.46,39.46,0,0,0-5.26-6.8,16.75,16.75,0,0,0-4.44-3.41,6.27,6.27,0,0,0-3-.78A6.69,6.69,0,0,0,172.91,69a16.82,16.82,0,0,0-5,7.48,2.65,2.65,0,0,0,.17,2.33c1.45,2.94,2.88,5.89,4.23,8.88a28.36,28.36,0,0,0,9.06,11A8.19,8.19,0,0,0,184,100a4.91,4.91,0,0,0,3.1-.1,6.84,6.84,0,0,0,4.4-4.68A18,18,0,0,0,192.16,88.94Zm-64.77-2.21.44.84a66.65,66.65,0,0,1,3.86,7.87c.74,1.85,1.42,3.72,2.16,5.57a10.16,10.16,0,0,0,1,2c1.08,1.53,2.19,3,3.36,4.5a17.5,17.5,0,0,0,5.76,4.52,9.34,9.34,0,0,0,1.95.78c2.57.66,4.28-.09,5.57-2.43a6.25,6.25,0,0,0,.52-1.11,13.16,13.16,0,0,0,.72-6.22A27.42,27.42,0,0,0,149.55,93c-.76-1.32-1.41-2.7-2.14-4A20.41,20.41,0,0,0,141,81.83a11.38,11.38,0,0,0-2-1,6.46,6.46,0,0,0-5.29.06,25.29,25.29,0,0,0-3.06,1.69A7.7,7.7,0,0,0,127.39,86.73Zm9.16,109.11a8.43,8.43,0,0,0,2.66-.06c2.09-.28,4.18-.56,6.26-.89a152.6,152.6,0,0,0,21.73-5,8.07,8.07,0,0,0,.89-.43c-.05-1.15-.08-2.2-.15-3.25a43.93,43.93,0,0,0-1.41-8.83,5.53,5.53,0,0,0-.41-.89,3,3,0,0,0-.42.12,50.79,50.79,0,0,1-11.26,4.85,24.94,24.94,0,0,1-11.27,1,13.91,13.91,0,0,1-7.12-2.76,3.41,3.41,0,0,0-.65-.37,10.41,10.41,0,0,0-1.69,2.26A38.61,38.61,0,0,1,136.55,195.84ZM79.42,338.39a14.35,14.35,0,0,0-7.86-7.46,18.43,18.43,0,0,0-10.67-1,10.72,10.72,0,0,0-7,4.54,6.5,6.5,0,0,0-1,5.5,2.86,2.86,0,0,0,.91,1.64c1.17,1,2.28,2,3.53,2.87a12.69,12.69,0,0,0,6.51,2.39,14.21,14.21,0,0,0,9.73-2.75,34.26,34.26,0,0,0,4.92-4.48C78.77,339.27,79.07,338.84,79.42,338.39Zm4.89-270c.15,0,.22.08.26.06a8,8,0,0,0,.78-.38,21.5,21.5,0,0,1,11.82-3.35,29.86,29.86,0,0,1,6.58,1,3.89,3.89,0,0,0,2.1.35c.44-.85.87-1.74,1.36-2.6s1.09-1.78,1.63-2.65a8.78,8.78,0,0,0-3.35-2.66c-5.65-3-11.43-3-17.31-.76-.33.12-.63.3-1,.45a2,2,0,0,0-1,1.13,25.74,25.74,0,0,0-2,8.86A2.61,2.61,0,0,0,84.31,68.42Zm222.8,134.47c-.46-.42-.68-.67-.94-.86a19.12,19.12,0,0,0-10.8-3.67,33,33,0,0,0-16.54,4,1.7,1.7,0,0,0-1,1.49,14.42,14.42,0,0,0,1.85,8.79,3.22,3.22,0,0,0,.41.56,1,1,0,0,0,1.41.08c.36-.29.7-.61,1.06-.92A51.57,51.57,0,0,1,294,204.6a20.3,20.3,0,0,1,11.79-1.79C306.12,202.86,306.46,202.86,307.11,202.89ZM178,185.05c.37-3.46-2.73-14.82-4.8-17.63-.69.8-1.35,1.61-2.07,2.36s-1.41,1.4-2.15,2.06-1.6,1.34-2.42,2c.6,1.54,1.21,3,1.72,4.47s1,3,1.36,4.53.58,3.07.88,4.68Zm-68-139.89a4.57,4.57,0,0,0-.6-.2,17.32,17.32,0,0,0-9.67.86A24.92,24.92,0,0,0,87.74,55.88a7.23,7.23,0,0,0-.38.95c4.66-1.74,9.17-2.82,13.8-2.1,1.42-1.72,2.69-3.41,4.12-4.94S108.37,46.78,110.06,45.16Zm8.87,3.67a25.2,25.2,0,0,0-6.52-3.11,1.21,1.21,0,0,0-1.14.24c-.18.16-.37.29-.56.43a45.54,45.54,0,0,0-8,8.1c-.09.11-.06.32-.1.53.7.23,1.36.43,2,.66s1.32.47,2,.77a16.82,16.82,0,0,1,2,1.09c.57.36,1.09.81,1.62,1.21ZM127,196.11a19.79,19.79,0,0,0,6.2-.35c.66-3.51.3-10.2-.74-12.87-1.11.87-2.17,1.77-3.31,2.55s-2.47,1.52-3.66,2.24c.37,1.42.81,2.75,1,4.12S126.89,194.68,127,196.11Z"/><path class="cls-2" d="M192.56,211.79c.31.18.49.36.68.37a2.35,2.35,0,0,0,.86-.17,35.88,35.88,0,0,1,9.12-1.68,64.9,64.9,0,0,1,13.51.29,94.24,94.24,0,0,1,15.36,2.86,48,48,0,0,1,10.95,4.7,44.21,44.21,0,0,1,6.16,4.65,5.64,5.64,0,0,1,1,1.2,2.86,2.86,0,0,1,.23,2.84,8.74,8.74,0,0,1-.58,1.09,56.36,56.36,0,0,0-6.32,17.43,85.71,85.71,0,0,0-1.65,16.06,9.23,9.23,0,0,1-.49,3.1,5,5,0,0,1-.75,1.38,1.32,1.32,0,0,1-1.71.45c-1.4-.62-2.81-1.19-4.21-1.77A106.79,106.79,0,0,0,221,259.78a134.76,134.76,0,0,0-24.48-3.59q-3.42-.15-6.86-.08a97.19,97.19,0,0,0-15,1.34,112.06,112.06,0,0,0-14.29,3.64c-.83.27-1.62.66-2.43,1l-.85.32a4.3,4.3,0,0,1-.27-1.79,3.12,3.12,0,0,0-.64-1.79.8.8,0,0,0-.6-.26.68.68,0,0,0-.41.46,34.23,34.23,0,0,1-3.16,9.46,75,75,0,0,1-6.45,11.07A129.58,129.58,0,0,1,127.77,300,102,102,0,0,1,114.15,311a56.11,56.11,0,0,1-13.69,6.7l-4.79,1.59c-7-3.66-13-8.43-17.3-15.11a41.26,41.26,0,0,1-5.27-12.41,44.55,44.55,0,0,1-1.29-13.76,62.06,62.06,0,0,1,1.92-12.13c.15-.57.3-1.13.46-1.76a7.86,7.86,0,0,1,1-.29,22.28,22.28,0,0,0,7.41-2.64,39.63,39.63,0,0,0,13-12.1,77.11,77.11,0,0,0,9.56-19.31,88,88,0,0,0,3-12.64c.19-1,.37-2.06.57-3.17a22.57,22.57,0,0,0,5.33-1.71,24.33,24.33,0,0,0,4.84-3.17,17.91,17.91,0,0,0,3.71-4.2,13.68,13.68,0,0,0,2-5.25c1.17,0,2.21-.06,3.25-.12a128.23,128.23,0,0,0,22.22-3.27,190.25,190.25,0,0,0,21.11-6c2.53-.91,5-2,7.52-2.95l1.72-.69c.22.61.39,1.15.59,1.68a11.24,11.24,0,0,0,7.35,7,11.91,11.91,0,0,0,6.77,0A11.39,11.39,0,0,0,200,193a2.07,2.07,0,0,1,.43-.13c3.12,4.09,5.25,8.77,7.48,13.36-.28.61-.81.5-1.25.55a42.52,42.52,0,0,0-9.38,2.2,12.4,12.4,0,0,0-3.6,1.8A12.62,12.62,0,0,0,192.56,211.79Zm-61-8.14a19.64,19.64,0,0,0-2.24.35,5.22,5.22,0,0,0-3.53,7.67c.1.21.22.42.34.62a5.15,5.15,0,0,0,4.31,2.59c3,.2,5-1.21,6.43-3.7a4.93,4.93,0,0,0-3.39-7.3C132.94,203.77,132.35,203.74,131.59,203.65Zm47.17,1.51c.23,0,.64,0,1-.12a4.92,4.92,0,0,0,3.1-7.85c-.24-.26-.44-.54-.67-.81a5.38,5.38,0,0,0-5.36-1.85c-3.32.65-4.44,3-4.37,5.1A6,6,0,0,0,178.76,205.16Z"/><path class="cls-3" d="M139.64,153.88c0,1.37-.12,3.3-.17,5.23a25.77,25.77,0,0,1-2.21,10.23,41.1,41.1,0,0,1-4,7.58,22.38,22.38,0,0,1-11.12,8.22,19.41,19.41,0,0,1-6.07.79A29.58,29.58,0,0,1,101.79,182a40,40,0,0,1-9.6-7.32,67.69,67.69,0,0,1-7.5-9.06,60.65,60.65,0,0,1-4.88-8.73,90.65,90.65,0,0,1-4.94-13.32,120.52,120.52,0,0,1-2.85-13,117.21,117.21,0,0,1-1.47-20.83,82,82,0,0,1,1-10.84A60.47,60.47,0,0,1,74.74,86.5a37.24,37.24,0,0,1,6-10.5,23.66,23.66,0,0,1,10.4-7.52,17.88,17.88,0,0,1,8-.92,24.58,24.58,0,0,1,5.69,1,28.73,28.73,0,0,1,8.75,4.75,46.61,46.61,0,0,1,6.43,6.21c.53.62,1,1.28,1.49,2a73.8,73.8,0,0,1,7.69,13,116.38,116.38,0,0,1,5.72,15.66,113.9,113.9,0,0,1,2.49,11.68c.46,2.77.71,5.57,1,8.36l1,8.38a1.1,1.1,0,0,1,0,.18C139.55,143.6,140.05,148.45,139.64,153.88Zm-59-36.4A79.78,79.78,0,0,0,82,132.07a113.79,113.79,0,0,0,7.63,24.06,44.24,44.24,0,0,0,6,10.07,28.69,28.69,0,0,0,5,5,14.15,14.15,0,0,0,5.66,2.71,10.36,10.36,0,0,0,4.7,0,9.91,9.91,0,0,0,5.49-3.58,16.75,16.75,0,0,0,2.9-5.39,30.11,30.11,0,0,0,1.43-7.22,66.09,66.09,0,0,0-.28-12.81,106,106,0,0,0-4.66-21.41,90.54,90.54,0,0,0-9.82-21.14,36.05,36.05,0,0,0-7.84-9,19,19,0,0,0-2.73-1.9,6.91,6.91,0,0,0-8.86,1.78,15.93,15.93,0,0,0-1.12,1.57,23.39,23.39,0,0,0-2.63,6.12A56.08,56.08,0,0,0,80.65,117.48Z"/><path class="cls-3" d="M140.15,169.53a49.52,49.52,0,0,0,1.26-4.82c.25-1.54.23-3.13.34-4.81.4.09.73.15,1.05.24a24.06,24.06,0,0,0,3.37.92c5.29.63,9.18-1.66,12-6.05a17.82,17.82,0,0,0,1.83-4.36,38,38,0,0,0,1.57-9.16,120.33,120.33,0,0,0-.3-17.91,80,80,0,0,0-6.13-23.53A62.65,62.65,0,0,0,149.36,89c-1.19-1.73-2.49-3.4-3.81-5a17,17,0,0,0-3.92-3.51,8.93,8.93,0,0,0-9.48-.69,11,11,0,0,0-3.93,2.89,29.62,29.62,0,0,0-1.62,2.56c-1.15-1.27-1.83-2.85-2.86-4.18s-2-2.73-3.13-4-2.31-2.48-3.51-3.76a11,11,0,0,1,2-6.56,19.65,19.65,0,0,1,7.41-6.31,36,36,0,0,1,5-2.07,19.43,19.43,0,0,1,14.7.93,38,38,0,0,1,14.33,11.88,64.7,64.7,0,0,1,5.64,9.3,98.57,98.57,0,0,1,8.06,23.17,156.15,156.15,0,0,1,3.4,23.27,75.33,75.33,0,0,1-3.32,28.1,49,49,0,0,1-3.09,7.27,15.49,15.49,0,0,1-5.22,5.83,36.2,36.2,0,0,1-10.46,4.88,20.16,20.16,0,0,1-7.47.82A11.63,11.63,0,0,1,140.15,169.53Z"/><path class="cls-3" d="M166.43,75.67l-.9-1.22c-1.4-2-2.73-4-4.2-5.85A39.65,39.65,0,0,0,150.43,59c-.55-.33-1.08-.68-1.6-1a29.62,29.62,0,0,1,3.23-5.11,31,31,0,0,1,6.56-6.07,17.58,17.58,0,0,1,9.47-3.36,19.87,19.87,0,0,1,6.4,1,34.17,34.17,0,0,1,11.22,6.07,61.13,61.13,0,0,1,8.57,8.3A76.64,76.64,0,0,1,207,79.56a114.42,114.42,0,0,1,6.49,21.31,90.9,90.9,0,0,1,1.89,18.69A87.7,87.7,0,0,1,213.23,138a27.14,27.14,0,0,1-5.8,11.68,33.42,33.42,0,0,1-13.25,9.58,34.27,34.27,0,0,1-7.54,2.32,10.86,10.86,0,0,1-7-1.08,8.31,8.31,0,0,1-1.32-.86,1.93,1.93,0,0,1-.64-2.33,74.39,74.39,0,0,0,2.65-12.17,5.9,5.9,0,0,1,.25-.92c.36.16.62.26.87.38.52.25,1,.55,1.57.78a8.71,8.71,0,0,0,8.26-.39,15.86,15.86,0,0,0,5.13-4.72,22.77,22.77,0,0,0,3.37-7.68,54.83,54.83,0,0,0,1.5-11.83,90.44,90.44,0,0,0-.17-9.31,96.67,96.67,0,0,0-2-12.66q-.77-3.43-1.63-6.84a54.93,54.93,0,0,0-7.11-16.18,26.6,26.6,0,0,0-6.48-7.34,18.76,18.76,0,0,0-3-1.87,8.37,8.37,0,0,0-9,.75A13.84,13.84,0,0,0,167,74C166.84,74.51,166.67,75,166.43,75.67Z"/><path class="cls-4" d="M76.51,76.78c-.31.58-.57,1.1-.86,1.59A50.88,50.88,0,0,0,70,92.89a82.26,82.26,0,0,0-1.85,12,6.6,6.6,0,0,1-.59,2.18A56,56,0,0,1,55,124.28a30.68,30.68,0,0,1-3.57,2.84,1.82,1.82,0,0,1-2.62-.48c-.32-.42-.57-.88-.86-1.33C35.34,105.79,22.65,86.3,9.67,67c-2.18-3.26-4.58-6.37-6.88-9.55-.14-.18-.25-.38-.47-.71a2.67,2.67,0,0,1,.72,0q22.22,6,44.42,12c8.81,2.4,17.6,4.9,26.39,7.36Z"/><path class="cls-5" d="M174.25,165.7l.79-1.44a4.86,4.86,0,0,1,.67.3,16.5,16.5,0,0,0,7.77,2.49A25.76,25.76,0,0,0,198.06,164a29.16,29.16,0,0,0,11.05-9.54,5.2,5.2,0,0,1,1.65-1.55,49.18,49.18,0,0,0,7-5.33,83.45,83.45,0,0,0,10.5-11.33,38.29,38.29,0,0,0,4.22-6.67c.1-.21.23-.4.4-.68a5.38,5.38,0,0,1,.76.39,38.42,38.42,0,0,0,18.65,7.13,8.13,8.13,0,0,1,.86.15s.08.07.21.19c-.19.49-.38,1-.62,1.56A58.19,58.19,0,0,1,246,149a75.27,75.27,0,0,1-14.1,14.15,111.66,111.66,0,0,1-29.36,16.33,16.8,16.8,0,0,1-4.22,1.14,11.8,11.8,0,0,1-2.45,0,4.1,4.1,0,0,1-2.72-1.42c-1.52-1.7-3.13-3.32-4.77-4.91a33.78,33.78,0,0,0-2.89-2.29,2.41,2.41,0,0,0-.79-.33.37.37,0,0,0-.29.14c-.07.08-.13.25-.09.31a7.76,7.76,0,0,0,.74,1,149.73,149.73,0,0,1,12.84,16c.21.29.38.59.61,1a15.42,15.42,0,0,1-3.62,2.09,10.58,10.58,0,0,1-4.45.86,7.86,7.86,0,0,1-6.54-3.51,31.86,31.86,0,0,1-1.72-2.86,2,2,0,0,0-1.38-1.2,104.85,104.85,0,0,0-3.52-13.07A29.58,29.58,0,0,0,174.25,165.7Z"/><path class="cls-6" d="M314.78,222.31a40.2,40.2,0,0,1-2.1,12.26,52.89,52.89,0,0,1-2.81,7.2,102.27,102.27,0,0,1-9.16,15.58c-.68,1-1.39,1.89-2.12,2.81a46.87,46.87,0,0,1-21.3,15.22,3.51,3.51,0,0,1-4.68-2.13,12.48,12.48,0,0,1-.86-4.64,42.23,42.23,0,0,1,1.83-12.12A88.68,88.68,0,0,1,290.2,225.6a55,55,0,0,1,8.64-8.48,24.1,24.1,0,0,1,5.68-3.47,10.74,10.74,0,0,1,5-.86,6.61,6.61,0,0,1,3.14,1,3.31,3.31,0,0,1,1.68,2.71C314.42,218.46,314.62,220.38,314.78,222.31Z"/><path class="cls-5" d="M38.3,202.79s0-.12.06-.16a49.74,49.74,0,0,1,8.15-7.18A67.8,67.8,0,0,1,66,186.77c2.14-.59,4.32-1.05,6.47-1.6a5.12,5.12,0,0,1,2.43,0,41.16,41.16,0,0,0,13.47.37c1.62-.19,3.24-.41,4.91-.62.66.81,1.31,1.56,1.89,2.35A9.6,9.6,0,0,0,98.52,190,22.41,22.41,0,0,0,110,192.76a52.43,52.43,0,0,0,9.93-1.1c1.36-.31,2.69-.76,4.15-1.18a2.83,2.83,0,0,1,.18.78c-.13,1.75-.29,3.5-.46,5.25a2.19,2.19,0,0,1-.2.66c-.43,1-.92,1.89-1.3,2.87a13.7,13.7,0,0,1-6,7.08,18.27,18.27,0,0,1-6.52,2.32,5.1,5.1,0,0,1-.11-1c.14-1.75.27-3.51.47-5.25a5.57,5.57,0,0,1,3.55-4.63l1-.4s.07-.09.11-.14c0-.33-.27-.32-.48-.35a32.22,32.22,0,0,0-7.54.12,95.41,95.41,0,0,0-27.89,7.44A83.23,83.23,0,0,0,66.72,212c-1.71,1.13-3.48,2.17-5.2,3.28-2.56,1.65-5.1,3.33-7.64,5-.34.22-.68.44-1,.65C46.13,217.7,39.57,209.2,38.3,202.79Z"/><path class="cls-4" d="M176,42.1c13.65-13.25,27.36-26.28,40.89-39.49,0,0,.1,0,.15,0s.17.17.17.26c.07,2.05-2.11,70.27-2.45,72.86-.29.3-.65.19-1,.13a19.3,19.3,0,0,1-4.5-1.42A3,3,0,0,1,207.62,73a74.28,74.28,0,0,0-8.86-13.68,66.68,66.68,0,0,0-10.4-10.44,42.59,42.59,0,0,0-11-6.14Z"/><path class="cls-4" d="M43.26,130c1.83,1.6,3.66,1.42,5.52.91a16.54,16.54,0,0,0,5.31-2.65,35.33,35.33,0,0,0,7.57-7.53A4.53,4.53,0,0,1,63.84,119a2.47,2.47,0,0,1,3.31,1.14,6.73,6.73,0,0,1,1,3c.3,2.5.59,5,1,7.48a122,122,0,0,0,3,14.77,100.24,100.24,0,0,0,3.93,11.44,64.16,64.16,0,0,0,5.62,10.7c1.31,2,2.73,4,4,6A10.67,10.67,0,0,1,87,175.79a2.89,2.89,0,0,1-3.07,4,48.71,48.71,0,0,1-8.66-1.4c-12-3-21.14-9.8-27.1-20.66A48.28,48.28,0,0,1,42.5,139.4a24,24,0,0,1,.24-7.52C42.86,131.32,43,130.76,43.26,130Z"/><path class="cls-7" d="M67.77,264.07a8.44,8.44,0,0,1-.26,1.24c-2.41,6-3.09,12.23-3.16,18.59,0,1.7.14,3.4.28,5.09A77.48,77.48,0,0,0,66,299.61a60.66,60.66,0,0,0,9.94,21.93,35.11,35.11,0,0,0,4.6,5.07c1.11,1,2.21,2.08,3.27,3.07a15.4,15.4,0,0,1-3.18,6.76c-.14-.27-.27-.49-.37-.73-2.2-5.44-6.38-8.54-11.9-10a21.18,21.18,0,0,0-10.78.08,8,8,0,0,0-1.32.47,19.71,19.71,0,0,0-7.9,5.68,4.07,4.07,0,0,1-.49.43,5.28,5.28,0,0,1-.55-.81,42.57,42.57,0,0,1-2.4-8.07,60.86,60.86,0,0,1-1.21-17.81,68.29,68.29,0,0,1,1.55-11.48,58.19,58.19,0,0,1,9.27-20.33,28.37,28.37,0,0,1,7.07-7A20.1,20.1,0,0,1,67.77,264.07Z"/><path class="cls-4" d="M15.12,225.12a2.38,2.38,0,0,1-1.38-1.28,7.29,7.29,0,0,1,.56-8.24,20.8,20.8,0,0,1,4-3.68c.36-.26.81-.48.89-1.12-.23-.08-.45-.23-.62-.2a13.66,13.66,0,0,0-2.19.61,13.43,13.43,0,0,0-3.89,2.35,1.68,1.68,0,0,1-2.56-.46,3.43,3.43,0,0,1-.19-3.52,11.52,11.52,0,0,1,4.37-5.15,18.89,18.89,0,0,1,4.13-1.91,34,34,0,0,1,13-1.56c.82.06,1.63.16,2.49.25a2.56,2.56,0,0,1,.25.64,24.29,24.29,0,0,0,1.15,5.67,39,39,0,0,0,8.33,14.9,15.84,15.84,0,0,0,4.85,3.71l1.78.87a9,9,0,0,1-.83,3.57,15.42,15.42,0,0,1-2.9,4.37,25.15,25.15,0,0,1-7.43,5.51,8.34,8.34,0,0,1-4.94.9,7.73,7.73,0,0,1-3.67-1.57,1.73,1.73,0,0,1-.17-2.86c1.36-1.19,2.82-2.28,4.29-3.34a4,4,0,0,1,1.49-.42c.34-.07.7,0,1.05-.07a.66.66,0,0,0,.36-1,2.64,2.64,0,0,0-1.61-1,3.1,3.1,0,0,0-2.54.32c-1,.62-2,1.3-2.89,2s-1.54,1.25-2.34,1.84a14,14,0,0,1-1.64,1,6.4,6.4,0,0,1-9-3.74,7.65,7.65,0,0,1,2.38-8.25c1.31-1,2.7-1.86,4.05-2.77.34-.23.77-.38.75-.88,0-.34-.56-.53-1.21-.39a9.89,9.89,0,0,0-1.68.52,15.4,15.4,0,0,0-6.08,4A1.9,1.9,0,0,1,15.12,225.12Z"/><path class="cls-4" d="M313.27,212.41l-1.11-.52a9.12,9.12,0,0,0-5.66-.69,17.59,17.59,0,0,0-6.14,2.53,46.73,46.73,0,0,0-6.82,5.23,81.69,81.69,0,0,0-11.32,13,98.23,98.23,0,0,0-12.38,23A44.17,44.17,0,0,0,267,268.61a15.29,15.29,0,0,0,.58,5.39,1.54,1.54,0,0,1-.76,1.93,2.91,2.91,0,0,1-.78.41,5.54,5.54,0,0,1-2.93.32c-2.48-.52-3-.48-3.88-3.38a20.45,20.45,0,0,1-.76-6.78,51.32,51.32,0,0,1,1.27-10.1,83,83,0,0,1,18.88-36.83A62.48,62.48,0,0,1,289,210.08a44.08,44.08,0,0,1,6.31-3.81,20.38,20.38,0,0,1,12.87-1.49,3,3,0,0,1,2.13,1.38,26.86,26.86,0,0,1,2.74,5.09A8.56,8.56,0,0,1,313.27,212.41Z"/><path class="cls-4" d="M65.69,263.25c-.54.24-.79.39-1.06.48a22.17,22.17,0,0,0-8.53,5.42,34.56,34.56,0,0,0-3.27,3.67,59,59,0,0,0-11.28,23.95A90.64,90.64,0,0,0,40,308.26a57.86,57.86,0,0,0,5.23,29.92,30.38,30.38,0,0,0,8.54,10.57c.22.17.42.36.85.74a6.57,6.57,0,0,1-1,0,32.75,32.75,0,0,1-7.41-2.13,24.14,24.14,0,0,1-7.23-4.92,33,33,0,0,1-9.5-17.67,39,39,0,0,1-.85-8.2A65.19,65.19,0,0,1,31.52,297a78.28,78.28,0,0,1,10.63-21.11A40.73,40.73,0,0,1,53,265.55a18.28,18.28,0,0,1,8.15-3A7.3,7.3,0,0,1,65.69,263.25Z"/><path class="cls-7" d="M278,216.54a6.24,6.24,0,0,1-.48.62A94.71,94.71,0,0,0,262,240a73.71,73.71,0,0,0-6.51,18.88,41.77,41.77,0,0,0-.57,12.77c.13,1.16.4,2.3.62,3.56a4.69,4.69,0,0,1-1,.23,6.48,6.48,0,0,1-3.34-.94,16.13,16.13,0,0,1-5.9-5.9,4.93,4.93,0,0,1-.58-2c-.2-2.39-.37-4.79-.46-7.19a30.76,30.76,0,0,1,.73-6.27,70.2,70.2,0,0,1,5.22-17.64c.91-2,1.91-3.89,3-5.76a113.42,113.42,0,0,1,8.9-13.06A63.81,63.81,0,0,1,273.7,205.5a4.78,4.78,0,0,1,1.85-1.09c0,1.48-.12,2.87-.08,4.25a11.14,11.14,0,0,0,.81,3.94C276.81,213.9,277.38,215.17,278,216.54Z"/><path class="cls-1" d="M142,156.3c0-.45-.1-.85-.1-1.25,0-1.17,0-2.34,0-3.51a90.3,90.3,0,0,0-.42-10c-.26-3.09-.6-6.17-.92-9.26a10,10,0,0,0-.24-1.55,45.37,45.37,0,0,1-.87-5.9c-.33-2.55-.69-5.1-1.2-7.62-.62-3.1-1.41-6.16-2.12-9.23a3,3,0,0,1,0-.55c.64.23.86.81,1.19,1.26a22.14,22.14,0,0,0,5.49,5.13,9.4,9.4,0,0,0,4.22,1.62,5.44,5.44,0,0,0,5.33-2.35,12.78,12.78,0,0,0,2.28-6,7.4,7.4,0,0,1,.41-2.28,8.45,8.45,0,0,1,.43.85,86.94,86.94,0,0,1,3.44,15,96.65,96.65,0,0,1,.26,21,24.14,24.14,0,0,1-2.69,9.39,9.19,9.19,0,0,1-4.14,4.15,16.53,16.53,0,0,1-4.45,1.58A11.23,11.23,0,0,1,142,156.3Z"/><path class="cls-1" d="M175.38,95.87c.52.58.85.9,1.14,1.25a23.37,23.37,0,0,0,3.74,3.7,8.5,8.5,0,0,0,4.31,1.84,7.09,7.09,0,0,0,7-3.5,16,16,0,0,0,2.58-9.69c0-.7-.07-1.39-.11-2.1.52,0,.55.44.66.74a46.17,46.17,0,0,1,2,8,140.45,140.45,0,0,1,2,15.32,64.72,64.72,0,0,1-.68,14.18c-.32,2.08-.75,4.15-1.23,6.2a19,19,0,0,1-4.74,8.3,13,13,0,0,1-2.92,2.22,5.45,5.45,0,0,1-6.13-.2,12.69,12.69,0,0,1-1.24-1,2.31,2.31,0,0,1-.9-2.15c.1-1.28.07-2.58.1-3.87a100.59,100.59,0,0,0-1.16-17.68,153.14,153.14,0,0,0-3.09-16c-.38-1.48-.79-2.94-1.17-4.42C175.5,96.73,175.48,96.46,175.38,95.87Z"/><path class="cls-4" d="M258.06,119.63c.43-.09.72-.17,1-.22a10.38,10.38,0,0,0,6.27-3.61c1.34-1.54,2.55-3.19,4-5a1.5,1.5,0,0,1,1.25.22,4.51,4.51,0,0,1,1.83,1.6,8,8,0,0,1,1.3,5.69,15.29,15.29,0,0,1-4.77,8.79c-4.44,4.2-9.82,5.82-15.78,5.6a33.48,33.48,0,0,1-16.26-5.09,23.26,23.26,0,0,1-6-5.34,16.43,16.43,0,0,1-3.34-7.08,9.63,9.63,0,0,1,7.54-11.63,13.34,13.34,0,0,1,3.84-.1,18.11,18.11,0,0,1,6,1.77,11.21,11.21,0,0,1,3.84,3,7.78,7.78,0,0,1,1.25,2.09,3.62,3.62,0,0,1-2.88,5,12,12,0,0,1-4.89-.17c-1.25-.3-2.48-.7-3.72-1s-1.87.43-1.54,1.54a4.64,4.64,0,0,0,1.9,2.46,8.15,8.15,0,0,0,6.53,1.28,9.72,9.72,0,0,0,3.24-1.3c.2-.13.41-.22.61-.33a24.05,24.05,0,0,0,2,2.24,19.87,19.87,0,0,0,2.37,1.57.83.83,0,0,1,.1.26c.34,3.43,3.14,5.24,6,5.81a8.79,8.79,0,0,0,8.06-2.51,29,29,0,0,0,2.68-3.24.66.66,0,0,0,.05-.88,9.41,9.41,0,0,0-.76.63c-.57.59-1.1,1.22-1.69,1.79a10.12,10.12,0,0,1-4.71,2.6,6.44,6.44,0,0,1-3.64-.14,3.38,3.38,0,0,1-2.36-4.4C257.51,120.89,257.79,120.31,258.06,119.63Z"/><path class="cls-4" d="M252.25,100.92a3.76,3.76,0,0,0,2.47-.65c1-.56,1.91-1.15,2.84-1.77A10.06,10.06,0,0,1,262.17,97,4.8,4.8,0,0,1,267,99.31a7.9,7.9,0,0,1,1.13,7.35,21.11,21.11,0,0,1-4.11,7.11,8.07,8.07,0,0,1-4.55,2.82,8.19,8.19,0,0,1-6.63-1.58,1.74,1.74,0,0,1-.84-2,2.66,2.66,0,0,0,0-1,4.49,4.49,0,0,1,.75-3.16c1-1.76,2-3.55,3-5.34.23-.39.41-.81.6-1.19-.39-.43-.71-.26-1-.06a14.23,14.23,0,0,0-3.71,3.71c-.37.52-.72,1.06-1.15,1.69-.75-.44-1.13-1.2-1.77-1.67s-1.37-1.1-2.12-1.56a14.47,14.47,0,0,0-2.2-1.08c-.81-.34-1.65-.61-2.49-.87s-1.55-.39-2.32-.59c0-.21,0-.35.07-.44a22.9,22.9,0,0,0,2.86-7.69c.63-2.67,1.35-5.34,2.17-8a17,17,0,0,1,5-7.71A9.16,9.16,0,0,1,256,75.76a5.87,5.87,0,0,1,5.66,3.73,8.1,8.1,0,0,1,.41,5.34,18.49,18.49,0,0,1-2.18,5.35c-.31.5-.64,1-.9,1.51a34.73,34.73,0,0,1-6.15,8.3A7.71,7.71,0,0,0,252.25,100.92Z"/><path class="cls-4" d="M210.18,78.51c1.12,0,2.17.07,3.2,0s1.94-.35,3-.56a66,66,0,0,1,13.68,25.27c-.33.29-.61.57-.92.83-4.08,3.43-5.43,7.75-4.24,12.92a18.33,18.33,0,0,0,3.2,6.78l1,1.38A51.91,51.91,0,0,1,213,148.74a4.34,4.34,0,0,1,.19-.89,52.11,52.11,0,0,0,4-15.77q.32-2.88.59-5.77a90.86,90.86,0,0,0-.46-18.06,121.43,121.43,0,0,0-6.9-28.81C210.36,79.17,210.3,78.89,210.18,78.51Z"/><path class="cls-2" d="M146.22,56.56c-1.5-.46-2.86-1-4.28-1.3a24.08,24.08,0,0,0-12,.47,50.14,50.14,0,0,0-7.84,3.06A24.3,24.3,0,0,0,115.91,63c-.59.56-1.21,1.08-1.79,1.61-.45-.24-.28-.54-.21-.78A32.31,32.31,0,0,1,120.23,52a86.7,86.7,0,0,1,18.66-16.42,26.75,26.75,0,0,1,7.26-3.45,10.8,10.8,0,0,1,4.33-.51,7.48,7.48,0,0,1,2,.47,3.6,3.6,0,0,1,2.41,3.18,14.73,14.73,0,0,1-.06,3.32,27,27,0,0,1-2.53,7.82A83.26,83.26,0,0,1,146.22,56.56Z"/><path class="cls-4" d="M192.16,88.94a18,18,0,0,1-.66,6.3,6.84,6.84,0,0,1-4.4,4.68,4.91,4.91,0,0,1-3.1.1,8.19,8.19,0,0,1-2.67-1.3,28.36,28.36,0,0,1-9.06-11c-1.35-3-2.78-5.94-4.23-8.88a2.65,2.65,0,0,1-.17-2.33,16.82,16.82,0,0,1,5-7.48,6.69,6.69,0,0,1,4.19-1.58,6.27,6.27,0,0,1,3,.78,16.75,16.75,0,0,1,4.44,3.41,39.46,39.46,0,0,1,5.26,6.8,8.06,8.06,0,0,1,.78,1.75A31,31,0,0,1,192.16,88.94Z"/><path class="cls-4" d="M127.39,86.73a7.7,7.7,0,0,1,3.22-4.2,25.29,25.29,0,0,1,3.06-1.69,6.46,6.46,0,0,1,5.29-.06,11.38,11.38,0,0,1,2,1,20.41,20.41,0,0,1,6.43,7.08c.73,1.34,1.38,2.72,2.14,4a27.42,27.42,0,0,1,3.2,10.13,13.16,13.16,0,0,1-.72,6.22,6.25,6.25,0,0,1-.52,1.11c-1.29,2.34-3,3.09-5.57,2.43a9.34,9.34,0,0,1-1.95-.78,17.5,17.5,0,0,1-5.76-4.52c-1.17-1.47-2.28-3-3.36-4.5a10.16,10.16,0,0,1-1-2c-.74-1.85-1.42-3.72-2.16-5.57a66.65,66.65,0,0,0-3.86-7.87Z"/><path class="cls-5" d="M136.55,195.84a38.61,38.61,0,0,0-2.84-14.22,10.41,10.41,0,0,1,1.69-2.26,3.41,3.41,0,0,1,.65.37,13.91,13.91,0,0,0,7.12,2.76,24.94,24.94,0,0,0,11.27-1,50.79,50.79,0,0,0,11.26-4.85,3,3,0,0,1,.42-.12,5.53,5.53,0,0,1,.41.89,43.93,43.93,0,0,1,1.41,8.83c.07,1,.1,2.1.15,3.25a8.07,8.07,0,0,1-.89.43,152.6,152.6,0,0,1-21.73,5c-2.08.33-4.17.61-6.26.89A8.43,8.43,0,0,1,136.55,195.84Z"/><path class="cls-4" d="M79.42,338.39c-.35.45-.65.88-1,1.26a34.26,34.26,0,0,1-4.92,4.48,14.21,14.21,0,0,1-9.73,2.75,12.69,12.69,0,0,1-6.51-2.39c-1.25-.84-2.36-1.9-3.53-2.87a2.86,2.86,0,0,1-.91-1.64,6.5,6.5,0,0,1,1-5.5,10.72,10.72,0,0,1,7-4.54,18.43,18.43,0,0,1,10.67,1A14.35,14.35,0,0,1,79.42,338.39Z"/><path class="cls-2" d="M84.31,68.42a2.61,2.61,0,0,1-.09-.6,25.74,25.74,0,0,1,2-8.86,2,2,0,0,1,1-1.13c.32-.15.62-.33,1-.45,5.88-2.26,11.66-2.22,17.31.76a8.78,8.78,0,0,1,3.35,2.66c-.54.87-1.12,1.74-1.63,2.65s-.92,1.75-1.36,2.6a3.89,3.89,0,0,1-2.1-.35,29.86,29.86,0,0,0-6.58-1A21.5,21.5,0,0,0,85.35,68.1a8,8,0,0,1-.78.38S84.46,68.46,84.31,68.42Z"/><path class="cls-4" d="M307.11,202.89c-.65,0-1,0-1.32-.08A20.3,20.3,0,0,0,294,204.6a51.57,51.57,0,0,0-11.46,7.72c-.36.31-.7.63-1.06.92a1,1,0,0,1-1.41-.08,3.22,3.22,0,0,1-.41-.56,14.42,14.42,0,0,1-1.85-8.79,1.7,1.7,0,0,1,1-1.49,33,33,0,0,1,16.54-4,19.12,19.12,0,0,1,10.8,3.67C306.43,202.22,306.65,202.47,307.11,202.89Z"/><path class="cls-2" d="M178,185.05l-7.48,2.5c-.3-1.61-.52-3.16-.88-4.68s-.84-3-1.36-4.53-1.12-2.93-1.72-4.47c.82-.69,1.64-1.33,2.42-2s1.47-1.34,2.15-2.06,1.38-1.56,2.07-2.36C175.31,170.23,178.41,181.59,178,185.05Z"/><path class="cls-2" d="M110.06,45.16c-1.69,1.62-3.32,3.05-4.78,4.63s-2.7,3.22-4.12,4.94c-4.63-.72-9.14.36-13.8,2.1a7.23,7.23,0,0,1,.38-.95A24.92,24.92,0,0,1,99.79,45.82a17.32,17.32,0,0,1,9.67-.86A4.57,4.57,0,0,1,110.06,45.16Z"/><path class="cls-2" d="M118.93,48.83l-8.69,9.92c-.53-.4-1-.85-1.62-1.21a16.82,16.82,0,0,0-2-1.09c-.63-.3-1.29-.53-2-.77s-1.32-.43-2-.66c0-.21,0-.42.1-.53a45.54,45.54,0,0,1,8-8.1c.19-.14.38-.27.56-.43a1.21,1.21,0,0,1,1.14-.24A25.2,25.2,0,0,1,118.93,48.83Z"/><path class="cls-2" d="M127,196.11c-.14-1.43-.21-2.89-.46-4.31s-.68-2.7-1-4.12c1.19-.72,2.47-1.42,3.66-2.24s2.2-1.68,3.31-2.55c1,2.67,1.4,9.36.74,12.87A19.79,19.79,0,0,1,127,196.11Z"/><path class="cls-1" d="M131.59,203.65c.76.09,1.35.12,1.92.23a4.93,4.93,0,0,1,3.39,7.3c-1.42,2.49-3.47,3.9-6.43,3.7a5.15,5.15,0,0,1-4.31-2.59c-.12-.2-.24-.41-.34-.62a5.22,5.22,0,0,1,3.53-7.67A19.64,19.64,0,0,1,131.59,203.65Zm4.77,5.5a3.47,3.47,0,0,0-1.3-2.91,4.31,4.31,0,0,0-4.4-.88,7.07,7.07,0,0,0-2.29,1.24,3.11,3.11,0,0,0-.81,4.21,4.74,4.74,0,0,0,6,2.24A4.9,4.9,0,0,0,136.36,209.15Z"/><path class="cls-1" d="M178.76,205.16a6,6,0,0,1-6.26-5.53c-.07-2.1,1.05-4.45,4.37-5.1a5.38,5.38,0,0,1,5.36,1.85c.23.27.43.55.67.81a4.92,4.92,0,0,1-3.1,7.85C179.4,205.11,179,205.13,178.76,205.16Zm-.37-9.33a4.54,4.54,0,0,0-2.51.71,2.89,2.89,0,0,0-1.45,2.63,4.32,4.32,0,0,0,2.41,3.8,4.23,4.23,0,0,0,4.48,0,3.68,3.68,0,0,0,1.54-3.65A4.79,4.79,0,0,0,178.39,195.83Z"/><path class="cls-1" d="M80.65,117.48a56.08,56.08,0,0,1,2.25-16.56,23.39,23.39,0,0,1,2.63-6.12,15.93,15.93,0,0,1,1.12-1.57,6.91,6.91,0,0,1,8.86-1.78,19,19,0,0,1,2.73,1.9,36.05,36.05,0,0,1,7.84,9,90.54,90.54,0,0,1,9.82,21.14,106,106,0,0,1,4.66,21.41,66.09,66.09,0,0,1,.28,12.81,30.11,30.11,0,0,1-1.43,7.22,16.75,16.75,0,0,1-2.9,5.39,9.91,9.91,0,0,1-5.49,3.58,10.36,10.36,0,0,1-4.7,0,14.15,14.15,0,0,1-5.66-2.71,28.69,28.69,0,0,1-5-5,44.24,44.24,0,0,1-6-10.07A113.79,113.79,0,0,1,82,132.07,79.78,79.78,0,0,1,80.65,117.48Zm2.61-12a5.65,5.65,0,0,0-.31,1c-.16,1-.29,2-.39,3a73.59,73.59,0,0,0,.75,19.27,99.67,99.67,0,0,0,9,27.47,41.2,41.2,0,0,0,5.35,8.23,22.73,22.73,0,0,0,4.64,4.28,11.46,11.46,0,0,0,3.65,1.69,6.79,6.79,0,0,0,7.2-2,13.3,13.3,0,0,0,1.71-2.43,19.24,19.24,0,0,0,2.16-6.47,51.74,51.74,0,0,0,.21-12.62,115.86,115.86,0,0,0-2.33-14.93,94,94,0,0,0-5.55-17.93,71.87,71.87,0,0,0-7.93-13.24,1.42,1.42,0,0,0-.9-.74,3.2,3.2,0,0,0,.09.62,58.91,58.91,0,0,1,2.85,11.77,36.94,36.94,0,0,1,.5,7.35,21.85,21.85,0,0,1-1.37,6.69,8.64,8.64,0,0,1-2.74,3.81,5.1,5.1,0,0,1-5.76.59,9.66,9.66,0,0,1-2.65-2,16.21,16.21,0,0,1-2.83-4c-.8-1.63-1.56-3.28-2.22-5A51.89,51.89,0,0,1,83.26,105.5Zm2-2.07a36.09,36.09,0,0,0,.75,7.35,43.81,43.81,0,0,0,3.78,11.83,19.26,19.26,0,0,0,2.42,3.86,9.33,9.33,0,0,0,2.65,2.28,3.37,3.37,0,0,0,3.8-.2,5.93,5.93,0,0,0,2-2.39,15.9,15.9,0,0,0,1.55-5.19,31.12,31.12,0,0,0,0-6,52.45,52.45,0,0,0-3.07-13.84c-.38-1-.78-2.08-1.21-3.11a11.41,11.41,0,0,0-2.2-3.57c-3-3.1-8.74-1.58-9.77,2.53A23.14,23.14,0,0,0,85.3,103.43Z"/><path class="cls-4" d="M136.36,209.15a4.9,4.9,0,0,1-2.83,3.9,4.74,4.74,0,0,1-6-2.24,3.11,3.11,0,0,1,.81-4.21,7.07,7.07,0,0,1,2.29-1.24,4.31,4.31,0,0,1,4.4.88A3.47,3.47,0,0,1,136.36,209.15Z"/><path class="cls-4" d="M178.39,195.83a4.79,4.79,0,0,1,4.47,3.46,3.68,3.68,0,0,1-1.54,3.65,4.23,4.23,0,0,1-4.48,0,4.32,4.32,0,0,1-2.41-3.8,2.89,2.89,0,0,1,1.45-2.63A4.54,4.54,0,0,1,178.39,195.83Z"/><path class="cls-1" d="M83.26,105.5a51.89,51.89,0,0,0,3.11,14.3c.66,1.69,1.42,3.34,2.22,5a16.21,16.21,0,0,0,2.83,4,9.66,9.66,0,0,0,2.65,2,5.1,5.1,0,0,0,5.76-.59,8.64,8.64,0,0,0,2.74-3.81,21.85,21.85,0,0,0,1.37-6.69,36.94,36.94,0,0,0-.5-7.35,58.91,58.91,0,0,0-2.85-11.77,3.2,3.2,0,0,1-.09-.62,1.42,1.42,0,0,1,.9.74,71.87,71.87,0,0,1,7.93,13.24,94,94,0,0,1,5.55,17.93,115.86,115.86,0,0,1,2.33,14.93,51.74,51.74,0,0,1-.21,12.62,19.24,19.24,0,0,1-2.16,6.47,13.3,13.3,0,0,1-1.71,2.43,6.79,6.79,0,0,1-7.2,2,11.46,11.46,0,0,1-3.65-1.69,22.73,22.73,0,0,1-4.64-4.28,41.2,41.2,0,0,1-5.35-8.23,99.67,99.67,0,0,1-9-27.47,73.59,73.59,0,0,1-.75-19.27c.1-1,.23-2,.39-3A5.65,5.65,0,0,1,83.26,105.5Z"/><path class="cls-4" d="M85.3,103.43A23.14,23.14,0,0,1,86,97c1-4.11,6.78-5.63,9.77-2.53A11.41,11.41,0,0,1,98,98.07c.43,1,.83,2.07,1.21,3.11A52.45,52.45,0,0,1,102.28,115a31.12,31.12,0,0,1,0,6,15.9,15.9,0,0,1-1.55,5.19,5.93,5.93,0,0,1-2,2.39,3.37,3.37,0,0,1-3.8.2,9.33,9.33,0,0,1-2.65-2.28,19.26,19.26,0,0,1-2.42-3.86,43.81,43.81,0,0,1-3.78-11.83A36.09,36.09,0,0,1,85.3,103.43Z"/><path class="cls-4" d="M106,87c4.82,5.65,5.68,10.28,11.21,8.47,5-1.63,3.33-10.76-1.49-16.41s-13-8.34-16-4C97.54,78.11,101.15,81.36,106,87Z"/><path class="cls-8" d="M96.72,255.45c-3.91,4.2-7.39,5.27-5.52,9.36,1.7,3.69,8.57,1.61,12.48-2.59s5.26-10.68,1.69-12.63C102.82,248.19,100.64,251.25,96.72,255.45Z"/><path class="cls-8" d="M99.58,51.13c2.16-1.19,3.72-1.15,3.51-3.07-.2-1.73-3.27-1.81-5.43-.63s-3.59,3.64-2.4,4.92C96.12,53.26,97.42,52.31,99.58,51.13Z"/><path class="cls-8" d="M216.72,225.14c6.29,1.6,9.24,4.48,12.27.4,2.75-3.69-3-9.36-9.33-11s-13.45.57-13.45,5.17C206.21,223,210.43,223.54,216.72,225.14Z"/><path class="cls-4" d="M146.32,75.67c4.46,5.22,5.26,9.51,10.37,7.84,4.62-1.52,3.08-10-1.38-15.19s-12-7.71-14.78-3.73C138.52,67.44,141.86,70.45,146.32,75.67Z"/><path class="cls-4" d="M181.52,63.47c4.14,4.84,4.87,8.81,9.61,7.26,4.29-1.4,2.86-9.23-1.28-14.07s-11.1-7.14-13.7-3.46C174.29,55.84,177.38,58.63,181.52,63.47Z"/></g></g></svg>