<?xml version="1.0" encoding="UTF-8"?>
<svg id="Layer_1" data-name="Layer 1" xmlns="http://www.w3.org/2000/svg" viewBox="0 0 336 436">
  <defs>
    <style>
      .cls-1 {
        fill: #ff6ea9;
      }

      .cls-1, .cls-2, .cls-3, .cls-4, .cls-5, .cls-6, .cls-7, .cls-8 {
        stroke-width: 0px;
      }

      .cls-2 {
        fill: #fff000;
      }

      .cls-3 {
        fill: #ffb0d4;
      }

      .cls-4 {
        fill: #a4ebf7;
      }

      .cls-5 {
        fill: #52d6ff;
      }

      .cls-6 {
        fill: #f4f0d4;
      }

      .cls-7 {
        fill: #c60670;
      }

      .cls-8 {
        fill: #fff;
      }
    </style>
  </defs>
  <path class="cls-1" d="M126.04,194.33c1.59.05,3.12.13,4.65.12,2.29,0,4.51-.4,6.62-1.32.79-.34,1.6-.63,2.33-1.07.67-.4,1.23-.96,1.93-1.52.85.87,1.68,1.72,2.48,2.54-3.9,5.46-4.75,11.46-3.81,17.77.47,3.13,1.8,5.96,3.75,8.49,1.31,1.7,2.78,3.26,4.38,4.7,2,1.8,3.99,3.61,6.06,5.49-3.05,7.97-5.04,16.22-6.7,24.57-1.65,8.29-2.99,16.62-3.27,25.05-.5.52-1.09.36-1.61.34-4.22-.21-8.45-.38-12.66-.71-3.97-.31-7.92-.77-11.88-1.24-7.06-.84-14.05-2.05-20.81-4.36-.58-.2-1.15-.43-1.72-.64-2.91-1.03-4.51-3.25-5.38-6.06-.74-2.39-.59-4.84-.29-7.29.7-5.58,2.39-10.86,4.55-16.02,3.01-7.2,6.8-13.98,10.91-20.59,4.24-6.82,8.8-13.42,13.74-19.75,1.85-2.37,3.7-4.73,5.55-7.09.37-.48.78-.93,1.19-1.41Z"/>
  <g>
    <path class="cls-1" d="M146.46,279.52c.24-2.94.42-5.63.68-8.3.59-5.91,1.39-11.8,2.53-17.63.66-3.36,1.42-6.71,2.18-10.05.15-.64.42-1.29.76-1.86,2.44-4.14,5.36-7.9,8.98-11.09,3.64-3.2,7.52-6.09,11.52-8.82,2.02-1.38,4.08-2.71,6.12-4.08,2.75-1.85,5.39-3.83,7.71-6.21,2.79-2.87,4.79-6.18,5.64-10.13.05-.24.13-.47.2-.7.02-.06.07-.1.12-.18,1.76,1.29,3.5,2.62,5.3,3.85,1.83,1.25,3.89,2.1,6,2.73,2.08.63,4.23,1.04,6.49,1.59-.3.33-.54.59-.78.85-1.24,1.32-2.15,2.84-2.53,4.61-.32,1.49-.65,3-.79,4.51-.39,4.23-.07,8.45.57,12.63,1.1,7.2,2.27,14.39,3.38,21.59.22,1.45.33,2.92.37,4.38.09,2.88.1,5.76.14,8.63.02,1.67-.27,3.3-.79,4.88-.89,2.74-2.72,4.39-5.62,4.89-6.34,1.11-12.72,1.85-19.13,2.39-5.06.43-10.14.72-15.21,1.08-7.21.51-14.44.62-21.67.53-.66,0-1.32-.06-2.18-.11Z"/>
    <path class="cls-2" d="M52.16,103.03c-.57,6.53-1.07,12.51-2.06,18.43-.16.96-.33,1.93-.54,2.88-.12.53-.25,1.09-.5,1.56-.15.27-.55.57-.83.57-.29,0-.68-.31-.83-.58-.22-.42-.34-.92-.38-1.4-.13-1.83-.27-3.66-.28-5.49-.02-4.71-.06-9.42.07-14.13.1-3.6.41-7.2.68-10.8.05-.65.22-1.35.54-1.91.83-1.46,2.69-1.53,3.63-.14.36.54.59,1.22.67,1.87.14,1.09.18,2.2.14,3.29-.07,2.14-.22,4.28-.31,5.85Z"/>
    <path class="cls-2" d="M1.31,114.27c.08-1.29.74-2.09,1.73-2.16.59-.04,1.22.06,1.79.24.57.19,1.12.51,1.61.86,1.76,1.22,3.54,2.41,5.23,3.73,3.66,2.87,7.27,5.8,10.9,8.71,1.48,1.19,2.96,2.37,4.4,3.61.59.51,1.1,1.14,1.57,1.77.31.4.4.91.09,1.38-.35.54-.89.65-1.46.52-.59-.14-1.19-.32-1.73-.6-1.36-.7-2.73-1.39-4.01-2.22-4-2.61-8-5.22-11.91-7.95-2.2-1.54-4.25-3.31-6.33-5.01-.52-.42-1-.93-1.35-1.48-.31-.49-.43-1.11-.53-1.41Z"/>
    <path class="cls-2" d="M38.62,128.89c-.05.49.04,1.02-.47,1.32-.37.21-.9-.03-1.31-.74-.48-.84-.91-1.73-1.26-2.64-1.71-4.39-3.13-8.89-4.47-13.4-1.45-4.87-2.92-9.73-4.03-14.69-.13-.6-.26-1.2-.38-1.8-.05-.24-.08-.48-.09-.73-.02-1.19.49-2.08,1.37-2.37.81-.27,1.78.2,2.41,1.26.31.52.55,1.09.77,1.66.86,2.23,1.55,4.52,2,6.86,1.18,6.13,2.7,12.18,4.28,18.22.53,2.01.97,4.05,1.11,6.13.02.31.04.61.06.9Z"/>
    <path class="cls-1" d="M227.77,365.5c-.42.54-1.05.66-1.6.89-6.41,2.68-13.04,4.6-19.84,5.95-4.02.8-8.08,1.4-12.17,1.76-1.77.16-3.55.3-5.32.28-4.96-.08-9.92-.17-14.88-.41-4.04-.2-8.04-.77-11.98-1.74-2.78-.69-2.88-.72-3.39-3.52-.42-2.29-.72-4.6-1.09-6.89-.63-3.87-1.3-7.73-1.9-11.6-.67-4.36-1.17-8.74-1.34-13.15-.21-5.63-.39-11.26-.6-16.89-.06-1.59-.16-3.18-.28-4.77-.03-.47-.19-.94-.3-1.43-.61.2-.59.67-.65,1.05-.17,1.15-.33,2.3-.44,3.46-.71,7.32-1.09,14.66-.85,22.02.18,5.33.67,10.63,1.41,15.91.07.48.08.97.11,1.42-.92.85-2.95,2.06-4.39,2.69-6.42,2.8-13.18,4.06-20.14,4.52-7.26.48-14.44-.19-21.6-1.27-3.21-.49-6.42-1-9.55-1.85-1.23-.34-2.44-.81-3.63-1.27-1.26-.49-1.92-1.48-2.07-2.8-.12-1.1-.23-2.19-.3-3.29-.46-7.35-.38-14.69,0-22.04.13-2.57.26-5.14.39-7.71.34-6.55.92-13.07,1.94-19.56.81-5.14,1.61-10.28,2.42-15.42.02-.11.1-.22.18-.42.26.03.56.01.83.09,5.91,1.61,11.88,2.94,17.88,4.16,5.64,1.15,11.31,2.14,17.01,2.94,6.73.95,13.51,1.52,20.3,1.95,7.29.46,14.57.43,21.86.35,5.82-.06,11.63-.28,17.43-.79,2.81-.24,5.62-.37,8.43-.54,4.4-.27,8.79-.63,13.13-1.8.66.41,1.32.82,2.07,1.29-.11.23-.16.48-.31.63-2.58,2.57-3.8,5.83-4.54,9.28-1.13,5.31.18,10.19,2.88,14.78.66,1.13,1.65,1.97,2.71,2.71.61.43,1.15.85,1.4,1.62.27.84.96,1.42,1.63,1.95.91.72,1.83,1.45,2.81,2.07.91.57,1.39,1.32,1.56,2.36.35,2.24.78,4.46,1.09,6.71.79,5.7,1.54,11.41,2.29,17.11.38,2.91.71,5.83,1.39,8.7.04.17,0,.36,0,.53Z"/>
    <path class="cls-2" d="M262.98,111.71c-.14,3.86-.59,7.69-.99,11.53-.64,6.1-1.6,12.15-3.17,18.08-1.54,5.86-2.88,11.8-5.07,17.45-2.78,7.19-5.58,14.39-9.42,21.11-1.85,3.25-3.87,6.41-6.19,9.33-2.39,3.02-5.01,5.86-8.17,8.14-3.82,2.77-8.07,4.34-12.76,4.68-1.83.13-3.67.22-5.5.14-6.77-.29-12.41-3.04-16.96-8.02-.74-.81-1.35-1.74-1.97-2.65-1.73-2.54-3.18-5.22-4.15-8.16-2.04-6.18-2.83-12.54-2.69-19.01.06-2.99.42-5.99.83-8.96.61-4.43,1.27-8.85,2.1-13.24.84-4.45,1.87-8.87,2.92-13.27,1.48-6.19,3.32-12.29,5.41-18.31,1.6-4.63,3.36-9.2,5.48-13.62,2.55-5.3,5.32-10.47,8.64-15.35,1.93-2.84,3.98-5.58,6.03-8.33,1.66-2.22,3.59-4.18,5.7-5.96,1.89-1.6,4.07-2.72,6.33-3.67,1.72-.72,3.58-.88,5.41-.87,5.97.02,11.52,1.59,16.4,5.08,3.03,2.17,5.34,5.01,6.85,8.47,1.59,3.67,2.78,7.44,3.34,11.42.83,5.89,1.35,11.8,1.61,17.74.09,2.08,0,4.16,0,6.25ZM213,150.98c-.08,3.83.15,7.69.46,11.53.23,2.87.75,5.7,1.79,8.42.95,2.49,2.34,4.72,4.19,6.63,2.15,2.21,4.8,3.39,7.91,3.25,2.32-.1,4.42-.93,6.28-2.32,1.33-1,2.48-2.18,3.54-3.45,2.78-3.33,4.75-7.13,6.27-11.16,2.77-7.34,5.01-14.84,6.53-22.54,1.56-7.87,2.9-15.77,3.81-23.75.44-3.84.58-7.7.29-11.55-.18-2.38-.46-4.75-.78-7.11-.35-2.59-1.3-4.99-2.76-7.14-1.57-2.3-3.65-3.96-6.54-4.3-1.61-.19-3.17.06-4.66.71-1.76.77-3.34,1.8-4.75,3.09-2.14,1.95-3.95,4.18-5.51,6.62-2.38,3.72-4.48,7.6-6.17,11.68-3.66,8.84-6.63,17.9-8.32,27.35-.83,4.64-1.4,9.32-1.58,14.07Z"/>
    <path class="cls-2" d="M182.04,176.83c.12.24.21.34.22.46.3,2.56.89,5.07,1.57,7.55.21.79.11,1.44-.3,2.09-.95,1.51-1.99,2.94-3.36,4.1-2.2,1.86-4.71,3.1-7.55,3.56-4.97.79-9.9.67-14.7-.98-3.08-1.06-5.99-2.49-8.71-4.3-2.8-1.87-4.92-4.4-6.75-7.18-4.12-6.28-6.27-13.22-7.14-20.64-.98-8.32-.87-16.65.16-24.93,1.02-8.27,2.32-16.5,4.37-24.59,1.49-5.88,3.28-11.68,5.57-17.29,1.9-4.64,3.94-9.24,6.6-13.52,1.84-2.96,3.8-5.85,5.78-8.73,1.35-1.97,2.74-3.92,4.25-5.77,1.66-2.04,3.5-3.93,5.2-5.93,1.16-1.36,2.51-2.51,3.84-3.67,2.44-2.13,5.32-3.48,8.36-4.5,5.82-1.95,11.74-2.32,17.74-.86,3.89.94,7.27,2.85,10.33,5.39.8.67,1.57,1.37,2.31,2.1.44.42.84.89,1.2,1.38,1.28,1.74,2.28,3.63,3.07,5.63.58,1.48.6,2.98.09,4.49-.51,1.51-1.15,2.96-1.93,4.36-1.29,2.3-2.71,4.5-4.21,6.67-1.39,2.01-2.58,4.16-3.85,6.25-.47.78-.94,1.57-1.5,2.52-.23-.54-.42-.9-.55-1.28-.52-1.52-1.31-2.9-2.26-4.19-1.24-1.69-2.85-2.83-4.82-3.52-3.66-1.29-7.24-.95-10.73.61-2.99,1.34-5.68,3.17-7.88,5.62-1.43,1.59-2.77,3.27-4,5.03-4.76,6.8-8,14.3-9.97,22.35-1.68,6.85-2.94,13.78-3.43,20.82-.28,4.1-.45,8.2-.09,12.3.5,5.66,1.87,11.11,4.2,16.29,1.26,2.81,2.95,5.37,5.13,7.57,3.1,3.14,6.84,4.91,11.31,4.92.79,0,1.57-.12,2.44-.19Z"/>
    <path class="cls-2" d="M148.39,82.27c-.23-.45-.33-.66-.43-.86-.39-.76-.74-1.54-1.19-2.27-1.53-2.47-3.81-3.73-6.67-4-2.93-.27-5.73.24-8.41,1.44-3.06,1.37-5.72,3.3-8.05,5.7-2.53,2.61-4.67,5.51-6.49,8.65-3.55,6.15-5.94,12.74-7.54,19.65-1.49,6.42-2.08,12.92-2.14,19.5-.05,5.16.25,10.29,1.14,15.37.92,5.25,2.88,10.12,5.75,14.61,1.7,2.66,3.87,4.89,6.49,6.68,3.34,2.29,7,3.13,11,2.54.18-.03.36-.04.65-.07.11.25.29.5.35.77,1.04,5.39,2.88,10.5,5.44,15.35.05.1.03.23.04.35-.09.08-.17.19-.28.22-2.02.5-4.03,1.06-6.07,1.47-3.48.71-6.95.51-10.38-.39-2.8-.74-5.47-1.79-7.94-3.32-.26-.16-.54-.3-.78-.48-2.86-2.12-5.5-4.47-7.74-7.27-2.12-2.65-3.81-5.53-5.44-8.49-2.07-3.74-3.25-7.77-4.37-11.85-1.34-4.85-2.26-9.78-2.91-14.76-1.18-8.97-1.38-17.95-.25-26.94.76-6.08,1.83-12.12,3.46-18.03,1.52-5.48,3.11-10.97,5.42-16.18,1.56-3.52,3.41-6.91,5.3-10.27,1.13-2.02,2.51-3.92,3.91-5.77,2.21-2.94,4.75-5.59,7.47-8.08,1.99-1.82,4.03-3.57,6.26-5.11,3.39-2.33,6.94-4.38,10.8-5.84,3.59-1.36,7.29-2.25,11.14-1.67,4.58.69,8.98,1.98,12.62,5.06,3.12,2.64,4.71,6.04,4.8,10.13.03,1.22-.41,2.28-1,3.29-1.2,2.07-2.47,4.08-3.94,5.98-3.12,4.02-5.92,8.25-8.62,12.57-.42.67-.8,1.37-1.37,2.33Z"/>
    <path class="cls-5" d="M225.06,376.98c8.9,5.09,14.26,13.76,15.15,24.41-.33.17-.69.39-1.07.55-2.36,1.01-4.74,1.98-7.09,3.03-3.81,1.71-7.84,2.78-11.81,4-6.33,1.96-12.8,3.29-19.39,3.95-4.2.42-8.42.67-12.63.95-6,.4-12,.41-17.99,0-7.89-.53-15.72-1.53-23.4-3.49-4.09-1.04-8.14-2.25-11.99-4.02-1.5-.69-2.9-1.57-4.34-2.37-1.67-.93-2.36-2.32-2.25-4.25.14-2.41.59-4.74,1.49-6.97,3.37-8.35,9.37-13.9,17.91-16.7,1.04-.34,2.14-.51,3.23-.66,3.04-.41,6.1-.4,9.16-.23.35.02.71.17,1.04.31,4.12,1.81,8.48,2.78,12.87,3.65,9.61,1.89,19.32,2.37,29.07,1.86,7.05-.37,14-1.43,20.73-3.66.41-.13.82-.23,1.31-.37Z"/>
    <path class="cls-8" d="M332.67,35.33c-.18.5-.23.73-.34.93-5.41,10.16-10.36,20.56-15.16,31.01-7.21,15.68-14.33,31.41-21.43,47.14-1.09,2.42-2.77,4.31-4.64,6.08-.48.45-1.09.81-1.7,1.07-3.12,1.29-6.28,1.29-9.18-.47-5.76-3.49-10.41-8.12-13.68-14.06-.41-.75-.73-1.52-.78-2.42-.31-5.26-.96-10.48-1.9-15.66-.42-2.29-.75-4.59-1.12-6.89-.05-.3-.11-.6-.16-.9-.91-5.28-3.73-9.51-7.34-13.29-.34-.35-.69-.69-1.02-1.06-.75-.86-.62-2.04.34-2.65.51-.33,1.09-.55,1.67-.76,5-1.84,9.99-3.68,15-5.49,17.43-6.31,34.92-12.47,52.24-19.09,2.69-1.03,5.37-2.07,8.05-3.11.28-.11.57-.19,1.16-.38Z"/>
    <path class="cls-5" d="M143.66,374.17c-2.75,1.48-5.42,2.96-7.78,4.95-2.35,1.99-4.44,4.22-6.15,6.79-1.71,2.56-3.12,5.26-4.04,8.21-.92,2.95-1.22,5.99-1.1,9.11-.3.1-.52.22-.74.23-2.26.12-4.53.21-6.79.33-3.31.17-6.61,0-9.92-.22-4.46-.3-8.91-.76-13.35-1.31-7.31-.9-14.52-2.27-21.52-4.6-4.38-1.46-8.48-3.5-12.43-5.88-1.59-.96-2.95-2.18-4.19-3.55-.84-.92-1.23-1.97-1.08-3.19.14-1.09.24-2.2.55-3.25,2.73-9.3,8.83-14.86,18.44-16.5,1.52-.26,3.04-.34,4.58-.28,2.69.1,5.39.21,8.08.35,1.67.09,3.31.05,4.74-1.02,4.61,2.88,9.79,3.96,14.92,5.11,4.36.98,8.74,1.88,13.11,2.79,6.99,1.45,14.07,1.91,21.2,1.79,1.14-.02,2.29-.09,3.47.15Z"/>
    <path class="cls-6" d="M254.18,284.21c-6.78,4.32-13.84,7.44-21.68,8.58-4.99.73-10.01.76-15.03.33-.41-.04-.82-.17-1.3-.27.01-.48.01-.9.04-1.32.69-9.87.3-19.7-1.13-29.5-1.02-6.97-2.48-13.85-3.79-20.77-.95-5.05-1.92-10.1-2.53-15.21-.32-2.68-.5-5.37-.33-8.07.09-1.54.36-3.04.88-4.49.6-1.64,1.53-3.03,2.92-4.15,1.06-.85,2.07-.92,3.2-.23,2.1,1.28,4.16,2.61,5.81,4.46,1.67,1.87,3.33,3.76,4.89,5.72,1.83,2.3,3.43,4.78,4.82,7.37,4.6,8.58,9.18,17.17,13.19,26.05,3.1,6.88,5.51,14.01,7.55,21.27.83,2.94,1.51,5.93,2.25,8.9.1.41.15.83.23,1.33Z"/>
    <path class="cls-8" d="M266.28,109.13c.25.4.51.79.74,1.19,2.85,5.04,6.76,9.15,11.27,12.7,2.38,1.87,5.09,3.14,8.08,3.8,2.93.65,5.72.5,8.28-1.24.14-.1.33-.13.55-.2.6.89.84,1.9,1.13,2.89.66,2.24,1.01,4.54,1.22,6.86.18,1.95.32,3.91.38,5.87.17,5.68-.61,11.24-2.28,16.67-1.42,4.64-4,8.66-6.91,12.47-3.14,4.11-6.78,7.74-10.98,10.78-3.39,2.45-7.02,4.49-10.9,6.05-5.01,2.01-10.16,3.59-15.43,4.76-2.69.6-5.43.83-8.35.97.12-.38.15-.66.29-.88,3.23-5.22,5.85-10.74,8.29-16.37,2.03-4.68,3.5-9.54,5.23-14.31,2.85-7.86,4.52-16.01,6.16-24.18.56-2.76,1.16-5.51,1.45-8.32.21-2.07.47-4.14.63-6.22.32-4.09.79-8.17.78-12.29,0-.3.02-.6.02-.91.12-.03.23-.07.35-.1Z"/>
    <path class="cls-8" d="M76.24,3.4c.52.36.77.52,1.01.69,8.71,6.35,17.38,12.74,26.13,19.04,6.51,4.69,13.09,9.27,19.64,13.9,1.8,1.27,3.57,2.58,5.35,3.88.35.25.7.5,1.01.79.92.82.91,1.88-.05,2.65-.33.26-.72.45-1.11.65-3.35,1.69-6.41,3.8-9.34,6.14-2.78,2.23-5.28,4.75-7.71,7.34-2.98,3.18-5.46,6.74-7.77,10.43-2.38,3.8-4.36,7.78-6.05,11.93-.2.49-.48,1.02-.87,1.36-2.54,2.18-5.34,3.89-8.71,4.46-1.26.22-2.16-.29-2.4-1.56-.26-1.38-.44-2.78-.59-4.18-.62-5.97-1.2-11.94-1.82-17.9-.62-5.97-1.26-11.93-1.92-17.89-.71-6.45-1.43-12.9-2.19-19.34-.83-7.05-1.71-14.1-2.56-21.15-.04-.3-.03-.6-.06-1.24Z"/>
    <path class="cls-8" d="M34,148.58c-.73,2.89-.71,5.69-.22,8.49.48,2.73,1.34,5.33,2.68,7.86-.31.26-.57.5-.85.71-.54.4-1.11.77-1.65,1.17-.34.25-.74.48-.64,1.01.05.27.49.27,1.13.01.11-.05.23-.08.34-.14,4.06-1.99,8.45-2.84,12.86-3.58.78-.13,1.58-.22,2.36-.35.42-.07.84-.16,1.25-.29.82-.27,1.27-.79,1.25-1.39-.03-.67-.56-1.1-1.57-1.23-.3-.04-.6-.05-.94-.07-.9-1.85-1.33-3.8-1.7-5.78-.42-2.3-.64-4.61-.49-6.94.13-2.07.86-3.94,1.95-5.67.66-1.06,1.61-1.82,2.63-2.52,1.45-.99,4.02-1.02,5.66.87.95,1.1,1.45,2.4,1.66,3.82.11.73.18,1.46.22,2.19.15,2.99.27,5.99.41,9.07-.36.2-.73.39-1.08.62-2.2,1.47-3.61,3.43-3.84,6.16-.17,2.04.06,4.03.45,6.02.12.59.21,1.19.32,1.84-.45.24-.82.43-1.18.62-.97.51-1.98.98-2.92,1.54-1.79,1.08-3,2.68-3.9,4.53-.44.91-.6,1.87-.42,2.86.06.31.3.59.57,1.09.21-.4.37-.59.4-.8.42-2.75,2.06-4.65,4.3-6.1.66-.43,1.41-.74,2.12-1.1.49-.25.99-.49,1.47-.75.93-.5,1.24-1.25,1.04-2.3-.24-1.26-.39-2.54-.54-3.81-.15-1.23.02-2.45.29-3.65.36-1.55,1.2-2.82,2.48-3.74,1.4-1.01,2.9-1.23,4.5-.45,2.02.98,3.39,2.59,4.38,4.55.75,1.49,1.17,3.08,1.47,4.72.57,3.09.83,6.18.45,9.32-.52,4.36-2.32,8.11-5.35,11.24-4.59,4.75-10.12,7.85-16.62,9.19-3.29.68-6.45.34-9.53-.95-1.81-.76-3.58-1.61-5.05-2.95-.54-.49-1.11-.98-1.56-1.55-1.49-1.87-2.77-3.88-3.83-6.04-1.36-2.75-1.8-5.71-2.02-8.71-.06-.79.04-1.59.16-2.38.14-.95.02-1.82-.4-2.68-.16-.33-.28-.68-.43-1.01-2.31-5.02-2.93-10.33-2.66-15.78.09-1.78.45-3.52,1.18-5.17.22-.5.45-1.02.78-1.45,1.63-2.15,3.47-2.94,6.45-1.57.71.33,1.32.86,2.18,1.43Z"/>
    <path class="cls-6" d="M118.79,196.26c.18.32.4.57.46.84.33,1.56.17,3.01-.9,4.3-3.86,4.67-7.58,9.46-11.02,14.46-.45.65-.85,1.31-1.71,1.57-.49.15-.88.64-1.33.96-1.79,1.29-3.53,2.64-5.38,3.83-5.26,3.37-11.04,5.23-17.27,5.61-4.21.25-8.3-.53-12.25-1.95-9.81-3.5-18.05-9.22-24.46-17.48-1.16-1.5-2.27-3.04-3.36-4.59-.77-1.1-1.41-2.27-1.83-3.51.26-.37.49-.14.67-.05,3.32,1.62,6.83,1.86,10.4,1.3,8.15-1.28,14.55-5.48,19.56-11.93.34-.43.66-.88,1-1.31.03-.04.1-.06.26-.15.31.42.64.84.93,1.28,2.81,4.21,6.41,7.53,10.88,9.93,5.15,2.76,10.63,3.96,16.46,3.57,5.73-.38,11-2.25,15.98-5,.96-.53,1.91-1.09,2.92-1.67Z"/>
    <path class="cls-8" d="M219.08,298.36c.56.05,1.11.08,1.66.13,10.06.97,19.62-.91,28.8-5.02,1.06-.48,2.11-.99,3.14-1.52.53-.27,1.02-.27,1.59-.1,3.71,1.13,6.62,3.38,8.94,6.43.29.38.49.85.7,1.29,1.33,2.74,2.01,5.64,2.27,8.66.19,2.27.29,4.53-.2,6.77-.83,3.74-3.03,6.21-6.76,7.22-.45.12-.94.11-1.52.17,0-.6,0-1.08,0-1.56.08-2.84-.19-5.63-1.14-8.32-.18-.51-.48-.97-.77-1.43-.06-.1-.35-.14-.49-.09-.13.05-.3.25-.3.38.02.55.07,1.09.16,1.64.21,1.39.51,2.77.66,4.17.13,1.15.16,2.32.13,3.48-.07,2.53-1.2,4.61-3.01,6.29-2.31,2.15-4.99,2.37-7.87,1.33-.44-.16-.69-.46-.88-.87-.43-.91-.58-1.85-.55-2.85.09-2.79-.44-5.49-1.32-8.12-.19-.57-.47-1.13-.78-1.65-.27-.46-.86-.71-1.05-.49-.22.25-.4.63-.4.95,0,.54.14,1.09.25,1.63.24,1.2.54,2.39.72,3.6.36,2.44.35,4.88-.39,7.28-.12.41-.28.81-.46,1.2-1.43,3.05-4.37,4.58-7.69,4.02-4.27-.72-6.99-3.46-7.66-7.77-.24-1.57-.39-3.16-.56-4.74-.12-1.04-.36-2.05-.87-2.98-.42-.76-.97-1.42-1.75-1.83-.49-.26-1-.45-1.63-.04.11.2.19.43.34.58.88.86,1.27,1.94,1.37,3.13.16,1.82.28,3.65.41,5.4-.28.4-.59.33-.88.26-3.87-.98-6.71-3.16-8.2-6.95-.63-1.6-1.11-3.24-1.33-4.95-.49-3.89.81-7.25,3.24-10.2,1.24-1.51,2.62-2.91,4.08-4.51Z"/>
    <path class="cls-5" d="M136.01,116.25c-.1.8-.13,1.34-.25,1.86-.96,4.05-1.7,8.15-2.32,12.27-1.17,7.82-1.95,15.68-1.87,23.6.03,3.06.23,6.12.35,9.18.01.3-.01.6-.03,1-1.26.56-2.6.54-3.93.51-1.43-.04-2.77-.45-4.01-1.17-2.75-1.6-4.97-3.77-6.75-6.38-2.6-3.79-4.27-7.99-5.19-12.47-.97-4.69-1.51-9.42-1.55-14.22-.04-3.86-.06-7.72.41-11.56,1.05-8.56,3.13-16.84,6.93-24.63,1.86-3.81,4.11-7.38,6.95-10.55.37-.41.75-.81,1.17-1.17.57-.48,1.2-.21,1.36.54.13.63-.05,1.2-.26,1.79-.54,1.5-1.08,2.99-1.54,4.52-1.79,5.94-2.2,12.03-1.74,18.18.17,2.21.77,4.34,1.81,6.32.66,1.26,1.47,2.4,2.63,3.26,2.11,1.57,4.31,1.6,6.46.1.38-.27.76-.54,1.37-.98Z"/>
    <path class="cls-5" d="M188.82,127.19c-.13.59-.24,1.17-.39,1.76-.71,2.91-1.46,5.82-2.13,8.74-1.57,6.93-2.91,13.9-3.83,20.94-.51,3.9-.79,7.79-.7,11.72,0,.42-.02.85-.03,1.33-2.12,1.16-4.27,1.35-6.53.51-1.4-.52-2.63-1.3-3.73-2.29-2.59-2.33-4.57-5.09-5.93-8.3-2.63-6.18-3.76-12.65-3.8-19.33-.03-4.41.12-8.82.7-13.2,1.05-7.9,2.46-15.72,5.4-23.19,1.39-3.54,3.08-6.93,5.08-10.17.22-.36.45-.73.71-1.07.27-.36.66-.53,1.11-.56.9-.06,1.52.61,1.38,1.5-.28,1.75-.61,3.49-.86,5.25-.66,4.76-.63,9.52.08,14.28.36,2.43.97,4.8,1.95,7.06.41.95.91,1.87,1.45,2.75.58.94,1.38,1.71,2.29,2.35,2.17,1.52,4.39,1.73,6.69.29.25-.16.53-.29.8-.42.04-.02.11.02.29.05Z"/>
    <path class="cls-6" d="M92.73,284.45c.47-3.68.82-7.2,1.97-10.7.32.11.6.18.87.29,5,2.07,10.18,3.47,15.5,4.45,6.03,1.12,12.09,1.93,18.19,2.53,3.78.37,7.57.61,11.36.81,8.63.45,17.27.29,25.9-.03,3.43-.13,6.85-.39,10.27-.61,3.12-.2,6.24-.36,9.35-.64,5.79-.52,11.61-.76,17.36-1.69,1.75-.28,3.49-.64,5.24-.95,1.21-.21,1.5-.05,1.99,1.05.12.28.24.57.31.86.57,2.4.87,4.82.75,7.28,0,.18-.09.35-.17.66-.86.11-1.75.22-2.65.33-3.83.46-7.66.95-11.49,1.37-4.56.5-9.13,1.02-13.7,1.37-5.19.4-10.39.73-15.59.88-8.14.23-16.3.27-24.44-.1-5.45-.25-10.89-.53-16.32-1.01-5.06-.44-10.1-1.14-15.15-1.74-3.83-.45-7.65-1.06-11.41-1.92-2.32-.53-4.6-1.27-6.88-1.94-.4-.12-.77-.35-1.25-.57Z"/>
    <path class="cls-8" d="M240.3,405.73c-.27,1.37-.39,2.34-.67,3.26-1.45,4.72-4.1,8.55-8.23,11.38-3.84,2.63-8.07,4.07-12.65,4.57-4.81.53-9.62.99-14.43,1.49-3.17.32-6.33.69-9.5.96-9.04.79-18.09,1.27-27.16.52-8-.66-15.7-2.51-23.04-5.8-2.47-1.1-4.8-2.44-6.98-4.04-2.45-1.8-4.47-3.99-6.19-6.48-1.3-1.9-2.1-4.01-2.59-6.24-.04-.17,0-.35.01-.62.18.03.38,0,.48.07,3.55,2.83,7.64,4.59,11.85,6.15,4.72,1.75,9.59,2.92,14.54,3.82,7.07,1.27,14.19,2.03,21.36,2.25,4.28.13,8.57,0,12.86-.13,3.67-.11,7.34-.31,11-.63,7.15-.63,14.21-1.81,21.13-3.74,1.3-.36,2.6-.71,3.9-1.04,4.3-1.09,8.4-2.67,12.3-4.76.53-.28,1.08-.53,2.01-.98Z"/>
    <path class="cls-1" d="M163.72,49.45c.22-.65.42-1.29.64-1.93.97-2.87,2.93-4.78,5.76-5.74,2.74-.93,5.53-.91,8.33-.23.53.13,1.05.34,1.59.46.27.06.56-.02,1-.05-.9-1.9-2.72-1.84-4.22-2.39-.37-.93-.12-1.81.2-2.67.37-1.01,1.02-1.8,1.96-2.35,1.29-.76,2.69-1.12,4.18-1.26,3.76-.36,7.45.14,11.12.91,6.31,1.33,12.06,3.99,17.46,7.45,4.39,2.81,8.49,6.02,12.44,9.41,1.06.92,1.99,1.99,3,2.97.71.69,1,1.54.92,2.5-.05.67-.12,1.34-.31,1.98-.49,1.68-1.45,3.09-2.66,4.34-1.42,1.48-3.15,2.06-5.17,1.77-.48-.07-.96-.17-1.3-.24-1.16-1.44-2.14-2.86-3.32-4.08-4.46-4.61-9.67-8.06-15.91-9.78-5.37-1.48-10.77-1.34-16.18-.15-4.3.94-8.23,2.74-11.95,5.04-.67.42-1.29.94-1.93,1.41-.44.32-.88.64-1.36,1-.42-.41-.46-.9-.53-1.34-.15-.99-.5-1.88-1.04-2.72-.89-1.39-1.76-2.79-2.72-4.33Z"/>
    <path class="cls-8" d="M93.25,166.08c-.56-.47-.95-.75-1.3-1.08-4.3-4.15-7.98-8.76-10.93-13.99-3.1-5.5-5.12-11.38-6.36-17.53-1.22-6.04-1.52-12.16-.71-18.28.78-5.9,2.34-11.64,4.41-17.22,1.22-3.28,2.73-6.42,4.62-9.37.13-.2.28-.4.48-.69.33.12.66.23.98.37.87.39,1.79.41,2.71.33,2.53-.21,4.96-.74,7.12-2.18.2-.13.43-.21.82-.39-.08.41-.1.69-.18.94-1.36,4.13-2.42,8.34-3.56,12.53-2.85,10.43-3.81,21.06-3.57,31.83.12,5.45.49,10.9,1.43,16.27,1.04,5.9,1.87,11.86,3.89,17.55.07.21.07.44.15.9Z"/>
    <path class="cls-8" d="M191.38,82.13c1.53.13,3.04.4,4.42,1.08.81.4,1.61.92,2.23,1.57,1.72,1.79,2.96,3.89,3.57,6.33.17.69.15,1.3-.17,1.95-1.21,2.47-2.38,4.97-3.56,7.45-.24.5-.49.99-.68,1.51-1.4,3.79-2.86,7.56-4.16,11.38-1.1,3.24-2.07,6.53-3.01,9.83-.66,2.29-2.34,3.34-4.43,3.92-.89.25-1.81.06-2.67-.4-1.45-.77-2.57-1.86-3.3-3.34-.82-1.66-1.42-3.39-1.83-5.19-.93-4.09-1.17-8.25-.99-12.42.12-2.75.45-5.49.79-8.23.42-3.36,1.54-6.55,2.6-9.74.46-1.37,1.36-2.38,2.64-3.17,2.63-1.61,5.43-2.49,8.53-2.53Z"/>
    <path class="cls-8" d="M125.01,406.73c.38,1.29.67,2.41,1.05,3.5.37,1.08.84,2.13,1.3,3.27-.3.11-.51.22-.74.27-8.04,1.64-16.16,1.84-24.32,1.45-7.62-.37-15.08-1.6-22.4-3.76-5.88-1.74-11.26-4.44-16.11-8.2-2.39-1.86-4.41-4.06-6.11-6.56-1.37-2.01-2.15-4.25-2.65-6.6-.03-.16.04-.34.07-.56.19.11.39.16.5.28,1.67,1.75,3.7,3,5.77,4.21,6.11,3.59,12.65,6.12,19.5,7.9,4.98,1.29,10.03,2.28,15.12,3.02,4.18.6,8.37,1.18,12.56,1.63,4.33.46,8.68.56,13.03.49,1.09-.02,2.18-.21,3.43-.33Z"/>
    <path class="cls-1" d="M202.88,26.57q-.66-.99-3.2-1.78c-.09-1.5.37-2.82,1.44-3.94.78-.82,1.74-1.33,2.81-1.68,2.12-.7,4.31-.95,6.52-.82,4.09.23,7.96,1.29,11.58,3.23,2.4,1.29,4.48,2.99,6.16,5.14,1.4,1.79,2.24,3.79,2.16,6.1-.02.6-.12,1.23-.32,1.79-.42,1.15-1.22,1.96-2.45,2.29-.47.13-.94.27-1.46.42-1.19-.38-2.27-1.39-3.68-1.04-.1.48.17.63.44.78,1.3.72,2.41,1.67,3.41,2.76,1.15,1.26,1.84,2.74,2.01,4.44.05.48.04.99-.06,1.46-.07.34-.27.7-.52.94-.89.86-2.92.94-3.92.17-1.65-1.27-3.25-2.6-4.91-3.86-4.07-3.07-8.35-5.79-13.06-7.78-4.66-1.96-9.52-3.14-14.52-3.82-.24-.03-.48-.07-.85-.13.08-.31.1-.61.23-.83,1.47-2.44,3.73-3.65,6.47-4.02,1.39-.19,2.81-.25,4.21.03.41.08.83.08,1.51.14Z"/>
    <path class="cls-8" d="M125.16,100.8c.13-4.61.88-9.13,2.02-13.6.8-3.15,2.39-5.88,4.35-8.42.5-.65,1.14-1.08,1.9-1.38,2.47-.97,5.02-1.14,7.58-.66,3.04.57,5.5,3.16,6.07,6.19.16.86.13,1.67-.31,2.49-1.95,3.62-3.42,7.44-4.9,11.27-1.75,4.51-3.15,9.14-4.31,13.83-.16.65-.3,1.31-.47,1.96-.63,2.37-2.29,3.71-4.53,4.36-1.72.5-3.13-.27-4.26-1.51-1.26-1.38-2.1-3.03-2.46-4.86-.32-1.62-.53-3.26-.64-4.91-.11-1.58-.03-3.18-.04-4.77Z"/>
    <path class="cls-6" d="M154.74,233.99c.03-.17.04-.36.1-.52,1.51-4.07,3.17-8.08,5.13-11.96,2.23-4.39,5.07-8.36,8.19-12.14,2.42-2.93,5.14-5.57,7.78-8.3.43-.45.93-.76,1.54-.94,1.11-.34,2.2-.75,3.28-1.17,2.3-.88,4.38-2.16,6.35-3.62.29-.22.58-.44.97-.73.24.27.49.52.69.79.55.73,1.03,1.53,1.64,2.2.61.67.76,1.39.49,2.19-.44,1.27-.84,2.56-1.43,3.76-1.19,2.36-2.75,4.46-4.71,6.28-2.25,2.09-4.64,3.98-7.18,5.7-4.05,2.74-8.24,5.29-12.07,8.35-2.05,1.64-4.08,3.32-6.01,5.1-1.25,1.15-2.31,2.52-3.44,3.8-.4.45-.76.94-1.14,1.41l-.19-.18Z"/>
    <path class="cls-6" d="M145.53,194.44c1.93,1.18,3.8,2.32,5.74,3.5-.01.41,0,.83-.04,1.24-.38,3.69-.09,7.34.72,10.94.46,2.03.98,4.04,1.52,6.05.69,2.56,1.72,4.97,3.58,7.08-.61,1.42-1.24,2.86-1.92,4.44-.36-.31-.62-.52-.87-.75-1.1-.97-2.24-1.9-3.3-2.92-1.37-1.31-2.73-2.64-3.99-4.05-1.86-2.08-3.13-4.51-4.05-7.14-.65-1.87-1.01-3.79-.99-5.76.04-3.52.71-6.93,2.06-10.2.37-.89.77-1.79,1.55-2.45Z"/>
    <path class="cls-8" d="M48.58,160.8c-1.93.46-3.84.8-5.68,1.39-1.79.58-3.49,1.41-5.32,2.17-.25-.43-.55-.82-.73-1.26-1.28-3.08-2.06-6.26-2.07-9.61-.01-2.18.51-4.23,1.34-6.23.84-2.03,2.36-3.4,4.32-4.27.6-.27,1.29-.39,1.95-.43,1.85-.1,3.06.68,3.7,2.38.14.38.14.85.09,1.25-.48,3.38-.12,6.7.67,10,.34,1.44.78,2.83,1.58,4.08.09.14.1.32.16.53Z"/>
    <path class="cls-8" d="M158.54,220.18c-1.8-1.89-3.68-6.25-4.97-11.42-.95-3.77-1.3-7.57-.84-9.23,1.25.76,2.46,1.56,3.73,2.25,1.24.67,2.51,1.28,3.81,1.79,1.36.54,2.79.91,4.17,1.41,1.3.47,2.73.54,4.08,1.29-3.79,4.38-7.28,8.84-9.98,13.9Z"/>
    <path class="cls-7" d="M213,150.98c.18-4.75.75-9.43,1.58-14.07,1.69-9.44,4.66-18.5,8.32-27.35,1.69-4.08,3.79-7.96,6.17-11.68,1.56-2.44,3.37-4.66,5.51-6.62,1.41-1.29,2.99-2.33,4.75-3.09,1.49-.65,3.05-.9,4.66-.71,2.89.34,4.97,2,6.54,4.3,1.46,2.15,2.41,4.55,2.76,7.14.32,2.36.6,4.74.78,7.11.29,3.86.15,7.71-.29,11.55-.9,7.97-2.25,15.88-3.81,23.75-1.53,7.7-3.77,15.2-6.53,22.54-1.52,4.03-3.49,7.82-6.27,11.16-1.06,1.28-2.21,2.46-3.54,3.45-1.86,1.4-3.97,2.22-6.28,2.32-3.11.14-5.76-1.04-7.91-3.25-1.85-1.91-3.24-4.14-4.19-6.63-1.04-2.71-1.56-5.54-1.79-8.42-.31-3.84-.54-7.7-.46-11.53ZM249.63,126.89c-.34.56-.69,1.13-1.03,1.69-1.21,2.02-2.72,3.77-4.74,5.04-2.12,1.34-4.27,1.33-6.44.17-1.1-.59-1.97-1.43-2.76-2.39-2.18-2.66-3.54-5.72-4.32-9.04-.86-3.71-1.38-7.46-1.18-11.29.03-.55.09-1.11,0-1.65-.15-.96-.32-1.93-.61-2.86-.21-.7-1.01-.78-1.45-.18-.32.44-.57.94-.8,1.44-2.1,4.5-3.84,9.14-5.39,13.85-2.92,8.88-4.69,18-5.34,27.33-.25,3.55-.1,7.1.17,10.65.2,2.63.47,5.25,1.13,7.81.77,2.95,2.04,5.65,4.12,7.9,2.89,3.12,6.8,3.53,10.26,1.07,2.83-2.02,5.13-4.6,6.87-7.57,1.61-2.74,2.96-5.64,3.99-8.66,3.69-10.81,6.27-21.87,7.51-33.3ZM252.13,109.23c.06-.7.1-1.07.13-1.43.28-4.23-.56-8.29-1.9-12.26-.34-1.02-.94-2.03-1.65-2.84-2.27-2.6-5.23-3.49-8.43-2.15-1.48.62-2.79,1.51-4.02,2.54-1.46,1.21-2.42,2.7-3.02,4.5-2.14,6.5-2.8,13.15-2.03,19.93.35,3.05,1.12,6.01,2.55,8.77.85,1.65,1.92,3.14,3.3,4.37,1.55,1.39,3.8,2.27,6.36.41,1.46-1.06,2.65-2.35,3.63-3.85,2.79-4.3,4.29-9.04,4.79-14.12.14-1.4.21-2.81.29-3.88Z"/>
    <path class="cls-5" d="M249.63,126.89c-1.24,11.42-3.82,22.49-7.51,33.3-1.03,3.02-2.38,5.92-3.99,8.66-1.74,2.97-4.04,5.55-6.87,7.57-3.46,2.46-7.37,2.05-10.26-1.07-2.08-2.25-3.36-4.95-4.12-7.9-.66-2.56-.93-5.18-1.13-7.81-.27-3.54-.42-7.09-.17-10.65.66-9.33,2.42-18.44,5.34-27.33,1.55-4.71,3.29-9.35,5.39-13.85.23-.5.48-1,.8-1.44.44-.6,1.23-.52,1.45.18.28.93.46,1.89.61,2.86.08.54.02,1.1,0,1.65-.2,3.83.32,7.58,1.18,11.29.77,3.32,2.13,6.38,4.32,9.04.78.96,1.66,1.8,2.76,2.39,2.18,1.16,4.33,1.17,6.44-.17,2.02-1.27,3.52-3.01,4.74-5.04.34-.57.69-1.13,1.03-1.69Z"/>
    <path class="cls-8" d="M252.13,109.23c-.08,1.07-.15,2.48-.29,3.88-.51,5.07-2,9.82-4.79,14.12-.98,1.5-2.16,2.79-3.63,3.85-2.56,1.86-4.81.98-6.36-.41-1.38-1.24-2.45-2.72-3.3-4.37-1.43-2.76-2.2-5.71-2.55-8.77-.77-6.78-.11-13.43,2.03-19.93.59-1.8,1.56-3.29,3.02-4.5,1.23-1.03,2.54-1.92,4.02-2.54,3.2-1.34,6.15-.45,8.43,2.15.71.81,1.3,1.82,1.65,2.84,1.34,3.97,2.18,8.03,1.9,12.26-.02.37-.06.73-.13,1.43Z"/>
    <path class="cls-8" d="M138.67,59.43c-4.63,5.06-10.92,8.03-13.58,3.96s1.63-9.49,7.38-13.23c5.74-3.74,11.56-4.8,13.42-.32,1.93,4.66-4.66,6.8-7.22,9.59Z"/>
    <path class="cls-8" d="M180.72,70.35c-3.47,5.91-9.02,10.12-12.46,6.7-3.44-3.43-.38-9.62,4.46-14.48,4.84-4.86,10.31-7.1,13.06-3.1,2.86,4.15-3.15,7.62-5.06,10.88Z"/>
    <path class="cls-8" d="M231.55,82.4c-3.47,5.91-9.02,10.12-12.46,6.7-3.44-3.43-.38-9.62,4.46-14.48s10.31-7.1,13.06-3.1c2.86,4.15-3.15,7.62-5.06,10.88Z"/>
    <path class="cls-3" d="M222.08,30.06c-2.27-1.63-3.77-4.03-2.25-5.3s3.92.21,5.71,2.35c1.79,2.14,2.5,4.45.77,5.41-1.79,1-2.97-1.56-4.23-2.46Z"/>
    <path class="cls-4" d="M78.88,377.6c-5.18,1.92-10.78,1.73-11.18-2.16-.4-3.89,4.67-6.2,10.16-6.76,5.49-.57,10.05.82,9.73,4.71s-5.84,3.15-8.7,4.21Z"/>
    <path class="cls-4" d="M152.97,388.58c-5.18,1.92-10.78,1.73-11.18-2.16-.4-3.89,4.67-6.2,10.16-6.76,5.49-.57,10.05.82,9.73,4.71-.33,4.05-5.84,3.15-8.7,4.21Z"/>
    <path class="cls-3" d="M148.63,264.61c-11.62-.18-23.19-3.26-22.28-8.42.91-5.16,12.48-5.54,24.15-3.48,11.67,2.06,20.53,6.13,18.11,10.93-2.51,4.99-13.56,1.06-19.98.97Z"/>
    <path class="cls-7" d="M63.53,155.63c4.01,1.66,6.34,4.7,7.66,8.57,1.36,3.97,2.21,8.03,1.95,12.26-.06,1.04-.23,2.07-.38,3.1-.11.74-.22,1.45.29,2.11.15.19.22.44.29.67.93,3.18,2.96,5.62,5.41,7.72,5.08,4.36,10.9,7.23,17.52,8.39,6.29,1.11,12.32.23,18.09-2.47,1.72-.8,3.41-1.65,4.96-2.66.03-.5-.31-.55-.57-.64-3.71-1.34-7.2-3.1-10.32-5.53-.68-.53-1.36-1.06-1.96-1.66-1.61-1.59-3.3-3.1-4.71-4.89-.4-.52-.96-.95-1.52-1.3-2.97-1.87-5.66-4.1-8.19-6.5-4.91-4.66-9.23-9.83-12.77-15.61-3.15-5.15-5.36-10.71-6.91-16.56-1.91-7.21-2.27-14.51-1.52-21.88.43-4.28,1.57-8.42,2.85-12.52,1.58-5.04,3.46-9.94,6.02-14.58.8-1.45,1.64-2.88,2.78-4.09.41-.44.57-.88.51-1.49-.27-2.68-.49-5.36-.77-8.04-.52-5.12-1.07-10.23-1.6-15.35-.54-5.24-1.07-10.48-1.58-15.72-.45-4.57-.87-9.15-1.29-13.72-.42-4.57-.82-9.15-1.22-13.73-.33-3.78-.66-7.57-.98-11.35-.13-1.46-.25-2.93-.34-4.4-.03-.53.04-1.08.06-1.53.62-.4,1.08-.21,1.51.04.79.46,1.59.92,2.35,1.43,13.77,9.38,27.53,18.78,41.06,28.51,4.72,3.4,9.46,6.78,14.53,9.87.39-.09.87-.17,1.32-.31,1.94-.59,3.94-.89,5.96-1.04,2.54-.19,5.01.28,7.44.95,4.04,1.12,7.87,2.72,11.25,5.26.18.14.4.22.62.34.13-.21.25-.35.31-.52,1.29-3.44,3.93-5.36,7.28-6.47,1.28-.43,2.61-.67,3.97-.7.73-.02,1.46-.06,2.27-.09.09-.45.18-.85.25-1.25.47-2.93,2.12-4.88,4.88-5.93,1.62-.62,3.31-.88,5.01-1.08.36-.04.73-.06,1.04-.09.12-.14.22-.22.27-.33,1.67-3.37,4.62-4.94,8.12-5.67.77-.16,1.58-.19,2.37-.27.42-.04.85-.04,1.35-.06.12-.64.25-1.22.34-1.81.38-2.51,1.81-4.23,4.03-5.34,2-1,4.14-1.53,6.37-1.59,5.08-.14,9.84,1.07,14.29,3.48,2.92,1.58,5.2,3.85,6.9,6.71,1.11,1.88,1.75,3.9,1.91,6.08.21,2.84-1.07,5.09-3.65,6.41-.1.05-.17.16-.28.27-.02.53.46.8.73,1.18.88,1.3,1.43,2.71,1.55,4.27.19,2.48-.47,4.16-2.41,6.18.24.31.47.66.74.97,1.05,1.2,2.13,2.37,3.17,3.57,1.41,1.61,2.76,3.27,3.47,5.35,1.2.14,2.34.32,3.5.41,2.96.23,5.78,1.05,8.58,1.94.91.29,1.71.29,2.65.02,6.96-1.97,13.68-4.63,20.48-7.07,15.79-5.66,31.56-11.37,47.35-17.02,4.38-1.57,8.8-3.02,13.21-4.5.81-.27,1.65-.46,2.49-.62.57-.11.95.32.8.9-.18.71-.4,1.42-.67,2.1-1.95,4.82-3.87,9.66-5.9,14.46-6.69,15.79-13.91,31.35-21.12,46.9-3.71,8-7.39,16.01-11.14,24.13.24.49.43,1.09.77,1.57,2.22,3.21,3.24,6.82,3.77,10.63.64,4.69.95,9.38.56,14.11-.36,4.23-1.14,8.37-2.39,12.42-1.19,3.84-3.03,7.36-5.24,10.69-5.7,8.57-12.95,15.48-22.03,20.4-4.82,2.61-9.97,4.39-15.24,5.83-4.46,1.22-8.98,1.9-13.62,1.6-1.58-.1-3.18-.1-4.77-.14-2.51,2.22-4.93,4.45-7.93,5.97-2.95,1.51-6.06,2.5-9.4,3.17.23.26.32.43.47.52,3.4,2.28,6.19,5.19,8.77,8.32,2.62,3.18,4.92,6.58,6.94,10.16,2.41,4.27,4.8,8.55,7.11,12.87,1.47,2.75,2.87,5.55,4.14,8.41,2.58,5.82,5.28,11.58,7.36,17.62,1.04,3.01,2.35,5.92,3.45,8.91.98,2.64,1.81,5.33,2.78,7.98.62,1.69,0,2.97-1.08,4.16-.33.36-.72.66-1.16,1.06.21.29.38.6.62.86,6,6.48,8.65,14.26,8.78,22.96.05,3.26-.85,6.31-3.07,8.83-2.02,2.29-4.46,3.6-7.62,3.16-.17-.02-.36.03-.62.05-.27.59-.52,1.21-.82,1.79-1.4,2.69-3.5,4.52-6.49,5.27-2.04.51-4.01.25-5.94-.47-.4-.15-.77-.35-1.16-.54-.63.29-.79.93-1.12,1.42-1.51,2.27-3.58,3.67-6.26,4.12-.72.12-1.46.1-2.19.12-.48.01-.96-.02-1.52-.04.23,1.8.41,3.49.66,5.17,1.18,8,2.79,15.92,4.64,23.79.29,1.25.57,2.51.73,3.78.29,2.29-.54,3.73-2.63,4.73-.66.32-1.37.54-2.06.79-.69.25-1.38.49-2.21.79.27.34.45.63.7.85,1.97,1.67,3.77,3.5,5.48,5.42,3.17,3.56,5.26,7.65,6.26,12.3.8,3.72,1.42,7.46,1.14,11.29-.51,7.08-3.48,12.96-8.71,17.66-3.94,3.54-8.5,5.95-13.76,6.98-5.54,1.08-11.09,1.98-16.72,2.41-2.14.16-4.26.51-6.39.72-7.99.8-15.98,1.59-24.02,1.28-5.51-.21-11.01-.69-16.41-1.88-5.58-1.23-10.99-2.98-16.16-5.43-3.4-1.61-6.54-3.6-9.31-6.17-.18-.17-.38-.31-.57-.45-.05-.03-.11-.04-.17-.06-.06,0-.14-.03-.18,0-2.54,1.38-5.32,1.8-8.15,1.94-2.2.11-4.41.18-6.61.1-4.41-.16-8.81-.4-13.22-.66-10.24-.62-20.08-3.06-29.6-6.8-4.93-1.94-9.43-4.68-13.54-8.03-2.3-1.87-4.21-4.09-5.9-6.52-2.12-3.04-3.18-6.45-3.66-10.09-.61-4.59.31-8.89,2.34-13,3.97-8.02,10.4-12.82,19.15-14.54,2.05-.4,4.12-.6,6.21-.56,2.63.06,5.27.02,7.89.42.58.09,1.21.21,1.88-.2-1.13-2.96-.92-6.1-1.07-9.19-.45-9.63.26-19.23,1.01-28.82.39-4.95.93-9.88,1.73-14.78,1-6.1,2.09-12.19,3.57-18.2.23-.94.44-1.9.68-2.94-.64-.32-1.23-.61-1.82-.91-2.17-1.08-3.31-2.82-3.37-5.26-.05-2.04.16-4.04.82-5.98.2-.58.39-1.15.56-1.66-.15-.69-.67-.96-1.09-1.3-2.45-1.98-3.57-4.58-3.73-7.68-.16-3.29.45-6.46,1.23-9.62,1.2-4.9,3.01-9.58,5.13-14.14,2.48-5.33,5.19-10.55,8.33-15.53.32-.5.59-1.04.89-1.58-.45-.29-.62.06-.85.18-.22.11-.4.28-.6.42-3.66,2.53-7.62,4.41-11.91,5.61-4.78,1.34-9.64,1.67-14.56,1.13-2.26-.25-4.47-.75-6.63-1.46-4.28-1.39-8.24-3.42-11.97-5.94-5.86-3.97-10.7-8.93-14.78-14.69-2.12-2.99-3.42-6.35-4.5-9.81-.22-.7-.55-1.16-1.14-1.56-3.54-2.36-5.86-5.7-7.46-9.56-1.85-4.48-2.66-9.16-2.32-14.01.06-.81-.04-1.54-.46-2.28-2.59-4.6-3.64-9.58-3.42-14.84.1-2.41.51-4.75,1.43-6.98.71-1.73,1.73-3.23,3.26-4.36,2.36-1.75,5.24-1.9,7.74-.37.31.19.6.39.99.64.24-.44.44-.8.62-1.17.74-1.52,1.86-2.72,3.18-3.75,2.77-2.17,6.72-1.59,8.47.66.11.14.26.25.47.45.26-.36.52-.68.73-1.03.97-1.62,2.33-2.84,3.93-3.8,2.75-1.65,6.1-1.01,8.06,1.53,1.3,1.68,2.07,3.62,2.37,5.71.35,2.42.61,4.86.9,7.29.12,1.03.23,2.07.35,3.22ZM227.77,365.5c0-.17.05-.36,0-.53-.67-2.87-1-5.79-1.39-8.7-.75-5.71-1.5-11.41-2.29-17.11-.31-2.24-.73-4.47-1.09-6.71-.16-1.03-.65-1.79-1.56-2.36-.98-.62-1.9-1.35-2.81-2.07-.67-.53-1.36-1.11-1.63-1.95-.25-.77-.79-1.2-1.4-1.62-1.06-.74-2.04-1.59-2.71-2.71-2.71-4.58-4.01-9.47-2.88-14.78.73-3.45,1.95-6.71,4.54-9.28.15-.15.2-.4.31-.63-.75-.47-1.41-.88-2.07-1.29-4.34,1.18-8.73,1.54-13.13,1.8-2.81.17-5.63.29-8.43.54-5.8.51-11.62.72-17.43.79-7.29.08-14.58.11-21.86-.35-6.79-.43-13.56-1-20.3-1.95-5.7-.8-11.37-1.79-17.01-2.94-6-1.22-11.97-2.56-17.88-4.16-.28-.07-.57-.06-.83-.09-.09.2-.17.3-.18.42-.81,5.14-1.62,10.28-2.42,15.42-1.02,6.48-1.6,13.01-1.94,19.56-.13,2.57-.26,5.14-.39,7.71-.38,7.35-.46,14.69,0,22.04.07,1.1.18,2.2.3,3.29.15,1.32.81,2.31,2.07,2.8,1.2.46,2.4.93,3.63,1.27,3.14.85,6.34,1.37,9.55,1.85,7.16,1.09,14.34,1.75,21.6,1.27,6.95-.46,13.71-1.72,20.14-4.52,1.44-.62,3.47-1.84,4.39-2.69-.03-.45-.04-.93-.11-1.42-.73-5.28-1.23-10.58-1.41-15.91-.24-7.36.14-14.7.85-22.02.11-1.16.27-2.31.44-3.46.06-.39.04-.85.65-1.05.11.49.26.96.3,1.43.12,1.59.22,3.18.28,4.77.21,5.63.39,11.26.6,16.89.17,4.41.66,8.79,1.34,13.15.6,3.87,1.27,7.73,1.9,11.6.37,2.3.67,4.61,1.09,6.89.51,2.8.61,2.83,3.39,3.52,3.94.97,7.94,1.54,11.98,1.74,4.95.24,9.92.33,14.88.41,1.77.03,3.55-.12,5.32-.28,4.09-.36,8.15-.96,12.17-1.76,6.8-1.36,13.43-3.28,19.84-5.95.55-.23,1.18-.35,1.6-.89ZM262.98,111.71c0-2.08.09-4.17,0-6.25-.26-5.94-.78-11.85-1.61-17.74-.56-3.98-1.75-7.75-3.34-11.42-1.51-3.46-3.81-6.3-6.85-8.47-4.88-3.49-10.42-5.06-16.4-5.08-1.83,0-3.69.15-5.41.87-2.26.95-4.44,2.07-6.33,3.67-2.11,1.79-4.04,3.74-5.7,5.96-2.05,2.75-4.09,5.5-6.03,8.33-3.32,4.87-6.09,10.05-8.64,15.35-2.12,4.42-3.88,8.99-5.48,13.62-2.09,6.02-3.92,12.11-5.41,18.31-1.05,4.4-2.08,8.82-2.92,13.27-.83,4.39-1.49,8.81-2.1,13.24-.41,2.97-.77,5.97-.83,8.96-.13,6.47.66,12.83,2.69,19.01.97,2.94,2.41,5.62,4.15,8.16.62.91,1.24,1.84,1.97,2.65,4.55,4.98,10.19,7.73,16.96,8.02,1.83.08,3.68,0,5.5-.14,4.69-.34,8.94-1.91,12.76-4.68,3.16-2.29,5.78-5.12,8.17-8.14,2.32-2.93,4.33-6.09,6.19-9.33,3.84-6.72,6.63-13.92,9.42-21.11,2.19-5.65,3.52-11.6,5.07-17.45,1.56-5.93,2.53-11.98,3.17-18.08.4-3.84.86-7.67.99-11.53ZM182.04,176.83c-.87.07-1.66.19-2.44.19-4.47-.02-8.2-1.78-11.31-4.92-2.17-2.2-3.86-4.76-5.13-7.57-2.33-5.19-3.7-10.63-4.2-16.29-.36-4.1-.2-8.21.09-12.3.49-7.05,1.75-13.97,3.43-20.82,1.97-8.05,5.21-15.55,9.97-22.35,1.23-1.75,2.57-3.43,4-5.03,2.19-2.45,4.88-4.28,7.88-5.62,3.48-1.56,7.06-1.91,10.73-.61,1.96.69,3.58,1.84,4.82,3.52.95,1.29,1.73,2.67,2.26,4.19.13.38.32.74.55,1.28.57-.95,1.03-1.74,1.5-2.52,1.27-2.09,2.46-4.24,3.85-6.25,1.5-2.17,2.92-4.37,4.21-6.67.78-1.4,1.43-2.84,1.93-4.36.51-1.51.49-3.01-.09-4.49-.79-2-1.79-3.89-3.07-5.63-.36-.49-.77-.96-1.2-1.38-.75-.72-1.51-1.43-2.31-2.1-3.05-2.54-6.44-4.45-10.33-5.39-6-1.45-11.92-1.09-17.74.86-3.03,1.02-5.92,2.37-8.36,4.5-1.33,1.16-2.68,2.31-3.84,3.67-1.71,2-3.54,3.89-5.2,5.93-1.5,1.85-2.9,3.8-4.25,5.77-1.97,2.88-3.94,5.76-5.78,8.73-2.66,4.28-4.7,8.88-6.6,13.52-2.29,5.61-4.09,11.42-5.57,17.29-2.04,8.08-3.34,16.32-4.37,24.59-1.03,8.29-1.14,16.61-.16,24.93.87,7.41,3.03,14.36,7.14,20.64,1.83,2.79,3.94,5.32,6.75,7.18,2.72,1.81,5.63,3.24,8.71,4.3,4.8,1.65,9.74,1.77,14.7.98,2.84-.45,5.35-1.7,7.55-3.56,1.37-1.16,2.41-2.6,3.36-4.1.41-.65.51-1.31.3-2.09-.67-2.48-1.27-4.98-1.57-7.55-.01-.11-.1-.22-.22-.46ZM126.04,194.33c-.41.48-.81.93-1.19,1.41-1.85,2.36-3.7,4.72-5.55,7.09-4.94,6.33-9.5,12.93-13.74,19.75-4.11,6.61-7.9,13.39-10.91,20.59-2.16,5.17-3.85,10.45-4.55,16.02-.31,2.45-.45,4.89.29,7.29.87,2.82,2.47,5.03,5.38,6.06.58.2,1.14.44,1.72.64,6.76,2.31,13.75,3.52,20.81,4.36,3.95.47,7.91.93,11.88,1.24,4.21.33,8.44.5,12.66.71.52.03,1.11.18,1.61-.34.28-8.43,1.62-16.76,3.27-25.05,1.66-8.35,3.65-16.6,6.7-24.57-2.08-1.88-4.07-3.69-6.06-5.49-1.59-1.44-3.07-3-4.38-4.7-1.94-2.52-3.28-5.36-3.75-8.49-.94-6.32-.09-12.31,3.81-17.77-.8-.82-1.63-1.67-2.48-2.54-.7.56-1.27,1.12-1.93,1.52-.73.44-1.55.73-2.33,1.07-2.11.92-4.33,1.31-6.62,1.32-1.53,0-3.05-.08-4.65-.12ZM148.39,82.27c.56-.96.95-1.66,1.37-2.33,2.69-4.31,5.5-8.54,8.62-12.57,1.47-1.89,2.74-3.91,3.94-5.98.59-1.02,1.03-2.08,1-3.29-.09-4.1-1.68-7.49-4.8-10.13-3.63-3.08-8.03-4.38-12.62-5.06-3.85-.58-7.55.31-11.14,1.67-3.86,1.47-7.4,3.51-10.8,5.84-2.23,1.53-4.26,3.29-6.26,5.11-2.72,2.48-5.26,5.14-7.47,8.08-1.4,1.86-2.77,3.75-3.91,5.77-1.88,3.36-3.74,6.76-5.3,10.27-2.31,5.21-3.91,10.69-5.42,16.18-1.63,5.91-2.7,11.94-3.46,18.03-1.13,8.99-.93,17.97.25,26.94.66,4.98,1.57,9.91,2.91,14.76,1.13,4.08,2.31,8.11,4.37,11.85,1.63,2.95,3.32,5.84,5.44,8.49,2.24,2.8,4.88,5.15,7.74,7.27.24.18.52.32.78.48,2.47,1.53,5.14,2.59,7.94,3.32,3.42.9,6.9,1.09,10.38.39,2.04-.41,4.05-.97,6.07-1.47.1-.03.19-.14.28-.22-.01-.12.01-.25-.04-.35-2.57-4.85-4.4-9.96-5.44-15.35-.05-.28-.23-.53-.35-.77-.29.03-.47.04-.65.07-4,.6-7.66-.25-11-2.54-2.62-1.79-4.79-4.02-6.49-6.68-2.87-4.49-4.82-9.35-5.75-14.61-.89-5.08-1.19-10.2-1.14-15.37.06-6.58.65-13.08,2.14-19.5,1.6-6.9,3.99-13.5,7.54-19.65,1.82-3.14,3.96-6.04,6.49-8.65,2.33-2.4,4.99-4.33,8.05-5.7,2.68-1.2,5.48-1.71,8.41-1.44,2.86.27,5.14,1.53,6.67,4,.45.72.8,1.51,1.19,2.27.11.2.21.41.43.86ZM146.46,279.52c.86.04,1.52.1,2.18.11,7.23.08,14.45-.02,21.67-.53,5.07-.36,10.14-.66,15.21-1.08,6.41-.54,12.79-1.27,19.13-2.39,2.89-.51,4.72-2.15,5.62-4.89.52-1.58.81-3.21.79-4.88-.03-2.88-.05-5.76-.14-8.63-.05-1.46-.15-2.94-.37-4.38-1.1-7.2-2.27-14.39-3.38-21.59-.64-4.19-.96-8.4-.57-12.63.14-1.52.47-3.02.79-4.51.39-1.78,1.3-3.29,2.53-4.61.24-.26.47-.52.78-.85-2.27-.54-4.41-.96-6.49-1.59-2.11-.64-4.17-1.48-6-2.73-1.8-1.23-3.54-2.56-5.3-3.85-.05.08-.1.13-.12.18-.07.23-.15.47-.2.7-.86,3.95-2.85,7.26-5.64,10.13-2.32,2.39-4.96,4.37-7.71,6.21-2.03,1.36-4.09,2.69-6.12,4.08-4,2.74-7.88,5.62-11.52,8.82-3.62,3.19-6.55,6.94-8.98,11.09-.34.57-.61,1.21-.76,1.86-.76,3.34-1.52,6.69-2.18,10.05-1.14,5.83-1.95,11.72-2.53,17.63-.27,2.67-.44,5.36-.68,8.3ZM225.06,376.98c-.49.14-.91.23-1.31.37-6.73,2.24-13.68,3.29-20.73,3.66-9.76.51-19.47.03-29.07-1.86-4.38-.86-8.75-1.84-12.87-3.65-.33-.15-.69-.29-1.04-.31-3.06-.17-6.12-.18-9.16.23-1.09.14-2.19.32-3.23.66-8.54,2.8-14.54,8.35-17.91,16.7-.9,2.23-1.35,4.56-1.49,6.97-.11,1.93.58,3.33,2.25,4.25,1.44.8,2.85,1.69,4.34,2.37,3.85,1.77,7.89,2.98,11.99,4.02,7.68,1.95,15.51,2.95,23.4,3.49,5.99.4,12,.39,17.99,0,4.21-.28,8.43-.53,12.63-.95,6.59-.66,13.06-1.99,19.39-3.95,3.97-1.23,8-2.3,11.81-4,2.35-1.05,4.73-2.02,7.09-3.03.38-.16.74-.38,1.07-.55-.89-10.66-6.25-19.32-15.15-24.41ZM332.67,35.33c-.59.19-.88.27-1.16.38-2.68,1.03-5.36,2.08-8.05,3.11-17.32,6.63-34.81,12.78-52.24,19.09-5,1.81-10,3.65-15,5.49-.57.21-1.16.43-1.67.76-.97.62-1.1,1.8-.34,2.65.32.37.68.71,1.02,1.06,3.61,3.79,6.44,8.01,7.34,13.29.05.3.11.6.16.9.37,2.3.7,4.6,1.12,6.89.94,5.19,1.59,10.4,1.9,15.66.05.89.37,1.67.78,2.42,3.28,5.93,7.92,10.57,13.68,14.06,2.9,1.76,6.06,1.76,9.18.47.61-.25,1.22-.61,1.7-1.07,1.87-1.77,3.55-3.67,4.64-6.08,7.1-15.73,14.22-31.46,21.43-47.14,4.81-10.46,9.75-20.85,15.16-31.01.11-.2.16-.44.34-.93ZM143.66,374.17c-1.18-.24-2.33-.17-3.47-.15-7.13.12-14.21-.33-21.2-1.79-4.38-.91-8.75-1.8-13.11-2.79-5.13-1.16-10.3-2.23-14.92-5.11-1.43,1.06-3.07,1.1-4.74,1.02-2.69-.14-5.39-.24-8.08-.35-1.53-.06-3.06.02-4.58.28-9.6,1.64-15.7,7.2-18.44,16.5-.31,1.05-.41,2.16-.55,3.25-.16,1.22.23,2.27,1.08,3.19,1.25,1.37,2.61,2.59,4.19,3.55,3.94,2.39,8.05,4.43,12.43,5.88,7,2.33,14.21,3.69,21.52,4.6,4.44.55,8.89,1.01,13.35,1.31,3.3.22,6.61.39,9.92.22,2.26-.12,4.53-.21,6.79-.33.22-.01.44-.14.74-.23-.13-3.12.17-6.15,1.1-9.11.92-2.95,2.34-5.65,4.04-8.21,1.71-2.57,3.8-4.8,6.15-6.79,2.35-1.99,5.03-3.46,7.78-4.95ZM254.18,284.21c-.08-.49-.13-.92-.23-1.33-.74-2.97-1.42-5.95-2.25-8.9-2.05-7.25-4.45-14.38-7.55-21.27-4-8.88-8.59-17.47-13.19-26.05-1.39-2.59-2.99-5.07-4.82-7.37-1.56-1.96-3.22-3.85-4.89-5.72-1.65-1.84-3.71-3.18-5.81-4.46-1.13-.69-2.14-.62-3.2.23-1.39,1.11-2.32,2.51-2.92,4.15-.53,1.44-.79,2.95-.88,4.49-.16,2.7.01,5.39.33,8.07.61,5.11,1.58,10.16,2.53,15.21,1.3,6.92,2.77,13.8,3.79,20.77,1.43,9.8,1.82,19.62,1.13,29.5-.03.42-.03.84-.04,1.32.47.1.88.23,1.3.27,5.02.43,10.03.4,15.03-.33,7.84-1.14,14.9-4.26,21.68-8.58ZM266.28,109.13c-.12.03-.23.07-.35.1,0,.3-.03.6-.02.91,0,4.11-.46,8.19-.78,12.29-.16,2.08-.42,4.14-.63,6.22-.28,2.81-.89,5.56-1.45,8.32-1.65,8.17-3.31,16.32-6.16,24.18-1.73,4.77-3.21,9.63-5.23,14.31-2.44,5.63-5.06,11.15-8.29,16.37-.14.22-.17.51-.29.88,2.92-.14,5.66-.37,8.35-.97,5.27-1.17,10.42-2.75,15.43-4.76,3.88-1.56,7.51-3.6,10.9-6.05,4.21-3.03,7.84-6.67,10.98-10.78,2.91-3.81,5.49-7.83,6.91-12.47,1.66-5.43,2.45-10.99,2.28-16.67-.06-1.96-.21-3.92-.38-5.87-.21-2.32-.56-4.62-1.22-6.86-.29-.99-.53-2.01-1.13-2.89-.22.08-.4.11-.55.2-2.56,1.74-5.35,1.89-8.28,1.24-2.99-.66-5.7-1.93-8.08-3.8-4.51-3.55-8.43-7.66-11.27-12.7-.23-.41-.5-.8-.74-1.19ZM76.24,3.4c.03.64.02.94.06,1.24.85,7.05,1.73,14.09,2.56,21.15.76,6.44,1.48,12.89,2.19,19.34.66,5.96,1.29,11.93,1.92,17.89.62,5.97,1.2,11.94,1.82,17.9.15,1.4.33,2.8.59,4.18.24,1.27,1.14,1.78,2.4,1.56,3.37-.58,6.17-2.28,8.71-4.46.39-.34.67-.87.87-1.36,1.68-4.15,3.67-8.13,6.05-11.93,2.31-3.7,4.8-7.26,7.77-10.43,2.42-2.59,4.92-5.11,7.71-7.34,2.93-2.35,5.99-4.46,9.34-6.14.38-.19.78-.38,1.11-.65.95-.77.96-1.83.05-2.65-.32-.28-.67-.54-1.01-.79-1.78-1.3-3.56-2.61-5.35-3.88-6.54-4.64-13.13-9.21-19.64-13.9-8.74-6.3-17.42-12.69-26.13-19.04-.24-.17-.49-.33-1.01-.69ZM34,148.58c-.86-.57-1.47-1.11-2.18-1.43-2.98-1.37-4.82-.58-6.45,1.57-.33.43-.55.95-.78,1.45-.73,1.64-1.09,3.39-1.18,5.17-.27,5.45.35,10.76,2.66,15.78.15.33.27.68.43,1.01.42.85.54,1.73.4,2.68-.12.78-.22,1.59-.16,2.38.21,3,.66,5.96,2.02,8.71,1.06,2.15,2.34,4.16,3.83,6.04.45.57,1.02,1.06,1.56,1.55,1.47,1.34,3.24,2.19,5.05,2.95,3.08,1.29,6.24,1.63,9.53.95,6.5-1.34,12.02-4.44,16.62-9.19,3.03-3.13,4.82-6.88,5.35-11.24.38-3.14.12-6.23-.45-9.32-.3-1.63-.72-3.23-1.47-4.72-.99-1.96-2.36-3.56-4.38-4.55-1.6-.78-3.1-.56-4.5.45-1.29.93-2.13,2.19-2.48,3.74-.28,1.2-.44,2.42-.29,3.65.16,1.27.3,2.55.54,3.81.2,1.06-.11,1.8-1.04,2.3-.48.26-.98.5-1.47.75-.71.36-1.45.67-2.12,1.1-2.24,1.46-3.88,3.35-4.3,6.1-.03.21-.19.39-.4.8-.27-.5-.51-.78-.57-1.09-.18-.99-.03-1.95.42-2.86.91-1.85,2.11-3.45,3.9-4.53.94-.57,1.94-1.03,2.92-1.54.37-.19.74-.39,1.18-.62-.11-.65-.2-1.25-.32-1.84-.39-1.99-.63-3.98-.45-6.02.23-2.72,1.64-4.68,3.84-6.16.35-.23.72-.42,1.08-.62-.14-3.09-.26-6.08-.41-9.07-.04-.73-.11-1.47-.22-2.19-.21-1.42-.7-2.72-1.66-3.82-1.64-1.89-4.21-1.87-5.66-.87-1.02.7-1.97,1.47-2.63,2.52-1.08,1.74-1.81,3.6-1.95,5.67-.15,2.34.07,4.64.49,6.94.36,1.98.8,3.94,1.7,5.78.34.03.64.03.94.07,1.01.14,1.54.56,1.57,1.23.02.6-.43,1.13-1.25,1.39-.41.13-.83.22-1.25.29-.78.13-1.58.22-2.36.35-4.41.75-8.8,1.59-12.86,3.58-.11.05-.23.09-.34.14-.64.26-1.09.25-1.13-.01-.09-.52.31-.76.64-1.01.54-.4,1.11-.77,1.65-1.17.28-.21.54-.44.85-.71-1.34-2.53-2.19-5.13-2.68-7.86-.49-2.8-.51-5.6.22-8.49ZM118.79,196.26c-1.01.58-1.96,1.14-2.92,1.67-4.99,2.75-10.25,4.62-15.98,5-5.83.39-11.31-.8-16.46-3.57-4.46-2.4-8.07-5.72-10.88-9.93-.3-.44-.63-.86-.93-1.28-.15.09-.22.1-.26.15-.34.44-.66.88-1,1.31-5.01,6.45-11.4,10.65-19.56,11.93-3.58.56-7.08.32-10.4-1.3-.18-.09-.41-.32-.67.05.42,1.24,1.05,2.42,1.83,3.51,1.09,1.55,2.2,3.1,3.36,4.59,6.42,8.25,14.66,13.97,24.46,17.48,3.95,1.41,8.04,2.2,12.25,1.95,6.23-.38,12.01-2.23,17.27-5.61,1.85-1.19,3.59-2.55,5.38-3.83.45-.32.84-.81,1.33-.96.86-.26,1.27-.92,1.71-1.57,3.44-5,7.15-9.78,11.02-14.46,1.07-1.29,1.23-2.74.9-4.3-.06-.28-.28-.52-.46-.84ZM219.08,298.36c-1.46,1.6-2.84,3-4.08,4.51-2.43,2.95-3.73,6.3-3.24,10.2.21,1.71.69,3.35,1.33,4.95,1.5,3.79,4.34,5.97,8.2,6.95.29.07.6.14.88-.26-.13-1.75-.24-3.58-.41-5.4-.1-1.19-.49-2.27-1.37-3.13-.16-.15-.23-.38-.34-.58.62-.41,1.14-.22,1.63.04.79.41,1.33,1.07,1.75,1.83.51.93.75,1.93.87,2.98.18,1.58.32,3.17.56,4.74.67,4.31,3.39,7.05,7.66,7.77,3.32.56,6.26-.97,7.69-4.02.18-.39.33-.79.46-1.2.73-2.39.75-4.83.39-7.28-.18-1.21-.48-2.4-.72-3.6-.11-.54-.25-1.09-.25-1.63,0-.32.19-.7.4-.95.19-.22.78.03,1.05.49.31.52.59,1.08.78,1.65.88,2.63,1.4,5.33,1.32,8.12-.03,1,.12,1.94.55,2.85.19.4.44.71.88.87,2.88,1.04,5.56.81,7.87-1.33,1.81-1.69,2.94-3.76,3.01-6.29.03-1.16,0-2.33-.13-3.48-.15-1.4-.45-2.78-.66-4.17-.08-.54-.14-1.09-.16-1.64,0-.13.17-.34.3-.38.14-.05.43,0,.49.09.29.46.59.92.77,1.43.95,2.69,1.22,5.49,1.14,8.32-.01.48,0,.95,0,1.56.58-.06,1.07-.04,1.52-.17,3.73-1.02,5.94-3.48,6.76-7.22.5-2.24.4-4.5.2-6.77-.26-3.02-.94-5.92-2.27-8.66-.21-.44-.41-.9-.7-1.29-2.32-3.05-5.23-5.3-8.94-6.43-.56-.17-1.06-.17-1.59.1-1.04.53-2.08,1.04-3.14,1.52-9.17,4.11-18.74,5.99-28.8,5.02-.54-.05-1.09-.09-1.66-.13ZM136.01,116.25c-.61.43-.98.71-1.37.98-2.15,1.5-4.35,1.47-6.46-.1-1.16-.86-1.96-2-2.63-3.26-1.04-1.98-1.65-4.11-1.81-6.32-.46-6.15-.05-12.24,1.74-18.18.46-1.52,1-3.02,1.54-4.52.21-.59.4-1.16.26-1.79-.16-.75-.78-1.02-1.36-.54-.42.35-.8.76-1.17,1.17-2.84,3.17-5.09,6.74-6.95,10.55-3.8,7.79-5.88,16.07-6.93,24.63-.47,3.84-.45,7.7-.41,11.56.04,4.8.58,9.53,1.55,14.22.92,4.48,2.59,8.68,5.19,12.47,1.79,2.61,4.01,4.78,6.75,6.38,1.24.72,2.58,1.13,4.01,1.17,1.33.03,2.67.05,3.93-.51.01-.4.04-.7.03-1-.12-3.06-.31-6.12-.35-9.18-.08-7.92.7-15.78,1.87-23.6.62-4.12,1.36-8.21,2.32-12.27.12-.52.15-1.06.25-1.86ZM188.82,127.19c-.18-.03-.25-.07-.29-.05-.27.13-.54.26-.8.42-2.3,1.43-4.52,1.23-6.69-.29-.91-.64-1.71-1.41-2.29-2.35-.55-.88-1.04-1.8-1.45-2.75-.98-2.26-1.59-4.63-1.95-7.06-.71-4.75-.73-9.52-.08-14.28.24-1.76.57-3.5.86-5.25.14-.89-.48-1.55-1.38-1.5-.45.03-.84.2-1.11.56-.26.34-.49.7-.71,1.07-1.99,3.24-3.68,6.63-5.08,10.17-2.94,7.46-4.34,15.29-5.4,23.19-.58,4.38-.73,8.79-.7,13.2.04,6.68,1.18,13.15,3.8,19.33,1.36,3.21,3.35,5.97,5.93,8.3,1.1.99,2.33,1.76,3.73,2.29,2.26.85,4.41.65,6.53-.51.01-.48.04-.91.03-1.33-.09-3.93.18-7.82.7-11.72.93-7.05,2.27-14.02,3.83-20.94.66-2.92,1.42-5.83,2.13-8.74.14-.58.26-1.17.39-1.76ZM92.73,284.45c.48.22.85.45,1.25.57,2.29.67,4.56,1.41,6.88,1.94,3.76.86,7.57,1.47,11.41,1.92,5.05.59,10.09,1.3,15.15,1.74,5.43.47,10.88.76,16.32,1.01,8.14.37,16.29.33,24.44.1,5.2-.15,10.4-.48,15.59-.88,4.58-.35,9.14-.88,13.7-1.37,3.83-.42,7.66-.91,11.49-1.37.9-.11,1.79-.22,2.65-.33.08-.31.16-.48.17-.66.11-2.47-.19-4.89-.75-7.28-.07-.3-.19-.58-.31-.86-.49-1.1-.78-1.26-1.99-1.05-1.75.31-3.49.67-5.24.95-5.75.93-11.57,1.18-17.36,1.69-3.11.28-6.23.44-9.35.64-3.42.22-6.84.48-10.27.61-8.63.32-17.27.48-25.9.03-3.79-.2-7.59-.43-11.36-.81-6.09-.6-12.16-1.42-18.19-2.53-5.31-.98-10.5-2.38-15.5-4.45-.27-.11-.55-.19-.87-.29-1.14,3.5-1.5,7.02-1.97,10.7ZM240.3,405.73c-.94.45-1.49.7-2.01.98-3.9,2.1-8,3.68-12.3,4.76-1.31.33-2.61.68-3.9,1.04-6.92,1.93-13.98,3.12-21.13,3.74-3.66.32-7.33.51-11,.63-4.28.13-8.58.26-12.86.13-7.17-.22-14.29-.98-21.36-2.25-4.95-.89-9.82-2.06-14.54-3.82-4.2-1.56-8.3-3.32-11.85-6.15-.1-.08-.3-.05-.48-.07,0,.26-.05.45-.01.62.49,2.23,1.29,4.34,2.59,6.24,1.71,2.5,3.74,4.69,6.19,6.48,2.18,1.6,4.51,2.94,6.98,4.04,7.34,3.28,15.04,5.14,23.04,5.8,9.07.75,18.12.26,27.16-.52,3.17-.28,6.34-.64,9.5-.96,4.81-.49,9.63-.96,14.43-1.49,4.58-.5,8.8-1.94,12.65-4.57,4.13-2.83,6.78-6.66,8.23-11.38.28-.92.4-1.89.67-3.26ZM163.72,49.45c.97,1.54,1.83,2.94,2.72,4.33.54.84.9,1.73,1.04,2.72.07.45.1.94.53,1.34.49-.36.93-.68,1.36-1,.64-.47,1.25-.99,1.93-1.41,3.72-2.3,7.65-4.1,11.95-5.04,5.41-1.18,10.81-1.32,16.18.15,6.24,1.72,11.45,5.16,15.91,9.78,1.18,1.22,2.16,2.64,3.32,4.08.35.06.82.17,1.3.24,2.02.29,3.75-.3,5.17-1.77,1.2-1.25,2.16-2.67,2.66-4.34.19-.64.26-1.32.31-1.98.07-.96-.22-1.81-.92-2.5-1.01-.98-1.93-2.06-3-2.97-3.95-3.4-8.05-6.6-12.44-9.41-5.4-3.46-11.15-6.12-17.46-7.45-3.67-.77-7.36-1.26-11.12-.91-1.49.14-2.89.5-4.18,1.26-.94.55-1.59,1.34-1.96,2.35-.32.86-.57,1.74-.2,2.67,1.5.56,3.32.49,4.22,2.39-.44.03-.74.11-1,.05-.54-.11-1.05-.33-1.59-.46-2.79-.68-5.59-.7-8.33.23-2.84.96-4.79,2.87-5.76,5.74-.22.64-.42,1.28-.64,1.93ZM93.25,166.08c-.07-.46-.07-.69-.15-.9-2.01-5.69-2.85-11.65-3.89-17.55-.94-5.37-1.31-10.82-1.43-16.27-.24-10.77.71-21.4,3.57-31.83,1.15-4.19,2.2-8.41,3.56-12.53.08-.25.1-.53.18-.94-.39.18-.62.26-.82.39-2.16,1.43-4.59,1.96-7.12,2.18-.92.08-1.84.06-2.71-.33-.32-.14-.65-.25-.98-.37-.2.29-.35.49-.48.69-1.89,2.95-3.41,6.09-4.62,9.37-2.07,5.58-3.63,11.32-4.41,17.22-.81,6.12-.51,12.24.71,18.28,1.24,6.15,3.26,12.03,6.36,17.53,2.94,5.22,6.63,9.84,10.93,13.99.35.33.74.62,1.3,1.08ZM191.38,82.13c-3.09.04-5.9.91-8.53,2.53-1.28.78-2.18,1.8-2.64,3.17-1.06,3.19-2.17,6.39-2.6,9.74-.35,2.73-.67,5.48-.79,8.23-.18,4.17.06,8.33.99,12.42.41,1.8,1.01,3.53,1.83,5.19.73,1.48,1.84,2.57,3.3,3.34.85.45,1.77.64,2.67.4,2.09-.58,3.77-1.63,4.43-3.92.94-3.29,1.91-6.58,3.01-9.83,1.3-3.82,2.76-7.59,4.16-11.38.19-.52.44-1.01.68-1.51,1.18-2.49,2.35-4.98,3.56-7.45.32-.65.34-1.26.17-1.95-.62-2.44-1.85-4.54-3.57-6.33-.62-.65-1.43-1.17-2.23-1.57-1.38-.69-2.9-.95-4.42-1.08ZM125.01,406.73c-1.25.13-2.34.32-3.43.33-4.35.07-8.7-.02-13.03-.49-4.2-.45-8.38-1.03-12.56-1.63-5.09-.73-10.13-1.72-15.12-3.02-6.85-1.78-13.39-4.31-19.5-7.9-2.06-1.21-4.1-2.46-5.77-4.21-.12-.12-.31-.17-.5-.28-.03.21-.1.4-.07.56.49,2.36,1.28,4.59,2.65,6.6,1.7,2.5,3.72,4.71,6.11,6.56,4.84,3.76,10.22,6.46,16.11,8.2,7.32,2.16,14.78,3.4,22.4,3.76,8.16.39,16.29.19,24.32-1.45.23-.05.44-.16.74-.27-.45-1.13-.92-2.18-1.3-3.27-.38-1.09-.67-2.22-1.05-3.5ZM202.88,26.57c-.68-.06-1.11-.06-1.51-.14-1.4-.28-2.81-.22-4.21-.03-2.74.37-5,1.58-6.47,4.02-.13.22-.15.52-.23.83.37.05.61.09.85.13,4.99.68,9.86,1.86,14.52,3.82,4.72,1.99,9,4.71,13.06,7.78,1.66,1.26,3.27,2.58,4.91,3.86,1,.77,3.03.7,3.92-.17.25-.24.45-.6.52-.94.1-.47.11-.98.06-1.46-.17-1.7-.86-3.18-2.01-4.44-1-1.09-2.11-2.04-3.41-2.76-.28-.15-.54-.3-.44-.78,1.41-.35,2.49.66,3.68,1.04.52-.15.99-.29,1.46-.42,1.22-.33,2.02-1.14,2.45-2.29.21-.56.3-1.19.32-1.79.09-2.31-.76-4.31-2.16-6.1-1.68-2.15-3.76-3.85-6.16-5.14-3.62-1.94-7.49-3-11.58-3.23-2.22-.12-4.4.12-6.52.82-1.06.35-2.03.86-2.81,1.68-1.07,1.12-1.52,2.44-1.44,3.94q2.54.79,3.2,1.78ZM125.16,100.8c0,1.59-.07,3.19.04,4.77.11,1.64.33,3.29.64,4.91.36,1.83,1.2,3.48,2.46,4.86,1.13,1.24,2.53,2.01,4.26,1.51,2.24-.65,3.9-2,4.53-4.36.17-.65.31-1.31.47-1.96,1.16-4.7,2.56-9.32,4.31-13.83,1.48-3.82,2.95-7.65,4.9-11.27.44-.81.47-1.63.31-2.49-.57-3.03-3.03-5.62-6.07-6.19-2.57-.48-5.12-.31-7.58.66-.76.3-1.41.73-1.9,1.38-1.96,2.54-3.55,5.27-4.35,8.42-1.14,4.47-1.89,8.98-2.02,13.6ZM154.74,233.99l.19.18c.38-.47.74-.95,1.14-1.41,1.13-1.28,2.19-2.65,3.44-3.8,1.93-1.78,3.96-3.46,6.01-5.1,3.83-3.06,8.02-5.6,12.07-8.35,2.54-1.72,4.93-3.6,7.18-5.7,1.95-1.82,3.52-3.91,4.71-6.28.6-1.19,1-2.49,1.43-3.76.28-.8.12-1.52-.49-2.19-.61-.67-1.09-1.47-1.64-2.2-.21-.27-.45-.52-.69-.79-.39.29-.68.51-.97.73-1.97,1.46-4.05,2.74-6.35,3.62-1.08.42-2.17.82-3.28,1.17-.61.19-1.1.49-1.54.94-2.63,2.73-5.36,5.37-7.78,8.3-3.12,3.79-5.97,7.75-8.19,12.14-1.97,3.88-3.62,7.89-5.13,11.96-.06.16-.07.35-.1.52ZM145.53,194.44c-.78.66-1.18,1.56-1.55,2.45-1.35,3.26-2.02,6.67-2.06,10.2-.02,1.97.34,3.89.99,5.76.92,2.63,2.19,5.06,4.05,7.14,1.27,1.41,2.62,2.74,3.99,4.05,1.06,1.02,2.2,1.95,3.3,2.92.26.22.52.44.87.75.68-1.58,1.3-3.02,1.92-4.44-1.87-2.11-2.89-4.52-3.58-7.08-.54-2.01-1.06-4.02-1.52-6.05-.81-3.61-1.1-7.25-.72-10.94.04-.41.03-.83.04-1.24-1.94-1.18-3.81-2.32-5.74-3.5ZM48.58,160.8c-.06-.21-.07-.39-.16-.53-.8-1.25-1.24-2.64-1.58-4.08-.79-3.3-1.14-6.62-.67-10,.06-.41.06-.88-.09-1.25-.64-1.7-1.85-2.49-3.7-2.38-.66.04-1.35.16-1.95.43-1.96.88-3.48,2.24-4.32,4.27-.83,2-1.35,4.05-1.34,6.23.02,3.35.8,6.54,2.07,9.61.18.44.48.83.73,1.26,1.83-.76,3.53-1.59,5.32-2.17,1.83-.59,3.75-.93,5.68-1.39ZM158.54,220.18c2.71-5.06,6.19-9.52,9.98-13.9-1.35-.75-2.78-.82-4.08-1.29-1.38-.5-2.81-.87-4.17-1.41-1.3-.52-2.58-1.13-3.81-1.79-1.27-.69-2.48-1.49-3.73-2.25-.46,1.66-.1,5.46.84,9.23,1.3,5.17,3.18,9.53,4.97,11.42Z"/>
  </g>
</svg>